/* XPM */
static char *result[] = {
/* columns rows colors chars-per-pixel */
"64 64 187 2 ",
"   c #040101",
".  c #080A0A",
"X  c #060F10",
"o  c #071111",
"O  c #0A1112",
"+  c #131C1C",
"@  c #121717",
"#  c #3F2D26",
"$  c #460E06",
"%  c #630B01",
"&  c #6E0B00",
"*  c #6C1A0D",
"=  c #651409",
"-  c #7B1C0D",
";  c #731507",
":  c #6D2116",
">  c #6E251A",
",  c #7D2112",
"<  c #712519",
"1  c #6E2F25",
"2  c #763928",
"3  c #713525",
"4  c #6E362B",
"5  c #6F4837",
"6  c #754E3C",
"7  c #70423B",
"8  c #3B4443",
"9  c #364140",
"0  c #585E5D",
"q  c #785643",
"w  c #6C574C",
"e  c #596363",
"r  c #576161",
"t  c #831B0B",
"y  c #821F10",
"u  c #8C2212",
"i  c #802111",
"p  c #932414",
"a  c #9B2513",
"s  c #972A18",
"d  c #AC210F",
"f  c #AB2916",
"g  c #A62917",
"h  c #B12512",
"j  c #B32D1A",
"k  c #B82B17",
"l  c #B4321E",
"z  c #BE301C",
"x  c #8D3F34",
"c  c #833928",
"v  c #BC3925",
"b  c #C62D18",
"n  c #C8321E",
"m  c #D9321C",
"M  c #D72F19",
"N  c #C73721",
"B  c #C93621",
"V  c #D33721",
"C  c #DF3821",
"Z  c #E53B24",
"A  c #8F4035",
"S  c #994A38",
"D  c #904338",
"F  c #8D503E",
"G  c #AC523F",
"H  c #B44D3B",
"J  c #DB422C",
"K  c #D4412B",
"L  c #C64E3B",
"P  c #C84532",
"I  c #DC4F3A",
"U  c #C7513F",
"Y  c #E64129",
"T  c #E54E37",
"R  c #E44F38",
"E  c #F24D34",
"W  c #E55139",
"Q  c #ED543C",
"!  c #FD593F",
"~  c #F6553C",
"^  c #9B4F42",
"/  c #985442",
"(  c #A85C50",
")  c #A75B4F",
"_  c #926A56",
"`  c #946E5A",
"'  c #99725E",
"]  c #97715F",
"[  c #AB765D",
"{  c #9F7F6A",
"}  c #9C7864",
"|  c #A97D66",
" . c #BE7462",
".. c #AB7E77",
"X. c #A96A60",
"o. c #C55342",
"O. c #CB5A49",
"+. c #FE5D43",
"@. c #DD6150",
"#. c #DD684E",
"$. c #E36755",
"%. c #EF735F",
"&. c #F46C56",
"*. c #C67D6B",
"=. c #D37A62",
"-. c #EE7C6C",
";. c #F77C69",
":. c #9F836E",
">. c #A3826B",
",. c #AB826D",
"<. c #AB8771",
"1. c #AD8973",
"2. c #A78872",
"3. c #B48D74",
"4. c #B88F76",
"5. c #BB957B",
"6. c #BE987D",
"7. c #B79279",
"8. c #C19A7F",
"9. c #C3957B",
"0. c #F68573",
"q. c #F88674",
"w. c #F98977",
"e. c #BD9B81",
"r. c #C49F84",
"t. c #CC9E83",
"y. c #EA9183",
"u. c #F6988A",
"i. c #F49F91",
"p. c #C5A187",
"a. c #CDA285",
"s. c #CCA589",
"d. c #CAAC8D",
"f. c #D0A689",
"g. c #D6AA8C",
"h. c #D9AD8D",
"j. c #CCAE90",
"k. c #D7AE91",
"l. c #DBAF93",
"z. c #CDB193",
"x. c #CDBA9C",
"c. c #D2B495",
"v. c #DDB194",
"b. c #D1B799",
"n. c #FAA699",
"m. c #E0B696",
"M. c #E1B996",
"N. c #E2B798",
"B. c #E5BA9A",
"V. c #E9BE9E",
"C. c #E9B39D",
"Z. c #E9B9A3",
"A. c #F0BFA3",
"S. c #DFC3A4",
"D. c #E4C5A2",
"F. c #E2C7A8",
"G. c #E5CBAB",
"H. c #EEC3A4",
"J. c #F1C5A6",
"K. c #F3CBA7",
"L. c #F3C7A8",
"P. c #F4CBAA",
"I. c #E6D1AE",
"U. c #E8D1AE",
"Y. c #F5D2AD",
"T. c #F8D4AB",
"R. c #EDD6B3",
"E. c #F6D5B1",
"W. c #F8D5B1",
"Q. c #F7DAB3",
"!. c #F8DEB6",
"~. c #F9DFB8",
"^. c #F7DAB8",
"/. c #EEE0BD",
"(. c #F9E0B7",
"). c #F4E1BC",
"_. c #F9E2BA",
"`. c #F4E5C1",
"'. c #F9E6C0",
"]. c #FAEBC6",
"[. c #FBEDCA",
"{. c #FCF4CC",
"}. c #FBF1D5",
"|. c #FEFBD3",
" X c #FEFDDA",
".X c #FBF4E3",
"XX c None",
/* pixels */
"XXXXXXXXXXXXXXXXXXXXXXXXXXXXXXXXXXXXXXXXXXXXXXXXXXXXXXXXXXXXXXXXXXXXXXXXXXXXXXXXXXXXXXXXXXXXXXXXXXXXXXXXXXXXXXXXXXXXXXXXXXXXXXXX",
"XXXXXXXXXXXXXXXXXXXXXXXXXXXXXXXXXXXXXXXXXXXXXXXXXXXXXXXXXXXXXXXXXXXXXXXXXXXXXXXXXXXXXXXXXXXXXXXXXXXXXXXXXXXXXXXXXXXXXXXXXXXXXXXX",
"XXXXXXXXXXXXXXXXXXXXXXXXXXXXXXXXXXXXXXXXXXXXXXXXXXXXXXXXXXXXXXXXXXXXXXXXXXXXXXXXXXXXXXXXXXXXXXXXXXXXXXXXXXXXXXXXXXXXXXXXXXXXXXXX",
"XXXXXXXXXXXXXXXXXXXXXXXXXXXXXXXXXXXXXXXXXXXXXXXXXXXXXXXXXXXXXXXXXXXXXXXXXXXXXXXXXXXXXXXXXXXXXXXXXXXXXXXXXXXXXXXXXXXXXXXXXXXXXXXX",
"XXXXXXXXXXXXXXXXXXXXXXXXXXXXXXXXXXXXXXXXXXXXXXXXXXXXXXXXXXXX} x.x.j.XXXXXXXXXXXXXXXXXXXXXXXXXXXXXXXXXXXXXXXXXXXXXXXXXXXXXXXXXXXX",
"XXXXXXXXXXXXXXXXXXXXXXXXXXXXXXXXXXXXXXXXXXXXXXXXXX:.x.5.r.5.b. X|._.6.j.d.d.XXXXXXXXXXXXXXXXXXXXXXXXXXXXXXXXXXXXXXXXXXXXXXXXXXXX",
"XXXXXXXXXXXXXXXXXXXXXXXXXXXXXXXXXXXXXXXXXXXXXXXXs.d.R.Z.L.H.'.G.^.Q.V._.|.{.z.XXXXXXXXXXXXXXXXXXXXXXXXXXXXXXXXXXXXXXXXXXXXXXXXXX",
"XXXXXXXXXXXXXXXXXXXXXXXXXXXXXXXXXXXXXXXXXXXXXX| v.B.t.P.L.L.l.t.v.E.E.].]. X`.| XXXXXXXXXXXXXXXXXXXXXXXXXXXXXXXXXXXXXXXXXXXXXXXX",
"XXXXXXXXXXXXXXXXXXXXXXXXXXXXXXXXXXXXXXXXXXXXXX5.v.v.B.m.J.m.m.B.v.v._.|.].{.}.z.XXXXXXXXXXXXXXXXXXXXXXXXXXXXXXXXXXXXXXXXXXXXXXXX",
"XXXXXXXXXXXXXXXXXXXXXXXXXXXXXXXXXXXXXXXX:.3.5.m.P.P.K.v.m.m.Q._._.V.B._.|.{.].{.b.1.v.e.XXXXXXXXXXXXXXXXXXXXXXXXXXXXXXXXXXXXXXXX",
"XXXXXXXXXXXXXXXXXXXXXXXXXXXXXXXXXXXX{ 7.5.N.h.K.T.Q.(.E.f.L.].|.|._.d.T.'.|.].].c.d.p.h.k.5.XXXXXXXXXXXXXXXXXXXXXXXXXXXXXXXXXXXX",
"XXXXXXXXXXXXXXXXXXXXXXXXXXXXXXXXXX5.5.B.V.N.N.Y._.{.|.].D.B.[.|.|.].V.v.E.'.|.(.z.(.z.E.W.k.g.XXXXXXXXXXXXXXXXXXXXXXXXXXXXXXXXXX",
"XXXXXXXXXXXXXXXXXXXXXXXXXXXXXXXX5.h.V.K.K.f.J.K.].|.|.{._.f._.{.{.]._.B.v.Q.'.]._.(._._._.^.W.h.XXXXXXXXXXXXXXXXXXXXXXXXXXXXXXXX",
"XXXXXXXXXXXXXXXXXXXXXXXXXXXXXX5.h.B.K.K.K.B.K.T._.{.{.].!.D.m.Y._._._.(.D.T.(.).).]._.'.'.(._.W.k.XXXXXXXXXXXXXXXXXXXXXXXXXXXXXX",
"XXXXXXXXXXXXXXXXXXXXXXXXXXXX5.h.v.K.K.K.T.T.T.K._._._._._._.D.Y._._._._._.(._.[.[.{.[.[.[._._._.W.k.XXXXXXXXXXXXXXXXXXXXXXXXXXXX",
"XXXXXXXXXXXXXXXXXXXXXXXXXX>.h.B.K.K.T.T.K.T.T.T._._._._.).(._.(._._.(.(._.].{.[.[.].].[.[.[._.!._.J.6.XXXXXXXXXXXXXXXXXXXXXXXXXX",
"XXXXXXXXXXXXXXXXXXXXXXXXXX3.g.K.K.Y.T.Y.T.Y.T.T.~.~.~._._._.~.~.~.~.!.`.[.[.[.[.[.}.}.}.}.[.'.!.~.Y.l.XXXXXXXXXXXXXXXXXXXXXXXXXX",
"XXXXXXXXXXXXXXXXXXXXXXXX>.a.B.J.Y.Y.T.T.Y.T.Q.Q.~.~.~._._._.(.(.!.!.'.[.[.[.[.[.}..X.X.X.X}.[._._._.J.5.XXXXXXXXXXXXXXXXXXXXXXXX",
"XXXXXXXXXXXXXXXXXXXXXXXX1.h.K.P.T.Q.Q.Q.Q.Q.(.!.~.~.~.~._.~.!.~.'.'.[.[.[.[.'.}..X.X.X.X.X.X[.~.(.(.P.v.XXXXXXXXXXXXXXXXXXXXXXXX",
"XXXXXXXXXXXXXXXXXXXXXX>.6.h.H.E.Q.Q.Q.Q.(.(.(.(._._._.~.!.~.'.'.[.[.[.[.[.}..X.X.X.X.X.X.X.X[._.(._.E.H.r.XXXXXXXXXXXXXXXXXXXXXX",
"XXXXXXXXXXXXXXXXXXXXXX>.p.g.J.W.Q.Q.!.~.(.~._._.'._.'._.'.'.[.[.[.[.].}.}..X.X.X.X.X.X.X.X.X[.)._.!.!.H.6.XXXXXXXXXXXXXXXXXXXXXX",
"XXXXXXXXXXXXXXXXXXXXXX3.h.B.J.Q.Q.!.!._.(._._.'.'.'.'.'.[.[.[.[.[.}.}..X.X.X.X.X.X.X.X.X.X.X[.[._.(._.H.a.XXXXXXXXXXXXXXXXXXXXXX",
"XXXXXXXXXXXXXXXXXXXX>.9.g.J.L.Q.!.!.~.~.~._.].].[.].[.[.[.[.[.].}..X.X.X}..X.X.X.X.X.X.X.X.X[.[._.!.!.L.h.6.XXXXXXXXXXXXXXXXXXXX",
"XXXXXXXXXXXXXXXXXXXX>.5.h.J.K.Q.!.!.~._._.'.].].[.[.[.[.[.[.[.}..X.X.X.X.X.X.X.X.X.X.X.X.X}.[.[.~.(.!.H.g.6.XXXXXXXXXXXXXXXXXXXX",
"XXXXXXXXXXXXXXXXXXXX>.6.h.J.L.Q.Q.!._._._.].[.].[.[.[.[.[.].[..X.X.X.X.X.X.X.X.X.X.X.X.X.X[.[.'.!._.(.J.h.6.XXXXXXXXXXXXXXXXXXXX",
"XXXXXXXXXXXXXXXXXXXX>.5.h.J.J.Y.!.!.!._._.[.[.[.[.[.].[.[.[.[..X.X.X.X.X.X.X.X.X.X.X.X.X}.[.[.!.!._.!.J.g.6.XXXXXXXXXXXXXXXXXXXX",
"XXXXXXXXXXXXXXXXXXXX>.5.g.B.J.J.!.!.~._._.[.[.[.[.[.[.[.[.[.[.}..X.X.X.X.X.X.X.X.X}.}.}.[.[.'.~.(._._.J.g.6.XXXXXXXXXXXXXXXXXXXX",
"XXXXXXXXXXXXXXXXXXXX>.8.g.g.J.K.Y._.!.!.!.'.[.[.[.].[.[.[.[.[.[.}.}.}.}.}.}.}.}.}.[.[.[.[.`.~.~.~.!.Y.J.h.8.XXXXXXXXXXXXXXXXXXXX",
"XXXXXXXXXXXXXXXXXXXXXX3.p.h.J.J.J.Y.~.~.~.~.'.[.[.[.[.[.[.[.[.[.[.[.[.[.[.[.[.[.[.[.[.[.'.~.~.~._._.J.N.a.XXXXXXXXXXXXXXXXXXXXXX",
"XXXXXXXXXXXXXXXXXXXXXX>.5.g.B.J.L.J.Y._._.~.!.'.'.[.[.[.[.[.[.[.[.[.[.[.[.[.[.[.[.[.]._.!.~.~.~.(.Y.J.g.6.XXXXXXXXXXXXXXXXXXXXXX",
"XXXXXXXXXXXXXXXXXXXXXX>.8.h.g.J.J.J.J.P.Y._._.!.~.'.'.'.'.'.[.[.[.[.[.[.[.[.'.'.]._.!.!.!._.~._.Y.J.J.v.6.XXXXXXXXXXXXXXXXXXXXXX",
"XXXXXXXXXXXXXXXXXXXXXXXX,.p.g.B.L.J.J.A.H.P.E._._._.~.~.~.!.'.'.'.'.'.'.'.'.^.^.(.(._.(._._.E.Y.J.J.m.5.XXXXXXXXXXXXXXXXXXXXXXXX",
"XXXXXXXXXXXXXXXXXXXXXXXX] 6.h.h.B.L.J.J.J.A.J.P.Y.E.E._._._._._.~.~._._.!._._.E.E.Y.E.P.E.Y.J.J.J.B.h.] XXXXXXXXXXXXXXXXXXXXXXXX",
"XXXXXXXXXXXXXXXXXXXXXXXXXX<.a.k.g.B.J.J.J.J.J.J.A.A.A.P.Y.Y.Y.P.E.P.P.E.E.Y.Y.H.J.J.J.J.J.J.J.J.B.h.4.XXXXXXXXXXXXXXXXXXXXXXXXXX",
"XXXXXXXXXXXXXXXXXXXXXXXXXXXX,.a.l.g.B.J.L.J.J.J.J.J.J.A.A.H.J.A.H.H.J.J.J.J.J.J.J.L.J.J.J.L.J.B.h.4.XXXXXXXXXXXXXXXXXXXXXXXXXXXX",
"XXXXXXXXXXXXXXXXXXXXXXXXXXXXXX,.a.f.h.N.B.J.L.L.J.J.J.J.J.J.J.J.J.J.J.J.J.J.J.J.J.J.J.L.J.B.H.h.4.XXXXXXXXXXXXXXXXXXXXXXXXXXXXXX",
"XXXXXXXXXXXXXXXXXXXXXXXXXXXXXXXX>.,.f.h.h.B.B.C.J.L.J.L.K.J.L.L.L.L.L.J.J.L.L.L.L.L.L.V.Z.a.3.7.XXXXXXXXXXXXXXXXXXXXXXXXXXXXXXXX",
"XXXXXXXXXXXXXXXXXXXXXXXXXXXXXXXXXX] ,.4.s.a.t.a.B.B.B.B.B.B.B.B.V.B.B.B.B.B.V.B.v.v.v.a.3.,.XXXXXXXXXXXXXXXXXXXXXXXXXXXXXXXXXXXX",
"XXXXXXXXXXXXXXXXXXXXXXXXXXXXXXXXXXXXXX` <.| <.3.t.a.a.a.a.a.a.a.a.a.s.a.a.a.a.t.2.| ,.,.XXXXXXXXXXXXXXXXXXXXXXXXXXXXXXXXXXXXXXXX",
"XXXXXXXXXXXXXXXXXXXXXXXXXXXXXXXXXXXXXXXXXXXXH ^ <.>.| >.>.>.>.>.>.>.>.>.>.>.| ,.G XXXXXXXXXXXXXXXXXXXXXXXXXXXXXXXXXXXXXXXXXXXXXX",
"XXXXXXXXXXXXXXXXXXXXXXXXXXXXXXXXXXXXXXXXXXXXb b S *.*. . . . . . . . . .*.=.*.S b XXXXXXXXXXXXXXXXXXXXXXXXXXXXXXXXXXXXXXXXXXXXXX",
"XXXXXXXXXXXXXXXXXXXXXXXXXXXXXXXXXXXXXXXXW K n z a L o.0.q.0.q.0.q.q.q.w.;.( H p b Z XXXXXXXXXXXXXXXXXXXXXXXXXXXXXXXXXXXXXXXXXXXX",
"XXXXXXXXXXXXXXXXXXXXXXXXXXXXXXXXXXXXXXXX-.-.J z p t f L U U U U U U L L L l l j g B XXXXXXXXXXXXXXXXXXXXXXXXXXXXXXXXXXXXXXXXXXXX",
"XXXXXXXXXXXXXXXXXXXXXXXXXXXXXXXXXXXXn.C.Z.Z.=.K a j V N N N N N N N P O.o.+.Q Y u j Y XXXXXXXXXXXXXXXXXXXXXXXXXXXXXXXXXXXXXXXXXX",
"XXXXXXXXXXXXXXXXXXXXXXXXXXXXXXXXXXXXC.).`./.b.=.s m V Q Q Q Q Q Q Q ;.i.u.R T T j g Z XXXXXXXXXXXXXXXXXXXXXXXXXXXXXXXXXXXXXXXXXX",
"XXXXXXXXXXXXXXXXXXXXXXXXXXXXXXXXXXXXI.}.}.}.I.6.l n B T R R W W R W $.y.0.@.T T V s #.XXXXXXXXXXXXXXXXXXXXXXXXXXXXXXXXXXXXXXXXXX",
"XXXXXXXXXXXXXXXXXXXXXXXXXXXXXXXXXXXXU.}.|.}.G.6.Z M m E E E E E E E &.u.u.Q E E M g XXXXXXXXXXXXXXXXXXXXXXXXXXXXXXXXXXXXXXXXXXXX",
"XXXXXXXXXXXXXXXXXXXXXXXXXXXXXXXXXXXXc.`.].].G.3.D A D ^ ) ) ( ( ( ( X.<...^ ^ ^ x 4 1.XXXXXXXXXXXXXXXXXXXXXXXXXXXXXXXXXXXXXXXXXX",
"XXXXXXXXXXXXXXXXXXXXXXXXXXXXXXXXXXXXXXe.6.e.d.w 8 8 8 8 r e e e e e e 0 0 8 8 8 9 + XXXXXXXXXXXXXXXXXXXXXXXXXXXXXXXXXXXXXXXXXXXX",
"XXXXXXXXXXXXXXXXXXXXXXXXXXXXXXXXXXXXXXXXXXXX# o O X o X + + + + + + @ @ O X o o O   XXXXXXXXXXXXXXXXXXXXXXXXXXXXXXXXXXXXXXXXXXXX",
"XXXXXXXXXXXXXXXXXXXXXXXXXXXXXXXXXXXXXXXXXXXX  $ $ = = < : : : : < : 3 7 7 > : = $ . XXXXXXXXXXXXXXXXXXXXXXXXXXXXXXXXXXXXXXXXXXXX",
"XXXXXXXXXXXXXXXXXXXXXXXXXXXXXXXXXXXXXXXXXXXXXXg g Z Z E ! ! ! +.! ! 0.n.n.+.! n g XXXXXXXXXXXXXXXXXXXXXXXXXXXXXXXXXXXXXXXXXXXXXX",
"XXXXXXXXXXXXXXXXXXXXXXXXXXXXXXXXXXXXXXXXXXXXXXu p l j n C J J J J J I @.@.v v u u XXXXXXXXXXXXXXXXXXXXXXXXXXXXXXXXXXXXXXXXXXXXXX",
"XXXXXXXXXXXXXXXXXXXXXXXXXXXXXXXXXXXXXXXXXXXXXXp - ; , z j h h f f h h h h - - i XXXXXXXXXXXXXXXXXXXXXXXXXXXXXXXXXXXXXXXXXXXXXXXX",
"XXXXXXXXXXXXXXXXXXXXXXXXXXXXXXXXXXXXXXXXXXXXXXXX3 F % & ; ^ c u u , , , , * * * XXXXXXXXXXXXXXXXXXXXXXXXXXXXXXXXXXXXXXXXXXXXXXXX",
"XXXXXXXXXXXXXXXXXXXXXXXXXXXXXXXXXXXXXXXXXXXXXXXXq r.| [ | r.q XXXX* % % % % & * XXXXXXXXXXXXXXXXXXXXXXXXXXXXXXXXXXXXXXXXXXXXXXXX",
"XXXXXXXXXXXXXXXXXXXXXXXXXXXXXXXXXXXXXXXXXXXXXXXXXX] S.G.F.' XXXXXX* F [ [ [ / * XXXXXXXXXXXXXXXXXXXXXXXXXXXXXXXXXXXXXXXXXXXXXXXX",
"XXXXXXXXXXXXXXXXXXXXXXXXXXXXXXXXXXXXXXXXXXXXXXXXXXXX_ _ _ XXXXXXXX2 p.F.G.F.a.2 XXXXXXXXXXXXXXXXXXXXXXXXXXXXXXXXXXXXXXXXXXXXXXXX",
"XXXXXXXXXXXXXXXXXXXXXXXXXXXXXXXXXXXXXXXXXXXXXXXXXXXXXXXXXXXXXXXXXXq ` _ _ ` ` q XXXXXXXXXXXXXXXXXXXXXXXXXXXXXXXXXXXXXXXXXXXXXXXX",
"XXXXXXXXXXXXXXXXXXXXXXXXXXXXXXXXXXXXXXXXXXXXXXXXXXXXXXXXXXXXXXXXXX6 5 5 5 5 5 5 XXXXXXXXXXXXXXXXXXXXXXXXXXXXXXXXXXXXXXXXXXXXXXXX",
"XXXXXXXXXXXXXXXXXXXXXXXXXXXXXXXXXXXXXXXXXXXXXXXXXXXXXXXXXXXXXXXXXXXX6 6 6 6 6 XXXXXXXXXXXXXXXXXXXXXXXXXXXXXXXXXXXXXXXXXXXXXXXXXX",
"XXXXXXXXXXXXXXXXXXXXXXXXXXXXXXXXXXXXXXXXXXXXXXXXXXXXXXXXXXXXXXXXXXXXXXXXXXXXXXXXXXXXXXXXXXXXXXXXXXXXXXXXXXXXXXXXXXXXXXXXXXXXXXXX",
"XXXXXXXXXXXXXXXXXXXXXXXXXXXXXXXXXXXXXXXXXXXXXXXXXXXXXXXXXXXXXXXXXXXXXXXXXXXXXXXXXXXXXXXXXXXXXXXXXXXXXXXXXXXXXXXXXXXXXXXXXXXXXXXX",
"XXXXXXXXXXXXXXXXXXXXXXXXXXXXXXXXXXXXXXXXXXXXXXXXXXXXXXXXXXXXXXXXXXXXXXXXXXXXXXXXXXXXXXXXXXXXXXXXXXXXXXXXXXXXXXXXXXXXXXXXXXXXXXXX"
};
