/* XPM */
static char *result[] = {
/* columns rows colors chars-per-pixel */
"64 64 193 2 ",
"   c #020202",
".  c #050F0F",
"X  c #060F10",
"o  c #071111",
"O  c #0B1111",
"+  c #131B1C",
"@  c #121717",
"#  c #1A201F",
"$  c #450E06",
"%  c #511B11",
"&  c #650C03",
"*  c #6C1B0D",
"=  c #681408",
"-  c #7C1E0F",
";  c #731609",
":  c #7C1F10",
">  c #6D2116",
",  c #6E251A",
"<  c #772315",
"1  c #6E2F25",
"2  c #6C342A",
"3  c #753626",
"4  c #73483B",
"5  c #78503E",
"6  c #77503D",
"7  c #3A4343",
"8  c #364040",
"9  c #585E5D",
"0  c #795845",
"q  c #745240",
"w  c #596363",
"e  c #576161",
"r  c #871E0D",
"t  c #9B1E0C",
"y  c #A71705",
"u  c #8D2313",
"i  c #932313",
"p  c #9E2715",
"a  c #A42816",
"s  c #A92815",
"d  c #B22D1A",
"f  c #B72D19",
"g  c #A2301C",
"h  c #B7311D",
"j  c #863928",
"k  c #C62E19",
"l  c #C82C18",
"z  c #C3331E",
"x  c #CD341F",
"c  c #DC331C",
"v  c #D2341F",
"b  c #C73721",
"n  c #CA3621",
"m  c #C03E29",
"M  c #D33622",
"N  c #D53923",
"B  c #E73B24",
"V  c #8E4136",
"C  c #994B38",
"Z  c #904236",
"A  c #91523F",
"S  c #9A533F",
"D  c #A64F3C",
"F  c #AD523F",
"G  c #BB4B3A",
"H  c #DB422C",
"J  c #C64E3B",
"K  c #C84532",
"L  c #C7513F",
"P  c #DD513D",
"I  c #E64129",
"U  c #EA432B",
"Y  c #E44E37",
"T  c #E44F38",
"R  c #F24D34",
"E  c #E5513A",
"W  c #EC543C",
"Q  c #FD593F",
"!  c #F3543B",
"~  c #9B4F42",
"^  c #9C5145",
"/  c #BD5540",
"(  c #A85C50",
")  c #A75B4F",
"_  c #8C634F",
"`  c #8A6351",
"'  c #926A55",
"]  c #956E5B",
"[  c #986F5C",
"{  c #97705C",
"}  c #9A735F",
"|  c #AA6C55",
" . c #9B7661",
".. c #9E7C67",
"X. c #AE7A61",
"o. c #A17F69",
"O. c #A87F69",
"+. c #BE7462",
"@. c #B97B62",
"#. c #AB7E77",
"$. c #A96A60",
"%. c #C55342",
"&. c #CB5A49",
"*. c #E85B44",
"=. c #FE5D43",
"-. c #D4765E",
";. c #E36755",
":. c #EF735F",
">. c #F46C56",
",. c #C67D6A",
"<. c #EC7261",
"1. c #FE7B65",
"2. c #A3826C",
"3. c #AB826D",
"4. c #A68771",
"5. c #AE8670",
"6. c #AC8972",
"7. c #B38D74",
"8. c #B88E76",
"9. c #BC957B",
"0. c #BE987E",
"q. c #B79279",
"w. c #C19A7F",
"e. c #E58F72",
"r. c #F68573",
"t. c #F88674",
"y. c #F98977",
"u. c #E48C6F",
"i. c #BE9C82",
"p. c #C59E84",
"a. c #CB9D82",
"s. c #DA9A88",
"d. c #EA9487",
"f. c #F6988A",
"g. c #F29E92",
"h. c #C5A187",
"j. c #CDA285",
"k. c #CFA488",
"l. c #CAAC8D",
"z. c #D0A689",
"x. c #D5AA8C",
"c. c #D9AD8E",
"v. c #D7AD91",
"b. c #DBAF92",
"n. c #CDB294",
"m. c #CDBA9C",
"M. c #DCB194",
"N. c #D2B295",
"B. c #ECA498",
"V. c #FFA99A",
"C. c #E1B696",
"Z. c #E1B896",
"A. c #E1B698",
"S. c #E5BA9A",
"D. c #EABD9D",
"F. c #F1ACA1",
"G. c #F0BFA3",
"H. c #DEC4A5",
"J. c #D6C3A4",
"K. c #E4C4A2",
"L. c #E3CAA9",
"P. c #EEC2A4",
"I. c #F1C5A6",
"U. c #F3CAA6",
"Y. c #F3C7A8",
"T. c #F4CBAA",
"R. c #FACFAF",
"E. c #EAD2AF",
"W. c #F5D2AC",
"Q. c #F8D6AD",
"!. c #F5C9B3",
"~. c #E9D6B3",
"^. c #F5D5B2",
"/. c #F8D5B1",
"(. c #F7DAB3",
"). c #F8DEB6",
"_. c #F8DFB8",
"`. c #F9E0B7",
"'. c #F9E2BA",
"]. c #F6E6C2",
"[. c #F9E6C0",
"{. c #FBEBC5",
"}. c #FBEDCA",
"|. c #F7E9C6",
" X c #FDF4CB",
".X c #FBF0D6",
"XX c #FDFBD4",
"oX c #FEFCD9",
"OX c #F9F3D9",
"+X c #FAEFD5",
"@X c #FBF4E3",
"#X c #FFFFE1",
"$X c None",
/* pixels */
"$X$X$X$X$X$X$X$X$X$X$X$X$X$X$X$X$X$X$X$X$X$X$X$X$X$X$X$X$X$X$X$X$X$X$X$X$X$X$X$X$X$X$X$X$X$X$X$X$X$X$X$X$X$X$X$X$X$X$X$X$X$X$X$X",
"$X$X$X$X$X$X$X$X$X$X$X$X$X$X$X$X$X$X$X$X$X$X$X$X$X$X$X$X$X$X$X$X$X$X$X$X$X$X$X$X$X$X$X$X$X$X$X$X$X$X$X$X$X$X$X$X$X$X$X$X$X$X$X$X",
"$X$X$X$X$X$X$X$X$X$X$X$X$X$X$X$X$X$X$X$X$X$X$X$X$X$X$X$X$X$X$X$X$X$X$X$X$X$X$X$X$X$X$X$X$X$X$X$X$X$X$X$X$X$X$X$X$X$X$X$X$X$X$X$X",
"$X$X$X$X$X$X$X$X$X$X$X$X$X$X$X$X$X$X$X$X$X$X$X$X$X$X$X$X$X$X$X$X$X$X$X$X$X$X$X$X$X$X$X$X$X$X$X$X$X$X$X$X$X$X$X$X$X$X$X$X$X$X$X$X",
"$X$X$X$X$X$X$X$X$X$X$X$X$X$X$X$X$X$X$X$X$X$X$X$X$X$X$X$X$X$X..m.n.l.2.$X$X$X$X$X$X$X$X$X$X$X$X$X$X$X$X$X$X$X$X$X$X$X$X$X$X$X$X$X",
"$X$X$X$X$X$X$X$X$X$X$X$X$X$X$X$X$X$X$X$X$X$X$X$X$X .m.n.h.9.n.oXoX'.0.l.n.l.$X$X$X$X$X$X$X$X$X$X$X$X$X$X$X$X$X$X$X$X$X$X$X$X$X$X",
"$X$X$X$X$X$X$X$X$X$X$X$X$X$X$X$X$X$X$X$X$X$X$X$Xh.J.oXoXR.M.).^.).^.M.).{. Xn.$X$X$X$X$X$X$X$X$X$X$X$X$X$X$X$X$X$X$X$X$X$X$X$X$X",
"$X$X$X$X$X$X$X$X$X$X$X$X$X$X$X$X$X$X$X$X$X$X$X..T.}.[.K.M.k.P.I.I.M.k.M.Q. X].o.$X$X$X$X$X$X$X$X$X$X$X$X$X$X$X$X$X$X$X$X$X$X$X$X",
"$X$X$X$X$X$X$X$X$X$X$X$X$X$X$X$X$X$X$X$X$X$X$Xv.P.I.D.M.C.A.M.U.M.C.Z.C.Z.(.{.n.$X$X$X$X$X$X$X$X$X$X$X$X$X$X$X$X$X$X$X$X$X$X$X$X",
"$X$X$X$X$X$X$X$X$X$X$X$X$X$X$X$X$X$X$X$Xo.q.9.S.I.A.M.U.T.T.M.C.A.(.'.'.S.S.[.{.m.6.M.h.$X$X$X$X$X$X$X$X$X$X$X$X$X$X$X$X$X$X$X$X",
"$X$X$X$X$X$X$X$X$X$X$X$X$X$X$X$X$X$X2.8.0.x.z.M.I.z.U.Q.).`.(.k.T.[.oXoX`.z.W.|.XXJ.h.z.v.9.$X$X$X$X$X$X$X$X$X$X$X$X$X$X$X$X$X$X",
"$X$X$X$X$X$X$X$X$X$X$X$X$X$X$X$X$X9.9.S.c.j.A.Y.A.Z.W.`. XXX{.K.A. XXXXX|.S.C.Q.|.XXm././.v.x.$X$X$X$X$X$X$X$X$X$X$X$X$X$X$X$X$X",
"$X$X$X$X$X$X$X$X$X$X$X$X$X$X$X$X9.c.D.I.C.Z.U.U.k.U.W.{.XXXX X'.z.`. X X}.`.S.M.S.(.}.`.`.)./.c.$X$X$X$X$X$X$X$X$X$X$X$X$X$X$X$X",
"$X$X$X$X$X$X$X$X$X$X$X$X$X$X$X9.c.S.U.I.U.U.U.Q.D.U.W.'. X X{.`.K.A.W.).'.[.).K.H.W.'.[.[.[.[./.v.$X$X$X$X$X$X$X$X$X$X$X$X$X$X$X",
"$X$X$X$X$X$X$X$X$X$X$X$X$X$X9.c.Z.U.I.I.P.U.W.U.Q.Q.W.`.[.'.`.`.'.K.W./.`.`.'.'.'.[.}.}.}.}.}.[./.v.$X$X$X$X$X$X$X$X$X$X$X$X$X$X",
"$X$X$X$X$X$X$X$X$X$X$X$X$X2.c.S.U.I.I.I.U.Q.Q.U.U.U.Q.(.[._.'.'.'.'.`.'.`.`.`.[.'. X}.}.}.|.}.}.`.I.0.$X$X$X$X$X$X$X$X$X$X$X$X$X",
"$X$X$X$X$X$X$X$X$X$X$X$X$X7.x.I.U.I.I.T.W.W.Q.W.W.W.Q.`.).`.'.'.'.)._._._._.[.}.}.}.}.}.+XOX.X.X[.W.M.$X$X$X$X$X$X$X$X$X$X$X$X$X",
"$X$X$X$X$X$X$X$X$X$X$X$X2.j.S.I.Y.I.I.Q.W.W.Q.Q.Q.(.(.`.`.`.'.`.'._._._._.[.}.}.}.}.}.+X@X@X@X@XOX`.P.0.$X$X$X$X$X$X$X$X$X$X$X$X",
"$X$X$X$X$X$X$X$X$X$X$X$X7.x.T.I.I.Y.T.Q.(.(.Q.(.).).)._._._._._.`._._.[.[.}.}.}.|.}.+X@X@X@X@X@X@X'.T.M.$X$X$X$X$X$X$X$X$X$X$X$X",
"$X$X$X$X$X$X$X$X$X$X$X2.9.x.I.I.I.I.Q.(.(.(.(.`._._._._.`.`.`._._.[.{.}.}.}.{.}..X.X@X@X@X@X@X@XOX'.^.Y.p.$X$X$X$X$X$X$X$X$X$X$X",
"$X$X$X$X$X$X$X$X$X$X$X2.h.c.I.I.I.I.Q.(.(.(.`.`._._.[.[.'.'.`.[.[.}.}.}.{.}..XOX@X@X@X@X@X@X@X@X@X].).P.0.$X$X$X$X$X$X$X$X$X$X$X",
"$X$X$X$X$X$X$X$X$X$X$X7.c.c.I.I.I.U.(.(.`.`.`.`._.[.[.[.{.|.|.}.}.}.}.}..X.X@X@X@X@X@X@X@X@X@X@X@X}.`.P.j.$X$X$X$X$X$X$X$X$X$X$X",
"$X$X$X$X$X$X$X$X$X$X2.w.x.c.I.I.I.T.(.(.).`.`.`.[.[.{.{.{.}.}.}.}.}.{..X@X@X@X@X@X@X@X@X@X@X@X@X@X}._.I.c.0.$X$X$X$X$X$X$X$X$X$X",
"$X$X$X$X$X$X$X$X$X$X2.9.x.c.I.I.I.I.(.).).`.`.'.[.{.{.{.}.}.}.}.{.}..X@XOX@X@X@X@X@X@X@X@X@X@X@X+X}._.Y.x.0.$X$X$X$X$X$X$X$X$X$X",
"$X$X$X$X$X$X$X$X$X$X2.0.x.c.I.U.I.T.(.)._.'.'.'.|.}.{.{.}.}.}.}.}.}.@X@X@X@X@X@X@X@X@X@X@X@X@X@X}.[.`.I.c.0.$X$X$X$X$X$X$X$X$X$X",
"$X$X$X$X$X$X$X$X$X$X2.9.x.c.I.I.I.I.W.(.)._.'.'.{.}.}.}.}.}.}.}.}.}.@X@X@X@X@X@X@X@X@X@X@X@X@X.X}._.).Y.x.0.$X$X$X$X$X$X$X$X$X$X",
"$X$X$X$X$X$X$X$X$X$X2.9.x.c.I.I.U.I.I.)._._._.'.}.}.}.}.}.}.}.}.}.}..X@X@X@X@X@X@X@X@X@X.X.X+X{.}.`._.I.x.w.$X$X$X$X$X$X$X$X$X$X",
"$X$X$X$X$X$X$X$X$X$X2.w.c.c.I.Y.I.I.I.W.`._._._.[.}.}.}.}.}.}.}.}.}.}..X.X.X.X.X.XOX.X.X{.}.}.}.[.).W.U.c.9.$X$X$X$X$X$X$X$X$X$X",
"$X$X$X$X$X$X$X$X$X$X$X7.j.c.I.I.I.I.I.I.^.`._._._.[.}.}.}.}.}.}.}.}.}.}.}.{.}.{.}.{.}.}.}.}.}.[.`._.I.A.j.$X$X$X$X$X$X$X$X$X$X$X",
"$X$X$X$X$X$X$X$X$X$X$X2.9.x.S.I.I.I.I.I.I.W.'._._.).[.|.}.}.}.}.}.}.}.}.}.}.}.}.}.}.}.}.}.[.[._.`.^.I.x.0.$X$X$X$X$X$X$X$X$X$X$X",
"$X$X$X$X$X$X$X$X$X$X$X2.0.c.x.I.T.I.I.T.I.G.W.^._.`._.`.[.[.[.[.[.}.}.}.}.}.}.}.}.[.[.[.[._.).`.T.I.I.M.0.$X$X$X$X$X$X$X$X$X$X$X",
"$X$X$X$X$X$X$X$X$X$X$X$X5.h.z.S.I.I.I.I.G.P.G.G.T.^.`.`.`.'._.)._.[.[.[.[.[.[.[.[._.`.`.`.`._.^.I.U.C.9.$X$X$X$X$X$X$X$X$X$X$X$X",
"$X$X$X$X$X$X$X$X$X$X$X$X} 0.c.x.S.Y.I.I.I.I.I.I.G.G.^.T.T.^.'.'.'._._.`.`.'.'.`.`.`.^.^.W.^.W.I.Y.S.x.[ $X$X$X$X$X$X$X$X$X$X$X$X",
"$X$X$X$X$X$X$X$X$X$X$X$X$X3.k.c.x.S.Y.I.I.I.Y.I.I.I.G.G.G.I.W.T.!.W.^.T.^.T.^.W.W.W.I.I.P.G.I.T.S.c.8.$X$X$X$X$X$X$X$X$X$X$X$X$X",
"$X$X$X$X$X$X$X$X$X$X$X$X$X$X3.k.c.x.A.Y.Y.I.U.I.I.Y.Y.I.Y.I.G.G.I.I.G.P.I.P.P.I.I.I.Y.I.Y.Y.Y.A.c.8.$X$X$X$X$X$X$X$X$X$X$X$X$X$X",
"$X$X$X$X$X$X$X$X$X$X$X$X$X$X$X3.a.z.c.A.S.Y.Y.Y.P.I.G.I.I.I.I.I.I.I.I.Y.I.I.I.I.I.I.I.Y.Y.S.D.c.8.$X$X$X$X$X$X$X$X$X$X$X$X$X$X$X",
"$X$X$X$X$X$X$X$X$X$X$X$X$X$X$X$XO.5.a.b.c.S.S.S.Y.Y.Y.I.I.U.U.I.I.Y.Y.Y.Y.Y.U.Y.T.T.Y.D.D.j.7.8.$X$X$X$X$X$X$X$X$X$X$X$X$X$X$X$X",
"$X$X$X$X$X$X$X$X$X$X$X$X$X$X$X$X$X} 3.8.j.j.a.j.S.S.S.S.S.S.S.S.S.S.S.S.S.S.S.S.M.M.M.a.7.3.$X$X$X$X$X$X$X$X$X$X$X$X$X$X$X$X$X$X",
"$X$X$X$X$X$X$X$X$X$X$X$X$X$X$X$X$X$X$X[ 3.3.4.5.a.j.j.j.k.j.j.j.j.j.j.j.j.z.a.a.3.2.O.3.$X$X$X$X$X$X$X$X$X$X$X$X$X$X$X$X$X$X$X$X",
"$X$X$X$X$X$X$X$X$X$X$X$X$X$X$X$X$X$X$X$X$X$X/ F 5.2.o.2.2.2.2.2.2.2.2.2.2.o.O.5.F F $X$X$X$X$X$X$X$X$X$X$X$X$X$X$X$X$X$X$X$X$X$X",
"$X$X$X$X$X$X$X$X$X$X$X$X$X$X$X$X$X$X$X$X$X$XB x C ,.,.+.+.+.+.+.,.,.+.+.,.,.,.Z k l $X$X$X$X$X$X$X$X$X$X$X$X$X$X$X$X$X$X$X$X$X$X",
"$X$X$X$X$X$X$X$X$X$X$X$X$X$X$X$X$X$X$X$X$XU U f i J %.r.r.r.t.t.r.r.r.r.t.%.G t f z h *.$X$X$X$X$X$X$X$X$X$X$X$X$X$X$X$X$X$X$X$X",
"$X$X$X$X$X$X$X$X$X$X$X$X$X$X$X$X$X$X$X$X*.B n a i r s J J %.L L L %.J K J h d d s f N *.$X$X$X$X$X$X$X$X$X$X$X$X$X$X$X$X$X$X$X$X",
"$X$X$X$X$X$X$X$X$X$X$X$X$X$X$X$X$X$XB.s.*.I d i i f M b b b n b n b K &.&.*.! H i f U *.<.$X$X$X$X$X$X$X$X$X$X$X$X$X$X$X$X$X$X$X",
"$X$X$X$X$X$X$X$X$X$X$X$X$X$X$X$X$X$XB.i.e.B a i i M M W ! W W W W W :.B.f.W R E f a n -.e.!.$X$X$X$X$X$X$X$X$X$X$X$X$X$X$X$X$X$X",
"$X$X$X$X$X$X$X$X$X$X$X$X$X$X$X$X$XB.B.p.L.u.i u d n M Y T T T E T T ;.d.d.E Y E M i C i.~.XXOX$X$X$X$X$X$X$X$X$X$X$X$X$X$X$X$X$X",
"$X$X$X$X$X$X$X$X$X$X$X$X$X$X$X$X$Xg.g.9.~.~.g t c c c R R R R R R R >.f.f.! R R c p  .i.L.}..X$X$X$X$X$X$X$X$X$X$X$X$X$X$X$X$X$X",
"$X$X$X$X$X$X$X$X$X$X$X$X$X$X$X$X$X!.!.N.h.q.% 2 V Z Z ~ ) ( ( ( ( ( $.#.#.C ~ ~ V 2 ] 0.L..XoX$X$X$X$X$X$X$X$X$X$X$X$X$X$X$X$X$X",
"$X$X$X$X$X$X$X$X$X$X$X$X$X$X$X$X$X#XoXL.3.`   7 7 7 7 7 e e w w w w e 9 9 7 7 7 8 # ] p.E.].L.$X$X$X$X$X$X$X$X$X$X$X$X$X$X$X$X$X",
"$X$X$X$X$X$X$X$X$X$X$X$X$X$X$X$X$XH.].E.h.$X  O O o o o + + + + + + @ @ @ X . X O   $X5.i.i.q.$X$X$X$X$X$X$X$X$X$X$X$X$X$X$X$X$X",
"$X$X$X$X$X$X$X$X$X$X$X$X$X$X$X$X$X$Xi.i.$X$X$X$ $ = * , > > > > > > 1 q 2 1 > * $ $X$X$X] [ $X$X$X$X$X$X$X$X$X$X$X$X$X$X$X$X$X$X",
"$X$X$X$X$X$X$X$X$X$X$X$X$X$X$X$X$X$X$X$X$X$X$Xp p B B R Q Q Q =.=.=.1.V.V.=.Q b a $X$X$X$X$X$X$X$X$X$X$X$X$X$X$X$X$X$X$X$X$X$X$X",
"$X$X$X$X$X$X$X$X$X$X$X$X$X$X$X$X$X$X$X$X$X$X$Xu i d d x N I H H N N *.;.;.m d r u $X$X$X$X$X$X$X$X$X$X$X$X$X$X$X$X$X$X$X$X$X$X$X",
"$X$X$X$X$X$X$X$X$X$X$X$X$X$X$X$X$X$X$X$X$X$X$X$X: - : d d d d s d s y y y ; C j $X$X$X$X$X$X$X$X$X$X$X$X$X$X$X$X$X$X$X$X$X$X$X$X",
"$X$X$X$X$X$X$X$X$X$X$X$X$X$X$X$X$X$X$X$X$X$X$X$X* * * : : : : u $Xj ( @.@.X.i.0 $X$X$X$X$X$X$X$X$X$X$X$X$X$X$X$X$X$X$X$X$X$X$X$X",
"$X$X$X$X$X$X$X$X$X$X$X$X$X$X$X$X$X$X$X$X$X$X$X$X= = ; * * = = $X$Xq  .H.L.H.] 6 $X$X$X$X$X$X$X$X$X$X$X$X$X$X$X$X$X$X$X$X$X$X$X$X",
"$X$X$X$X$X$X$X$X$X$X$X$X$X$X$X$X$X$X$X$X$X$X$X$X2 ~ & & & ~ 3 $X$Xq [ _ _ _ } 5 $X$X$X$X$X$X$X$X$X$X$X$X$X$X$X$X$X$X$X$X$X$X$X$X",
"$X$X$X$X$X$X$X$X$X$X$X$X$X$X$X$X$X$X$X$X$X$X$X$X0 0.X.| X.0.0 $X$X$X . .} } } $X$X$X$X$X$X$X$X$X$X$X$X$X$X$X$X$X$X$X$X$X$X$X$X$X",
"$X$X$X$X$X$X$X$X$X$X$X$X$X$X$X$X$X$X$X$X$X$X$X$X6 0.L.L.L.0.5 $X$X$X$X .o. .$X$X$X$X$X$X$X$X$X$X$X$X$X$X$X$X$X$X$X$X$X$X$X$X$X$X",
"$X$X$X$X$X$X$X$X$X$X$X$X$X$X$X$X$X$X$X$X$X$X$X$X$X{ ' ' ' { $X$X$X$X$X$X$X$X$X$X$X$X$X$X$X$X$X$X$X$X$X$X$X$X$X$X$X$X$X$X$X$X$X$X",
"$X$X$X$X$X$X$X$X$X$X$X$X$X$X$X$X$X$X$X$X$X$X$X$X$X$X$X$X$X$X$X$X$X$X$X$X$X$X$X$X$X$X$X$X$X$X$X$X$X$X$X$X$X$X$X$X$X$X$X$X$X$X$X$X",
"$X$X$X$X$X$X$X$X$X$X$X$X$X$X$X$X$X$X$X$X$X$X$X$X$X$X$X$X$X$X$X$X$X$X$X$X$X$X$X$X$X$X$X$X$X$X$X$X$X$X$X$X$X$X$X$X$X$X$X$X$X$X$X$X",
"$X$X$X$X$X$X$X$X$X$X$X$X$X$X$X$X$X$X$X$X$X$X$X$X$X$X$X$X$X$X$X$X$X$X$X$X$X$X$X$X$X$X$X$X$X$X$X$X$X$X$X$X$X$X$X$X$X$X$X$X$X$X$X$X",
"$X$X$X$X$X$X$X$X$X$X$X$X$X$X$X$X$X$X$X$X$X$X$X$X$X$X$X$X$X$X$X$X$X$X$X$X$X$X$X$X$X$X$X$X$X$X$X$X$X$X$X$X$X$X$X$X$X$X$X$X$X$X$X$X"
};
