/* XPM */
static char *result[] = {
/* columns rows colors chars-per-pixel */
"64 64 186 2 ",
"   c #020201",
".  c #090A09",
"X  c #060F10",
"o  c #071111",
"O  c #0B1111",
"+  c #131C1C",
"@  c #121717",
"#  c #450E06",
"$  c #4F180F",
"%  c #650C03",
"&  c #6B1306",
"*  c #6C1B0D",
"=  c #641409",
"-  c #77190B",
";  c #7B1F10",
":  c #6D2116",
">  c #6E251A",
",  c #7D2011",
"<  c #712519",
"1  c #6E2F25",
"2  c #6E352B",
"3  c #753626",
"4  c #39403F",
"5  c #70423B",
"6  c #78503E",
"7  c #3B4443",
"8  c #374140",
"9  c #585E5D",
"0  c #795845",
"q  c #596363",
"w  c #576161",
"e  c #821F10",
"r  c #871B0A",
"t  c #A81C0A",
"y  c #98200F",
"u  c #8E2414",
"i  c #932413",
"p  c #9C2513",
"a  c #9D2A18",
"s  c #AA200E",
"d  c #A42715",
"f  c #A32917",
"g  c #AC2816",
"h  c #A82815",
"j  c #B22512",
"k  c #B32E1A",
"l  c #B72C18",
"z  c #B7311D",
"x  c #853928",
"c  c #8D3F34",
"v  c #BC3925",
"b  c #C72D19",
"n  c #C3321E",
"m  c #CC341F",
"M  c #D5321C",
"N  c #DD331C",
"B  c #C73721",
"V  c #CA3621",
"C  c #D23621",
"Z  c #D43923",
"A  c #E73B24",
"S  c #994A38",
"D  c #904236",
"F  c #91523F",
"G  c #8E4236",
"H  c #A74F3C",
"J  c #AC523F",
"K  c #BB4B3A",
"L  c #DC432C",
"P  c #C64E3B",
"I  c #C84532",
"U  c #C7513F",
"Y  c #DC4F3A",
"T  c #E64129",
"R  c #EA432B",
"E  c #E54E37",
"W  c #E44F38",
"Q  c #EF4931",
"!  c #F24E34",
"~  c #E5513A",
"^  c #EC543C",
"/  c #FD593F",
"(  c #F6553C",
")  c #9B4F42",
"_  c #9C5343",
"`  c #AB5748",
"'  c #A85C50",
"]  c #BD5641",
"[  c #926955",
"{  c #956E5B",
"}  c #98725E",
"|  c #97705E",
" . c #8C6A59",
".. c #AD6F57",
"X. c #9C7A66",
"o. c #AE7A61",
"O. c #A17F6A",
"+. c #A97F69",
"@. c #BE7462",
"#. c #BA7A60",
"$. c #AB7E77",
"%. c #A96A60",
"&. c #C55342",
"*. c #CB5A49",
"=. c #E75942",
"-. c #FE5D43",
";. c #DD6150",
":. c #D4765D",
">. c #E36755",
",. c #EF735F",
"<. c #F46C56",
"1. c #C67D6A",
"2. c #F57764",
"3. c #A3826B",
"4. c #AB836D",
"5. c #A78772",
"6. c #AD8771",
"7. c #B38D74",
"8. c #B88F76",
"9. c #B79278",
"0. c #BC967B",
"q. c #BE987E",
"w. c #B69076",
"e. c #C19A7F",
"r. c #F68573",
"t. c #F88674",
"y. c #F98977",
"u. c #E69275",
"i. c #E08568",
"p. c #BD9B81",
"a. c #C39D83",
"s. c #CC9E83",
"d. c #EA9183",
"f. c #F6988A",
"g. c #F49F91",
"h. c #CDA285",
"j. c #CFA589",
"k. c #CAAB8D",
"l. c #D0A689",
"z. c #D6AA8C",
"x. c #D9AD8E",
"c. c #D7AE91",
"v. c #DBAE92",
"b. c #CDB293",
"n. c #CDBA9C",
"m. c #DDB294",
"M. c #D1B799",
"N. c #FFA99A",
"B. c #E0B696",
"V. c #E2B699",
"C. c #E5BA9A",
"Z. c #EABE9D",
"A. c #E2B997",
"S. c #F0BFA3",
"D. c #DDC3A5",
"F. c #E5C4A1",
"G. c #EEC3A4",
"H. c #E4CAA9",
"J. c #EBCAA7",
"K. c #F1C5A6",
"L. c #F3CBA7",
"P. c #F3C7A8",
"I. c #F4CBAA",
"U. c #EBD2AF",
"Y. c #F5D2AD",
"T. c #F8D4AB",
"R. c #EBD5B2",
"E. c #E5D7B5",
"W. c #F5D5B1",
"Q. c #F8D5B2",
"!. c #F7DAB3",
"~. c #F8DEB6",
"^. c #F8DFB8",
"/. c #F9E0B7",
"(. c #F9E2BA",
"). c #F6E5C1",
"_. c #F9E6C0",
"`. c #FAEBC6",
"'. c #FBEDCA",
"]. c #FCF4CC",
"[. c #FEF5CB",
"{. c #FBF0D5",
"}. c #FEFCD4",
"|. c #FEFDD9",
" X c #FBF4E3",
".X c None",
/* pixels */
".X.X.X.X.X.X.X.X.X.X.X.X.X.X.X.X.X.X.X.X.X.X.X.X.X.X.X.X.X.X.X.X.X.X.X.X.X.X.X.X.X.X.X.X.X.X.X.X.X.X.X.X.X.X.X.X.X.X.X.X.X.X.X.X",
".X.X.X.X.X.X.X.X.X.X.X.X.X.X.X.X.X.X.X.X.X.X.X.X.X.X.X.X.X.X.X.X.X.X.X.X.X.X.X.X.X.X.X.X.X.X.X.X.X.X.X.X.X.X.X.X.X.X.X.X.X.X.X.X",
".X.X.X.X.X.X.X.X.X.X.X.X.X.X.X.X.X.X.X.X.X.X.X.X.X.X.X.X.X.X.X.X.X.X.X.X.X.X.X.X.X.X.X.X.X.X.X.X.X.X.X.X.X.X.X.X.X.X.X.X.X.X.X.X",
".X.X.X.X.X.X.X.X.X.X.X.X.X.X.X.X.X.X.X.X.X.X.X.X.X.X.X.X.X.X.X.X.X.X.X.X.X.X.X.X.X.X.X.X.X.X.X.X.X.X.X.X.X.X.X.X.X.X.X.X.X.X.X.X",
".X.X.X.X.X.X.X.X.X.X.X.X.X.X.X.X.X.X.X.X.X.X.X.X.X.X.X.X.X.XX.n.b.b..X.X.X.X.X.X.X.X.X.X.X.X.X.X.X.X.X.X.X.X.X.X.X.X.X.X.X.X.X.X",
".X.X.X.X.X.X.X.X.X.X.X.X.X.X.X.X.X.X.X.X.X.X.X.X.XX.n.n.9.9.b.|.|.(.0.k.b.k..X.X.X.X.X.X.X.X.X.X.X.X.X.X.X.X.X.X.X.X.X.X.X.X.X.X",
".X.X.X.X.X.X.X.X.X.X.X.X.X.X.X.X.X.X.X.X.X.X.X.Xa.n.'.W.C.Z.~.Q.H.W.J.(.[.[.b..X.X.X.X.X.X.X.X.X.X.X.X.X.X.X.X.X.X.X.X.X.X.X.X.X",
".X.X.X.X.X.X.X.X.X.X.X.X.X.X.X.X.X.X.X.X.X.X.XO.!.W.v.s.P.P.K.v.h.m./.(.}.|.).O..X.X.X.X.X.X.X.X.X.X.X.X.X.X.X.X.X.X.X.X.X.X.X.X",
".X.X.X.X.X.X.X.X.X.X.X.X.X.X.X.X.X.X.X.X.X.X.Xk.C.m.m.V.m.G.A.m.A.C.B.!.{.}.].M..X.X.X.X.X.X.X.X.X.X.X.X.X.X.X.X.X.X.X.X.X.X.X.X",
".X.X.X.X.X.X.X.X.X.X.X.X.X.X.X.X.X.X.X.X.X0.h.C.m.Y.I.L.B.C.B.!.(.(.C.C.(.}.}.(.k.9.m.p..X.X.X.X.X.X.X.X.X.X.X.X.X.X.X.X.X.X.X.X",
".X.X.X.X.X.X.X.X.X.X.X.X.X.X.X.X.X.XO.0.0.z.I.l.I.T././.W.j.P.`.}.}.(.j.Y._.].].(.O.a.x.c..X.X.X.X.X.X.X.X.X.X.X.X.X.X.X.X.X.X.X",
".X.X.X.X.X.X.X.X.X.X.X.X.X.X.X.X.X9.0.C.x.B.V.V.Y./.[.}.`.F.C.'.}.}.].C.m.W._.}.(.b.k.!.Q.c.z..X.X.X.X.X.X.X.X.X.X.X.X.X.X.X.X.X",
".X.X.X.X.X.X.X.X.X.X.X.X.X.X.X.X0.x.Z.K.m.L.l.G.Y.(.}.}.[./.j.(.].[.].^.m.m.C.~.).(.(.(./.Q.Q.c..X.X.X.X.X.X.X.X.X.X.X.X.X.X.X.X",
".X.X.X.X.X.X.X.X.X.X.X.X.X.X.X0.x.C.P.K.T.T.C.L.Y./.[.[.`.^.F.A.Y.!.(.`./.F.F.T._._.)._._._.(.Q.c..X.X.X.X.X.X.X.X.X.X.X.X.X.X.X",
".X.X.X.X.X.X.X.X.X.X.X.X.X.X0.x.A.L.G.L.Y.L.T.L.Y.(._.(.(./.(.F.I.Y./.(.(.(.(._.'.'.].'.].'._.(.I.c..X.X.X.X.X.X.X.X.X.X.X.X.X.X",
".X.X.X.X.X.X.X.X.X.X.X.X.X3.x.C.K.L.L.T.L.T.L.Y.Y.(.(.(.(.(.(.(./.(./././.(._.].'.'.`.'.`.'.'.~.Y.K.q..X.X.X.X.X.X.X.X.X.X.X.X.X",
".X.X.X.X.X.X.X.X.X.X.X.X.X7.l.P.P.I.T.T.T.Y.Y.T.Y.^.^.(.(.(.(.^.^.^.(.^._.'.'.'.'.'.{.{.{.{.`.).(.G.v..X.X.X.X.X.X.X.X.X.X.X.X.X",
".X.X.X.X.X.X.X.X.X.X.X.X3.h.C.G.K.T.T.T.Y.T.!.T.!.^.(.~.(.^.(.(.^.^.^._.'.'.'.'.'.{. X X X X{.'.~.W.K.q..X.X.X.X.X.X.X.X.X.X.X.X",
".X.X.X.X.X.X.X.X.X.X.X.X7.x.K.K.I.T.!.!.W.!.!./.^.^.^.^.~.(.~.~.^._.).'.'.'.`.`.{. X X X X X X'.(./.G.v..X.X.X.X.X.X.X.X.X.X.X.X",
".X.X.X.X.X.X.X.X.X.X.X3.0.x.G.L.W.!.!.!././././.^.^.^.^.(.~.~._._.'.'.'.`.'.{.{. X X X X X X X'.~.^.W.K.e..X.X.X.X.X.X.X.X.X.X.X",
".X.X.X.X.X.X.X.X.X.X.X3.h.x.G.L.T.!.W.~././.~./._._.^._.(._._.'.'.`.'.`.{.{. X X X X X X X X X'._.(.(.G.0..X.X.X.X.X.X.X.X.X.X.X",
".X.X.X.X.X.X.X.X.X.X.Xw.z.v.G.P.!.!./.^././.(.(._._._.`.`.'.'.'.'.'.{.{. X X X X X X X X X X X'.'.(.~.G.h..X.X.X.X.X.X.X.X.X.X.X",
".X.X.X.X.X.X.X.X.X.X3.q.l.v.G.P.!.~.~.^./.(.(.`.`.`.`.'.'.'.'.'.'.{. X X X X X X X X X X X X X'.`.(.^.K.x.q..X.X.X.X.X.X.X.X.X.X",
".X.X.X.X.X.X.X.X.X.X3.0.z.x.G.P.!.~.^.^./.(.).`.'.`.'.'.'.'.'.'.{. X X X X X X X X X X X X X{.'.'.(.^.K.x.q..X.X.X.X.X.X.X.X.X.X",
".X.X.X.X.X.X.X.X.X.X3.q.z.x.G.P.!./././.(._._.`.`.'.`.'.'.'.'.'. X X X X X X X X X X X X X X'.'._./.~.K.z.q..X.X.X.X.X.X.X.X.X.X",
".X.X.X.X.X.X.X.X.X.X3.0.x.x.G.P.Y.!././.(.(.`.'.'.'.'.'.'.'.'.'. X X X X X X X X X X X X X{.'.'.~./.(.K.z.q..X.X.X.X.X.X.X.X.X.X",
".X.X.X.X.X.X.X.X.X.X3.e.z.x.G.P.G.~./.~.^.(.'.'.'.'.'.'.'.'.`.'.{. X X X X X X X X X{.{.{.`.'._.(.~.Y.K.z.e..X.X.X.X.X.X.X.X.X.X",
".X.X.X.X.X.X.X.X.X.XO.e.x.x.G.K.K.Y././.(.(._.'.'.'.'.'.'.'.'.'.'.{.{.{.{.{.{.{.{.{.'.'.`.'._.^.(.~.K.P.x.e..X.X.X.X.X.X.X.X.X.X",
".X.X.X.X.X.X.X.X.X.X.X7.h.x.P.P.G.K.W.^.~.^.^.(.'.'.`.'.'.'.'.'.'.'.`.'.'.'.'.`.'.'.'.'.'._.^.~.~.(.P.V.h..X.X.X.X.X.X.X.X.X.X.X",
".X.X.X.X.X.X.X.X.X.X.X3.0.z.C.K.K.L.K.Y.(.(.^.^._._.'.'.'.'.'.`.'.'.'.'.'.'.'.'.'.].'.)._.~.^.~.(.Y.G.z.q..X.X.X.X.X.X.X.X.X.X.X",
".X.X.X.X.X.X.X.X.X.X.X3.q.x.l.G.K.K.K.G.I.Y.(.(.^.^._._._._._.'.'.'.'.'.'.'.'._.(._.(.^.~.^.^.(.Y.K.K.m.q..X.X.X.X.X.X.X.X.X.X.X",
".X.X.X.X.X.X.X.X.X.X.X.X6.s.z.C.P.K.K.K.G.S.I.W.^.(.(.(.^.^.^._._._.)._._._._.^./.(.(.(.(.(.^.Y.K.P.B.0..X.X.X.X.X.X.X.X.X.X.X.X",
".X.X.X.X.X.X.X.X.X.X.X.XX.q.x.z.V.P.K.K.K.K.S.S.W.I.W.I.(.(.(./.^.^.(.(.(.^.^.(.W.Y.W.Y.Y.W.Y.K.P.V.x.| .X.X.X.X.X.X.X.X.X.X.X.X",
".X.X.X.X.X.X.X.X.X.X.X.X.X4.h.x.z.C.P.K.K.P.K.K.S.S.S.S.Y.I.Y.I.I.W.I.W.W.Y.W.Y.K.K.K.K.S.K.K.P.C.x.8..X.X.X.X.X.X.X.X.X.X.X.X.X",
".X.X.X.X.X.X.X.X.X.X.X.X.X.X4.h.x.x.C.K.P.K.K.K.P.K.K.K.K.G.S.K.G.S.S.G.K.K.G.G.P.K.K.K.K.P.P.C.x.8..X.X.X.X.X.X.X.X.X.X.X.X.X.X",
".X.X.X.X.X.X.X.X.X.X.X.X.X.X.X6.s.l.z.C.C.P.P.P.P.G.K.K.K.K.K.K.P.P.K.P.K.K.K.K.K.K.K.P.P.C.Z.x.8..X.X.X.X.X.X.X.X.X.X.X.X.X.X.X",
".X.X.X.X.X.X.X.X.X.X.X.X.X.X.X.X+.4.h.x.x.V.C.C.P.P.K.K.P.P.P.P.P.P.P.P.P.P.P.P.I.P.P.C.Z.h.8.7..X.X.X.X.X.X.X.X.X.X.X.X.X.X.X.X",
".X.X.X.X.X.X.X.X.X.X.X.X.X.X.X.X.X} 4.8.l.h.s.h.C.C.C.C.C.C.C.C.C.C.C.C.C.C.C.C.m.m.m.h.7.4.{ .X.X.X.X.X.X.X.X.X.X.X.X.X.X.X.X.X",
".X.X.X.X.X.X.X.X.X.X.X.X.X.X.X.X.X.X.X.X4.4.5.5.s.h.h.h.h.h.h.h.h.h.j.h.h.h.h.s.4.3.+.4..X.X.X.X.X.X.X.X.X.X.X.X.X.X.X.X.X.X.X.X",
".X.X.X.X.X.X.X.X.X.X.X.X.X.X.X.X.X.X.X.X.X.XH ] 4.3.O.3.3.3.3.3.3.3.3.3.3.O.+.4.` ] .X.X.X.X.X.X.X.X.X.X.X.X.X.X.X.X.X.X.X.X.X.X",
".X.X.X.X.X.X.X.X.X.X.X.X.X.X.X.X.X.X.X.X.X.Xb b S 1.1.@.@.@.@.@.1.@.@.@.@.1.1.S b A .X.X.X.X.X.X.X.X.X.X.X.X.X.X.X.X.X.X.X.X.X.X",
".X.X.X.X.X.X.X.X.X.X.X.X.X.X.X.X.X.X.X.X=.B n l p P &.r.r.r.t.t.r.r.t.t.r.&.K i z R R .X.X.X.X.X.X.X.X.X.X.X.X.X.X.X.X.X.X.X.X.X",
".X.X.X.X.X.X.X.X.X.X.X.X.X.X.X.X.X.X.X.X=.Z l f i r h P &.U U U U U P P P z k k f V A .X.X.X.X.X.X.X.X.X.X.X.X.X.X.X.X.X.X.X.X.X",
".X.X.X.X.X.X.X.X.X.X.X.X.X.X.X.X.X.X.X,.=.R k i i k C B B B B B m V I *.*.^ ( L i k T ^ .X.X.X.X.X.X.X.X.X.X.X.X.X.X.X.X.X.X.X.X",
".X.X.X.X.X.X.X.X.X.X.X.X.X.X.X.X.X.XP.u.:.V d i i M C ^ ^ ^ ^ ^ ^ ^ ,.N.f.Y E ~ k d A u.p..X.X.X.X.X.X.X.X.X.X.X.X.X.X.X.X.X.X.X",
".X.X.X.X.X.X.X.X.X.X.X.X.X.X.X.X.X.X|.E.a.H u i k V C W ~ W E ~ W ~ >.d.d.~ E E C i i.H.p..X.X.X.X.X.X.X.X.X.X.X.X.X.X.X.X.X.X.X",
".X.X.X.X.X.X.X.X.X.X.X.X.X.X.X.X.X{.'.H.e.X.a y N N N ! ! ! ! ! ! ! <.f.f.( ! ! M f E.R.a..X.X.X.X.X.X.X.X.X.X.X.X.X.X.X.X.X.X.X",
".X.X.X.X.X.X.X.X.X.X.X.X.X.X.X.X.X|.{.F.e.| $ 2 G G G S ' ' ' ' ' ' %.$.$._ ) ) c 2 0.a..X.X.X.X.X.X.X.X.X.X.X.X.X.X.X.X.X.X.X.X",
".X.X.X.X.X.X.X.X.X.X.X.X.X.X.X.X.XD.`.R.a. .. 4 7 7 7 7 w w q q q q q 9 9 7 8 7 8 + .X.X.X.X.X.X.X.X.X.X.X.X.X.X.X.X.X.X.X.X.X.X",
".X.X.X.X.X.X.X.X.X.X.X.X.X.X.X.X.X.Xp.p.6. .  o O O o o + + + + + + + @ @ X o o O   .X.X.X.X.X.X.X.X.X.X.X.X.X.X.X.X.X.X.X.X.X.X",
".X.X.X.X.X.X.X.X.X.X.X.X.X.X.X.X.X.X.X.X.X.X.X# # = = < > : : > : : 3 5 5 > : = # . .X.X.X.X.X.X.X.X.X.X.X.X.X.X.X.X.X.X.X.X.X.X",
".X.X.X.X.X.X.X.X.X.X.X.X.X.X.X.X.X.X.X.X.X.X.Xf f A A ! / / / / -.-.2.N.N.-./ n d .X.X.X.X.X.X.X.X.X.X.X.X.X.X.X.X.X.X.X.X.X.X.X",
".X.X.X.X.X.X.X.X.X.X.X.X.X.X.X.X.X.X.X.X.X.X.Xu i d l C L L L L Z L Y ;.;.B v i u .X.X.X.X.X.X.X.X.X.X.X.X.X.X.X.X.X.X.X.X.X.X.X",
".X.X.X.X.X.X.X.X.X.X.X.X.X.X.X.X.X.X.X.X.X.X.X.Xx F & t t s g g k g j j j ; - ; .X.X.X.X.X.X.X.X.X.X.X.X.X.X.X.X.X.X.X.X.X.X.X.X",
".X.X.X.X.X.X.X.X.X.X.X.X.X.X.X.X.X.X.X.X.X.X.X.X0 h.o.#.#.' x u u , , ; , * * * .X.X.X.X.X.X.X.X.X.X.X.X.X.X.X.X.X.X.X.X.X.X.X.X",
".X.X.X.X.X.X.X.X.X.X.X.X.X.X.X.X.X.X.X.X.X.X.X.X.X} F.H.D.X..X.X.X& & * * * & & .X.X.X.X.X.X.X.X.X.X.X.X.X.X.X.X.X.X.X.X.X.X.X.X",
".X.X.X.X.X.X.X.X.X.X.X.X.X.X.X.X.X.X.X.X.X.X.X.X.X.X[ [ [ .X.X.X.X3 ) % % % ) 2 .X.X.X.X.X.X.X.X.X.X.X.X.X.X.X.X.X.X.X.X.X.X.X.X",
".X.X.X.X.X.X.X.X.X.X.X.X.X.X.X.X.X.X.X.X.X.X.X.X.X.X.X.X.X.X.X.X.X0 q.o...o.0.0 .X.X.X.X.X.X.X.X.X.X.X.X.X.X.X.X.X.X.X.X.X.X.X.X",
".X.X.X.X.X.X.X.X.X.X.X.X.X.X.X.X.X.X.X.X.X.X.X.X.X.X.X.X.X.X.X.X.X0 q.H.D.H.p.6 .X.X.X.X.X.X.X.X.X.X.X.X.X.X.X.X.X.X.X.X.X.X.X.X",
".X.X.X.X.X.X.X.X.X.X.X.X.X.X.X.X.X.X.X.X.X.X.X.X.X.X.X.X.X.X.X.X.X.X{ [ { [ { .X.X.X.X.X.X.X.X.X.X.X.X.X.X.X.X.X.X.X.X.X.X.X.X.X",
".X.X.X.X.X.X.X.X.X.X.X.X.X.X.X.X.X.X.X.X.X.X.X.X.X.X.X.X.X.X.X.X.X.X.X.X.X.X.X.X.X.X.X.X.X.X.X.X.X.X.X.X.X.X.X.X.X.X.X.X.X.X.X.X",
".X.X.X.X.X.X.X.X.X.X.X.X.X.X.X.X.X.X.X.X.X.X.X.X.X.X.X.X.X.X.X.X.X.X.X.X.X.X.X.X.X.X.X.X.X.X.X.X.X.X.X.X.X.X.X.X.X.X.X.X.X.X.X.X",
".X.X.X.X.X.X.X.X.X.X.X.X.X.X.X.X.X.X.X.X.X.X.X.X.X.X.X.X.X.X.X.X.X.X.X.X.X.X.X.X.X.X.X.X.X.X.X.X.X.X.X.X.X.X.X.X.X.X.X.X.X.X.X.X",
".X.X.X.X.X.X.X.X.X.X.X.X.X.X.X.X.X.X.X.X.X.X.X.X.X.X.X.X.X.X.X.X.X.X.X.X.X.X.X.X.X.X.X.X.X.X.X.X.X.X.X.X.X.X.X.X.X.X.X.X.X.X.X.X"
};
