/* XPM */
static char *result[] = {
/* columns rows colors chars-per-pixel */
"64 64 183 2 ",
"   c #010101",
".  c #050F0F",
"X  c #060F10",
"o  c #071111",
"O  c #0C1111",
"+  c #131B1C",
"@  c #121717",
"#  c #450E06",
"$  c #5F0700",
"%  c #4D140B",
"&  c #660F04",
"*  c #6C1B0E",
"=  c #671407",
"-  c #7C1C0D",
";  c #761507",
":  c #7C1F10",
">  c #6D2116",
",  c #6E251A",
"<  c #7D2112",
"1  c #712519",
"2  c #6D2F25",
"3  c #743625",
"4  c #6F372D",
"5  c #70423B",
"6  c #3B4343",
"7  c #374140",
"8  c #585E5D",
"9  c #7B5745",
"0  c #596363",
"q  c #576161",
"w  c #871B0A",
"e  c #9C210F",
"r  c #822010",
"t  c #8D2313",
"y  c #922313",
"u  c #9D2513",
"i  c #A42816",
"p  c #AC2916",
"a  c #AD2C19",
"s  c #A52714",
"d  c #B32D1A",
"f  c #BA2F1B",
"g  c #B22613",
"h  c #B5321E",
"j  c #BC3925",
"k  c #C82C18",
"l  c #C52D19",
"z  c #C3321E",
"x  c #CD331F",
"c  c #DC331C",
"v  c #D2341F",
"b  c #E6361F",
"n  c #C73721",
"m  c #CA3722",
"M  c #D33722",
"N  c #D53923",
"B  c #E33A23",
"V  c #E83923",
"C  c #8E4136",
"Z  c #954637",
"A  c #8D503E",
"S  c #90513E",
"D  c #AC4E3B",
"F  c #AC523F",
"G  c #BB4B3A",
"H  c #DB422B",
"J  c #C64E3B",
"K  c #C84532",
"L  c #C7513F",
"P  c #DC4F3A",
"I  c #EB442B",
"U  c #E54D35",
"Y  c #E44F38",
"T  c #F24D34",
"R  c #E5513A",
"E  c #EC543C",
"W  c #FD593F",
"Q  c #F6553C",
"!  c #9B4F42",
"~  c #9C5145",
"^  c #A85C50",
"/  c #A75B4F",
"(  c #916854",
")  c #936D5C",
"_  c #99725D",
"`  c #97705E",
"'  c #AA745B",
"]  c #9D7C68",
"[  c #A87D66",
"{  c #BE7462",
"}  c #B07B62",
"|  c #AB7E77",
" . c #A96A60",
".. c #C55342",
"X. c #CB5A49",
"o. c #E95C45",
"O. c #E25943",
"+. c #FE5D43",
"@. c #D7664D",
"#. c #DD6150",
"$. c #E9614A",
"%. c #E36755",
"&. c #EF735F",
"*. c #F46C56",
"=. c #C67D6A",
"-. c #EC7E6C",
";. c #FE7B65",
":. c #A3826C",
">. c #AB836D",
",. c #AB8772",
"<. c #B38D74",
"1. c #B88E76",
"2. c #B79279",
"3. c #BC967B",
"4. c #BF987D",
"5. c #C19A7F",
"6. c #F68573",
"7. c #F88674",
"8. c #F98977",
"9. c #E69478",
"0. c #BD9C82",
"q. c #BFA68C",
"w. c #C69D83",
"e. c #CC9E82",
"r. c #EC9588",
"t. c #F6988A",
"y. c #EF9E92",
"u. c #F49F91",
"i. c #C4A086",
"p. c #CDA285",
"a. c #CDA589",
"s. c #C9AB8D",
"d. c #C0A78D",
"f. c #D1A689",
"g. c #D6AA8C",
"h. c #D9AD8E",
"j. c #D7AD91",
"k. c #DBAE92",
"l. c #CDB192",
"z. c #CCB99A",
"x. c #DDB194",
"c. c #EFA295",
"v. c #FFA99A",
"b. c #E1B696",
"n. c #E1B996",
"m. c #E2B698",
"M. c #E5BA9A",
"N. c #EABE9E",
"B. c #D0BFA0",
"V. c #F0AEA3",
"C. c #EABFA0",
"Z. c #F0BFA3",
"A. c #DDC3A5",
"S. c #E4C4A2",
"D. c #EACAAA",
"F. c #F1C5A6",
"G. c #F3CAA6",
"H. c #F3C7A8",
"J. c #F4CBAA",
"K. c #E1D1AF",
"L. c #F5D2AC",
"P. c #F8D6AD",
"I. c #F5C9B3",
"U. c #F6D5B1",
"Y. c #F8D5B1",
"T. c #F7DAB3",
"R. c #F8DEB6",
"E. c #F9DFB8",
"W. c #F6D9B8",
"Q. c #F9E0B7",
"!. c #F9E2BA",
"~. c #FCE8BF",
"^. c #F7E5C2",
"/. c #FAE6C1",
"(. c #FAEBC5",
"). c #FBEDCA",
"_. c #FCF4CB",
"`. c #FBF0D6",
"'. c #FEFBD3",
"]. c #FDFCD9",
"[. c #FBF4E3",
"{. c #FFFFE1",
"}. c None",
/* pixels */
"}.}.}.}.}.}.}.}.}.}.}.}.}.}.}.}.}.}.}.}.}.}.}.}.}.}.}.}.}.}.}.}.}.}.}.}.}.}.}.}.}.}.}.}.}.}.}.}.}.}.}.}.}.}.}.}.}.}.}.}.}.}.}.}.",
"}.}.}.}.}.}.}.}.}.}.}.}.}.}.}.}.}.}.}.}.}.}.}.}.}.}.}.}.}.}.}.}.}.}.}.}.}.}.}.}.}.}.}.}.}.}.}.}.}.}.}.}.}.}.}.}.}.}.}.}.}.}.}.}.",
"}.}.}.}.}.}.}.}.}.}.}.}.}.}.}.}.}.}.}.}.}.}.}.}.}.}.}.}.}.}.}.}.}.}.}.}.}.}.}.}.}.}.}.}.}.}.}.}.}.}.}.}.}.}.}.}.}.}.}.}.}.}.}.}.",
"}.}.}.}.}.}.}.}.}.}.}.}.}.}.}.}.}.}.}.}.}.}.}.}.}.}.}.}.}.}.}.}.}.}.}.}.}.}.}.}.}.}.}.}.}.}.}.}.}.}.}.}.}.}.}.}.}.}.}.}.}.}.}.}.",
"}.}.}.}.}.}.}.}.}.}.}.}.}.}.}.}.}.}.}.}.}.}.}.}.}.}.}.}.}.}.] z.z.s.:.}.}.}.}.}.}.}.}.}.}.}.}.}.}.}.}.}.}.}.}.}.}.}.}.}.}.}.}.}.",
"}.}.}.}.}.}.}.}.}.}.}.}.}.}.}.}.}.}.}.}.}.}.}.}.}.] z.z.a.2.l.].'.~.4.s.s.s.}.}.}.}.}.}.}.}.}.}.}.}.}.}.}.}.}.}.}.}.}.}.}.}.}.}.",
"}.}.}.}.}.}.}.}.}.}.}.}.}.}.}.}.}.}.}.}.}.}.}.}.i.A.].(.N.M.R.W.W.S.S.~.'._.l.}.}.}.}.}.}.}.}.}.}.}.}.}.}.}.}.}.}.}.}.}.}.}.}.}.",
"}.}.}.}.}.}.}.}.}.}.}.}.}.}.}.}.}.}.}.}.}.}.}.[ H.'.A.j.a.H.Z.F.x.e.x.U._.].^.[ }.}.}.}.}.}.}.}.}.}.}.}.}.}.}.}.}.}.}.}.}.}.}.}.",
"}.}.}.}.}.}.}.}.}.}.}.}.}.}.}.}.}.}.}.}.}.}.}.a.F.M.x.b.b.b.H.b.n.M.b.n.P.'.).l.}.}.}.}.}.}.}.}.}.}.}.}.}.}.}.}.}.}.}.}.}.}.}.}.",
"}.}.}.}.}.}.}.}.}.}.}.}.}.}.}.}.}.}.}.}.[ 2.2.H.n.b.J.G.J.x.b.b.T.!.~.M.S.!.'._.s.,.x.w.}.}.}.}.}.}.}.}.}.}.}.}.}.}.}.}.}.}.}.}.",
"}.}.}.}.}.}.}.}.}.}.}.}.}.}.}.}.}.}.:.3.3.f.N.F.a.J.L.R.!.U.a.J.(.'.'.!.a.U.(._._.l.i.g.j.3.}.}.}.}.}.}.}.}.}.}.}.}.}.}.}.}.}.}.",
"}.}.}.}.}.}.}.}.}.}.}.}.}.}.}.}.}.2.3.M.j.n.H.b.n.L.!._.'.(.S.n.).'.'.(.M.x.P.(.'.(.l.U.Y.j.g.}.}.}.}.}.}.}.}.}.}.}.}.}.}.}.}.}.",
"}.}.}.}.}.}.}.}.}.}.}.}.}.}.}.}.3.h.N.F.n.G.G.p.F.P.(.'.'._.!.g.Q._._._.!.n.x.M.T.^.~.R.R.T.Y.h.}.}.}.}.}.}.}.}.}.}.}.}.}.}.}.}.",
"}.}.}.}.}.}.}.}.}.}.}.}.}.}.}.3.g.M.H.F.G.G.L.n.G.G.!._._.(.Q.S.x.L.T.!.(.R.S.N.L.~.~.^.~.^.^.P.j.}.}.}.}.}.}.}.}.}.}.}.}.}.}.}.",
"}.}.}.}.}.}.}.}.}.}.}.}.}.}.3.h.M.H.G.G.G.G.L.P.G.L.Q.~.!.!.Q.!.S.J.P.E.!.!.!.!.^.).).).).).).(.Y.j.}.}.}.}.}.}.}.}.}.}.}.}.}.}.",
"}.}.}.}.}.}.}.}.}.}.}.}.}.:.h.M.G.F.F.G.G.P.P.G.P.L.Q.!.E.E.!.E.~.!.!.!.R.R.~.^.).).).).(.).).).!.F.4.}.}.}.}.}.}.}.}.}.}.}.}.}.",
"}.}.}.}.}.}.}.}.}.}.}.}.}.<.g.F.G.F.G.P.P.G.P.L.L.P.R.R.!.!.!.~.E.R.E.E.W./.(.`.).).(.`.`.`.`.(.^.L.x.}.}.}.}.}.}.}.}.}.}.}.}.}.",
"}.}.}.}.}.}.}.}.}.}.}.}.:.p.M.F.F.F.L.L.P.P.P.P.T.R.R.!.Q.!.E.!.E.!.R.R./.).).).).(.`.[.[.[.[.`.).!.F.3.}.}.}.}.}.}.}.}.}.}.}.}.",
"}.}.}.}.}.}.}.}.}.}.}.}.<.g.H.F.F.J.U.T.P.T.P.Q.E.R.E.E.R.R.!.!.R.R./.^.).).).(.(.`.[.[.[.[.[.[.(.E.J.x.}.}.}.}.}.}.}.}.}.}.}.}.",
"}.}.}.}.}.}.}.}.}.}.}.:.3.g.F.H.H.P.U.R.Q.T.Q.Q.E.E.!.!.!.E.R.R.~.(.).).).).).`.`.[.[.[.[.[.[.[.).E.T.F.5.}.}.}.}.}.}.}.}.}.}.}.",
"}.}.}.}.}.}.}.}.}.}.}.:.i.h.F.F.F.P.R.U.T.Q.Q.Q.E./.!./.!.!././.).).).(.).`.`.[.[.[.[.[.[.[.[.[.).^.R.S.5.}.}.}.}.}.}.}.}.}.}.}.",
"}.}.}.}.}.}.}.}.}.}.}.<.g.h.F.F.G.T.T.R.Q.Q.Q.Q././././.(.(.).).).).).`.`.[.[.[.[.[.[.[.[.[.[.[.).).Q.F.p.}.}.}.}.}.}.}.}.}.}.}.",
"}.}.}.}.}.}.}.}.}.}.:.4.g.h.F.F.F.U.R.R.Q.Q.Q.!././.).(.).).).).).).`.[.[.[.[.[.[.[.[.[.[.[.[.[.).).E.F.h.4.}.}.}.}.}.}.}.}.}.}.",
"}.}.}.}.}.}.}.}.}.}.:.4.g.h.F.G.G.R.E.E.Q.Q.!.^.)./.).).).).).(.).`.[.[.[.[.[.[.[.[.[.[.[.[.[.`.).).E.F.g.5.}.}.}.}.}.}.}.}.}.}.",
"}.}.}.}.}.}.}.}.}.}.:.4.g.h.F.F.F.R.R.Q.Q.!.^.^.).(.).).).).).).).[.[.[.[.[.[.[.[.[.[.[.[.[.[.).(.^.Q.F.g.4.}.}.}.}.}.}.}.}.}.}.",
"}.}.}.}.}.}.}.}.}.}.:.3.g.h.F.F.F.L.R.E.Q.Q.!.).).).).).).).).).).[.[.[.[.[.[.[.[.[.[.[.[.[.`.).).E.E.H.h.4.}.}.}.}.}.}.}.}.}.}.",
"}.}.}.}.}.}.}.}.}.}.:.5.g.h.F.F.F.F.R.R.E.Q.!.).).).(.(.).).).).).`.[.[.[.[.[.[.[.[.[.`.`.`.(.).^.!.E.F.g.4.}.}.}.}.}.}.}.}.}.}.",
"}.}.}.}.}.}.}.}.}.}.[ 5.h.h.F.F.F.F.L.Q.E.E.Q.^.).).).).).).).).).).`.`.`.`.`.`.`.`.`.(.).).).(.Q.R.P.F.h.4.}.}.}.}.}.}.}.}.}.}.",
"}.}.}.}.}.}.}.}.}.}.}.<.i.h.F.H.F.F.F.U.Q.E.E.E./.).).).).).).(.).).).(.).(.(.).(.).(.).).).^.R.!.!.F.m.p.}.}.}.}.}.}.}.}.}.}.}.",
"}.}.}.}.}.}.}.}.}.}.}.:.3.g.M.F.G.F.F.F.L.Q.Q.E.R./.^.).).).).).).).).).(.).).).).)._.)./.~.Q.R.Q.L.F.g.4.}.}.}.}.}.}.}.}.}.}.}.",
"}.}.}.}.}.}.}.}.}.}.}.:.5.h.g.F.F.F.F.F.F.J.U.!.!.R.E.^.^.~.~.^.).).).).).).).)./.^.^.~.E.R.E.!.L.H.F.x.4.}.}.}.}.}.}.}.}.}.}.}.",
"}.}.}.}.}.}.}.}.}.}.}.}.>.i.g.M.G.F.F.F.F.Z.Z.J.U.E.E.!.!.Q.R.R./.^././././.^.^.R.R.Q.!.!.!.E.L.F.H.m.2.}.}.}.}.}.}.}.}.}.}.}.}.",
"}.}.}.}.}.}.}.}.}.}.}.}.] 5.h.g.M.H.F.F.F.F.F.Z.F.J.J.L.U.!.!.Q.E.E.!.!.!.Q.E.Q.E.U.L.L.U.L.U.F.H.M.h.` }.}.}.}.}.}.}.}.}.}.}.}.",
"}.}.}.}.}.}.}.}.}.}.}.}.}.>.p.h.g.m.H.F.F.F.H.F.F.Z.F.Z.Z.L.L.J.L.I.L.J.L.L.L.U.L.F.F.F.Z.F.F.H.m.h.1.}.}.}.}.}.}.}.}.}.}.}.}.}.",
"}.}.}.}.}.}.}.}.}.}.}.}.}.}.>.a.h.g.M.H.H.F.F.F.F.F.F.F.F.F.F.Z.F.F.Z.F.F.F.F.F.F.F.H.H.H.H.H.b.h.1.}.}.}.}.}.}.}.}.}.}.}.}.}.}.",
"}.}.}.}.}.}.}.}.}.}.}.}.}.}.}.>.p.f.h.m.m.H.J.H.F.F.F.Z.F.F.F.F.F.F.F.F.F.F.F.F.F.F.F.H.H.M.N.h.1.}.}.}.}.}.}.}.}.}.}.}.}.}.}.}.",
"}.}.}.}.}.}.}.}.}.}.}.}.}.}.}.}.[ >.f.h.h.M.M.M.H.H.H.H.G.F.H.H.H.H.G.F.F.H.H.H.H.G.H.M.N.p.1.1.}.}.}.}.}.}.}.}.}.}.}.}.}.}.}.}.",
"}.}.}.}.}.}.}.}.}.}.}.}.}.}.}.}.}._ >.1.p.p.e.p.b.M.M.M.M.M.M.M.M.M.M.M.n.M.M.M.b.x.b.e.<.>.}.}.}.}.}.}.}.}.}.}.}.}.}.}.}.}.}.}.",
"}.}.}.}.}.}.}.}.}.}.}.}.}.}.}.}.}.}.}.) >.>.>.<.5.p.e.a.p.p.p.p.p.p.p.p.p.p.p.e.,.>.[ >.}.}.}.}.}.}.}.}.}.}.}.}.}.}.}.}.}.}.}.}.",
"}.}.}.}.}.}.}.}.}.}.}.}.}.}.}.}.}.}.}.}.}.}.D F >.:.| :.:.:.:.:.:.:.:.:.:.:.| >.~ D }.}.}.}.}.}.}.}.}.}.}.}.}.}.}.}.}.}.}.}.}.}.",
"}.}.}.}.}.}.}.}.}.}.}.}.}.}.}.}.}.}.}.}.}.}.k k Z =.=.{ { { { { =.{ { { { =.=.Z k k }.}.}.}.}.}.}.}.}.}.}.}.}.}.}.}.}.}.}.}.}.}.",
"}.}.}.}.}.}.}.}.}.}.}.}.}.}.}.}.}.}.}.}.}.z z f u L ..6.7.6.7.7.6.6.7.7.6...G y f n z O.}.}.}.}.}.}.}.}.}.}.}.}.}.}.}.}.}.}.}.}.",
"}.}.}.}.}.}.}.}.}.}.}.}.}.}.}.}.}.}.}.}.o.N f i y w s L L L L L L L J J J h d d i f N o.}.}.}.}.}.}.}.}.}.}.}.}.}.}.}.}.}.}.}.}.",
"}.}.}.}.}.}.}.}.}.}.}.}.}.}.}.}.}.}.}.-.o.I d y y d N z n n n n z x K X.X.E Q H y d I o.-.}.}.}.}.}.}.}.}.}.}.}.}.}.}.}.}.}.}.}.",
"}.}.}.}.}.}.}.}.}.}.}.}.}.}.}.}.}.}.y.o.U m i y y v v E E E E E E E &.u.u.R U E d i m U o.y.}.}.}.}.}.}.}.}.}.}.}.}.}.}.}.}.}.}.",
"}.}.}.}.}.}.}.}.}.}.}.}.}.}.}.}.}.V.c.o.B d t y d v M U Y Y Y R Y R %.r.r.R U R N y p B $.y.}.}.}.}.}.}.}.}.}.}.}.}.}.}.}.}.}.}.",
"}.}.}.}.}.}.}.}.}.}.}.}.}.}.}.}.}.y.r.o.b d u u c c b T T T T T T T *.t.t.T T T c u d V E r.y.}.}.}.}.}.}.}.}.}.}.}.}.}.}.}.}.}.",
"}.}.}.}.}.}.}.}.}.}.}.}.}.}.}.}.}.I.I.9.@.a % 4 C C C S ^ ^ ^ ^ ^ ^  .,.| ! ! ! C 2 a @.9.I.I.}.}.}.}.}.}.}.}.}.}.}.}.}.}.}.}.}.",
"}.}.}.}.}.}.}.}.}.}.}.}.}.}.}.}.}.{.].K.d.}.  6 6 6 6 6 q 0 0 0 0 q q q 8 6 6 6 7 + }.q.K.].{.}.}.}.}.}.}.}.}.}.}.}.}.}.}.}.}.}.",
"}.}.}.}.}.}.}.}.}.}.}.}.}.}.}.}.}.A.^.D.w.}.  O O O o o + + + + + + + @ @ X X o O   }.w.D.^.A.}.}.}.}.}.}.}.}.}.}.}.}.}.}.}.}.}.",
"}.}.}.}.}.}.}.}.}.}.}.}.}.}.}.}.}.}.0.0.}.}.}.# # = * , > > > > > 1 2 5 5 , * * # }.}.}.0.0.}.}.}.}.}.}.}.}.}.}.}.}.}.}.}.}.}.}.",
"}.}.}.}.}.}.}.}.}.}.}.}.}.}.}.}.}.}.}.}.}.}.}.u i B B T W W W W W +.;.v.v.+.W z i }.}.}.}.}.}.}.}.}.}.}.}.}.}.}.}.}.}.}.}.}.}.}.",
"}.}.}.}.}.}.}.}.}.}.}.}.}.}.}.}.}.}.}.}.}.}.}.t y a d x H H H H H N P %.#.j j t t }.}.}.}.}.}.}.}.}.}.}.}.}.}.}.}.}.}.}.}.}.}.}.",
"}.}.}.}.}.}.}.}.}.}.}.}.}.}.}.}.}.}.}.}.}.}.}.}.< < : a d d a p p p d g g - - r }.}.}.}.}.}.}.}.}.}.}.}.}.}.}.}.}.}.}.}.}.}.}.}.",
"}.}.}.}.}.}.}.}.}.}.}.}.}.}.}.}.}.}.}.}.}.}.}.}.= & * < : ; - t t - ; < < * & = }.}.}.}.}.}.}.}.}.}.}.}.}.}.}.}.}.}.}.}.}.}.}.}.",
"}.}.}.}.}.}.}.}.}.}.}.}.}.}.}.}.}.}.}.}.}.}.}.}.3 ! & $ & S 3 }.}.3 A & & & S 3 }.}.}.}.}.}.}.}.}.}.}.}.}.}.}.}.}.}.}.}.}.}.}.}.",
"}.}.}.}.}.}.}.}.}.}.}.}.}.}.}.}.}.}.}.}.}.}.}.}.9 i.} ' } i.9 }.}.9 i.} ' } i.9 }.}.}.}.}.}.}.}.}.}.}.}.}.}.}.}.}.}.}.}.}.}.}.}.",
"}.}.}.}.}.}.}.}.}.}.}.}.}.}.}.}.}.}.}.}.}.}.}.}.}._ A.D.A._ }.}.}.}._ A.D.A._ }.}.}.}.}.}.}.}.}.}.}.}.}.}.}.}.}.}.}.}.}.}.}.}.}.",
"}.}.}.}.}.}.}.}.}.}.}.}.}.}.}.}.}.}.}.}.}.}.}.}.}.}.( ( ( }.}.}.}.}.}.( ( ( }.}.}.}.}.}.}.}.}.}.}.}.}.}.}.}.}.}.}.}.}.}.}.}.}.}.",
"}.}.}.}.}.}.}.}.}.}.}.}.}.}.}.}.}.}.}.}.}.}.}.}.}.}.}.}.}.}.}.}.}.}.}.}.}.}.}.}.}.}.}.}.}.}.}.}.}.}.}.}.}.}.}.}.}.}.}.}.}.}.}.}.",
"}.}.}.}.}.}.}.}.}.}.}.}.}.}.}.}.}.}.}.}.}.}.}.}.}.}.}.}.}.}.}.}.}.}.}.}.}.}.}.}.}.}.}.}.}.}.}.}.}.}.}.}.}.}.}.}.}.}.}.}.}.}.}.}.",
"}.}.}.}.}.}.}.}.}.}.}.}.}.}.}.}.}.}.}.}.}.}.}.}.}.}.}.}.}.}.}.}.}.}.}.}.}.}.}.}.}.}.}.}.}.}.}.}.}.}.}.}.}.}.}.}.}.}.}.}.}.}.}.}.",
"}.}.}.}.}.}.}.}.}.}.}.}.}.}.}.}.}.}.}.}.}.}.}.}.}.}.}.}.}.}.}.}.}.}.}.}.}.}.}.}.}.}.}.}.}.}.}.}.}.}.}.}.}.}.}.}.}.}.}.}.}.}.}.}.",
"}.}.}.}.}.}.}.}.}.}.}.}.}.}.}.}.}.}.}.}.}.}.}.}.}.}.}.}.}.}.}.}.}.}.}.}.}.}.}.}.}.}.}.}.}.}.}.}.}.}.}.}.}.}.}.}.}.}.}.}.}.}.}.}."
};
