/* XPM */
static char *e6eb3611bdab4fe2d3545c447aeb4089ypzTrQT2diKeOvLv[] = {
/* columns rows colors chars-per-pixel */
"64 64 212 2 ",
"   c None",
".  c #000001",
"X  c #090C0C",
"o  c #081212",
"O  c #121C1D",
"+  c #121616",
"@  c #170807",
"#  c #380C0A",
"$  c #240907",
"%  c #373A39",
"&  c #222632",
"*  c #47130B",
"=  c #4A1811",
"-  c #640C02",
";  c #671409",
":  c #781A0B",
">  c #7F1E10",
",  c #7B0E02",
"<  c #6F2116",
"1  c #7E2212",
"2  c #712317",
"3  c #542B24",
"4  c #4F2421",
"5  c #6E3329",
"6  c #7D4233",
"7  c #71423B",
"8  c #3A3A4A",
"9  c #3B4443",
"0  c #585B5A",
"q  c #565958",
"w  c #6C4643",
"e  c #795441",
"r  c #755656",
"t  c #704C47",
"y  c #5A6464",
"u  c #7A7777",
"i  c #8F1F0E",
"p  c #961E0D",
"a  c #AE1C08",
"s  c #99210F",
"d  c #882413",
"f  c #932413",
"g  c #9F2513",
"h  c #A82715",
"j  c #B42D1A",
"k  c #B72916",
"l  c #BE311D",
"z  c #A2200E",
"x  c #A93928",
"c  c #BC3925",
"v  c #8E3F34",
"b  c #C1250F",
"n  c #C82D19",
"m  c #CA321D",
"M  c #D7341E",
"N  c #E7331C",
"B  c #C93924",
"V  c #D63923",
"C  c #E73A24",
"Z  c #8E4939",
"A  c #944C3A",
"S  c #944738",
"D  c #AD513D",
"F  c #AA4634",
"G  c #DE432D",
"H  c #D44D39",
"J  c #E9442D",
"K  c #E84D35",
"L  c #F64D34",
"P  c #EB533B",
"I  c #E7523B",
"U  c #FE593F",
"Y  c #F4543B",
"T  c #9D4F42",
"R  c #905946",
"E  c #AF5543",
"W  c #AB5E52",
"Q  c #8B604A",
"!  c #946A54",
"~  c #98705D",
"^  c #A7745C",
"/  c #AF6A5F",
"(  c #816360",
")  c #B06C61",
"_  c #A57C65",
"`  c #A07F68",
"'  c #B57963",
"]  c #AB776F",
"[  c #C65341",
"{  c #D55B49",
"}  c #EC5A44",
"|  c #FF5D43",
" . c #D56B58",
".. c #E26251",
"X. c #F06650",
"o. c #C77867",
"O. c #D67668",
"+. c #E8786A",
"@. c #F67964",
"#. c #EA7D7B",
"$. c #E57A70",
"%. c #A4826B",
"&. c #A88067",
"*. c #B4896E",
"=. c #B2856E",
"-. c #A78974",
";. c #AC8A73",
":. c #A88673",
">. c #B48D73",
",. c #B38D7D",
"<. c #BA8878",
"1. c #BC967A",
"2. c #B69379",
"3. c #D5886C",
"4. c #D78B77",
"5. c #D0907A",
"6. c #E18979",
"7. c #E3947C",
"8. c #F88673",
"9. c #6A6D8F",
"0. c #747699",
"q. c #857A99",
"w. c #8A7FA1",
"e. c #8A8A8A",
"r. c #8F8F90",
"t. c #AA928C",
"y. c #AC9891",
"u. c #B09C94",
"i. c #AD9185",
"p. c #BAA59D",
"a. c #868BBA",
"s. c #BCAAA4",
"d. c #C39D83",
"f. c #CC9D82",
"g. c #EB8C8A",
"h. c #EE9A8A",
"j. c #EA9586",
"k. c #F69889",
"l. c #E49C91",
"z. c #F09D91",
"x. c #C5A285",
"c. c #CCA285",
"v. c #CDA98C",
"b. c #CCA688",
"n. c #D2A689",
"m. c #D6AA8B",
"M. c #DAAD8D",
"N. c #D3A587",
"B. c #DCAE91",
"V. c #CBB393",
"C. c #CDBB99",
"Z. c #DDB295",
"A. c #D8B698",
"S. c #C4AC94",
"D. c #E6A588",
"F. c #ECAA94",
"G. c #EFA997",
"H. c #F6A799",
"J. c #E1B596",
"K. c #E2B698",
"L. c #E5BA9A",
"P. c #EABC9E",
"I. c #E8B798",
"U. c #C1ADA4",
"Y. c #C1AFA8",
"T. c #C3B2A9",
"R. c #C5B0A6",
"E. c #F1BDA2",
"W. c #EBBFA1",
"Q. c #DEC3A5",
"!. c #D4C1B3",
"~. c #E5C4A2",
"^. c #EBC7A7",
"/. c #F2C5A6",
"(. c #F4CAA6",
"). c #F4C7A8",
"_. c #F4CBAA",
"`. c #F9C9AA",
"'. c #ECD2AE",
"]. c #F6D2AC",
"[. c #F8D6AD",
"{. c #F8C8B5",
"}. c #E6D4B2",
"|. c #F6D5B2",
" X c #FAD5B1",
".X c #F4DBB5",
"XX c #F8DDB5",
"oX c #F8DFB8",
"OX c #F5DBB8",
"+X c #F8E0B7",
"@X c #FAE2BA",
"#X c #F7E5BF",
"$X c #919BD1",
"%X c #B0BCF3",
"&X c #F8CBC4",
"*X c #FAD4CD",
"=X c #F7D1CA",
"-X c #F5E3C2",
";X c #FAE6C1",
":X c #FBEAC5",
">X c #FCEDCA",
",X c #F3E5C9",
"<X c #FDF3CC",
"1X c #FBF1D5",
"2X c #FEFBD3",
"3X c #FEFCD9",
"4X c #FBF2DC",
"5X c #FAEFD4",
"6X c #FAF4E3",
"7X c #FAF8EC",
"8X c #FEFEF1",
"9X c #DDDEDE",
/* pixels */
"                                                                                                                                ",
"                                                                                                                                ",
"                                                                                                                                ",
"                                                                                                                                ",
"                                                                                                                                ",
"                                                              V.V.b.                                                            ",
"                                                    V.V.d.*.v.3X2X#X>.c.b.                                                      ",
"                                                d.C.3X:XW.P.XXOXoX~.~.#X2X<X                                                    ",
"                                              %.(.2X~.M.b.)./.).Z.c.J.|.>X2X#X`                                                 ",
"                                              n./.K.J.J.J.J.).J.J.L.J.L.XX<X<XC.                                                ",
"                                          >.*.).K.J.].].(.J.J.J.XX@X@XL.L.#X2X<Xb.&.                                            ",
"                                      >.1.N.P./.n.(.].XX@X|.n.(.#X2X2X@Xm.].#X2X<XV.c.N.m.                                      ",
"                                    >.I.M.Z.^.~.K.].@X<X2X:X~.L.<X2X2X>XL.J.].#X2X:XV. X Xm.N.                                  ",
"                                  B.W.(.L.(.(.7./.].:X2X2X<X+Xm.@X<X<X>X+XL.J.L.XX;X@X@XoXXX Xm.                                ",
"                                M.K./.(.(.(.(.P.(.].@X<X<X:XoX~.J.].|.#X#X@X~.~.[.#X;X;X#X;X;X Xm.                              ",
"                              M.K.(./.(.(.].].[.].].+X#X@X+X@X@X~.].[.oX@X@X@X@X;X>X>X>X>X>X>X;X Xm.                            ",
"                            M.L.)./.).(.].].].].].].+X@X@X@X@X@X@X@X@XoXoXoX;X;X>X>X>X:X:X>X>X>X@X/.1.                          ",
"                          2.m./././.(.].].].].].].[.XX+X@X@X@X@X@XoXoXoXoX;X>X>X>X>X>X1X1X1X1X:X;X].Z.                          ",
"                          c.K././.).].[.[.[.[.[.|.XXoX@XXX+X+X@X@XXXoXoX;X:X>X>X>X:X1X6X6X6X6X4X>X#X/.1.                        ",
"                        2.M.).).).(.[.[.[.[.XX[.oXXXoXoXoXoX+X+XoXoX;X;X>X>X>X:X>X1X6X6X6X6X6X6X>X@X(.Z.                        ",
"                        1.m././.(.[.XX[.+XXXXX+XoX@X@X@XoXoXoXoX@X;X>X>X>X:X>X1X4X6X6X6X6X6X6X4X>XXX[./.5.                      ",
"                        1.m./.).).[.[.XX+X+X+X+X@X@X@X@X#X@X;X;X>X<X>X>X:X1X4X6X6X6X6X6X6X6X6X6X>X;X.X/.x.                      ",
"                      2.B.B././.).|.XXXX+X+X+X+X#X;X;X;X;X:X>X>X:X>X>X1X4X6X6X6X6X6X6X6X6X6X6X6X>X<XoX/.b.                      ",
"                      1.M.B././.).XXXX+X+X+X+X@X;X:X>X>X>X>X:X>X>X:X1X6X6X6X6X6X6X6X6X6X6X6X6X6X>X,XoX/.m.1.                    ",
"                      1.M.M./.).).[.+XXXoXoX@X;X:X:X-X>X>X>X>X>X>X1X6X6X6X6X4X6X6X6X6X6X6X6X6X5X>X>X@X).m.d.                    ",
"                    -.1.m.M././.).XXXX+XoX@X@X;X:X2X2X>X>X>X>X>X>X6X6X6X6X8X7X6X6X6X6X6X6X6X6X>X>X;XXX/.M.d.                    ",
"                    -.1.m.M./.).).].XX+XoX@X#X>X2X;.,.2X>X>X>X:X>X6X6X6X7Xi.i.7X6X6X6X6X6X6X1X>X>X@XXX/.m.d.                    ",
"                    ;.1.m.M././././.XX+XoX@X@X,X-.$ @ %.>X>X>X>X>X4X6X6Xi.$ @ i.6X6X6X5X4X5X>X>X;X+X@X/.m.d.                    ",
"                    %.1.M.M././././.].+XoXXX@X.X# . . = -X>X>X>X>X>X4X,X# . . = ,X4X5X>X>X>X>X;XXXXX]./.M.1.                    ",
"                      >.c.M.)././././.[.@XXX@X.Xs.r.. 4 -X5X>X>X>X>X:X:Xs.e.X 3 -X>X:X>X>X>X;XXX@X@X/.K.b.                      ",
"                      -.2.M.L./././.)./.].@X@XXXs.e.8 4 -X1X>X>X>X>X>X:Xs.e.8 3 -X<X>X>X:X;XXXoX@X]./.m.x.                      ",
"                      %.1.M.m././././././._.|.'.# & 9.w .X;X#X;X>X>X<X=X* & 9.t .X:X;X;XXXXX@X@X]./.).B.1.                      ",
"                        >.c.m.L._./././.E.E./.^.w 0.a.( .X@XXXXX#X;X:XXXt 0.a.( '.@X+X+X@X+X]. X/.).K.1.!.                      ",
"                        ~ 1.M.m.L.)._._.(.).`.L.r $X%Xr ^.@X@X@X@X+X#X'.r $X%Xr ].#X|.|.|.|./././.L.M.~                         ",
"                          _ n.M.m.L.G.G.G.G.G.^.,.r.q.,./.].]._.]._. X].,.w.q.,.|.E.F.F.G.G._.(.I.M.*.Y.                        ",
"                            _ b.B.4.#.g.g.g.g.h.`.] =.`.G.P./.)./.W.E.G.).=.>._.g.#.g.g.g.g.h.K.Z.*.U.                          ",
"                            U._ n.4.+.#.#.#.#.h.E.{. XE.3./.(.D.D.)./.3.E. X`./.j.+.#.#.#.#.j.M.*.U.                            ",
"                              U._ _ 4.g.4.j.j.P._.)./.E.D.7.7.F.F.7.7.D.E.).).).`.F.h.j.j.4.*.=.U.                              ",
"                                T.p.] *.n.n.n.c.I.I.I.L.P.3.3.P.L.3.4.P.L.I.I.L.Z.Z.A.m.*.` p.T.                                ",
"                                    T.p._ ^ :.;.f.c.c.N.c.v.v.c.c.v.v.f.N.N.c.f.;.%.^ _ p.R.                                    ",
"                                        T.s.E E =.;.` %.%.;.;.;.;.;.;.%.%.%.-.:.D E T.T.                                        ",
"                                          l.m n S S o.o.) Z S S A A Z ' o.o.A D n n l.                                          ",
"                                        h.k n l p s [ 8.@.x , f f , x @.8.[ k z l n k h.                                        ",
"                                      &XI V l h f s h [ H.H.) 1 , ) H.G.H h M c h l V P                                         ",
"                                      +.} J l f f j V B o.*X*Xf ) &X*XO.{ K J K f j J } 8.                                      ",
"                                    G.} K B h f s V V Y V  . .$.&X&XO.{ k.P P K j h V K } z.                                    ",
"                                    H.} C j f f h m k m V  .O.&X&XO.H k.j.P K P V f j C } G.                                    ",
"                                  z.k.} N a g s N C $.$.#.*X*X{.+.M X.k.k.L L L M g a N } h.z.                                  ",
"                                    {.7. .3.= 5 S S t.t.p.t.t.t.Z W ] ] ] T T T Z 5 5. .7.{.{.                                  ",
"                                    3X}.U.9X+ % 9 9 % % q 0 0 0 y y 0 0 y 9 9 9 % &   S.}.3X                                    ",
"                                    -X'.d.9XX X o o o o O O O O O O O + + o o o X X   d.'.;XQ.                                  ",
"                                    1.1.    u * * ; ; < < < < < < 2 5 7 7 < 2 ; * u     1.2.                                    ",
"                                              x z C C L U | U U | | @.H.H.| U n x       U.                                      ",
"                                              i i j j m V G G G G G I .. .B l i i                                               ",
"                                              <.d > > j l j j a a j j k h > > d <.                                              ",
"                                                < - : 1 1 , > <.<.> , > 1 : - 2                                                 ",
"                                                6 Z - - ; Z 6     6 Z ; - - A 6                                                 ",
"                                                e d.' ^ ' x.e     e x.' ^ ' x.e                                                 ",
"                                                u.! Q.}.Q.! u.    u.! Q.}.Q.!                                                   ",
"                                                  y.Q Q Q y.        y.Q Q Q u.                                                  ",
"                                                    p.t.u.            u.t.u.                                                    ",
"                                                                                                                                ",
"                                                                                                                                ",
"                                                                                                                                "
};
