/* XPM */
static char *c343124bbd344f1f866c4b5e34ecdbec1GZcYq32wBOlMZO8[] = {
/* columns rows colors chars-per-pixel */
"64 64 210 2 ",
"   c None",
".  c #030000",
"X  c #150100",
"o  c #1F1416",
"O  c #2B0E0A",
"+  c #250C09",
"@  c #2A1715",
"#  c #321814",
"$  c #321A16",
"%  c #322220",
"&  c #232F30",
"*  c #2F3938",
"=  c #333E3D",
"-  c #730300",
";  c #790902",
":  c #7E2616",
">  c #3C4443",
",  c #4B455B",
"<  c #594A59",
"1  c #4C5353",
"2  c #5F5055",
"3  c #744F44",
"4  c #554761",
"5  c #880D00",
"6  c #960B00",
"7  c #9A1506",
"8  c #8F1405",
"9  c #AB0D00",
"0  c #A60900",
"q  c #A31301",
"w  c #AB1401",
"e  c #B51401",
"r  c #BA1705",
"t  c #852A19",
"y  c #872718",
"u  c #992314",
"i  c #96301E",
"p  c #BA301F",
"a  c #B02917",
"s  c #9B3827",
"d  c #A33B28",
"f  c #C21300",
"g  c #CC1500",
"h  c #DB1400",
"j  c #D61802",
"k  c #E61802",
"l  c #F01D06",
"z  c #C5230E",
"x  c #D12B15",
"c  c #E82108",
"v  c #FB260D",
"b  c #E82B13",
"n  c #F42B12",
"m  c #F82D14",
"M  c #EA311A",
"N  c #E7311A",
"B  c #FE321A",
"V  c #C13E2D",
"C  c #DB3C29",
"Z  c #EC3A24",
"A  c #E13924",
"S  c #FF3B22",
"D  c #F53D27",
"F  c #814D3A",
"G  c #A94735",
"H  c #B3513C",
"J  c #D24533",
"K  c #FB4B35",
"L  c #F8533C",
"P  c #E04936",
"I  c #845640",
"U  c #93644E",
"Y  c #8D6755",
"T  c #9F6F57",
"R  c #BB765D",
"E  c #AA6C56",
"W  c #9A7262",
"Q  c #927368",
"!  c #956F61",
"~  c #AA7B64",
"^  c #A67661",
"/  c #BF7E64",
"(  c #BF7F76",
")  c #A27C7F",
"_  c #C95E50",
"`  c #FA5E4A",
"'  c #EC5D4B",
"]  c #D66759",
"[  c #D06D5B",
"{  c #F2634C",
"}  c #E96A5B",
"|  c #FF6956",
" . c #D97563",
".. c #C37B72",
"X. c #FC7767",
"o. c #FC7A7B",
"O. c #FA7575",
"+. c #F3716A",
"@. c #AD8269",
"#. c #AD8167",
"$. c #B3856B",
"%. c #B6886E",
"&. c #BB896F",
"*. c #BB866C",
"=. c #AE8979",
"-. c #BB8C72",
";. c #B28677",
":. c #BC9176",
">. c #BC947A",
",. c #CA8877",
"<. c #DB8674",
"1. c #C09173",
"2. c #C59679",
"3. c #CE9B7D",
"4. c #C6987C",
"5. c #D09D7E",
"6. c #DE9B7A",
"7. c #FE8C7E",
"8. c #FA8778",
"9. c #EC937C",
"0. c #EC9677",
"q. c #E48B78",
"w. c #E0A07F",
"e. c #777AA6",
"r. c #A07C80",
"t. c #867DA3",
"y. c #979091",
"u. c #B38A86",
"i. c #8781A9",
"p. c #C79B86",
"a. c #D59A84",
"s. c #FB948C",
"d. c #FC9A8B",
"f. c #F39B87",
"g. c #F5968C",
"h. c #CAA385",
"j. c #C8A587",
"k. c #D4A284",
"l. c #DBA585",
"z. c #D4AE8D",
"x. c #DFA889",
"c. c #DFA886",
"v. c #C9A498",
"b. c #D8B696",
"n. c #D5B08D",
"m. c #E4AC8B",
"M. c #E3A485",
"N. c #F4AB8D",
"B. c #F8A48A",
"V. c #E6B08E",
"C. c #EAA795",
"Z. c #FCA995",
"A. c #E5B290",
"S. c #EBB594",
"D. c #ECBB96",
"F. c #E0BA96",
"G. c #F0B997",
"H. c #F4BC9A",
"J. c #FABE9E",
"K. c #F9B296",
"L. c #D3B2AE",
"P. c #FFBEAB",
"I. c #FDBCB3",
"U. c #E9C19C",
"Y. c #F5C29D",
"T. c #F9C09E",
"R. c #E7C5A5",
"E. c #FCC4A2",
"W. c #F4CBA4",
"Q. c #FDCCA4",
"!. c #FDCFA9",
"~. c #F5C9A5",
"^. c #EFD3AC",
"/. c #FED1A4",
"(. c #F4D6AE",
"). c #FDD4AB",
"_. c #FFDAAE",
"`. c #FFC4BC",
"'. c #E9D3B4",
"]. c #FEDEB2",
"[. c #F7D9B1",
"{. c #FFE1B5",
"}. c #FEE5BA",
"|. c #FFE6BC",
" X c #FEE4BA",
".X c #FEE9BE",
"XX c #EFE2BA",
"oX c #9499D6",
"OX c #E6D7C6",
"+X c #FEEAC2",
"@X c #FEEDC3",
"#X c #FFECC5",
"$X c #FEEDC6",
"%X c #FEEBC4",
"&X c #FEEECB",
"*X c #F6EDC4",
"=X c #FFF1C5",
"-X c #FFF4CB",
";X c #FFFACD",
":X c #FDEFD1",
">X c #FAEEDC",
",X c #FDF2D5",
"<X c #FFFCD1",
"1X c #FDF2D9",
"2X c #FDF2DD",
"3X c #FFFADD",
"4X c #FDF3E0",
"5X c #FCF4E2",
"6X c #FDF4E2",
"7X c #FEF8E4",
/* pixels */
"                                                                                                                                ",
"                                                                                                                                ",
"                                                                                                                                ",
"                                                                                                                                ",
"                                                                                                                                ",
"                                                                                                                                ",
"                                                                                                                                ",
"                                                                                                                                ",
"                                                                                                                                ",
"                                                                                                                                ",
"                                                                                                                                ",
"                                                                                                                                ",
"                                                                                                                                ",
"                                                                                                                                ",
"                                                            j.*X[.>.$.                                                          ",
"                                                    j.XXW.c.R.+X[.A.^.(.z.                                                      ",
"                                                  5.{.(.m.D.Q.J.c.S.{.<X^.#.                                                    ",
"                                                &.D.H.S.S.S.G.D.Y.Y.U..X-Xb.%.                                                  ",
"                                            -.4.m.G.S./._.W.m.~..X=XY.U.=X=Xn.k.k.                                              ",
"                                        -.3.m.V.Y.S.Y.{.=X=XY.W.;X;X(.V.).=X%XF.Q.D.l.                                          ",
"                                      1.c.H.T.T.Y.S./..X;X;X(.S.}.=X.XW.A.U.{.}.{.].).V.                                        ",
"                                    1.c.H.E.E.Q./.Y./.]..X{.{.W.Y.).{.{.).).|.%X%X%X%X[.A.                                      ",
"                                  @.l.H.E.T.Q././././.{.{.{.{.].].].{.]. X%X$X$X%X%X%X+X!.a.                                    ",
"                                  -.m.E.E.Q./././././._.{.{.{.{.].].].}.%X$X$X$X,X1X:X%X].S.                                    ",
"                                #.3.T.E.T./.).).)._._.{.].].].].].{.}.%X%X@X%X1X5X5X5X:X|.E.k.                                  ",
"                                %.l.T.E.).)._._.].].].{.{.].].{..X.X%X@X%X,X1X6X4X4X5X1X}.).S.                                  ",
"                                :.c.T.E.)._._._.{.{.{.}.}.{.|.%X%X%X%X,X1X6X6X6X2X5X5X1X%X].S.                                  ",
"                              @.5.m.J.E.)._.].{.].{..X.X%X%X%X=X@X-X2X2X5X6X2X6X5X5X5X1X%X{.G.                                  ",
"                              $.5.m.T.E.)._._.{.{.}.%X%X%X%X%X%X&X2X5X2X6X2X6X5X5X5X5X:X%X{.G.                                  ",
"                              $.5.m.T.E.).].].{.{.@X%X%X-X%X%X%X1X5X5X2X>X7X5X2X5X6X1X%X%X].G.                                  ",
"                              @.5.m.J.E.E._.{.].}.|.Y 3 '.=X%X%X,X5X>XQ 3 OX7X5X2X2X&X%X{.].H.                                  ",
"                              $.5.m.Y.T.T.).{._..X>.X . W -X%X%X%X3Xv.X . ! 2X:X$X$X$X X]._.G.                                  ",
"                                :.l.J.E.E.E.).].{.R.y.@ Y <X%X$X%X=X'.y.o Y -X$X$X%X X].].E.m.                                  ",
"                                %.l.S.E.E.T.E.). Xp.< , W $X+X%X%X-Xb.2 , W $X%X|.{.].].).E.l.                                  ",
"                                $.3.m.H.E.E.T.J.).$.4 e.=.}.].{.|.-X4.< e.=.{.{.].].).Q.E.G.5.                                  ",
"                                  *.c.m.J.E.J.P.E.2.t.oX;.].].].[.}.j.i.oX=.{.).Q.!.Q.E.H.k.                                    ",
"                                  ~ 2.m.M.s.s.s.d.K.u.r.V.T.E.Q.Q.T.H.u.r.S.Z.s.s.s.K.G.l.-.                                    ",
"                                    ^ 2.q.+.o.o.o.Z.J.H.B.N.E.N.J.K.f.T.H.K.O.O.o.o.s.w.&.                                      ",
"                                      ~ $.<.q.9.f.G.E.E.K.0.9.N.0.0.N.E.E.E.Z.f.9.<.,.*.                                        ",
"                                          ~ &.2.>.a.m.m.V.M.6.m.l.0.m.m.m.c.p.3.-.#.                                            ",
"                                              ^ H E ,.%.$.-.-.-.:.>.%.%.&.R H E                                                 ",
"                                                h z s ]  .G i d i s [  .G p h                                                   ",
"                                              b j e 6 x X.+.u 6 7 ] 8.C g r g c L                                               ",
"                                            | B g q e h P I.C.u a.`.} b m x e m ` 7.                                            ",
"                                          7.K l e 7 g l n P } g.OX{ } | S M r j S X.                                            ",
"                                          s.B h q r k M Z } Z.I.` K d.` B B g f v X.Z.                                          ",
"                                        P.K.{ x 8 u p ( p.v.L...V [ p._ J p y r L B.P.                                          ",
"                                        ,X-Xb.    = * * , 1 1 1 4 1 , > * = &   n.%X<X                                          ",
"                                        b.R.z.    + + O # # # # O # % O O O     h.R.b.                                          ",
"                                          ^       6 f h M Z Z Z Z ' g.' M e       ~                                             ",
"                                                  q r g c m n n n D ` A z w                                                     ",
"                                                  5 ; 5 w 9 9 9 9 0 9 6 ; 5                                                     ",
"                                                    t ; ; y t   : y ; - t :                                                     ",
"                                                    ~ *.R *.U   I $.R R *.I                                                     ",
"                                                    U 3.h.#.      T h.h.T                                                       ",
"                                                                    F F                                                         ",
"                                                                                                                                ",
"                                                                                                                                ",
"                                                                                                                                ",
"                                                                                                                                ",
"                                                                                                                                ",
"                                                                                                                                ",
"                                                                                                                                ",
"                                                                                                                                "
};
