/* XPM */
static char *_ad6ab7fd79148e9cc676b229c863f81nn7T9cfSEU7qMRFK[] = {
/* columns rows colors chars-per-pixel */
"64 64 147 2 ",
"   c None",
".  c #946E44",
"X  c #937247",
"o  c #9C7546",
"O  c #9A744A",
"+  c #9E784F",
"@  c #9F7A52",
"#  c #A37B4C",
"$  c #A27D54",
"%  c #A17E58",
"&  c #97805F",
"*  c #A58154",
"=  c #A88354",
"-  c #A6845C",
";  c #A9855A",
":  c #AC895D",
">  c #B2895C",
",  c #9E8462",
"<  c #9E8972",
"1  c #A58660",
"2  c #AA8560",
"3  c #A68965",
"4  c #AD8C62",
"5  c #A48B69",
"6  c #A88D6A",
"7  c #B18F64",
"8  c #AF926A",
"9  c #B29166",
"0  c #B4946B",
"q  c #B8966E",
"w  c #BA996E",
"e  c #A48E70",
"r  c #AC9474",
"t  c #AB9876",
"y  c #A5947F",
"u  c #AA957D",
"i  c #AD997B",
"p  c #B79770",
"a  c #B59A74",
"s  c #BA9C74",
"d  c #B29B7E",
"f  c #BB9F79",
"g  c #BDA17C",
"h  c #C0A47E",
"j  c #C5A87F",
"k  c #AF9D84",
"l  c #B29D81",
"z  c #B89E81",
"x  c #AC9E92",
"c  c #B4A284",
"v  c #BCA583",
"b  c #B6A689",
"n  c #BAA58A",
"m  c #BEAB8D",
"M  c #BBAD93",
"N  c #B0AA9D",
"B  c #BFB096",
"V  c #BFB7A6",
"C  c #BFB7AF",
"Z  c #C1A682",
"A  c #C4AA85",
"S  c #C5AD8B",
"D  c #C9AE8A",
"F  c #C6B08F",
"G  c #CCB28F",
"H  c #C4AF93",
"J  c #C3B295",
"K  c #CCB594",
"L  c #CDB996",
"P  c #C4B59C",
"I  c #C9B69B",
"U  c #CCBA9C",
"Y  c #D1B997",
"T  c #D2BC9B",
"R  c #C0B6A4",
"E  c #C5BAA4",
"W  c #CBBDA3",
"Q  c #C5BAAA",
"!  c #C9BEAF",
"~  c #D1BEA0",
"^  c #CDC1A6",
"/  c #CFC4AA",
"(  c #D5C2A4",
")  c #D9C5A6",
"_  c #D9C8A7",
"`  c #D3C5AB",
"'  c #DAC6AA",
"]  c #D5C8AE",
"[  c #DBCAAD",
"{  c #C6C3B3",
"}  c #C9C3B4",
"|  c #C6C5B9",
" . c #CBC5BA",
".. c #CCCBBE",
"X. c #D2C5B3",
"o. c #D4CAB2",
"O. c #DCCDB3",
"+. c #D0C6B9",
"@. c #D4CCBB",
"#. c #DACEBA",
"$. c #DDD0B6",
"%. c #DDD2BB",
"&. c #E0CFB3",
"*. c #E2D2B6",
"=. c #E3D5BB",
"-. c #E9D6BB",
";. c #E5D8BD",
":. c #E8D9BD",
">. c #CCCCC0",
",. c #D1CCC1",
"<. c #DCD5C2",
"1. c #D6D1C8",
"2. c #DAD6CC",
"3. c #DEDAD0",
"4. c #E3D7C1",
"5. c #E5DBC3",
"6. c #EADDC4",
"7. c #E5DDCA",
"8. c #EADECA",
"9. c #ECE1C6",
"0. c #E6E0CC",
"q. c #EDE3CB",
"w. c #EEE9CF",
"e. c #F1E5CD",
"r. c #F8E7CE",
"t. c #F2E8CF",
"y. c #E3E1D1",
"u. c #EEE6D2",
"i. c #EFE8D3",
"p. c #ECECDB",
"a. c #F1E7D0",
"s. c #F3EAD4",
"d. c #FAEDD3",
"f. c #F5EEDA",
"g. c #F9EFD9",
"h. c #F6F1DD",
"j. c #FAF2DD",
"k. c #F6EEE0",
"l. c #F7F3E2",
"z. c #FBF5E2",
"x. c #FEF9E5",
"c. c #F7F4E8",
"v. c #FBF7EA",
"b. c #FDFAEB",
"n. c #FEF7F2",
"m. c #FEFCF2",
"M. c #FEFEF9",
/* pixels */
"                                                                                                                                ",
"                                                                                                                                ",
"                                                                                                                                ",
"                                                                                                                                ",
"                                                                                                                                ",
"                                                                                                                                ",
"                                                                                                                                ",
"                                                                                                                                ",
"                                                                                                                                ",
"                                                                                                                                ",
"                                                                                                                                ",
"                                                                                                                                ",
"                                                                                                                                ",
"                                                                                                                                ",
"                                                                                                                                ",
"                                              Q / X./ ] 4.<. ...,.+. .>.                                                        ",
"                                          Q  .<.5.w.f.z.j.j.h.g.d.s.9.7.1. .                                                    ",
"                                      Q X.7.k.c.c.m.b.b.z.j.h.h.a.O.J -.e.5.%.X.+.                                              ",
"                                    Q %.g.v.v.n.m.m.b.v.b.h.h.h.8.Q , a D H B $.8.+.!                                           ",
"                            V E X.%.8.j.v.b.b.x.z.z.z.x.b.l.0.0.e.5.c , 5 t U ;.*.W ( X.}                                       ",
"                          B ^ =.:.6.h.x.b.b.s.9.w.j.j.i.x.z.i.;.9.t.e.6.9.9.] g c [ r.j.f.y.,.                                  ",
"                        B ( $.o.<.h.j.h.6.$.4.u.j.x.p.f.x.z.s.0.4.5.[ ` 6.d.9.w.j.b.x.x.b.m.c.3.>.                              ",
"                    N n ~ ( ^ 9.x.j.;.W ` 9.j.b.b.z.z.l.x.x.g.q.6.9.;.U b b B ] 9.t.x.x.b.b.m.m.p...                            ",
"                    k G F ^ d.j.9.P B $.s.z.x.x.l.x.z.h.l.x.x.s.;.6.r.g.9.o.B d d B $.f.b.b.m.b.m.v.2.                          ",
"                  k g v W u.d.&.n U 9.s.z.b.x.w.%.b.j.i.z.f.s.j.q.^ w.j.u.q.j.d.w.0.q.h.x.b.m.m.m.m.m.y.|                       ",
"                t a a U 6.e.` d ( q.w.s.j.j.u.Q 5.j.<.i.z.5.;.z.h./ I j.z.X.T r.j.z.x.b.b.b.b.m.m.m.m.b.y.                      ",
"                i 6 J :.9.o.b ( 9.6.e.j.e._ B %.j.#.0.j.j.$.W g.9.;.J U x.z.P b 9.j.c.b.b.b.m.m.m.M.M.v.b.1.                    ",
"              l 6 a :.6.=.H W 6.9.s.s.O.m U e.j.%.5.j.w.f.O.M a.%.` -.b o.v.x.U c =.h.x.b.b.m.m.m.M.M.b.l.f. .                  ",
"              t 4 ) 8.;.U Y 5.8.i.u.E P 6.x.x.o.%.j.j.<.j.5.l q.$.U 9.%.c 5.b.z.` m O.f.b.b.m.m.M.M.M.c.l.s.<.                  ",
"              6 v -.:.] U =.6.a.;.B ` j.b.b.$.$.h.b.s.%.b.5.l a.4.I 9.s.o.M s.m.x.5.K ] p.z.b.m.m.m.M.c.l.i.q. .                ",
"            y 6 T =.&.( O.5.e.=.E ;.x.b.b.;.] s.x.m.9.@.M.5.n f.q.J ;.s.j.^ ~ z.m.v.s.] $.j.x.b.v.v.c.c.k.q.t.,.                ",
"            < f ) &.' ' =.6.5.` 7.b.b.b.w.U u.v.m.b.$.%.M.6.H l.s.I =.s.z.s.W #.b.m.b.g.9.0.j.z.c.c.c.c.f.e.e.<.                ",
"            u h ( [ [ [ ;.5./ 9.x.b.b.h.^ %.z.b.m.b.O.5.M.8.] b.f.W O.s.z.x.9.I i.m.m.b.z.s.g.z.v.k.k.k.p.u.9.7.|               ",
"            l Z T [ &.*.:.$.;.g.z.b.x.%.o.h.b.n.c.z.o.7.m.8.6.m.l.! ` d.c.v.x.*.X.z.b.b.b.b.z.z.v.z.k.g.f.u.9.q. .              ",
"            d Z L ( &.=.;.=.t.d.z.x.g.o.p.x.n.m.v.j.@.8.m.q.y.m.b.O.` a.z.x.v.g.] 9.b.b.b.b.v.v.v.k.g.f.s.i.q.9.X.              ",
"            t s G Y &.;.;.9.e.s.z.x.0.<.z.x.b.m.z.j.#.5.b.7.q.m.b.8.o.a.z.b.x.x.t.9.x.b.b.b.v.v.z.k.s.s.s.u.q.e.o.              ",
"            r s j G ) -.9.9.9.j.x.z.7.f.x.x.b.b.j.d.=.4.x.7.9.n.m.s.$.e.z.x.b.b.x.g.j.b.x.v.v.l.g.f.s.i.t.q.9.5.o.              ",
"            r q g D L &.;.:.w.j.b.h.s.j.j.x.b.b.j.t.;.%.h.9.6.b.b.l.9.9.j.b.b.b.x.x.x.z.z.v.z.z.f.s.u.w.q.9.6.=.X.              ",
"            r 0 g A G ) -.:.e.g.j.j.j.j.x.x.x.b.g.w.9.%.d.q.8.l.l.z.s.u.x.x.b.x.v.j.j.z.j.z.l.k.p.u.a.w.9.6.;.&.(               ",
"            < 0 w g A Y ) -.9.t.w.s.f.h.j.z.x.x.z.w.9.;.e.s.q.s.g.f.h.h.j.z.z.j.j.z.j.g.j.j.f.f.u.a.u.8.5.5.=.) U               ",
"              4 p f f D Y ) -.:.9.w.w.p.f.j.x.x.j.w.8.6.9.d.u.s.f.f.f.z.z.j.z.j.g.z.f.f.f.f.s.i.a.s.9.6.;.*.] T J               ",
"              - 7 0 s g A Y ) *.;.;.9.9.d.h.j.x.z.a.9.9.8.u.s.s.s.s.f.j.j.z.j.j.k.f.f.f.f.s.p.a.u.9.;.*.[ ` T K H               ",
"              + ; 7 0 q s A G T _ *.6.9.s.h.j.x.z.d.q.8.e.a.s.s.s.s.s.f.z.f.j.j.h.f.f.f.s.u.u.u.8.5.$.` ( L A m n               ",
"                # = > 7 9 s h D T _ *.6.q.h.j.h.z.f.a.u.u.q.u.w.s.s.f.f.f.h.f.f.f.s.s.s.w.e.8.6.-.[ T L F j w z x               ",
"                O # = = 4 9 w g A K ( [ %.w.g.h.g.g.a.a.e.w.w.u.w.t.s.s.s.f.d.d.a.a.e.8.9.6.=.=.) K S v g p 0 i                 ",
"                  O # = ; : 9 w s A L ( [ ;.9.t.d.d.a.e.q.w.q.q.q.q.s.s.d.s.s.e.9.6.5.4.=.&.[ U A h s p 0 4 t i                 ",
"                    o * = = : 9 0 a g K U ( $.=.5.6.6.8.9.9.9.9.9.q.w.s.a.e.9.6.5.=.O.O.' ~ A a p 9 7 : ; 4 r                   ",
"                      o * ; ; 4 9 9 w g A G T ) [ [ O.&.&.=.=.;.;.%.;.:.6.6.:.*.&.) ( Y S s 8 4 4 4 * $ ; 6 y                   ",
"                        O ; 4 : 4 9 9 9 s g S L T ( ) ' _ ) [ ] &.&.[ &.&.] ' T L F g a 0 4 : : ; $ $ $ 4 5                     ",
"                          . $ : 4 4 9 4 0 s g Z D U U T ( ) ) ) ~ ) ~ T L K S A g p 8 8 4 : : * # # $ 2 6                       ",
"                              + * 4 7 4 9 0 w w f v D G G K T T Y Y K G D Z z s 0 0 9 : : ; * # $ - 3 3                         ",
"                                  X $ 4 > 9 0 w q p f f h A A A D A A Z Z f a 0 9 4 : * * * = ; 4 3                             ",
"                                        $ 2 4 0 q s q q s s s s s s h f f p 8 7 : ; - ; - 2 1 1                                 ",
"                                              @ - 4 7 0 0 0 0 0 q 0 0 9 8 4 4 4 4 - - - -                                       ",
"                                                        $ $ $ - - ; - 2 1 - - - %                                               ",
"                                                                                                                                ",
"                                                                                                                                ",
"                                                                                                                                ",
"                                                                                                                                ",
"                                                                                                                                ",
"                                                                                                                                ",
"                                                                                                                                ",
"                                                                                                                                ",
"                                                                                                                                "
};
