/* XPM */
static char *_daac6377c00430780c8aef441cb0488xngpX1kEbbxEzGzm[] = {
/* columns rows colors chars-per-pixel */
"64 64 188 2 ",
"   c None",
".  c #090E0E",
"X  c #060F10",
"o  c #091212",
"O  c #131B1C",
"+  c #121616",
"@  c #363E3D",
"#  c #232D2D",
"$  c #48120A",
"%  c #4D140C",
"&  c #660E03",
"*  c #610700",
"=  c #671409",
"-  c #7D1D0E",
";  c #73180A",
":  c #7F1E10",
">  c #6F2116",
",  c #712215",
"<  c #7E2212",
"1  c #71251A",
"2  c #6E352C",
"3  c #6F2F25",
"4  c #7D4334",
"5  c #71423B",
"6  c #3B4443",
"7  c #585E5D",
"8  c #795441",
"9  c #596363",
"0  c #576161",
"q  c #7A7777",
"w  c #8F1F0E",
"e  c #871B0A",
"r  c #A81A05",
"t  c #B31F0A",
"y  c #9B210F",
"u  c #882413",
"i  c #932313",
"p  c #9C2412",
"a  c #A52816",
"s  c #A92714",
"d  c #B42D1A",
"f  c #B72A16",
"g  c #B9311D",
"h  c #8E3F34",
"j  c #A73625",
"k  c #BB3824",
"l  c #C1250F",
"z  c #C62B17",
"x  c #C5301B",
"c  c #CC311D",
"v  c #D6331E",
"b  c #E4331C",
"n  c #CA3721",
"m  c #C03B27",
"M  c #D63823",
"N  c #E83B24",
"B  c #8D4E3B",
"V  c #914236",
"C  c #954D3B",
"Z  c #AD513E",
"A  c #BD4B3A",
"S  c #DE432D",
"D  c #C94E3B",
"F  c #C84A38",
"G  c #C9513F",
"H  c #DE4F3A",
"J  c #E9432C",
"K  c #E94D35",
"L  c #E74F38",
"P  c #E64E37",
"I  c #F54D34",
"U  c #EA523B",
"Y  c #E75039",
"T  c #F2543C",
"R  c #FE593F",
"E  c #9C4F42",
"W  c #8A5D47",
"Q  c #9D5145",
"!  c #AD5747",
"~  c #A95C50",
"^  c #8B604A",
"/  c #946A54",
"(  c #98705D",
")  c #A7745D",
"_  c #A57C65",
"`  c #B17B63",
"'  c #AC7E77",
"]  c #AA6A60",
"[  c #C95644",
"{  c #EC5A44",
"}  c #FF5D43",
"|  c #D76F57",
" . c #EC614A",
".. c #E46553",
"X. c #F4705B",
"o. c #C17462",
"O. c #C97D6A",
"+. c #ED7C6A",
"@. c #FF7B65",
"#. c #A3826B",
"$. c #AB826A",
"%. c #B3856A",
"&. c #B5896F",
"*. c #AA8671",
"=. c #A78873",
"-. c #A98A74",
";. c #B38D74",
":. c #BC857D",
">. c #BA8F72",
",. c #BC967A",
"<. c #B79379",
"1. c #C98479",
"2. c #C0997D",
"3. c #FA8674",
"4. c #FC8A77",
"5. c #E89478",
"6. c #A9948B",
"7. c #AD9990",
"8. c #B09C94",
"9. c #BCA79D",
"0. c #BEA89F",
"q. c #BFABA3",
"w. c #C39D83",
"e. c #CC9D82",
"r. c #EE9487",
"t. c #F8988A",
"y. c #E49C91",
"u. c #F19D91",
"i. c #C5A285",
"p. c #CDA385",
"a. c #CBAB8D",
"s. c #CDA488",
"d. c #D1A286",
"f. c #D1A689",
"g. c #D6AA8B",
"h. c #DAAD8D",
"j. c #C4AC94",
"k. c #DBAE91",
"l. c #CCB494",
"z. c #DDB194",
"x. c #D0B395",
"c. c #F7A698",
"v. c #E1B596",
"b. c #E2B698",
"n. c #E6BA9A",
"m. c #E9BD9E",
"M. c #E2BA96",
"N. c #C1ADA4",
"B. c #C1AFA8",
"V. c #C3B2AA",
"C. c #C5B0A6",
"Z. c #F2BFA3",
"A. c #EBBFA1",
"S. c #DEC3A5",
"D. c #D6C3B6",
"F. c #E5C4A2",
"G. c #EAC7A8",
"H. c #F2C5A6",
"J. c #F4CAA6",
"K. c #F4C7A8",
"L. c #F5CBAA",
"P. c #F8CEA9",
"I. c #EBD0AE",
"U. c #F6D2AC",
"Y. c #F8D6AD",
"T. c #F6CAB3",
"R. c #E2D1B0",
"E. c #F6D5B2",
"W. c #F9D6B1",
"Q. c #F8DDB5",
"!. c #F8DFB8",
"~. c #F7DBB7",
"^. c #F8E0B7",
"/. c #F9E2BA",
"(. c #FAE8BF",
"). c #DAD5D4",
"_. c #F7E5C3",
"`. c #FAE6C1",
"'. c #FBEBC5",
"]. c #FCEDCA",
"[. c #FCF4CB",
"{. c #FBF0D6",
"}. c #FEFBD3",
"|. c #FEFCD9",
" X c #DFE7E8",
".X c #FBF4E3",
"XX c #FEFEE1",
"oX c #F1F2F3",
/* pixels */
"                                                                                                                                ",
"                                                                                                                                ",
"                                                                                                                                ",
"                                                                                                                                ",
"                                                              a.                                                                ",
"                                                    l.w.&.a.|.|.(.>.i.p.                                                        ",
"                                                x.|.'.A.m.Q.E.~.F.F.(.}.[.                                                      ",
"                                            _ K.|.G.k.s.H.H.K.k.e.M.Q.[.|._.                                                    ",
"                                            a.H.M.v.b.b.b.H.b.M.n.M.M.Y.{.[.l.                                                  ",
"                                        ;.>.L.b.v.J.P.J.v.b.v.Q./.(.n.m.`.}.[.i.$.                                              ",
"                                      >.f.m.H.f.L.U.Q./.E.d.L.`.}.}.^.f.U.`.}.[.l.e.f.g.                                        ",
"                                  >.m.h.b.H.b.b.P.^.[.}.'.F.n.].}.}.'.n.z.E.'.}.'.l.W.W.g.f.                                    ",
"                                h.m.J.M.J.J.p.H.U.(.}.}.[./.f.^.[.}.'.^.M.z.n.Q.`.(.Q.^.W.W.g.                                  ",
"                              h.M.J.J.K.J.Y.M.J.Y./.[.[.'.Q.F.M.U.E.(.`.Q.F.m.Y.`./.(.`.`.'.W.g.                                ",
"                            h.n.J.A.J.J.P.P.Y.P.U.Q.(.(./././.F.U.U.Q./.(.(./.`.].].].].].].`.W.g.                              ",
"                          h.n.K.H.H.J.U.U.U.Y.P.P.Q.(.^.!././././././.!.Q./.`.].].].].].'.].].^.K.,.                            ",
"                        ;.g.H.H.K.L.U.Y.Y.P.P.Y.Y.Q.Q.^././.(.!.!.!.!.~./.].].].].].{.{.{.{.]._.U.z.                            ",
"                        i.n.H.H.H.U.Y.Y.Y.Y.Y.Y.Q.!.^.^./.!.^.^.!.!.!.`.].].].].].{..X.X.X.X{.].^.H.,.                          ",
"                      <.h.K.H.H.L.U.Y.Y.Y.Y.^.^.!.!.!.!.!.!.!.Q.Q.`.`.].].].].].{..X.X.X.X.X.X].Q.P.z.                          ",
"                      ,.h.H.K.H.Y.Q.Q.Q.^.Q.^.^.!./././.^.!.!.`.`.].].].].].{.{..X.X.X.X.X.X.X].Q.Y.J.7.                        ",
"                    -.w.h.H.H.K.Y.E.Q.Q.^.^.^././.`././.^.`.`.].].].'.].{.{..X.X.X.X.X.X.X.X.X].(.W.H.w.                        ",
"                    ;.h.h.H.H.H.Q.Q.Q.Q.^.^././.`._.'._.'.].].].].].{.{..X.X.X.X.X.X.X.X.X.X{.].]./.H.p.                        ",
"                  #.,.h.h.H.K.K.E.Q.Q.^./././.'.'.'.].].].].].].].{..X.X.X.X.X.X.X.X.X.X.X.X.X].].^.K.h.,.                      ",
"                  =.,.h.h.H.G.H.Y.^.Q.Q.^./._.'.'.'.].].].].].].{..X.X.X.X.X.X.X.X.X.X.X.X.X{.].].Q.K.g.w.                      ",
"                  =.,.g.h.H.H.K.Q.^.Q.^././.'.'.].].].].].].].]..X.X.X.X.X.X.X.X.X.X.X.X.X.X].].`.^.H.g.w.                      ",
"                  =.,.h.h.H.K.H.U.Q.^.^././.'.'.].].].].].].].]..X.X.X.X.X.X.X.X.X.X.X.X.X{.].].^.Q.H.h.w.                      ",
"                  -.,.g.h.H.K.H.H.Q.^.Q././.].].].].'.].].].].].{..X.X.X.X.X.X.X.X.X{.{.{.].].`.^.^.H.g.w.                      ",
"                  #.,.h.h.H.H.H.H.U.^.^.^.Q.(.].].].].].].].].].].{.{.{.{.{.{.{.{.{.'.].].].`.!.!.E.L.h.,.                      ",
"                    ;.p.h.H.H.H.H.H.E./.Q.Q.!._.].].].].].].].].].].].].].].].'.].].].].].`.!.!.!.H.b.s.                        ",
"                    -.<.g.n.H.K.H.K.H.L././.!.Q._._.].].].].].].].].].].].].].].].].].'.`.Q.!.^.U.K.f.w.                        ",
"                    #.,.h.g.G.K.H.K.H.H.L.U././.!.!.`.`.`.`.`.].].].].].].].].`.`.`.`.!.!.^.^.U.K.K.h.2.                        ",
"                      ;.e.g.n.K.H.H.H.H.H.Z.L.E.^.^.^./.^.!.Q.`.`.`.`.`.`.`.`.~.^.^.^./.^.^.U.H.K.b.,.                          ",
"                      ( ,.h.h.b.K.H.H.H.H.H.Z.Z.L.U.U.U./.!./.!.!.!.!.!.^.Q.^.^.E.U.U.L.E.U.H.K.n.g.(                           ",
"                      C.$.p.h.h.b.K.H.K.H.H.H.H.Z.Z.Z.Z.T.U.U.U.U.U.E.L.U.E.U.E.H.H.H.H.H.H.K.n.h.;.N.                          ",
"                        N._ s.h.h.n.K.K.H.H.H.H.K.H.H.H.H.H.Z.Z.Z.Z.Z.H.H.H.H.H.K.K.H.H.K.K.b.h.&.N.                            ",
"                          N._ p.f.g.b.n.K.K.K.H.H.H.H.H.H.H.H.H.K.K.K.K.H.H.H.H.H.H.K.H.n.A.k.&.N.                              ",
"                            N._ ` d.z.h.n.m.b.K.K.K.K.H.H.H.H.H.K.K.K.K.K.K.K.L.L.K.m.m.s.%.&.B.                                ",
"                              V.0._ %.s.f.e.d.n.n.n.n.n.m.m.n.n.n.n.n.b.n.n.n.z.k.k.s.%._ 9.B.                                  ",
"                                  V.0._ ) *.*.d.d.s.d.d.s.p.p.p.p.p.s.p.s.d.e.*.*.) _ 0.B.                                      ",
"                                    oXC.N.! ! *._ #.#._ #.#.#.#.#.#.=.#._ _ %.Z ! V.V.                                          ",
"                                        y.c x C O.O.o.` o.o.o.o.o.o.o.o.O.O.C z c y.                                            ",
"                                      y.l x g p D [ 3.3.3.@.3.3.3.3.4.3.[ A y f x l y.                                          ",
"                                      U M f a i e s G G [ D [ D [ D D D g g d a x M U                                           ",
"                                    +.{ J g i i g M n n n n n n n F [ [ { { N i d J  .+.                                        ",
"                                  u.{ K M a i i v M U T T T T U T X.u.t.U K L d a n K { u.                                      ",
"                                  c. .N d i i d c v P Y U Y Y U L X.r.5.{ K P M i g N { c.                                      ",
"                                u.r.{ b t a y v v b I I I I I I I X.t.t.T I I b p t N U r.u.                                    ",
"                                  T.5.| 1.% 2 V V V E ~ ~ ~ ~ ~ ~ ] ' ' E E E h 2 1.| 5.T.T.                                    ",
"                                  |.R.j. X+ @ 6 6 6 6 0 9 9 9 9 9 9 7 7 6 6 6 @ #   j.R.|.XX                                    ",
"                                  _.I.w.).. . . . . X O O O O O O O + O X X o X .   w.I._.S.                                    ",
"                                  <.,.D.  q $ $ = = 1 > > > > > , 3 5 5 1 > = % q     ,.<.                                      ",
"                                            j a N N I R R R R } } @.c.c.} R x j       N.                                        ",
"                                            w i d d c S J S S S S H ....m k w w                                                 ",
"                                            w.u - < d d d d r r s f f t - ; u :.                                                ",
"                                              , & ; < < ; e :.:.- ; < < > & ,                                                   ",
"                                              4 B & * = B 2     4 B & * & B V                                                   ",
"                                              8 w.` ) ` i.8     5 s.) ) ` i.8                                                   ",
"                                              8./ S.I.S./ 8.    8./ S.R.F./ 8.                                                  ",
"                                                7.^ W ^ 7.        7.^ W ^ 7.                                                    ",
"                                                  8.6.8.            9.6.8.                                                      ",
"                                                                                                                                ",
"                                                                                                                                ",
"                                                                                                                                ",
"                                                                                                                                "
};
