/* XPM */
static char *result[] = {
/* columns rows colors chars-per-pixel */
"128 128 13 1 ",
"  c #05130F",
". c #08171C",
"X c #112935",
"o c #1B3C4B",
"O c #224B58",
"+ c #295962",
"@ c #3A7981",
"# c #40839E",
"$ c #4D9F97",
"% c #97A19E",
"& c #C6D0CD",
"* c #E7EEEC",
"= c #ECECEC",
/* pixels */
"================================================================================================================================",
"================================================================================================================================",
"================================================================================================================================",
"================================================================================================================================",
"================================================================================================================================",
"================================================================================================================================",
"================================================================================================================================",
"================================================================================================================================",
"================================================================================================================================",
"================================================================================================================================",
"================================================================================================================================",
"================================================================================================================================",
"================================================================================================================================",
"================================================================================================================================",
"================================================================================================================================",
"================================================================================================================================",
"================================================================================================================================",
"================================================================================================================================",
"================================================================================================================================",
"================================================================================================================================",
"================================================================================================================================",
"================================================================================================================================",
"================================================================================================================================",
"================================================================================================================================",
"=================================================@@==@@@@==========@@@@@@@@======@@=============================================",
"=================================================@@==@@@@==========@@@@@@@@======@@=============================================",
"===============================================================@@@@@@@@@@@@@@======@@@@=========================================",
"===============================================================@@@@@@@@@@@@@@======@@@@=========================================",
"===============================================@@@@@@@@@@@@@@@@@@@@@@@@$$$$@@@@======@@=========================================",
"===============================================@@@@@@@@@@@@@@@@@@@@@@@@$$$$@@@@======@@=========================================",
"=========================================@@@@@@@@@@@@@@$$$$$$$$$$$$$$$$$$$$$$@@@@======@@=======================================",
"=========================================@@@@@@@@@@@@@@$$$$$$$$$$$$$$$$$$$$$$@@@@======@@=======================================",
"=======================================@@@@@@@@$$$$$$$$$$$$$$$$XXXX$$$$$$$$$$$$@@@@@@========@@@@===============================",
"=======================================@@@@@@@@$$$$$$$$$$$$$$$$XXXX$$$$$$$$$$$$@@@@@@========@@@@===============================",
"=================================@@==@@@@@@$$$$$$$$$$$$$$XXXXXXooooXXXXXX$$$$$$$$@@@@@@============@@===========================",
"=================================@@==@@@@@@$$$$$$$$$$$$$$XXXXXXooooXXXXXX$$$$$$$$@@@@@@============@@===========================",
"===============================@@====@@@@@@$$$$$$$$$$XXXXooooooooooooooooXXXX$$$$$$$$@@@@@@@@@@====@@@@=========================",
"===============================@@====@@@@@@$$$$$$$$$$XXXXooooooooooooooooXXXX$$$$$$$$@@@@@@@@@@====@@@@=========================",
"=========================@@@@@@====@@@@@@$$$$$$$$XXXXoo######ooooooooooooooooXXXX$$$$$$$$@@@@@@@@====@@=========================",
"=========================@@@@@@====@@@@@@$$$$$$$$XXXXoo######ooooooooooooooooXXXX$$$$$$$$@@@@@@@@====@@=========================",
"=======================@@@@@@====@@@@@@$$$$$$XXXXoo########ooooooooooooooooooooooXXXX$$$$$$$$@@@@@@====@@=======================",
"=======================@@@@@@====@@@@@@$$$$$$XXXXoo########ooooooooooooooooooooooXXXX$$$$$$$$@@@@@@====@@=======================",
"=================================@@@@$$$$XXXXoo##########ooOOOOOOOOOOooooooooooooooXXXXXX$$$$$$$$@@@@==@@=======================",
"=================================@@@@$$$$XXXXoo##########ooOOOOOOOOOOooooooooooooooXXXXXX$$$$$$$$@@@@==@@=======================",
"=====================@@======@@@@@@$$XXXXoo############OOOOOOOOOOOOOOOOOOooooooooooooXXXXXXXX$$$$@@@@===========================",
"=====================@@======@@@@@@$$XXXXoo############OOOOOOOOOOOOOOOOOOooooooooooooXXXXXXXX$$$$@@@@===========================",
"=========================@@@@@@$$$$XXoooo##########OOOOOOOO++++++++++OOOOOOOOooooooooooXXXXXXXX$$@@@@@@=========================",
"=========================@@@@@@$$$$XXoooo##########OOOOOOOO++++++++++OOOOOOOOooooooooooXXXXXXXX$$@@@@@@=========================",
"=======================@@@@@@$$$$XXoooo########OOOOOO++++++++++++++++++++++OOOOOOOOooooooXXXXXXXX$$@@@@=========================",
"=======================@@@@@@$$$$XXoooo########OOOOOO++++++++++++++++++++++OOOOOOOOooooooXXXXXXXX$$@@@@=========================",
"=======================@@@@$$$$XXXXoooo####OOOOOO++++++++@@@@@@@@@@++++++++++OOOOOOOOooooooXXXXXXXX$$@@@@=======================",
"=======================@@@@$$$$XXXXoooo####OOOOOO++++++++@@@@@@@@@@++++++++++OOOOOOOOooooooXXXXXXXX$$@@@@=======================",
"=======================@@@@$$$$XXoooooo##OOOOOO++++++@@@@@@@@@@@@@@@@@@@@++++++OOOOOOOOooooXXXXXXXX$$$$@@@@=====================",
"=======================@@@@$$$$XXoooooo##OOOOOO++++++@@@@@@@@@@@@@@@@@@@@++++++OOOOOOOOooooXXXXXXXX$$$$@@@@=====================",
"=====================@@@@$$$$..XXooooooOOOOOO++++++@@@@@@@@@@@@@@@@@@@@@@@@@@++++++OOOOOOooooXXXXXX..$$@@@@=====================",
"=====================@@@@$$$$..XXooooooOOOOOO++++++@@@@@@@@@@@@@@@@@@@@@@@@@@++++++OOOOOOooooXXXXXX..$$@@@@=====================",
"=====================@@@@$$$$..XXoo####OOOO++++++@@@@@@@@@@$$$$$$$$$$@@@@@@@@@@++++++OOOOooooooXXXX..$$@@@@@@===================",
"=====================@@@@$$$$..XXoo####OOOO++++++@@@@@@@@@@$$$$$$$$$$@@@@@@@@@@++++++OOOOooooooXXXX..$$@@@@@@===================",
"=====================@@@@$$$$..XXoo####OOOO++++@@@@@@@@$$$$$$$$$$$$$$$$$$@@@@@@@@++++++OOooooooXXXXXX..@@@@@@===================",
"=====================@@@@$$$$..XXoo####OOOO++++@@@@@@@@$$$$$$$$$$$$$$$$$$@@@@@@@@++++++OOooooooXXXXXX..@@@@@@===================",
"=======================@@$$..XXooooooOOOO++++@@@@@@@@$$$$$$$$$$$$$$$$$$$$$$@@@@@@@@++++OOOOooooXXXXXX..$$@@=====================",
"=======================@@$$..XXooooooOOOO++++@@@@@@@@$$$$$$$$$$$$$$$$$$$$$$@@@@@@@@++++OOOOooooXXXXXX..$$@@=====================",
"=======================@@$$..XXooooooOOOO++++@@@@@@$$$$$$$$$$$$$$$$$$$$$$$$$$@@@@@@@@++OOOOooooooXXXX..$$@@=====================",
"=======================@@$$..XXooooooOOOO++++@@@@@@$$$$$$$$$$$$$$$$$$$$$$$$$$@@@@@@@@++OOOOooooooXXXX..$$@@=====================",
"===================@@====$$..XXooooooOOOO++++@@@@@@$$$$$$$$$$$$$$$$$$$$$$$$$$@@@@@@@@++OOOOooooooXXXX..$$@@=====================",
"===================@@====$$..XXooooooOOOO++++@@@@@@$$$$$$$$$$$$$$$$$$$$$$$$$$@@@@@@@@++OOOOooooooXXXX..$$@@=====================",
"=================@@====@@$$..XXooooooOOOO++++@@@@@@$$$$$$$$$$$$$$$$$$$$$$$$$$@@$$$$@@@@@@      ooXXXX..$$@@=====================",
"=================@@====@@$$..XXooooooOOOO++++@@@@@@$$$$$$$$$$$$$$$$$$$$$$$$$$@@$$$$@@@@@@      ooXXXX..$$@@=====================",
"=================@@====@@$$..XXXXooooOOOO++++@@@@@@$$$$$$$$$$$$$$$$$$@@$$$$$$$$  %%%%%%%%        XXXX..$$@@=====================",
"=================@@====@@$$..XXXXooooOOOO++++@@@@@@$$$$$$$$$$$$$$$$$$@@$$$$$$$$  %%%%%%%%        XXXX..$$@@=====================",
"=================@@====@@$$..XXXXoooooooo++++@@@@@@$$$$$$$$$$$$$$$$@@$$$$      %%&&****&&%%      XXXX..$$@@@@===================",
"=================@@====@@$$..XXXXoooooooo++++@@@@@@$$$$$$$$$$$$$$$$@@$$$$      %%&&****&&%%      XXXX..$$@@@@===================",
"===================@@==@@$$..XXXXoooooo  oooooo@@@@@@$$$$$$@@$$$$$$++$$        %%&&    &&%%      XXXX..$$@@@@===================",
"===================@@==@@$$..XXXXoooooo  oooooo@@@@@@$$$$$$@@$$$$$$++$$        %%&&    &&%%      XXXX..$$@@@@===================",
"=======================@@$$..XXXXooooOOoo      oooooo$$$$$$$$++$$$$++$$        %%&&    &&%%    XXXXXX..$$@@@@===================",
"=======================@@$$..XXXXooooOOoo      oooooo$$$$$$$$++$$$$++$$        %%&&    &&%%    XXXXXX..$$@@@@===================",
"=======================@@$$..XXXXooooooOOoooooo      oooo$$$$$$++$$@@$$        %%&&&&&&&&%%  ooXXXXXX..$$@@@@===================",
"=======================@@$$..XXXXooooooOOoooooo      oooo$$$$$$++$$@@$$        %%&&&&&&&&%%  ooXXXXXX..$$@@@@===================",
"=========================@@$$..XXXXooooOOOO++++oooooooooooo$$$$++$$$$$$@@        %%%%%%%%ooooooXXXX..$$$$@@@@===================",
"=========================@@$$..XXXXooooOOOO++++oooooooooooo$$$$++$$$$$$@@        %%%%%%%%ooooooXXXX..$$$$@@@@===================",
"=========================@@@@..XXXXooooOOOO++++@@@@@@@@@@@@@@@@++@@@@@@@@@@@@@@++++OOOOooooooXXXXXX..$$@@@@=====================",
"=========================@@@@..XXXXooooOOOO++++@@@@@@@@@@@@@@@@++@@@@@@@@@@@@@@++++OOOOooooooXXXXXX..$$@@@@=====================",
"===========================@@$$..XXXXooooOOOO++++@@@@@@@@@@@@@@@@@@@@@@@@@@++++++OOOOOOooooooXXXX..$$$$@@=======================",
"===========================@@$$..XXXXooooOOOO++++@@@@@@@@@@@@@@@@@@@@@@@@@@++++++OOOOOOooooooXXXX..$$$$@@=======================",
"=====================@@====@@@@..XXXXooooOOOOOOOO++++++++@@@@@@@@@@XXXXXXXXXXXXXXXXXXXXooooXXXXXX..$$@@@@=======================",
"=====================@@====@@@@..XXXXooooOOOOOOOO++++++++@@@@@@@@@@XXXXXXXXXXXXXXXXXXXXooooXXXXXX..$$@@@@=======================",
"=====================@@====@@@@$$..XXXXooooOOOOOOOO++++++XXXXXXXXXX%%&&    %%%%&&    %%XXXXXXXX..$$@@@@=========================",
"=====================@@====@@@@$$..XXXXooooOOOOOOOO++++++XXXXXXXXXX%%&&    %%%%&&    %%XXXXXXXX..$$@@@@=========================",
"===========================@@@@@@$$..XXXXooooooOOXXXXXXXX%%%%    %%%%&&      %%&&      XXXXXX..$$@@@@@@=========================",
"===========================@@@@@@$$..XXXXooooooOOXXXXXXXX%%%%    %%%%&&      %%&&      XXXXXX..$$@@@@@@=========================",
"=============================@@@@$$$$..XXXXXXooXX      %%%%        %%  %%%%  &&  %%  XXXXXX..$$@@@@@@@@=========================",
"=============================@@@@$$$$..XXXXXXooXX      %%%%        %%  %%%%  &&  %%  XXXXXX..$$@@@@@@@@=========================",
"=======================@@======@@@@@@$$..XXXXXX  %%%%              OOOOoooo    %%%%XXXXXX..$$$$@@@@@@===========================",
"=======================@@======@@@@@@$$..XXXXXX  %%%%              OOOOoooo    %%%%XXXXXX..$$$$@@@@@@===========================",
"=================================@@@@@@@@....XXXXXXXXXXooooooooooooooooooooXXXXXXXXXX....$$@@@@@@@@=============================",
"=================================@@@@@@@@....XXXXXXXXXXooooooooooooooooooooXXXXXXXXXX....$$@@@@@@@@=============================",
"=====================================@@@@@@@@......XXXXXXXXXXXXXXXXXXXXXXXXXXXX......$$@@@@@@===================================",
"=====================================@@@@@@@@......XXXXXXXXXXXXXXXXXXXXXXXXXXXX......$$@@@@@@===================================",
"===========================================@@@@@@$$............................$$@@@@@@============@@===========================",
"===========================================@@@@@@$$............................$$@@@@@@============@@===========================",
"=================================================@@@@$$$$$$$$$$$$$$$$$$$$$$$$$$@@@@==========@@@@===============================",
"=================================================@@@@$$$$$$$$$$$$$$$$$$$$$$$$$$@@@@==========@@@@===============================",
"=========================================================@@@@@@@@@@@@@@@@@@=====================================================",
"=========================================================@@@@@@@@@@@@@@@@@@=====================================================",
"================================================================================================================================",
"================================================================================================================================",
"================================================================================================================================",
"================================================================================================================================",
"================================================================================================================================",
"================================================================================================================================",
"================================================================================================================================",
"================================================================================================================================",
"================================================================================================================================",
"================================================================================================================================",
"================================================================================================================================",
"================================================================================================================================",
"================================================================================================================================",
"================================================================================================================================",
"================================================================================================================================",
"================================================================================================================================",
"================================================================================================================================",
"================================================================================================================================",
"================================================================================================================================",
"================================================================================================================================",
"================================================================================================================================",
"================================================================================================================================",
"================================================================================================================================",
"================================================================================================================================"
};
