/* XPM */
static char *result[] = {
/* columns rows colors chars-per-pixel */
"128 128 12 1 ",
"  c #05130F",
". c #08171C",
"X c #112935",
"o c #1B3C4B",
"O c #224B58",
"+ c #295962",
"@ c #3A7981",
"# c #40839E",
"$ c #4D9F97",
"% c #97A19E",
"& c #C6D0CD",
"* c #ECECEC",
/* pixels */
"********************************************************************************************************************************",
"********************************************************************************************************************************",
"********************************************************************************************************************************",
"********************************************************************************************************************************",
"********************************************************************************************************************************",
"********************************************************************************************************************************",
"********************************************************************************************************************************",
"********************************************************************************************************************************",
"********************************************************************************************************************************",
"********************************************************************************************************************************",
"********************************************************************************************************************************",
"********************************************************************************************************************************",
"********************************************************************************************************************************",
"********************************************************************************************************************************",
"********************************************************************************************************************************",
"********************************************************************************************************************************",
"********************************************************************************************************************************",
"********************************************************************************************************************************",
"********************************************************************************************************************************",
"********************************************************************************************************************************",
"********************************************************************************************************************************",
"********************************************************************************************************************************",
"*********************************************************@@@@@@@@@@@@@@*********************************************************",
"*********************************************************@@@@@@@@@@@@@@*********************************************************",
"***************************************************@@**@@@@**************@@@@***************************************************",
"***************************************************@@**@@@@**************@@@@***************************************************",
"*******************************************************@@@@@@@@@@@@@@@@@@@@*****************************************************",
"*******************************************************@@@@@@@@@@@@@@@@@@@@*****************************************************",
"***********************************************@@@@@@@@@@@@@@@@@@@@@@@@@@@@@@@@@@***********************************************",
"***********************************************@@@@@@@@@@@@@@@@@@@@@@@@@@@@@@@@@@***********************************************",
"*********************************************@@@@@@@@@@@@@@$$$$$$$$$$$$$$$$@@@@@@@@@@********@@@@*******************************",
"*********************************************@@@@@@@@@@@@@@$$$$$$$$$$$$$$$$@@@@@@@@@@********@@@@*******************************",
"*****************************************@@@@@@@@$$$$$$$$$$$$$$$$$$$$$$$$$$$$@@@@@@@@@@************@@***************************",
"*****************************************@@@@@@@@$$$$$$$$$$$$$$$$$$$$$$$$$$$$@@@@@@@@@@************@@***************************",
"*************************************@@@@@@@@@@$$$$$$$$$$@@$$XXXXXX$$$$@@@@$$$$$$$$@@@@@@@@@@***********************************",
"*************************************@@@@@@@@@@$$$$$$$$$$@@$$XXXXXX$$$$@@@@$$$$$$$$@@@@@@@@@@***********************************",
"*************************@@******@@@@@@@@$$$$$$$$$$$$@@XXXXXXooooooXXXXXX@@@@$$$$$$$$$$@@@@@@@@@@@@*****************************",
"*************************@@******@@@@@@@@$$$$$$$$$$$$@@XXXXXXooooooXXXXXX@@@@$$$$$$$$$$@@@@@@@@@@@@*****************************",
"***********************@@******@@@@@@$$$$$$$$$$$$XXXXXXooooooooooooooooooXXXXXXXX@@$$$$$$@@@@@@@@@@@@***************************",
"***********************@@******@@@@@@$$$$$$$$$$$$XXXXXXooooooooooooooooooXXXXXXXX@@$$$$$$@@@@@@@@@@@@***************************",
"*****************************@@@@$$$$$$$$$$$$XXXXoooo######ooooooooooooooooooooXXXXXX@@$$$$$$@@@@@@@@@@*************************",
"*****************************@@@@$$$$$$$$$$$$XXXXoooo######ooooooooooooooooooooXXXXXX@@$$$$$$@@@@@@@@@@*************************",
"***************************@@@@@@$$$$$$$$XXXXoooo########ooooooooooooooooooooooooooXXXXXX@@$$$$@@@@@@@@*************************",
"***************************@@@@@@$$$$$$$$XXXXoooo########ooooooooooooooooooooooooooXXXXXX@@$$$$@@@@@@@@*************************",
"***************************@@@@$$$$$$XXoooooo##########ooOOOOOOOOOOOOOOooooooooooooooooXXXXXX$$$$@@@@@@*************************",
"***************************@@@@$$$$$$XXoooooo##########ooOOOOOOOOOOOOOOooooooooooooooooXXXXXX$$$$@@@@@@*************************",
"***************************@@@@$$$$XXXXoo##########OOOOOOOOOOOOOOOOOOOOOOOOooooooooooooooXXXXXX$$$$@@@@@@***********************",
"***************************@@@@$$$$XXXXoo##########OOOOOOOOOOOOOOOOOOOOOOOOooooooooooooooXXXXXX$$$$@@@@@@***********************",
"***************************@@$$$$XXoooo########OOOO++++++++++++++++++++++++++OOOOOOOOooooooooXXXX$$$$@@@@***********************",
"***************************@@$$$$XXoooo########OOOO++++++++++++++++++++++++++OOOOOOOOooooooooXXXX$$$$@@@@***********************",
"*************************@@@@$$XXoooo####OOOOOO++++++++@@@@@@@@@@@@@@++++++++++OOOOOOOOooooooXXXXXX$$@@@@@@*********************",
"*************************@@@@$$XXoooo####OOOOOO++++++++@@@@@@@@@@@@@@++++++++++OOOOOOOOooooooXXXXXX$$@@@@@@*********************",
"*************************@@$$XXXXoooo##OOOOOO++++++@@@@@@@@@@@@@@@@@@@@@@@@++++++OOOOOOOOooooooXXXXXX$$$$@@@@*******************",
"*************************@@$$XXXXoooo##OOOOOO++++++@@@@@@@@@@@@@@@@@@@@@@@@++++++OOOOOOOOooooooXXXXXX$$$$@@@@*******************",
"***********************@@$$$$XXooooooOOOOOO++++++@@@@@@@@@@@@@@@@@@@@@@@@@@@@@@++++++OOOOOOooooXXXX..$$$$@@@@*******************",
"***********************@@$$$$XXooooooOOOOOO++++++@@@@@@@@@@@@@@@@@@@@@@@@@@@@@@++++++OOOOOOooooXXXX..$$$$@@@@*******************",
"***********************@@$$..XXoo####OOOO++++++@@@@@@@@@@$$$$$$$$$$$$$$@@@@@@@@@@++++++OOOOooooooXXXX..$$@@@@*******************",
"***********************@@$$..XXoo####OOOO++++++@@@@@@@@@@$$$$$$$$$$$$$$@@@@@@@@@@++++++OOOOooooooXXXX..$$@@@@*******************",
"*******************@@**@@$$..oooo####OOOO++++@@@@@@@@$$$$$$$$$$$$$$$$$$$$$$@@@@@@@@++++++OOooooooXXXX....@@@@*******************",
"*******************@@**@@$$..oooo####OOOO++++@@@@@@@@$$$$$$$$$$$$$$$$$$$$$$@@@@@@@@++++++OOooooooXXXX....@@@@*******************",
"*****************@@****@@$$..ooooooOOOO++++@@@@@@@@$$$$$$$$$$$$$$$$$$$$$$$$$$@@@@@@@@++++OOOOooooXXXXXX..@@@@*******************",
"*****************@@****@@$$..ooooooOOOO++++@@@@@@@@$$$$$$$$$$$$$$$$$$$$$$$$$$@@@@@@@@++++OOOOooooXXXXXX..@@@@*******************",
"*****************@@****@@..XXooooooOOOO++++@@@@@@$$$$$$$$$$$$$$$$$$$$$$$$$$$$$$@@@@@@@@++OOOOooooooXXXX..@@*********************",
"*****************@@****@@..XXooooooOOOO++++@@@@@@$$$$$$$$$$$$$$$$$$$$$$$$$$$$$$@@@@@@@@++OOOOooooooXXXX..@@*********************",
"*****************@@****@@..XXooooooOOOO++++@@@@@@$$$$$$$$$$$$$$$$$$$$$$$$$$$$$$@@@@@@@@++OOOOooooooXXXX..@@*********************",
"*****************@@****@@..XXooooooOOOO++++@@@@@@$$$$$$$$$$$$$$$$$$$$$$$$$$$$$$@@@@@@@@++OOOOooooooXXXX..@@*********************",
"*******************@@****..XXooooooOOOO++++@@@@@@$$$$$$$$$$$$$$$$$$$$$$$$$$$$$$@@@@@@@@++OOOOooooooXXXX..@@*********************",
"*******************@@****..XXooooooOOOO++++@@@@@@$$$$$$$$$$$$$$$$$$$$$$$$$$$$$$@@@@@@@@++OOOOooooooXXXX..@@*********************",
"***********************@@..XXXXooooOOOO++++@@@@@@$$$$$$$$$$$$$$$$$$$$$$$$$$$$$$@@@@@@@@++OOooooooooXXXX..@@****@@***************",
"***********************@@..XXXXooooOOOO++++@@@@@@$$$$$$$$$$$$$$$$$$$$$$$$$$$$$$@@@@@@@@++OOooooooooXXXX..@@****@@***************",
"***********************@@..XXXXooooOOOO++++@@@@@@$$$$$$$$$$$$$$$$$$$$$$$$$$$$$$@@@@@@@@++OOooooooooXXXX..@@*********************",
"***********************@@..XXXXooooOOOO++++@@@@@@$$$$$$$$$$$$$$$$$$$$$$$$$$$$$$@@@@@@@@++OOooooooooXXXX..@@*********************",
"*********************@@@@..XXXXooooOOOO++++@@@@@@@@$$$$$$$$$$$$$$$$$$$$$$$$$$@@@@@@@@@@@@        ooXXXX..@@@@*******************",
"*********************@@@@..XXXXooooOOOO++++@@@@@@@@$$$$$$$$$$$$$$$$$$$$$$$$$$@@@@@@@@@@@@        ooXXXX..@@@@*******************",
"*********************@@@@..XXXXoooooooooo++@@@@@@@@$$$$$$$$$$$$$$$$$$@@$$$$$$$$$$$$%%%%%%%%      XXXXXX..@@@@*******************",
"*********************@@@@..XXXXoooooooooo++@@@@@@@@$$$$$$$$$$$$$$$$$$@@$$$$$$$$$$$$%%%%%%%%      XXXXXX..@@@@*******************",
"*********************@@@@..XXXXoooooooo  oooooo@@@@@@$$$$$$@@$$$$$$@@$$$$      %%&&    &&%%      XXXXXX..@@@@*******************",
"*********************@@@@..XXXXoooooooo  oooooo@@@@@@$$$$$$@@$$$$$$@@$$$$      %%&&    &&%%      XXXXXX..@@@@*******************",
"*********************@@@@$$..XXXXooooOOoo      oooooo@@$$$$$$++$$$$++$$        %%&&    &&%%    ooXXXX..@@@@@@*******************",
"*********************@@@@$$..XXXXooooOOoo      oooooo@@$$$$$$++$$$$++$$        %%&&    &&%%    ooXXXX..@@@@@@*******************",
"*********************@@@@@@..XXXXooooOOOOoooooo      oooo@@@@@@++@@++@@        %%&&&&&&&&%%  ooXXXXXX..@@***********************",
"*********************@@@@@@..XXXXooooOOOOoooooo      oooo@@@@@@++@@++@@        %%&&&&&&&&%%  ooXXXXXX..@@***********************",
"*********************@@@@@@$$..XXXXooooOOOO++++oooooooooooo@@@@++@@@@@@          %%%%%%%%ooooooXXXX..@@*************************",
"*********************@@@@@@$$..XXXXooooOOOO++++oooooooooooo@@@@++@@@@@@          %%%%%%%%ooooooXXXX..@@*************************",
"***********************@@@@$$..XXXXooooOOOOOOOO++++++++@@@@@@@@++@@@@@@@@++++++++OOOOOOooooooXXXXXX..@@*************************",
"***********************@@@@$$..XXXXooooOOOOOOOO++++++++@@@@@@@@++@@@@@@@@++++++++OOOOOOooooooXXXXXX..@@*************************",
"*************************@@@@$$..XXXXooooOOOOOOOO++++++++++++++++++++++++++++OOOOOOOOooooooXXXXXX..@@***************************",
"*************************@@@@$$..XXXXooooOOOOOOOO++++++++++++++++++++++++++++OOOOOOOOooooooXXXXXX..@@***************************",
"***************************@@@@$$..XXXXooooooOOOOOOOOOO++++++++++++++++++OOOOOOOOOOooooooXXXXXX..@@@@****@@*********************",
"***************************@@@@$$..XXXXooooooOOOOOOOOOO++++++++++++++++++OOOOOOOOOOooooooXXXXXX..@@@@****@@*********************",
"*****************************@@@@$$..XXXXXXooooooOOOOOOOOOOOOXXXXXXXXXXXXXXXXXXXXXXXXXXXXXXXX..$$@@*****************************",
"*****************************@@@@$$..XXXXXXooooooOOOOOOOOOOOOXXXXXXXXXXXXXXXXXXXXXXXXXXXXXXXX..$$@@*****************************",
"*********************************@@$$..XXXXXXXXooXXXXXXXXXXXX    %%%%&&      %%&&      XXXX..$$@@*******************************",
"*********************************@@$$..XXXXXXXXooXXXXXXXXXXXX    %%%%&&      %%&&      XXXX..$$@@*******************************",
"***********************************@@@@....XXXXXX      %%%%        %%  %%%%  &&      XX....$$@@****@@***************************",
"***********************************@@@@....XXXXXX      %%%%        %%  %%%%  &&      XX....$$@@****@@***************************",
"*************************************@@@@$$......XXXXXXXXXXXXXXXXXXXXXXXXXXXXXXXX......$$@@*************************************",
"*************************************@@@@$$......XXXXXXXXXXXXXXXXXXXXXXXXXXXXXXXX......$$@@*************************************",
"***************************************@@@@@@@@$$................................@@@@@@@@****@@@@*******************************",
"***************************************@@@@@@@@$$................................@@@@@@@@****@@@@*******************************",
"***********************************@@****@@@@@@@@@@@@@@$$$$$$$$$$$$$$$$$$$$$$@@@@@@*********************************************",
"***********************************@@****@@@@@@@@@@@@@@$$$$$$$$$$$$$$$$$$$$$$@@@@@@*********************************************",
"*************************************@@********@@@@@@@@@@@@@@@@@@@@@@@@$$$$@@@@*************************************************",
"*************************************@@********@@@@@@@@@@@@@@@@@@@@@@@@$$$$@@@@*************************************************",
"*****************************************@@****************@@@@@@@@@@***********************************************************",
"*****************************************@@****************@@@@@@@@@@***********************************************************",
"*****************************************************************************@@@@***********************************************",
"*****************************************************************************@@@@***********************************************",
"*************************************************************************@@*****************************************************",
"*************************************************************************@@*****************************************************",
"********************************************************************************************************************************",
"********************************************************************************************************************************",
"********************************************************************************************************************************",
"********************************************************************************************************************************",
"********************************************************************************************************************************",
"********************************************************************************************************************************",
"********************************************************************************************************************************",
"********************************************************************************************************************************",
"********************************************************************************************************************************",
"********************************************************************************************************************************",
"********************************************************************************************************************************",
"********************************************************************************************************************************",
"********************************************************************************************************************************",
"********************************************************************************************************************************",
"********************************************************************************************************************************",
"********************************************************************************************************************************",
"********************************************************************************************************************************",
"********************************************************************************************************************************"
};
