/* XPM */
static char *result[] = {
/* columns rows colors chars-per-pixel */
"128 128 12 1 ",
"  c #05130F",
". c #08171C",
"X c #112935",
"o c #1B3C4B",
"O c #224B58",
"+ c #295962",
"@ c #3A7981",
"# c #40839E",
"$ c #4D9F97",
"% c #97A19E",
"& c #C6D0CD",
"* c #ECECEC",
/* pixels */
"********************************************************************************************************************************",
"********************************************************************************************************************************",
"********************************************************************************************************************************",
"********************************************************************************************************************************",
"********************************************************************************************************************************",
"********************************************************************************************************************************",
"********************************************************************************************************************************",
"********************************************************************************************************************************",
"********************************************************************************************************************************",
"********************************************************************************************************************************",
"********************************************************************************************************************************",
"********************************************************************************************************************************",
"********************************************************************************************************************************",
"********************************************************************************************************************************",
"********************************************************************************************************************************",
"********************************************************************************************************************************",
"********************************************************************************************************************************",
"********************************************************************************************************************************",
"********************************************************************************************************************************",
"********************************************************************************************************************************",
"********************************************************************************************************************************",
"********************************************************************************************************************************",
"********************************************************************************************************************************",
"********************************************************************************************************************************",
"***********************************************@@******@@@@@@@@**********@@@@**@@***********************************************",
"***********************************************@@******@@@@@@@@**********@@@@**@@***********************************************",
"*******************************************@@@@******@@@@@@@@@@@@@@*************************************************************",
"*******************************************@@@@******@@@@@@@@@@@@@@*************************************************************",
"*******************************************@@******@@@@$$$$@@@@@@@@@@@@@@@@@@@@@@@@*********************************************",
"*******************************************@@******@@@@$$$$@@@@@@@@@@@@@@@@@@@@@@@@*********************************************",
"*****************************************@@******@@@@$$$$$$$$$$$$$$$$$$$$$$@@@@@@@@@@@@@@***************************************",
"*****************************************@@******@@@@$$$$$$$$$$$$$$$$$$$$$$@@@@@@@@@@@@@@***************************************",
"*********************************@@@@********@@@@@@$$$$$$$$$$$$$$$$$$$$$$$$$$$$$$$$@@@@@@@@*************************************",
"*********************************@@@@********@@@@@@$$$$$$$$$$$$$$$$$$$$$$$$$$$$$$$$@@@@@@@@*************************************",
"*****************************@@************@@@@@@$$$$$$$$$$@@@@@@@@$$$$$$$$$$$$$$$$$$$$@@@@@@**@@*******************************",
"*****************************@@************@@@@@@$$$$$$$$$$@@@@@@@@$$$$$$$$$$$$$$$$$$$$@@@@@@**@@*******************************",
"***************************@@@@****@@@@@@@@@@$$$$$$$$$$$$@@@@@@@@@@@@@@$$$$$$$$$$$$$$$$@@@@@@****@@*****************************",
"***************************@@@@****@@@@@@@@@@$$$$$$$$$$$$@@@@@@@@@@@@@@$$$$$$$$$$$$$$$$@@@@@@****@@*****************************",
"***************************@@****@@@@@@@@$$$$$$$$$$$$$$$$@@XXXXXXXXXX@@@@@@@@@@@@$$$$$$$$@@@@@@****@@@@@@***********************",
"***************************@@****@@@@@@@@$$$$$$$$$$$$$$$$@@XXXXXXXXXX@@@@@@@@@@@@$$$$$$$$@@@@@@****@@@@@@***********************",
"*************************@@****@@@@@@$$$$$$$$$$$$$$@@XXXXXXooooooooooXXXXXX@@@@@@@@$$$$$$$$@@@@@@****@@@@@@*********************",
"*************************@@****@@@@@@$$$$$$$$$$$$$$@@XXXXXXooooooooooXXXXXX@@@@@@@@$$$$$$$$@@@@@@****@@@@@@*********************",
"*************************@@**@@@@$$$$$$$$$$$$$$XXXXXXooooooooooooooooooooooXXXXXX@@@@$$$$$$$$@@@@*******************************",
"*************************@@**@@@@$$$$$$$$$$$$$$XXXXXXooooooooooooooooooooooXXXXXX@@@@$$$$$$$$@@@@*******************************",
"*****************************@@@@$$$$$$$$$$XXXXooooooooooooooOOOOOOOOooooooooooooXXXXXXXX$$$$$$@@@@@@******@@*******************",
"*****************************@@@@$$$$$$$$$$XXXXooooooooooooooOOOOOOOOooooooooooooXXXXXXXX$$$$$$@@@@@@******@@*******************",
"***************************@@@@@@$$$$$$XXXXoo##########OOOOOOOOOOOOOOOOOOOOOOooooooooooooXXXX$$$$$$@@@@@@***********************",
"***************************@@@@@@$$$$$$XXXXoo##########OOOOOOOOOOOOOOOOOOOOOOooooooooooooXXXX$$$$$$@@@@@@***********************",
"***************************@@@@$$$$XXXXoo##########OOOOOOOOOOOOOOOOOOOOOOOOOOOOOOooooooooooXXXX$$$$$$@@@@@@*********************",
"***************************@@@@$$$$XXXXoo##########OOOOOOOOOOOOOOOOOOOOOOOOOOOOOOooooooooooXXXX$$$$$$@@@@@@*********************",
"*************************@@@@$$$$XXoooo########OOOO++++++++++++++++++++++++++++OOOOOOooooooooXXXX$$$$$$@@@@*********************",
"*************************@@@@$$$$XXoooo########OOOO++++++++++++++++++++++++++++OOOOOOooooooooXXXX$$$$$$@@@@*********************",
"***********************@@@@$$$$XXoooo####OOOO++++++++++@@@@@@@@@@@@@@++++++++++++OOOOOOooooooXXXXXX$$$$@@@@*********************",
"***********************@@@@$$$$XXoooo####OOOO++++++++++@@@@@@@@@@@@@@++++++++++++OOOOOOooooooXXXXXX$$$$@@@@*********************",
"***********************@@@@$$XXXXoooo##OOOO++++++@@@@@@@@@@@@@@@@@@@@@@@@@@@@++++++++OOOOooooooXXXXXX$$$$@@@@*******************",
"***********************@@@@$$XXXXoooo##OOOO++++++@@@@@@@@@@@@@@@@@@@@@@@@@@@@++++++++OOOOooooooXXXXXX$$$$@@@@*******************",
"*********************@@@@@@$$XXooooooOOOO++++++@@@@@@@@@@@@@@@@@@@@@@@@@@@@@@@@@@++++++OOOOooooXXXX..$$$$@@@@*******************",
"*********************@@@@@@$$XXooooooOOOO++++++@@@@@@@@@@@@@@@@@@@@@@@@@@@@@@@@@@++++++OOOOooooXXXX..$$$$@@@@*******************",
"*********************@@@@@@..XXoo####OO++++++@@@@@@@@@@@@$$$$$$$$$$$$$$@@@@@@@@@@@@++++OOOOooooooXXXX..$$@@@@*******************",
"*********************@@@@@@..XXoo####OO++++++@@@@@@@@@@@@$$$$$$$$$$$$$$@@@@@@@@@@@@++++OOOOooooooXXXX..$$@@@@*******************",
"***********************@@$$..oooo####OO++++++@@@@@@@@$$$$$$$$$$$$$$$$$$$$$$@@@@@@@@@@++++OOooooooXXXX....@@*********************",
"***********************@@$$..oooo####OO++++++@@@@@@@@$$$$$$$$$$$$$$$$$$$$$$@@@@@@@@@@++++OOooooooXXXX....@@*********************",
"***********************@@$$..ooooooOOOO++++@@@@@@@@$$$$$$$$$$$$$$$$$$$$$$$$$$@@@@@@@@@@++OOOOooooXXXXXX..@@*********************",
"***********************@@$$..ooooooOOOO++++@@@@@@@@$$$$$$$$$$$$$$$$$$$$$$$$$$@@@@@@@@@@++OOOOooooXXXXXX..@@*********************",
"***********************@@..XXooooooOOOO++++@@@@@@$$$$$$$$$$$$$$$$$$$$$$$$$$$$$$@@@@@@@@++OOOOooooooXXXX..****@@*****************",
"***********************@@..XXooooooOOOO++++@@@@@@$$$$$$$$$$$$$$$$$$$$$$$$$$$$$$@@@@@@@@++OOOOooooooXXXX..****@@*****************",
"***********************@@..XXooooooOOOO++@@@@@@@@$$$$$$$$$$$$$$$$$$$$$$$$$$$$$$@@@@@@@@++++OOooooooXXXX..@@*********************",
"***********************@@..XXooooooOOOO++@@@@@@@@$$$$$$$$$$$$$$$$$$$$$$$$$$$$$$@@@@@@@@++++OOooooooXXXX..@@*********************",
"***********************@@..XXooooooOOOO++@@@@@@@@$$$$$$$$$$$$$$$$$$$$$$$$$$$$$$@@@@@@@@++++OOOOooooXXXX..@@*********************",
"***********************@@..XXooooooOOOO++@@@@@@@@$$$$$$$$$$$$$$$$$$$$$$$$$$$$$$@@@@@@@@++++OOOOooooXXXX..@@*********************",
"*********************@@@@..XXXXooooOOOO++@@@@@@@@$$$$$$$$$$$$$$$$$$$$$$$$$$$$$$@@@@@@@@++OOOOOOooooXXXX..@@*********************",
"*********************@@@@..XXXXooooOOOO++@@@@@@@@$$$$$$$$$$$$$$$$$$$$$$$$$$$$$$@@@@@@@@++OOOOOOooooXXXX..@@*********************",
"*********************@@@@..XXXXooooOOOO++@@@@@@@@$$$$$$$$$$$$$$$$$$$$$$$$$$$$$$@@@@@@@@++OOooooooooXXXX..@@**@@*****************",
"*********************@@@@..XXXXooooOOOO++@@@@@@@@$$$$$$$$$$$$$$$$$$$$$$$$$$$$$$@@@@@@@@++OOooooooooXXXX..@@**@@*****************",
"*********************@@@@..XXXXooooOOOO++++@@@@@@@@$$$$$$$$$$$$$$$$$$$$$$$$$$@@@@@@@@++++OOooooooooXXXX..@@*********************",
"*********************@@@@..XXXXooooOOOO++++@@@@@@@@$$$$$$$$$$$$$$$$$$$$$$$$$$@@@@@@@@++++OOooooooooXXXX..@@*********************",
"*********************@@@@..XXXXooooOOOO++++@@@@@@@@$$$$$$$$$$$$$$$$$$$$$$$$$$@@@@@@@@++OOOOooooooXXXXXX..@@*********************",
"*********************@@@@..XXXXooooOOOO++++@@@@@@@@$$$$$$$$$$$$$$$$$$$$$$$$$$@@@@@@@@++OOOOooooooXXXXXX..@@*********************",
"*********************@@@@..XXXXooooooOO++++@@@@@@@@@@$$$$$$$$$$$$$$$$$$$$$$@@@@@@@@@@@@@@        XXXXXX..***********************",
"*********************@@@@..XXXXooooooOO++++@@@@@@@@@@$$$$$$$$$$$$$$$$$$$$$$@@@@@@@@@@@@@@        XXXXXX..***********************",
"***********************@@@@..XXXXoooooooo++++@@@@@@@@@@$$$$$$$$$$$$$$@@$$@@@@$$$$$$    %%%%    ooXXXX..@@***********************",
"***********************@@@@..XXXXoooooooo++++@@@@@@@@@@$$$$$$$$$$$$$$@@$$@@@@$$$$$$    %%%%    ooXXXX..@@***********************",
"*************************@@..XXXXXXoooo  oooooo@@@@@@@@@@@@@@@@@@@@@@@@@@      %%%%    &&%%  ooXXXXXX..*************************",
"*************************@@..XXXXXXoooo  oooooo@@@@@@@@@@@@@@@@@@@@@@@@@@      %%%%    &&%%  ooXXXXXX..*************************",
"*************************@@@@..XXXXooooOO      oooooo++@@@@@@++@@@@oo@@        %%%%%%%%%%ooooXXXXXX..@@*************************",
"*************************@@@@..XXXXooooOO      oooooo++@@@@@@++@@@@oo@@        %%%%%%%%%%ooooXXXXXX..@@*************************",
"***************************@@..XXXXXXooooOOoooo      oooooo++++oo++oo++  ++++OOOOOOOOooooooXXXXXXXX..@@*************************",
"***************************@@..XXXXXXooooOOoooo      oooooo++++oo++oo++  ++++OOOOOOOOooooooXXXXXXXX..@@*************************",
"***************************@@@@..XXXXXXooooooOOOOOOOOOO++++++++oo++oo++++OOOOOOOOOOooooooXXXXXXXX..@@@@*************************",
"***************************@@@@..XXXXXXooooooOOOOOOOOOO++++++++oo++oo++++OOOOOOOOOOooooooXXXXXXXX..@@@@*************************",
"***************************@@@@@@..XXXXXXXXooooooOOOOOOOOOOOOooOOOOOOooOOOOOOOOooooooXXXXXXXXXX..@@@@***************************",
"***************************@@@@@@..XXXXXXXXooooooOOOOOOOOOOOOooOOOOOOooOOOOOOOOooooooXXXXXXXXXX..@@@@***************************",
"*****************************@@@@@@....XXXXXXXXooXXXXXXOOOOOOOOOOOOOOOOOOooooXXXXXXXXXXXXXXXX..@@@@******@@*********************",
"*****************************@@@@@@....XXXXXXXXooXXXXXXOOOOOOOOOOOOOOOOOOooooXXXXXXXXXXXXXXXX..@@@@******@@*********************",
"*******************************@@@@@@@@....XXXXXX      XXXXXXXXXXXXXXXXXXXXXX      XXXX......@@@@******@@***********************",
"*******************************@@@@@@@@....XXXXXX      XXXXXXXXXXXXXXXXXXXXXX      XXXX......@@@@******@@***********************",
"*************************************@@@@@@......XXXXXX%%%%        %%  %%%%  XXXX......@@@@@@***********************************",
"*************************************@@@@@@......XXXXXX%%%%        %%  %%%%  XXXX......@@@@@@***********************************",
"*****************************@@************@@@@@@................................@@@@@@*****************************************",
"*****************************@@************@@@@@@................................@@@@@@*****************************************",
"*********************************@@@@**********@@@@$$$$$$$$$$$$$$$$$$$$$$$$$$@@@@***********************************************",
"*********************************@@@@**********@@@@$$$$$$$$$$$$$$$$$$$$$$$$$$@@@@***********************************************",
"*******************************************************@@@@@@@@@@@@@@@@@@*******************************************************",
"*******************************************************@@@@@@@@@@@@@@@@@@*******************************************************",
"********************************************************************************************************************************",
"********************************************************************************************************************************",
"********************************************************************************************************************************",
"********************************************************************************************************************************",
"********************************************************************************************************************************",
"********************************************************************************************************************************",
"********************************************************************************************************************************",
"********************************************************************************************************************************",
"********************************************************************************************************************************",
"********************************************************************************************************************************",
"********************************************************************************************************************************",
"********************************************************************************************************************************",
"********************************************************************************************************************************",
"********************************************************************************************************************************",
"********************************************************************************************************************************",
"********************************************************************************************************************************",
"********************************************************************************************************************************",
"********************************************************************************************************************************",
"********************************************************************************************************************************",
"********************************************************************************************************************************",
"********************************************************************************************************************************",
"********************************************************************************************************************************",
"********************************************************************************************************************************",
"********************************************************************************************************************************"
};
