/* XPM */
static char *result[] = {
/* columns rows colors chars-per-pixel */
"64 64 156 2 ",
"   c #000301",
".  c #000A06",
"X  c #010D0A",
"o  c #03120E",
"O  c #061410",
"+  c #091712",
"@  c #0A1915",
"#  c #06141D",
"$  c #09151F",
"%  c #07191C",
"&  c #0D1D1A",
"*  c #12201B",
"=  c #071620",
"-  c #081721",
";  c #041B21",
":  c #091B22",
">  c #0C1E2A",
",  c #061F2C",
"<  c #0D2024",
"1  c #0D232D",
"2  c #12262C",
"3  c #10282E",
"4  c #0E2632",
"5  c #102733",
"6  c #112A35",
"7  c #132D39",
"8  c #15323E",
"9  c #1A323C",
"0  c #163442",
"q  c #193644",
"w  c #193846",
"e  c #1B3C4B",
"r  c #1C3F50",
"t  c #1D424E",
"y  c #1E4351",
"u  c #1F4A58",
"i  c #1E5451",
"p  c #204548",
"a  c #21514B",
"s  c #214654",
"d  c #214A56",
"f  c #224C59",
"g  c #265452",
"h  c #285752",
"j  c #2A5956",
"k  c #25525D",
"l  c #29545D",
"z  c #275958",
"x  c #2C5D5A",
"c  c #2E625D",
"v  c #31635F",
"b  c #285760",
"n  c #275861",
"m  c #295962",
"M  c #2C5D72",
"N  c #2E6365",
"B  c #306667",
"V  c #30676E",
"C  c #326A6C",
"Z  c #2E6176",
"A  c #276973",
"S  c #2A6C76",
"D  c #2E6E78",
"F  c #306770",
"G  c #316972",
"H  c #306679",
"J  c #2E717A",
"K  c #367376",
"L  c #34747D",
"P  c #39767E",
"I  c #36787F",
"U  c #39797C",
"Y  c #434F4C",
"T  c #45524E",
"R  c #465450",
"E  c #485452",
"W  c #4D5956",
"Q  c #525D59",
"!  c #55635F",
"~  c #4D5F63",
"^  c #4F6064",
"/  c #4D6268",
"(  c #56676C",
")  c #5D6865",
"_  c #5A6C70",
"`  c #41767F",
"'  c #5A7076",
"]  c #636F6C",
"[  c #65716E",
"{  c #6C7773",
"}  c #6E7A77",
"|  c #707A77",
" . c #737E7A",
".. c #77827E",
"X. c #346C81",
"o. c #367780",
"O. c #397780",
"+. c #347B82",
"@. c #3A7A82",
"#. c #437E85",
"$. c #348081",
"%. c #3E8485",
"&. c #3A8C8C",
"*. c #3F819C",
"=. c #408587",
"-. c #448389",
";. c #48848B",
":. c #438B8B",
">. c #4B8B8B",
",. c #45938D",
"<. c #48958F",
"1. c #40839E",
"2. c #459291",
"3. c #4A9493",
"4. c #4C9E96",
"5. c #4C9A98",
"6. c #549F97",
"7. c #7A8B90",
"8. c #4DA097",
"9. c #4EA299",
"0. c #50A69C",
"q. c #52A99F",
"w. c #4186A1",
"e. c #4389A5",
"r. c #448CA9",
"t. c #54ABA1",
"y. c #8C9592",
"u. c #929D9B",
"i. c #88A7AD",
"p. c #8AA9AF",
"a. c #95A2A0",
"s. c #9DA7A4",
"d. c #9EAAA8",
"f. c #8CADB1",
"g. c #91ADB3",
"h. c #92B2B6",
"j. c #95B5B9",
"k. c #99B6BA",
"l. c #A2ADAA",
"z. c #A3B2AF",
"x. c #A0BBBE",
"c. c #B3BDBA",
"v. c #B7C1BF",
"b. c #B8C1BE",
"n. c #94C7C3",
"m. c #C2CCC8",
"M. c #C9D2CF",
"N. c #CAD4D1",
"B. c #D0D8D5",
"V. c #D9E0DE",
"C. c #DEE3E3",
"Z. c #E1E5E5",
"A. c #EDECED",
"S. c #F0EFEF",
"D. c #F2F1F1",
"F. c None",
/* pixels */
"F.F.F.F.F.F.F.F.F.F.F.F.F.F.F.F.F.F.F.F.F.F.F.F.F.F.F.F.F.F.F.F.F.F.F.F.F.F.F.F.F.F.F.F.F.F.F.F.F.F.F.F.F.F.F.F.F.F.F.F.F.F.F.F.",
"F.F.F.F.F.F.F.F.F.F.F.F.F.F.F.F.F.F.F.F.F.F.F.F.F.F.F.F.F.F.F.F.F.F.F.F.F.F.F.F.F.F.F.F.F.F.F.F.F.F.F.F.F.F.F.F.F.F.F.F.F.F.F.F.",
"F.F.F.F.F.F.F.F.F.F.F.F.F.F.F.F.F.F.F.F.F.F.F.F.F.F.F.F.F.F.F.F.F.F.F.F.F.F.F.F.F.F.F.F.F.F.F.F.F.F.F.F.F.F.F.F.F.F.F.F.F.F.F.F.",
"F.F.F.F.F.F.F.F.F.F.F.F.F.F.F.F.F.F.F.F.F.F.F.F.F.F.F.F.F.F.F.F.F.F.F.F.F.F.F.F.F.F.F.F.F.F.F.F.F.F.F.F.F.F.F.F.F.F.F.F.F.F.F.F.",
"F.F.F.F.F.F.F.F.F.F.F.F.F.F.F.F.F.F.F.F.F.F.F.F.F.F.F.F.F.F.F.F.F.F.F.F.F.F.F.F.F.F.F.F.F.F.F.F.F.F.F.F.F.F.F.F.F.F.F.F.F.F.F.F.",
"F.F.F.F.F.F.F.F.F.F.F.F.F.F.F.F.F.F.F.F.F.F.F.F.F.F.F.F.F.F.F.F.F.F.F.F.F.F.F.F.F.F.F.F.F.F.F.F.F.F.F.F.F.F.F.F.F.F.F.F.F.F.F.F.",
"F.F.F.F.F.F.F.F.F.F.F.F.F.F.F.F.F.F.F.F.F.F.F.F.F.F.F.F.F.F.F.F.F.F.F.F.F.F.F.F.F.F.F.F.F.F.F.F.F.F.F.F.F.F.F.F.F.F.F.F.F.F.F.F.",
"F.F.F.F.F.F.F.F.F.F.F.F.F.F.F.F.F.F.F.F.F.F.F.F.F.F.F.F.F.F.F.F.F.F.F.F.F.F.F.F.F.F.F.F.F.F.F.F.F.F.F.F.F.F.F.F.F.F.F.F.F.F.F.F.",
"F.F.F.F.F.F.F.F.F.F.F.F.F.F.F.F.F.F.F.F.F.F.F.F.F.F.F.F.F.F.F.F.F.F.F.F.F.F.F.F.F.F.F.F.F.F.F.F.F.F.F.F.F.F.F.F.F.F.F.F.F.F.F.F.",
"F.F.F.F.F.F.F.F.F.F.F.F.F.F.F.F.F.F.F.F.F.F.F.F.F.F.F.F.F.F.F.F.F.F.F.F.F.F.F.F.F.F.F.F.F.F.F.F.F.F.F.F.F.F.F.F.F.F.F.F.F.F.F.F.",
"F.F.F.F.F.F.F.F.F.F.F.F.F.F.F.F.F.F.F.F.F.F.F.F.F.F.F.F.F.F.F.F.F.F.F.F.F.F.F.F.F.F.F.F.F.F.F.F.F.F.F.F.F.F.F.F.F.F.F.F.F.F.F.F.",
"F.F.F.F.F.F.F.F.F.F.F.F.F.F.F.F.F.F.F.F.F.F.F.F.F.F.F.F.F.F.F.F.F.F.F.F.F.F.F.F.F.F.F.F.F.F.F.F.F.F.F.F.F.F.F.F.F.F.F.F.F.F.F.F.",
"F.F.F.F.F.F.F.F.F.F.F.F.F.F.F.F.F.F.F.F.F.F.F.F.F.F.F.F.I ;.P F.F.F.F.F.F.F.F.F.F.F.F.F.F.F.F.F.F.F.F.F.F.F.F.F.F.F.F.F.F.F.F.F.",
"F.F.F.F.F.F.F.F.F.F.F.F.F.F.F.F.F.F.F.F.F.F.J F.F.F.F.L @.I P @.@.F.F.F.F.F.F.F.F.F.F.F.F.F.F.F.F.F.F.F.F.F.F.F.F.F.F.F.F.F.F.F.",
"F.F.F.F.F.F.F.F.F.F.F.F.F.F.F.F.F.F.F.F.F.F.F.F.F.F.J :.9.:.@.@.L @.-.-.-.-.#.F.F.F.F.F.F.F.F.F.F.F.F.F.F.F.F.F.F.F.F.F.F.F.F.F.",
"F.F.F.F.F.F.F.F.F.F.F.F.F.F.F.F.F.F.F.F.F.F.F.F.F.J :.9.4.3.4.N > N 4.,.4.:.P o.I @.F.P F.F.F.F.F.F.F.F.F.F.F.F.F.F.F.F.F.F.F.F.",
"F.F.F.F.F.F.F.F.F.F.F.F.F.F.F.F.F.F.F.F.F.F.F.P @.:.4.4.N 5 7 0 e 0 8 6 B 4.5.4.4.:.P @.J F.F.F.F.F.F.F.F.F.F.F.F.F.F.F.F.F.F.F.",
"F.F.F.F.F.F.F.F.F.F.F.F.F.F.F.F.F.F.F.F.F.F.J @.:.9.N 5 e e e e e e w e w 4 N 9.4.9.9.:.O.J F.F.F.F.F.F.F.F.F.F.F.F.F.F.F.F.F.F.",
"F.F.F.F.F.F.F.F.F.F.F.F.F.F.F.F.F.F.@.#.-.@.%.9.N 6 0 M 1.*.M w e e e e e w 0 4 N 4.4.:.@.S F.F.F.F.F.F.F.F.F.F.F.F.F.F.F.F.F.F.",
"F.F.F.F.F.F.F.F.F.F.F.F.F.F.F.F.F.J @.o.%.8.N 7 0 M *.*.e.Z w e e e e e e e w e q 5 N 9.:.@.L F.F.F.@.F.F.F.F.F.F.F.F.F.F.F.F.F.",
"F.F.F.F.F.F.F.F.F.F.F.F.F.F.F.F.L O.:.0.N 7 0 M *.*.w.e.Z e d u s f y e e e e e e 7 7 5 N 2.O.D k.F.F.P @.F.F.F.F.F.F.F.F.F.F.F.",
"F.F.F.F.F.F.F.F.F.F.F.F.F.F.F.A :.4.0.N 6 M *.*.w.*.1.H y f f d f f d d y e e e e e 8 5 4 B 3.S f.F.F.F.F.F.F.F.F.F.F.F.F.F.F.F.",
"F.F.F.F.F.F.F.F.F.F.F.F.F.F.F.S :.t.N 6 Z w.w.*.*.H d f d k m m l m k f f f y e e e e 0 6 > B 2.-.@.j.F.F.F.F.F.F.F.F.F.F.F.F.F.",
"F.F.F.F.F.F.F.F.F.F.F.F.F.F.L @.2.B 4 M e.*.1.H u f k m m m m m m m n n m k d d f y e e 8 5 4 N 9.%.@.o.F.F.F.F.F.F.F.F.F.F.F.F.",
"F.F.F.F.F.F.F.F.F.F.F.F.F.f.S 3.N 7 w M r.H d f k n m b G @.P P @.G m m m m k d d f y e e 8 4 4 N 0.:.O.J F.F.F.F.F.F.F.F.F.F.F.",
"F.F.F.F.F.F.F.F.F.F.F.F.F.D 3.C 1 0 w Z X.y d k m n G @.P @.@.P @.@.P @.G m m k d f f y e 0 4 6 1 B t.:.S F.F.F.F.F.F.F.F.F.F.F.",
"F.F.F.F.F.F.F.F.F.F.F.F.D :.0.x 6 y r s f f k m n G @.@.@.@.@.@.@.@.U o.P @.F k m k d f y e 7 7 = g t.:.S F.F.F.F.F.F.F.F.F.F.F.",
"F.F.F.F.F.F.F.F.F.F.F.F.A 5.c - 0 M e.Z y k m b F @.P @.o.:.8.4.5.4.:.@.@.@.@.G l m k d y e e 0 6 - x t.:.J F.F.F.F.F.F.F.F.F.F.",
"F.F.F.F.F.F.F.F.F.F.F.L P 3.j > e M e.H y b b F @.@.o.:.4.4.9.4.4.4.4.4.:.I U @.G l m k y e e 8 7 # g t.:.A F.F.F.F.F.F.F.F.F.F.",
"F.F.F.F.F.F.F.F.F.F.F.J P 5.j > r w u f f m m G @.P :.9.4.9.4.4.4.4.9.4.9.:.o.@.@.G m k d y e 0 4 7 = x 5.J F.F.F.F.F.F.F.F.F.F.",
"F.F.F.F.F.F.F.F.F.F.F.f.$.q.g 1 r e r u k b F @.@.P :.9.4.4.9.4.9.4.4.4.9.:.P @.@.G m k f e e 8 6 7 # x &.i.F.F.F.F.F.F.F.F.F.F.",
"F.F.F.F.F.F.F.F.F.F.F.g.&.N $ 0 e e y f k m G @.P :.8.4.4.4.4.4.4.4.4.4.9.9.:.%.4.:.K -.t X o 2 0 6 - x 2.F.F.F.F.F.F.F.F.F.F.F.",
"F.F.F.F.F.F.F.F.F.F.F.f.&.x # q e e y f k m G @.P :.9.4.4.4.4.4.4.9.:.:.9.<.9.a W z.a.z.Q X o o * 7 $ g n.F.F.F.F.F.F.F.F.F.F.F.",
"F.F.F.F.F.F.F.F.F.F.F.g.&.x # 0 e e e w d m G @.P :.9.4.9.4.4.9.9.:.=.q.g o o R c.B.B.B.c.E . o : 8 $ x 2.F.F.F.F.F.F.F.F.F.F.F.",
"F.F.F.F.F.F.F.F.F.F.F.f.&.x = 7 0 e t 1 1 e q m o.%.9.8.9.:.%.9.0.K %.c . +   T N.|   } N.E   + ; 8 # x &.F.F.F.F.F.F.F.F.F.F.F.",
"F.F.F.F.F.F.F.F.F.F.F.D 5.x # 6 8 e y y 3 O O 3 t w C 8.4.9.U U t.K %.h   @ . E N.{   } M.E   6 0 6 $ x &.F.F.F.F.F.F.F.F.F.F.F.",
"F.F.F.F.F.F.F.F.F.F.F.A 5.x # 6 0 e y f y w t 5 O o 6 e C 9.9.K U :.2.x . o   T b.m.b.m.v.R - y 8 6 $ x &.F.F.F.F.F.F.F.F.F.F.F.",
"F.F.F.F.F.F.F.F.F.F.F.S 5.x # 7 8 e y d k l G m q e e t e K t.K K 0.4.0.h o & o ^ l.u.s.' 0 e 0 5 7 # x &.F.F.F.F.F.F.F.F.F.F.F.",
"F.F.F.F.F.F.F.F.F.F.F.A 3.c - 6 8 e e y k m b V @.@.P %.4.3.0.U U 0.5.0.:.K K S K G k f y e e 0 5 7 - c &.F.F.F.F.F.F.F.F.F.F.F.",
"F.F.F.F.F.F.F.F.F.F.F.D :.t.g $ 7 8 e y f k l S @.@.@.@.U :.9.5.4.9.:.K @.l 9 q 8 4 q u y e e 8 6 $ j &.F.F.F.F.F.F.F.F.F.F.F.F.",
"F.F.F.F.F.F.F.F.F.F.F.F.D 4.c - 6 5 8 y f k m n G @.@.@.@.o.P P K @.l 7 1 ^ y.c.[   2 w e e 0 4 6 - d +.k.F.F.F.F.F.F.F.F.F.F.F.",
"F.F.F.F.F.F.F.F.F.F.F.F.f.+.q.g = 6 8 e y f k b k F @.K o.l 6 6 9 1 7.|   o Q M.[   Q ( 4 r 0 6 - j &.f.F.F.F.F.F.F.F.F.F.F.F.F.",
"F.F.F.F.F.F.F.F.F.F.F.F.k.D 5.N = 6 6 8 e y f f w 4 6 9 6 _ Q   E u.b.[     { ..  O + < 0 0 4 7 - g +.h.F.F.F.F.F.F.F.F.F.F.F.F.",
"F.F.F.F.F.F.F.F.F.F.F.F.F.f.S 3.x - 6 6 8 e y e % + X Y l.Q X +    . .. & + + + O @ o : 7 6 6 = x 3.A h.F.F.F.F.F.F.F.F.F.F.F.F.",
"F.F.F.F.F.F.F.F.F.F.F.F.F.h.S @.2.x = 7 6 8 y 5   ) )   ..{   @ o & o T d.T   X ] Q % q 4 7 - x 3.O.J k.F.F.F.F.F.F.F.F.F.F.F.F.",
"F.F.F.F.F.F.F.F.F.F.F.F.F.F.J @.o.3.x - 6 4 0 0 ^ l.W   & & o 6 f y s f m 9   R l.Q > 7 6 - j q.:.D h.F.F.F.F.F.F.F.F.F.F.F.F.F.",
"F.F.F.F.F.F.F.F.F.F.F.F.F.F.h.L P %.0.j - 5 6 6 q s e w t t s d f f f y w e w 0 9 7 6 5 - x 2.o.L h.D.F.F.F.F.F.F.F.F.F.F.F.F.F.",
"F.F.F.F.F.F.F.F.F.F.F.F.F.F.F.h.o.-.@.2.z % 1 4 4 4 5 0 t e e e e e e e e 0 6 4 > 4 1 # t $.#.o.h.D.F.F.F.F.F.F.F.F.F.F.F.F.F.F.",
"F.F.F.F.F.F.F.F.F.F.F.F.F.F.F.F.F.F.h.o.#.,.z # : 1 5 5 4 4 4 5 1 4 4 4 5 4 4 1 : % t @.#.P h.A.F.F.F.F.F.F.F.F.F.F.F.F.F.F.F.F.",
"F.F.F.F.F.F.F.F.F.F.F.F.F.F.F.F.F.F.Z.Z.S.j.O.K :.x % : < : < < < < < < < : % z <.` I h.A.C.F.F.F.F.F.F.F.F.F.F.F.F.F.F.F.F.F.F.",
"F.F.F.F.F.F.F.F.F.F.F.F.F.F.F.F.F.L x.F.F.F.A.j.P <.6.<.,.,.,.<.<.<.,.,.<.9.>.P j.A.C.A.F.F.F.F.F.F.F.F.F.F.F.F.F.F.F.F.F.F.F.F.",
"F.F.F.F.F.F.F.F.F.F.F.F.F.F.F.F.F.F.F.F.F.F.F.F.Z.Z.D.j.@.;.-.;.-.-.;.@.k.D.Z.Z.F.F.F.F.F.F.F.F.F.F.F.F.F.F.F.F.F.F.F.F.F.F.F.F.",
"F.F.F.F.F.F.F.F.F.F.F.F.F.F.F.F.F.F.F.F.F.F.F.F.F.F.F.F.Z.Z.Z.Z.Z.Z.Z.Z.F.F.F.F.F.F.F.F.F.F.F.F.F.F.F.F.F.F.F.F.F.F.F.F.F.F.F.F.",
"F.F.F.F.F.F.F.F.F.F.F.F.F.F.F.F.F.F.F.F.F.F.F.F.F.F.F.F.F.F.F.F.F.F.F.F.F.F.F.F.F.F.F.F.F.F.F.F.F.F.F.F.F.F.F.F.F.F.F.F.F.F.F.F.",
"F.F.F.F.F.F.F.F.F.F.F.F.F.F.F.F.F.F.F.F.F.F.F.F.F.F.F.F.F.F.F.F.F.F.F.F.F.F.F.F.F.F.F.F.F.F.F.F.F.F.F.F.F.F.F.F.F.F.F.F.F.F.F.F.",
"F.F.F.F.F.F.F.F.F.F.F.F.F.F.F.F.F.F.F.F.F.F.F.F.F.F.F.F.F.F.F.F.F.F.F.F.F.F.F.F.F.F.F.F.F.F.F.F.F.F.F.F.F.F.F.F.F.F.F.F.F.F.F.F.",
"F.F.F.F.F.F.F.F.F.F.F.F.F.F.F.F.F.F.F.F.F.F.F.F.F.F.F.F.F.F.F.F.F.F.F.F.F.F.F.F.F.F.F.F.F.F.F.F.F.F.F.F.F.F.F.F.F.F.F.F.F.F.F.F.",
"F.F.F.F.F.F.F.F.F.F.F.F.F.F.F.F.F.F.F.F.F.F.F.F.F.F.F.F.F.F.F.F.F.F.F.F.F.F.F.F.F.F.F.F.F.F.F.F.F.F.F.F.F.F.F.F.F.F.F.F.F.F.F.F.",
"F.F.F.F.F.F.F.F.F.F.F.F.F.F.F.F.F.F.F.F.F.F.F.F.F.F.F.F.F.F.F.F.F.F.F.F.F.F.F.F.F.F.F.F.F.F.F.F.F.F.F.F.F.F.F.F.F.F.F.F.F.F.F.F.",
"F.F.F.F.F.F.F.F.F.F.F.F.F.F.F.F.F.F.F.F.F.F.F.F.F.F.F.F.F.F.F.F.F.F.F.F.F.F.F.F.F.F.F.F.F.F.F.F.F.F.F.F.F.F.F.F.F.F.F.F.F.F.F.F.",
"F.F.F.F.F.F.F.F.F.F.F.F.F.F.F.F.F.F.F.F.F.F.F.F.F.F.F.F.F.F.F.F.F.F.F.F.F.F.F.F.F.F.F.F.F.F.F.F.F.F.F.F.F.F.F.F.F.F.F.F.F.F.F.F.",
"F.F.F.F.F.F.F.F.F.F.F.F.F.F.F.F.F.F.F.F.F.F.F.F.F.F.F.F.F.F.F.F.F.F.F.F.F.F.F.F.F.F.F.F.F.F.F.F.F.F.F.F.F.F.F.F.F.F.F.F.F.F.F.F.",
"F.F.F.F.F.F.F.F.F.F.F.F.F.F.F.F.F.F.F.F.F.F.F.F.F.F.F.F.F.F.F.F.F.F.F.F.F.F.F.F.F.F.F.F.F.F.F.F.F.F.F.F.F.F.F.F.F.F.F.F.F.F.F.F.",
"F.F.F.F.F.F.F.F.F.F.F.F.F.F.F.F.F.F.F.F.F.F.F.F.F.F.F.F.F.F.F.F.F.F.F.F.F.F.F.F.F.F.F.F.F.F.F.F.F.F.F.F.F.F.F.F.F.F.F.F.F.F.F.F."
};
