/* XPM */
static char *result[] = {
/* columns rows colors chars-per-pixel */
"128 128 13 1 ",
"  c #05130F",
". c #08171C",
"X c #112935",
"o c #1B3C4B",
"O c #224B58",
"+ c #295962",
"@ c #3A7981",
"# c #40839E",
"$ c #4D9F97",
"% c #97A19E",
"& c #C6D0CD",
"* c #E7EEEC",
"= c #ECECEC",
/* pixels */
"================================================================================================================================",
"================================================================================================================================",
"================================================================================================================================",
"================================================================================================================================",
"================================================================================================================================",
"================================================================================================================================",
"================================================================================================================================",
"================================================================================================================================",
"================================================================================================================================",
"================================================================================================================================",
"================================================================================================================================",
"================================================================================================================================",
"================================================================================================================================",
"================================================================================================================================",
"================================================================================================================================",
"================================================================================================================================",
"================================================================================================================================",
"================================================================================================================================",
"================================================================================================================================",
"================================================================================================================================",
"================================================================================================================================",
"================================================================================================================================",
"================================================================================================================================",
"================================================================================================================================",
"===============================================@@======@@@@@@@@==========@@@@==@@===============================================",
"===============================================@@======@@@@@@@@==========@@@@==@@===============================================",
"===========================================@@@@======@@@@@@@@@@@@@@=============================================================",
"===========================================@@@@======@@@@@@@@@@@@@@=============================================================",
"===========================================@@======@@@@$$$$@@@@@@@@@@@@@@@@@@@@@@@@=============================================",
"===========================================@@======@@@@$$$$@@@@@@@@@@@@@@@@@@@@@@@@=============================================",
"=========================================@@======@@@@$$$$$$$$$$XXXX$$$$$$$$@@@@@@@@@@@@@@=======================================",
"=========================================@@======@@@@$$$$$$$$$$XXXX$$$$$$$$@@@@@@@@@@@@@@=======================================",
"=================================@@@@========@@@@@@$$$$$$XXXXXXooooXXXXXX$$$$$$$$$$@@@@@@@@=====================================",
"=================================@@@@========@@@@@@$$$$$$XXXXXXooooXXXXXX$$$$$$$$$$@@@@@@@@=====================================",
"=============================@@============@@@@@@$$$$XXXXooooooooooooooooXXXX$$$$$$$$$$@@@@@@==@@===============================",
"=============================@@============@@@@@@$$$$XXXXooooooooooooooooXXXX$$$$$$$$$$@@@@@@==@@===============================",
"===========================@@@@====@@@@@@@@@@$$$$XXXXoo######ooooooooooooooooXXXX$$$$$$@@@@@@====@@=============================",
"===========================@@@@====@@@@@@@@@@$$$$XXXXoo######ooooooooooooooooXXXX$$$$$$@@@@@@====@@=============================",
"===========================@@====@@@@@@@@$$$$XXXXoo########ooooooooooooooooooooooXXXX$$$$@@@@@@====@@@@@@=======================",
"===========================@@====@@@@@@@@$$$$XXXXoo########ooooooooooooooooooooooXXXX$$$$@@@@@@====@@@@@@=======================",
"=========================@@====@@@@@@$$$$XXXXoo##########ooOOOOOOOOOOooooooooooooooXXXXXX$$@@@@@@====@@@@@@=====================",
"=========================@@====@@@@@@$$$$XXXXoo##########ooOOOOOOOOOOooooooooooooooXXXXXX$$@@@@@@====@@@@@@=====================",
"=========================@@==@@@@$$$$$$XXoo############OOOOOOOOOOOOOOOOOOooooooooooooXXXXXX$$@@@@===============================",
"=========================@@==@@@@$$$$$$XXoo############OOOOOOOOOOOOOOOOOOooooooooooooXXXXXX$$@@@@===============================",
"=============================@@@@$$$$XXoo##########OOOOOOOO++++++++++OOOOOOOOooooooooooXXXXXX$$@@@@@@======@@===================",
"=============================@@@@$$$$XXoo##########OOOOOOOO++++++++++OOOOOOOOooooooooooXXXXXX$$@@@@@@======@@===================",
"===========================@@@@@@$$XXoo########OOOOOO++++++++++++++++++++++OOOOOOOOooooooXXXXXX$$$$@@@@@@=======================",
"===========================@@@@@@$$XXoo########OOOOOO++++++++++++++++++++++OOOOOOOOooooooXXXXXX$$$$@@@@@@=======================",
"===========================@@@@$$XXoooo####OOOOOO++++++++@@@@@@@@@@++++++++++OOOOOOOOooooooXXXXXX$$$$@@@@@@=====================",
"===========================@@@@$$XXoooo####OOOOOO++++++++@@@@@@@@@@++++++++++OOOOOOOOooooooXXXXXX$$$$@@@@@@=====================",
"=========================@@@@$$XXXXoooo##OOOOOO++++++@@@@@@@@@@@@@@@@@@@@++++++OOOOOOOOooooXXXXXXXX$$$$@@@@=====================",
"=========================@@@@$$XXXXoooo##OOOOOO++++++@@@@@@@@@@@@@@@@@@@@++++++OOOOOOOOooooXXXXXXXX$$$$@@@@=====================",
"=======================@@@@$$$$XXooooooOOOOOO++++++@@@@@@@@@@@@@@@@@@@@@@@@@@++++++OOOOOOooooXXXX..$$$$@@@@=====================",
"=======================@@@@$$$$XXooooooOOOOOO++++++@@@@@@@@@@@@@@@@@@@@@@@@@@++++++OOOOOOooooXXXX..$$$$@@@@=====================",
"=======================@@@@$$..XXoo####OOOO++++++@@@@@@@@@@$$$$$$$$$$@@@@@@@@@@++++++OOOOooooooXXXX..$$$$@@@@===================",
"=======================@@@@$$..XXoo####OOOO++++++@@@@@@@@@@$$$$$$$$$$@@@@@@@@@@++++++OOOOooooooXXXX..$$$$@@@@===================",
"=====================@@@@@@$$..oooo####OOOO++++@@@@@@@@$$$$$$$$$$$$$$$$$$@@@@@@@@++++++OOooooooXXXX..$$$$@@@@===================",
"=====================@@@@@@$$..oooo####OOOO++++@@@@@@@@$$$$$$$$$$$$$$$$$$@@@@@@@@++++++OOooooooXXXX..$$$$@@@@===================",
"=====================@@@@@@$$..ooooooOOOO++++++@@@@@@$$$$$$$$$$$$$$$$$$$$$$@@@@@@@@++++OOOOooooXXXXXX..$$@@@@===================",
"=====================@@@@@@$$..ooooooOOOO++++++@@@@@@$$$$$$$$$$$$$$$$$$$$$$@@@@@@@@++++OOOOooooXXXXXX..$$@@@@===================",
"=======================@@$$$$..ooooooOOOO++++@@@@@@@@$$$$$$$$$$$$$$$$$$$$$$@@@@@@@@++++OOOOooooXXXXXX..$$@@=====================",
"=======================@@$$$$..ooooooOOOO++++@@@@@@@@$$$$$$$$$$$$$$$$$$$$$$@@@@@@@@++++OOOOooooXXXXXX..$$@@=====================",
"=======================@@$$..XXooooooOOOO++++@@@@@@$$$$$$$$$$$$$$$$$$$$$$$$$$@@$$$$@@@@@@      ooXXXX..$$@@=====================",
"=======================@@$$..XXooooooOOOO++++@@@@@@$$$$$$$$$$$$$$$$$$$$$$$$$$@@$$$$@@@@@@      ooXXXX..$$@@=====================",
"=======================@@$$..XXooooooOOOO++++@@@@@@$$$$$$$$$$$$$$$$$$@@$$$$$$$$  %%%%%%%%        XXXX..$$====@@=================",
"=======================@@$$..XXooooooOOOO++++@@@@@@$$$$$$$$$$$$$$$$$$@@$$$$$$$$  %%%%%%%%        XXXX..$$====@@=================",
"=======================@@$$..XXoooooooooo++++@@@@@@$$$$$$$$$$$$$$$$@@$$$$      %%&&****&&%%      XXXX..$$@@=====================",
"=======================@@$$..XXoooooooooo++++@@@@@@$$$$$$$$$$$$$$$$@@$$$$      %%&&****&&%%      XXXX..$$@@=====================",
"=======================@@$$..XXXXoooooo  oooooo@@@@$$$$$$$$@@$$$$$$++$$        %%&&    &&%%      XXXX..$$@@=====================",
"=======================@@$$..XXXXoooooo  oooooo@@@@$$$$$$$$@@$$$$$$++$$        %%&&    &&%%      XXXX..$$@@=====================",
"=====================@@@@$$..XXXXooooOOoo      oooooo$$$$$$$$++$$$$++$$        %%&&    &&%%    ooXXXX..$$@@=====================",
"=====================@@@@$$..XXXXooooOOoo      oooooo$$$$$$$$++$$$$++$$        %%&&    &&%%    ooXXXX..$$@@=====================",
"=====================@@@@$$..XXXXooooOOOOoooooo      oooo$$$$$$++$$@@$$        %%&&&&&&&&%%  ooooXXXX..$$@@==@@=================",
"=====================@@@@$$..XXXXooooOOOOoooooo      oooo$$$$$$++$$@@$$        %%&&&&&&&&%%  ooooXXXX..$$@@==@@=================",
"=====================@@@@$$..XXXXooooOOOO++++@@oooooooooooo$$$$++$$$$$$$$        %%%%%%%%ooooooXXXXXX..$$@@=====================",
"=====================@@@@$$..XXXXooooOOOO++++@@oooooooooooo$$$$++$$$$$$$$        %%%%%%%%ooooooXXXXXX..$$@@=====================",
"=====================@@@@$$..XXXXooooooOO++++++@@@@@@@@$$$$$$$$++$$$$$$$$@@@@@@@@@@++OOOOooooooXXXXXX..$$@@=====================",
"=====================@@@@$$..XXXXooooooOO++++++@@@@@@@@$$$$$$$$++$$$$$$$$@@@@@@@@@@++OOOOooooooXXXXXX..$$@@=====================",
"=====================@@@@$$$$..XXXXooooOOOO++++@@@@@@@@@@@@$$$$$$$$$$@@@@@@XXXXXXXXXXOOOOooooooXXXX..$$@@=======================",
"=====================@@@@$$$$..XXXXooooOOOO++++@@@@@@@@@@@@$$$$$$$$$$@@@@@@XXXXXXXXXXOOOOooooooXXXX..$$@@=======================",
"=======================@@@@$$..XXXXXXooOOOO++++++@@@@@@@@@@@@@@@@@@@@XXXXXX%%%%&&    XXooooooXXXXXX..@@@@=======================",
"=======================@@@@$$..XXXXXXooOOOO++++++@@@@@@@@@@@@@@@@@@@@XXXXXX%%%%&&    XXooooooXXXXXX..@@@@=======================",
"=========================@@$$$$..XXXXooooOOOO++++++@@@@@@@@XXXXXXXXXX&&      %%&&    %%XXooooXXXX..$$@@=========================",
"=========================@@$$$$..XXXXooooOOOO++++++@@@@@@@@XXXXXXXXXX&&      %%&&    %%XXooooXXXX..$$@@=========================",
"=========================@@@@$$..XXXXXXooooOOOOOOXXXXXXXXXX%%    %%%%&&      &&        XXooXXXXXX..@@@@=========================",
"=========================@@@@$$..XXXXXXooooOOOOOOXXXXXXXXXX%%    %%%%&&      &&        XXooXXXXXX..@@@@=========================",
"===========================@@@@$$..XXXXXXooooOOXX      %%%%        &&                  XXXXXXXX..$$@@@@=========================",
"===========================@@@@$$..XXXXXXooooOOXX      %%%%        &&                  XXXXXXXX..$$@@@@=========================",
"===========================@@@@@@$$..XXXXXXoooo    %%    &&            %%%%      %%  ooXXXXXX..$$@@@@@@=========================",
"===========================@@@@@@$$..XXXXXXoooo    %%    &&            %%%%      %%  ooXXXXXX..$$@@@@@@=========================",
"===========================@@@@@@@@$$..XXXXXXoooo%%%%          OOOOOOOOOOOO    %%%%XXXXXXXX..$$$$@@@@===========================",
"===========================@@@@@@@@$$..XXXXXXoooo%%%%          OOOOOOOOOOOO    %%%%XXXXXXXX..$$$$@@@@===========================",
"=============================@@@@@@$$$$..XXXXXXXXooooooooOOOOOOOOOOOOOOooooooooXXXXXXXXXX..$$@@@@@@======@@=====================",
"=============================@@@@@@$$$$..XXXXXXXXooooooooOOOOOOOOOOOOOOooooooooXXXXXXXXXX..$$@@@@@@======@@=====================",
"===============================@@@@@@@@$$....XXXXXXXXXXooooooooooooooooooooXXXXXXXXXX....@@@@@@@@======@@=======================",
"===============================@@@@@@@@$$....XXXXXXXXXXooooooooooooooooooooXXXXXXXXXX....@@@@@@@@======@@=======================",
"=====================================@@@@@@$$......XXXXXXXXXXXXXXXXXXXXXXXXXXXX......@@@@@@@@===================================",
"=====================================@@@@@@$$......XXXXXXXXXXXXXXXXXXXXXXXXXXXX......@@@@@@@@===================================",
"=============================@@============@@@@@@$$............................$$@@@@@@=========================================",
"=============================@@============@@@@@@$$............................$$@@@@@@=========================================",
"=================================@@@@==========@@@@$$$$$$$$$$$$$$$$$$$$$$$$$$@@@@===============================================",
"=================================@@@@==========@@@@$$$$$$$$$$$$$$$$$$$$$$$$$$@@@@===============================================",
"=======================================================@@@@@@@@@@@@@@@@@@=======================================================",
"=======================================================@@@@@@@@@@@@@@@@@@=======================================================",
"================================================================================================================================",
"================================================================================================================================",
"================================================================================================================================",
"================================================================================================================================",
"================================================================================================================================",
"================================================================================================================================",
"================================================================================================================================",
"================================================================================================================================",
"================================================================================================================================",
"================================================================================================================================",
"================================================================================================================================",
"================================================================================================================================",
"================================================================================================================================",
"================================================================================================================================",
"================================================================================================================================",
"================================================================================================================================",
"================================================================================================================================",
"================================================================================================================================",
"================================================================================================================================",
"================================================================================================================================",
"================================================================================================================================",
"================================================================================================================================",
"================================================================================================================================",
"================================================================================================================================"
};
