/* XPM */
static char *_42e31094d1f4b03b9dbc7c02e9ec88bS7pCWOoIpFckojw3[] = {
/* columns rows colors chars-per-pixel */
"64 64 256 2 ",
"   c #3F3738",
".  c #6C1E17",
"X  c #5F2E19",
"o  c #652919",
"O  c #792919",
"+  c #6A351C",
"@  c #76361A",
"#  c #4C342B",
"$  c #5A3728",
"%  c #473936",
"&  c #553D37",
"*  c #683929",
"=  c #713026",
"-  c #763926",
";  c #663C33",
":  c #57501D",
">  c #67451D",
",  c #64701F",
"<  c #57462B",
"1  c #55582B",
"2  c #594439",
"3  c #6A4629",
"4  c #784729",
"5  c #6A5729",
"6  c #78532B",
"7  c #664639",
"8  c #784737",
"9  c #68543B",
"0  c #775635",
"q  c #586C2C",
"w  c #657927",
"e  c #70712F",
"r  c #776738",
"t  c #5B4B44",
"y  c #5A544A",
"u  c #5B5855",
"i  c #654A43",
"p  c #744E40",
"a  c #695648",
"s  c #775848",
"d  c #675C54",
"f  c #775B53",
"g  c #5C6E51",
"h  c #6B6648",
"j  c #766648",
"k  c #6E744C",
"l  c #7A7646",
"z  c #69655A",
"x  c #776759",
"c  c #6D6B65",
"v  c #756C65",
"b  c #6E746D",
"n  c #777569",
"m  c #787B75",
"M  c #99200F",
"N  c #902B18",
"B  c #87361C",
"V  c #883A27",
"C  c #993A27",
"Z  c #8F3E30",
"A  c #AA3C27",
"S  c #B83D24",
"D  c #C4391F",
"F  c #91431E",
"G  c #A4471D",
"H  c #B0501F",
"J  c #864729",
"K  c #97462B",
"L  c #88542B",
"P  c #97552A",
"I  c #884635",
"U  c #984933",
"Y  c #895639",
"T  c #965836",
"R  c #A74528",
"E  c #B8482C",
"W  c #B2592D",
"Q  c #B9592A",
"!  c #A74C35",
"~  c #B74A32",
"^  c #A75536",
"/  c #8A6F35",
"(  c #896638",
")  c #986637",
"_  c #987938",
"`  c #A7692D",
"'  c #BA652E",
"]  c #A6683A",
"[  c #BA6833",
"{  c #A5763C",
"}  c #BB753A",
"|  c #C5482B",
" . c #D44F2F",
".. c #CA552D",
"X. c #D7522C",
"o. c #C44D33",
"O. c #CB4D33",
"+. c #C94E3A",
"@. c #C85433",
"#. c #D35433",
"$. c #C4672D",
"%. c #C86837",
"&. c #D26637",
"*. c #D36A3A",
"=. c #C4763B",
"-. c #885645",
";. c #8A5547",
":. c #896943",
">. c #976645",
",. c #887749",
"<. c #987746",
"1. c #8B6658",
"2. c #947154",
"3. c #A56D46",
"4. c #A87746",
"5. c #BA7945",
"6. c #AC7955",
"7. c #89786A",
"8. c #C86D41",
"9. c #C47944",
"0. c #6A8928",
"q. c #728F2F",
"w. c #74982C",
"e. c #7BA531",
"r. c #768952",
"t. c #6B9664",
"y. c #7A8779",
"u. c #73A976",
"i. c #8A9035",
"p. c #AA8B3A",
"a. c #86AC37",
"s. c #89B337",
"d. c #93B83A",
"f. c #B7B23E",
"g. c #C5823C",
"h. c #97C33D",
"j. c #A7C53E",
"k. c #998247",
"l. c #888F51",
"z. c #99865A",
"x. c #979658",
"c. c #A88647",
"v. c #B68647",
"b. c #B6944A",
"n. c #A88959",
"m. c #B98854",
"M. c #A4965A",
"N. c #B89859",
"B. c #95A84E",
"V. c #99B248",
"C. c #A9B153",
"Z. c #93926B",
"A. c #848779",
"S. c #AB8F6B",
"D. c #A99967",
"F. c #BA9967",
"G. c #96AC6E",
"H. c #A7A866",
"J. c #B9A669",
"K. c #B4B66A",
"L. c #B8AA79",
"P. c #ACB271",
"I. c #B9B776",
"U. c #C88648",
"Y. c #DA8B49",
"T. c #CE914B",
"R. c #C58A56",
"E. c #C79757",
"W. c #D59A5A",
"Q. c #E28D49",
"!. c #E29551",
"~. c #CAA659",
"^. c #D0B155",
"/. c #E3A95D",
"(. c #C89965",
"). c #D59C61",
"_. c #C28876",
"`. c #CAA868",
"'. c #D5A967",
"]. c #C9B36B",
"[. c #D7B66A",
"{. c #C7AD74",
"}. c #DBAB76",
"|. c #C9B777",
" X c #D7B878",
".X c #E2B16E",
"XX c #E4B579",
"oX c #A9C947",
"OX c #B0CC50",
"+X c #9FC175",
"@X c #B8C872",
"#X c #D8D665",
"$X c #D0D26C",
"%X c #C8C579",
"&X c #DAC579",
"*X c #E7CA78",
"=X c #EFD275",
"-X c #EAD67C",
";X c #6F8580",
":X c #768985",
">X c #799689",
",X c #7A9A97",
"<X c #79A39A",
"1X c #79A7A5",
"2X c #7BB1B0",
"3X c #7AB3B4",
"4X c #839588",
"5X c #84958F",
"6X c #AB9781",
"7X c #8FA592",
"8X c #ADAF8D",
"9X c #87ABA9",
"0X c #91B5AE",
"qX c #88B8B7",
"wX c #A6BCA8",
"eX c #CAB983",
"rX c #DCBC84",
"tX c #E4B987",
"yX c #B4D48B",
"uX c #88C1BB",
"iX c #AEC4AC",
"pX c #CAC887",
"aX c #D7C786",
"sX c #DCD28C",
"dX c #C9CA94",
"fX c #D9CB96",
"gX c #DDD398",
"hX c #E6CB88",
"jX c #F3CA85",
"kX c #EAD78A",
"lX c #F4DB85",
"zX c #E5C694",
"xX c #E7D897",
"cX c #F3DC97",
"vX c #DBE687",
"bX c #E7EB86",
"nX c #F4E586",
"mX c #F5E68A",
"MX c #F5E98B",
"NX c #F8E88A",
"BX c #EBF389",
"VX c #ECE397",
"CX c #F6E595",
"ZX c #EBF398",
"AX c #D2D8AE",
"SX c #EADAA5",
"DX c #DAE4BD",
"FX c #F0E8AD",
"GX c #8CBCC3",
"HX c #8BC4C5",
"JX c #93C6C8",
"KX c #D8E9D5",
"LX c #F3F0CA",
"PX c #FEFADB",
"IX c #DAF0E7",
"UX c #F1F6E6",
/* pixels */
"h L _ +XyX+XC.bXBXvXbXBX%XC.yXyXx.4 E X.#.=.%.%.%.$.%.%.%.%.%.%.%.%.%.%.%.%.%.@.%.*.*.X.#.! ,.H.bXBXbXvXBXvXG.yXyXB.` L P.I.K.K.",
"h ^ ` l.@XG.r.$XBXvXbXbXx.l.yXG.5 Z E #.&.| E | E | | E E | E | E | | S | E | ~ E S ..*...~ J r K.BXBX-XbXH.e yX+Xe ' L K.@XI.K.",
"h P =.i.G.G.l / H.K.C.x.e Z.G.r.4 C ~ *.@.| O.+.| O.o.O.O.| o.O.O.o.o.o.O.O.o.O.O.D S %.&.~ Z 0 / H.@XK.x.e r.G.r.c.$.) I.I.I.[.",
"k J $.9.l r.l.r.5 r 6 e r.l.e k.P K Q 8.| O.E N B B B B V N B B B B B B B B B B A | S &.*.E J l r.e 5 5 r l.l.k p.=.H c.@XP.|.[.",
"k a P Q U.c.r l :.r r l r.,.U.=.B K ~ 8.+.S @ X * c.4.$ + p.4.* * { v.3 $ ) v.4 o C D &.&.~ 4 r l.r r r l l _ b.=.H L C.I.L.].b.",
"r.h 0 F Q =.U.p.k.i.k.k.p.9.$.G V A @.8.o.A X 9 }.kX X4.F.kX*Xn.n.kX&Xm.6.hX*XJ.6 @ A #.&.~ V ` c.<.k.i.k.v.g.$.H P x.P.K.J.].4.",
"H.r.h s F G Q ' ` } } ' Q G F L 4 K ~ *.o.C $ n.FXPXLX[.FXPXLX|.xXPXLX XzXPXLXFXF.- A %.%.~ Z K ' [ } [ [ ' G F J k.P.K.K.J.`.c.",
"P.P.r.h 5 J F F G G G G F V r ( * U E %.O.C $ `.LXUXPX XFXPXPXrXFXPXPXhXcXPXPXLX XV A #.%.~ V = G G G G G K B 0 x.P.P.K.I.F.'.c.",
"@XK.P.G.l.j 3 4 4 6 6 6 0 Z.6.J = U ~ 8.o.C $ Y `.&XaXb.~.XX&XN.E.&X&X`.b. XaX[./ = A #.*.~ 4 * C 4 8 8 0 Y z.2.x.z.P.I.K.b.].m.",
"I.I.%XpXL.P E E R r Z.Z.H.z.U - * Z ~ 8.o.A $ % < < < $ 3 2 < & 2 7 < & & < 7 3 # * A &.%.~ J * J I j Z.Z.H.<.R E R <.I.I.<.J.~.",
"I.P.x.B.( A X.X.o.^ >.>.T C I s ; U ~ *.o.C $ & %   %   % % %   % &       % & % % = A &.*.~ Z 7 -.Z ! >.>.] ~ X.X. .F i.K.L 4.[.",
"H.B.B.a./ ; K E | E S C Z 8 f -.* U @.8.o.C $ & & % %   t 2 % % 2 % % # % % t & # * R #.8.~ - & 1.8 Z Z C S | O.R I 4 I.B.5 L b.",
"l.B.ZX$Xi.j m f s s j n 1.a a 7 * U ~ 8.E C $ 2 % % % % 2 % % % % % % % % % % # # = A @.*.E I $ a i x 1.n j s 0 x 7.s %XOXw + L ",
"w.s.OXj.^.6 v m A.y.y.y.n i 2 i ; U ~ &.@.E N - ; = = = = = = o = = = + = o = + O A S &.%.~ Z ; 7 & f y.:Xy.y.y.n a / V.e.q.> J ",
"0.e.s.oXf.P & t 2 t 2 t 2 $ a 1.- U @.X.&.%...@.' @.~ [ ' ' ' $.[ W Q Q W [ W ' [ @.&.&...~ 4 8 1.7 & 2 2 y t 2 2 $ ` oXs.0.: - ",
"0.s.h.h.C.s m :X>Xy.m m v i s 1.* U ^ ..#.#.*.*.8.8.8.*.*.*.Y.g.T.Y.%.*.*.%.*.*.*.*.&.O...^ Z 7 1.a a v y.y.:X>X:Xz ( d.e.0.5 * ",
"0.w.e.h.0.d ,XGXHX<X<X>XA.j f p = I U ! ! ! ! ! ! ! ;.! ! Y.E.&X^.T.5.U ! U ! ! ! ! ! ~ ! ;.Z ; j i v A.>X<X1XJXqX>X9 w.w.0.> 6 ",
"w 0.w.e.q c ,XGXqX<X>Xy.7.a ; 8 8 = p ;.;.;.Y -.Y Y ;.I R.[.lXNXNX=X'.4.I -.-.Y I ;.;.;.Y ; = 7 7 ; 1.A.4X>X<XJX2X>X9 , 0.q > 4 ",
"1 , w.e.i.a :X9X0X:Xy.v d 7 7 ;.;.* = = ; & ; ; ; ; * m..X-XNXmXNXNX*X'.>.$ 3 ; ; ; ; ; V = ; ;.;.; i z m y.,XqX<Xc j K.q.q $ + ",
"q B.vXOX^.L 2 y u 9 2 2 7 & s 2.i = ~ V & t & ; ; < z.[.lXmXmXnXmXmXmX*X`.( $ 2 2 & & & U A $ ;.1.7 i & 2 i y d a < { MX@X, 3 4 ",
"w d.OXoXf.L $ 2 y t a f x a f -.& ; o.Z ; & i f s m.[.-XmXmXNXlXNXNXnXNX*X'.<.f p 7 2 * ~ ! # i 1.7 f x a a y t < $ ] V.a.0.5 3 ",
"0.s.d.oXOXL b 9X9X>X4Xy.A.a i t & V ~ I p & a v J.[.lXmXmXNXW.5.lXCXnXNXmX*X`.D.v i t f ! ~ - & i 7 x A.y.y.<XqX,Xz ) d.s.w.> 3 ",
"0.a.d.j.i.c 1XqXqX<X>Xy.A.a % t s U ~ 8 v t x L.[.-XNXnXNXW.T.jXkXkXlXlXmXmX=X|.6Xi u :X; +.U f t & x A.y.>X<XHXqX,Xh a.a.0.> + ",
"0.w.a.h.e b <XGXqX>X4XA.v i & x p R Z f :X2 n.[.-XNXnXnXW.R.XX'.5.[ [ T.nXnXnX*X[.1.y ,Xs R Z f f # a n A.>X<XHX2X,Xa 0.w.w 5 - ",
"q 0.w.e.e d y.qX0X:Xx d t & p 1.8 E I c y.n.[.-XMXmXNXXXR.lX'.8.!.}.W.9.jXNXmXNX=X~.z.:Xb I R p 1.i < y z b 5XHX,Xb 9 0.0.w k 3 ",
"1 0.0.w.i.0 t u u u 2 2 f a f -.Z R 7 m P.&X-XMXMXMX-X[.lXXX!.9.[ W.jXT.-XNXNXmXmX*X].Z.m 8 ! - 1.i d h 2 t u u y t ( e q.x.l r ",
"k 1 B.x.N.L & a z n y.y.A.a f s ! Z j L.&X=XNX-XNXlX.X-XW.[ 8.}.W.U.jXE.=XCXnXnXnXMX=X].6X9 R U f i x A.y.n c g i $ ] M.x.I.Z.l ",
"H.Z.fXsXrXL i 7X0X>X>X>X4Xd i I ~ p Z.].=XNXnXNXnXlXnX-X8.8.jX.XU.jXXXE.lXmXmXmXMXMXmX.X|.y.Z ! p i c 7X>X>X<X0X:X3 4.hXeXZ.H.x.",
"k aXfXfX`.j :XuXuX>X>X>XA.z $ ! Z 7.>XL.[.-XNXNXNXmXnXlX9.@.9.@.W.W.T.=XXXkXmXnXbXCX*X[.6X5Xf A Z # n 4X>X>X1XHX0Xn :.rXgXL.x.P.",
"a fXaXL.s x >XuXuX<X>X>XA.9 - ~ ; t u y c.[.-XmXnXNXnXnX9.Y..X=X=XW.*XlXU.W.MXnXMX*X^.j u u 2 V ~ ; x 4X>X>X<XHX9Xy.s L.SX8XH.%X",
"h fXaXD.2.x >XqX3X<X>XA.x 4 o.Z p c c a < n.[.lXMXnXNXNX%.'.CXNXlXCXNXjX9..XMXMX*X[.1.& c c c 8 ! ~ - 7.4X>X<XHX2Xy.9 x.xXL.sXFX",
"9 gXaXH.z.0 y.0XuX>Xy.l 4 o.@.- m 9X5Xc i v 8X[.-XMXnXNX).[ W.W.).).W.v.W.nXmX*X].7Xz t :X,X9Xn C #.! ; v y.9XJX7Xk 8 D.xXL.]..X",
"a fXaXH.{.6 7 v n f 8 K ~ #.C f 5X,X,Xz i :X,X8X[.lXNXmXcX.XU.%.%.8.9..XlXmX*X].7X,X:Xt :X,X,X,Xf R #.! I 8 x n x * ) {.xXL.~.^.",
"j gXaXJ.].J $ - Z ! o.O.#.~ 8 m 1X,X:Xa c <X,X,XL.[.lXMXnXNXmXNXlXlXlXnXNX=X'.7X,X1X>Xt b ,X1X,Xy.V O. . .E K Z - + ] {.gXL.[.NX",
"j fXaXK.'.J U #.#.O.X. ...K v 9X1X1Xb t ;X2X1X1X:XN.[.lXNXNXNXNXCXMXbXNX*X`.z.;X1X2X1Xb u ,X1X1X9Xf R  .X.X. . .+.V ] |.SXL.~.CX",
"x gXsX|.N.R O.X.X.X.X.O.~ p ,X3X3X,Xu u <X3X3X1Xv 7 D.[.jXNX-XNXMXnXNX*X|.Z.7 y.2X3X3X;Xi b 3X3X3X:X4 |  .X.X.X.O.o.P {.SX{.^.cX",
"j gXgX|.6.R  .X.X. .O.O.C v HXGXGX:Xt b GXGXGXqXv i :XeX[.kXmX-X-XNX&X|.iXy.i m GXHXHX<Xd u qXHXHXqXf R O. . .X.X.O.C J.VXI.[.FX",
"h xXgX%Xc.A X.X. . .#.A p 5X9XqX5Xc u :X2XqX9X9Xv i :XqXP.E.#X=X=X[.J.8X0Xm i m 1X3X3X1Xb a 5X9X3XqXy.- o.+.O.X.X.#.C J.FXL.*X=X",
"k gXsX%Xn.C #.X.O.o.~ Z 1.,X,X,Xy.i a ;X,X,X,X,Xf & b :X7XP.U.^.^.b.6X5X5Xd & b >X,X,X,Xb t z ,X,X,Xy.1.Z ~ +.O.X.X.J {.VXI. X=X",
"j xXsX|.{.T A S R V = ; s v m n d * * f b b m v i * ; c n m <.4.v.,.c n d ; = a n b n v a = 7 v m n x 9 * - C A S R n.aXVX].T./.",
"j gXsX|.sXJ.6 J P L P J L 8 4 3 J L L J 4 6 3 3 J U P 4 3 3 L v.{ 3 3 3 J L P 4 8 3 4 4 J P L 4 3 0 6 6 L P L U - ( sXaXxXeX[./.",
"z gXsX].aXsXJ.L 4.~.~.~.~.>.Y L >.>.6 @ J ] ) :.3.T L >.>.3 4 J } <.>.) P T >.T 4.T J * ;.>.T Y Y 4.~.~.^.b.L <. XsXpX|.VX8XhX-X",
"j gXsXJ.aXVX X6 { ^.^.^./ N.'.5.tXzX:.@ W U.'.tXfXR.R.zXrX6 @ Q U.{.zXrXv.(.zXrX~.[ K @ F.tX'.5.rX<.c.[.^.~.6 _ hXVX%X|.SX{.&XkX",
"h fXfXJ.aXkX].6 { ^.^.) T 9.} [ } 9.U @ W 9.5.5.8.=.[ 9.5.@ B ..U.} 5.9.%.%.5.] U.' G O ] 9.5.$.8.} P c.^.~.L <.&XxXI.{.xXL.J. X",
"s fXaXD.pXsX{.6 { /._ 4.tX}.E.5.}.}.( @ W g.E. XrX9.U.XX'.4 B ..T.~.}.}.9.R.tX}.T.$.G @ v.rXW.} '.}.}.L b.~.L <.aXkX{.J.SXL.N.[.",
"h fXpXM.%XaXI.6 { [.( ^ 9.} } $.5.U.J @ R =.5.5.9.%.' 5.=.J B Q U.p.9.5.=.=.5.5.U.=.G @ ] 5.5.[ 9.5.5.J p.'.L <.pXsXP.H.gX8XJ.~.",
"a fXpXz.I.aXJ.Y ) `.L 4.XX}.R.9.}.XXY B Q 9.(.}.XXU.U.}.}.J B Q U.W.XX}.=.W.tX}.E.[ R @ m.tX).8.'.}.}.L 4.E.4 <.|.aXD.D.xXL.N.v.",
"h gXeXk.J.|.J.Y - L 4 Y >.>.) U >.>.I J K P >.>.>.T T >.>.J 4 P T >.>.>.T Y >.;.) P L - ;.3.T T >.( >.I L J + <.|.aXD.S.gXL.N.c.",
"a fXeX,.D.pX`.>.* + - + @ - + + . . o o . X o o o o o o o o + X o X o o X o o o X o o O . o o o @ + @ + - + 4 n.|.eXz.z.gX6XN.b.",
"h fXdXS.:.,.,.( >.(.4.P E.).5.5.U N O N @ 6.N.m.m.m.m.m.m.m.m.m.R.R.m.m.m.m.m.b.R.R.>.. N O N K R.'.9.P R.6.>.:.,.,.2.J.xXL.F.m.",
"9 L.zXaXJ.D.H.2.6.(.5.W T.W.U.=.A M M M B 9.Q.Q.Q.Q.Q.Q.Q.Q.Q.Q.Q.Q.Q.Q.Q.Y.Q.Q.!.!.[ . N . M R U./.U.P R._.2.n.F.D.L.xXfXz.J.E.",
"< 1.Z.x.z.Z.n.2.6.(.3.^ W.[.} <.1.p O A O I ^ ! P U K P U U P U T U U P K P U P U U K M N J 1.;.R.[.9.P m.(.3.z.S.z.z.S.2.r v.[.",
"9 2 ,.r r r :.-.m.`.} ^ tXSXz.wXwX0X7.N @ F.|.}./.`.|.'.^.].{.`.'. X].W.{.{.~.`.{.|.=.N 1.wXwXwX6XFX(.U R.'.3.r e w , w x.Y L ~.",
"P.q r.a.i.B.q.5 F.kXE.P zXSX7XwXS.8XwX6.@ &XFXSX#XvXDX-X#XFXFX#XhXDXxX#XFXFX=X#XDXFXv.T iX8XS.8X0XDX(.P &XhX4.e C.$XC.%XB.3 @ L ",
"B.V.ZXOXOXBXOX0.`.FX[.P 8.F.wXS.}.9.8X6Xo fXIXKX[.KXUXgXaXLXIX&XAXIXFXpXLXIXsXsXIXLXm.2.wXm..Xn.wX6X[ ] cXxXc.d.$X$XOXbXOX: + 4 ",
"w.B.@XoXoXOX#Xi.`.VXkX(.E.{.wXS.S.S.AX6.- eXKXKX&XAXIXAXdXKXKXpXAXIXAXpXDXIXdXdXIXKX9.>.wXS.m.L.dXeXW.}.VXcX4.V.ZXOXoXd.s.0.< 4 ",
"0.e.s.oXoX$X-Xi.(.VXVXVXVXVXdXiX8XiX8X~ V 6XiXwX8X8XwX8XL.wXwXI.8XiX8XI.wXwX8X8XiXiXn.R 6XiX8XiXAXVXVXVXcXxX<.e.@Xj.h.h.s.0.: > ",
"0.s.h.h.h.s.s., F.CXkXxXVXVXFXdXS._.+.O.B :.D.I.c.L.dXK.M.pXyXM.K.dXI.x.@XdXN.n.S.z.J E | S.6X6XSXVXxXVXVXxX_ w.e.h.h.h.e.0.5 6 ",
"0.w.e.h.h.e.e.0.F.kXkXbXkXkXkX XM D #...V L 3.'.&X*X&XaX-X*X-X&X*X*X&X*X&X&X X[.4.J B E  .D M W kXkXkXkXkXhX_ w.e.s.s.e.q.w > J ",
"w 0.e.e.e.e.e., L m.v.v.c.b.b.4.A | | E K ) (.'.].&X&X&X&X&X&X&X&X&X$X&X X X].`.E.] K E | D D ^ c.k.p.<.v.c.3 0.w.0.0.0.0.w : @ ",
"q w 0.w.w.i./ _ T T ^ ] ) / i.{ L ....W ` (.`.}.[.&XaX*X*XhX&XhX*XaX*X&X&X X X[.`.(.] E X.H Q P / ) / P ] ] 3 , V.OXd.C.0.e 2 * ",
"1 w.vXOXf.f.{ ) :.l ,.( 3.4.{ / J g.[ ` (.tX XaXhXkXzXkXkXkXkXkXkXkXkXkXxXhXaXhXrXrXW.) ' =.} { _ / l l ( 3.] p.$X$XOXZXC.e 0 3 ",
"0.V.aXm._ ,.9 1 g t.t.1 q ,.{ ) ` } P ) rXhXzXcXcXcXVXcXcXVXcXcXCXCXcXcXcXcXcXhXzXhXtX4.` { ,.j 1 g t.t.g 1 l <.4.p.j.V.s.0.3 6 ",
"w i.c.2.g u.t.1 1 Z.k < g u.r.:.5.) 3.-.n.F.(.{.{.eX X&X&XaXaXaXaXaXrXrX|.|.{.{.(.F.m.5.6.r t.t.1 9 l.r.< 1 u.t.:.m.p.d.s.0.> - "
};
