/* XPM */
static char *_b89c006276e42cdf302271400db4240Xt4Sr8GAjnzuq0ZA[] = {
/* columns rows colors chars-per-pixel */
"65 64 198 2 ",
"   c #B3B370",
".  c #B3B271",
"X  c #B2B473",
"o  c #B2B675",
"O  c #B2B978",
"+  c #B3BA79",
"@  c #B3B975",
"#  c #B3B873",
"$  c #B3B772",
"%  c #B4B873",
"&  c #B5B974",
"*  c #B5BA75",
"=  c #B7BB77",
"-  c #B6BA76",
";  c #B0B570",
":  c #AFB46F",
">  c #B2B772",
",  c #B4B974",
"<  c #B2B671",
"1  c #B5B975",
"2  c #B1B671",
"3  c #ADB26D",
"4  c #B3B773",
"5  c #B5B472",
"6  c #B5B473",
"7  c #B3B474",
"8  c #B2B674",
"9  c #B1B776",
"0  c #B1B876",
"q  c #B1B773",
"w  c #B4B874",
"e  c #B0B46F",
"r  c #B7BC77",
"t  c #B6BB76",
"y  c #B1B570",
"u  c #B4B573",
"i  c #B2B573",
"p  c #B0B773",
"a  c #B0B672",
"s  c #AEB26E",
"d  c #B1B771",
"f  c #B5B471",
"g  c #B6B572",
"h  c #B5B572",
"j  c #B3B671",
"k  c #B0B670",
"l  c #AEB56F",
"z  c #B0B470",
"x  c #AFB36F",
"c  c #AEB36E",
"v  c #AFB56F",
"b  c #B5B470",
"n  c #B5B671",
"m  c #B2B66F",
"M  c #AFB46D",
"N  c #ACB36C",
"B  c #ACB26C",
"V  c #B1B571",
"C  c #ADB26E",
"Z  c #ADB16D",
"A  c #B4B46F",
"S  c #B7B671",
"D  c #B6B770",
"F  c #B2B66E",
"G  c #AEB36B",
"H  c #ABB169",
"J  c #ABB06A",
"K  c #ABB06B",
"L  c #ABB06C",
"P  c #ACB16C",
"I  c #ACB16D",
"U  c #AFB36E",
"Y  c #AAAF6B",
"T  c #B7B770",
"R  c #B3B66C",
"E  c #ADB368",
"W  c #A9B066",
"Q  c #A9AE68",
"!  c #AAAE6A",
"~  c #ABAF6B",
"^  c #ADB16C",
"/  c #ACB06C",
"(  c #A9AE6A",
")  c #A9AD69",
"_  c #B4B46E",
"`  c #B7B86F",
"'  c #ACB266",
"]  c #A8AF64",
"[  c #A8AD66",
"{  c #A8AC68",
"}  c #A9AD6A",
"|  c #ABAF6C",
" . c #AAAE6B",
".. c #B3B56F",
"X. c #B6B872",
"o. c #B6B871",
"O. c #B2B56D",
"+. c #ABB067",
"@. c #A8AD64",
"#. c #A8AC67",
"$. c #AAAD6A",
"%. c #A8AB68",
"&. c #A7AB68",
"*. c #A8AD69",
"=. c #A9AC69",
"-. c #A7AB67",
";. c #A6AA66",
":. c #AAAD69",
">. c #B4B973",
",. c #B0B56F",
"<. c #AAAF6A",
"1. c #A7AA67",
"2. c #A8AC69",
"3. c #A5A965",
"4. c #A4A965",
"5. c #A6A966",
"6. c #AEB26D",
"7. c #B6BA75",
"8. c #B7BB76",
"9. c #A5A966",
"0. c #A5AA66",
"q. c #A6AA67",
"w. c #ABAE6B",
"e. c #A8AA67",
"r. c #A9AC68",
"t. c #ADB06C",
"y. c #AFB26E",
"u. c #B1B470",
"i. c #B2B672",
"p. c #AEB16D",
"a. c #AAAC69",
"s. c #ABAE6A",
"d. c #ACAF6B",
"f. c #B2B571",
"g. c #B3B672",
"h. c #B0B36F",
"j. c #B1B672",
"k. c #B1B46F",
"l. c #B4B773",
"z. c #ACAF6C",
"x. c #B5B874",
"c. c #B4B772",
"v. c #ABB16C",
"b. c #ADB06D",
"n. c #AFB470",
"m. c #B2B570",
"M. c #A9AB68",
"N. c #B0B36E",
"B. c #AFB26D",
"V. c #A8AB67",
"C. c #B8BD78",
"Z. c #B5B873",
"A. c #B6B974",
"S. c #B6B975",
"D. c #A7AA66",
"F. c #ABAD6A",
"G. c #A7A966",
"H. c #A6A965",
"J. c #A4A964",
"K. c #A5A865",
"L. c #AFB16D",
"P. c #A5A864",
"I. c #ADAF6C",
"U. c #AEB16E",
"Y. c #AEB36F",
"T. c #AEB46F",
"R. c #B7BA75",
"E. c #B8BB76",
"W. c #B7BA76",
"Q. c #B9BC77",
"!. c #B8BB77",
"~. c #AAB16C",
"^. c #AAB06B",
"/. c #ACB26D",
"(. c #AFB570",
"). c #B2B872",
"_. c #A8AF6A",
"`. c #AAB16B",
"'. c #ADB46F",
"]. c #B0B872",
"[. c #B2B974",
"{. c #A7AE6A",
"}. c #A9B16B",
"|. c #ACB46E",
" X c #B2B973",
".X c #A7AE69",
"XX c #A7AF6A",
"oX c #A9B06B",
"OX c #AFB771",
"+X c #B1B873",
"@X c #A6AD69",
"#X c #ABB36D",
"$X c #B0B671",
"%X c #A6AD68",
"&X c #A6AE69",
"*X c #AEB670",
"=X c #B0B771",
"-X c white",
/* pixels */
"  . X o O + @ # # $ $ % & * = - # ; : ; > & * , # > < < > # * - 1 # > 2 2 2 : 3 : > , & * & # > 2 2 2 2 > # , , # > 2 2 2 > # 4 # ",
"5 6 7 8 9 0 q > # # # w , , * & > ; e < & r r t * , # > 2 y , t - * & % # > : 3 ; # * * & # > > > > > > > > > # # $ $ $ # , 1 1 1 ",
"5 5 u i p p a 2 < > > > 4 # % # 2 ; e 2 % * * & , # $ > 2 y # * 1 , % $ > 2 : s ; > & & # d 2 2 2 2 2 2 2 2 2 > > > $ $ # % w w w ",
"f g h j k l : : z ; ; 2 2 2 < < ; z e y > # $ > > > 2 2 2 y > w # # > 2 ; ; x c ; > w # d v : z ; ; ; ; ; ; z : ; 2 $ $ > > 2 > > ",
"b g n m M N B 3 3 s c c : : : : : : ; ; V 2 z : : ; ; ; y 2 2 > > 2 ; : : c c : ; > # > z C Z s c c c c c c 3 Z c 2 $ # > e c : : ",
"A S D F G H J K L L P P I 3 I 3 c : ; ; : c 3 I 3 c U : ; 2 V ; ; : c 3 3 I 3 : 2 > > ; s L Y L P P P P P P L Y I ; # # 2 s P P 3 ",
"A T T R E W Q ! ! ! Y Y ~ L Y L 3 : ; e c P Y Y ~ P 3 : ; 2 ; c c 3 ^ / L L 3 ; 2 > 2 : P ( ) Y Y Y Y Y Y Y ! ) L : $ # ; P ! Y K ",
"_ T ` R ' ] [ { { ) ) ! ! ! } Y 3 e y : 3 L } ) ! L 3 : ; 2 e 3 3 P / | Y  .I ; 2 < 2 c L { { ! ! ! ! ! ! ! ) { Y : 4 # e K ) ) ! ",
"..X.o.O.+.@.#.{ { ) ) } $.$.%.) P ; 2 : P ( %.&.) Y Z : 2 > > y s Y *.{ =.! Z 2 > > 2 c Y -.;.:.$.$.$.$.$.$.=.&.Y : $ > c ! -.%.) ",
"< >.% ,.<.-.{ ) ) ) ) ) ) ) ;.{ P y > e L { 1.1.2.Y Z e > # * & : ) 3.4.-.! c > # # 2 c ! ;.;.) ) ) ) ) ) ) =.{ ~ : > 2 3 ) 5.-.{ ",
"2 , # e ~ { 2.=.=.=.=.=.=.=.-.) Z 2 > ; P ) { { $.L 6.; > # * , : ! 1.;.2.~ c > # # 2 c ~ %.-.=.=.=.=.=.=.=.=.) L : > 2 s ! -.2.} ",
"> % # e / ! =.=.=.=.=.=.=.=.) ~ c 2 $ 2 c K  .Y L Z c y > # , % : L ) )  .I : > $ > 2 : P ! ) =.=.=.=.=.=.=.) ~ 3 ; $ < : L !  .~ ",
"$ # > ; 3 K ! } } } } } } ! K 3 e > # > ; c 3 I 3 x ; 2 > # % # ; 3 L L Z c 2 $ $ < ; : 3 Z L ! } } } } } } Y C ; > # > ; 3 P I 3 ",
"$ $ > y : 3 P P P P P P P I c ; 2 $ # # > 2 ; : ; y 2 > > $ # > 2 : c : ; 2 > # > y : : : ; : I P P P P P P 3 y > # # # < ; : : : ",
"$ > 2 y ; : ; y y y y y y y 2 > $ # % w , , $ > > > > $ $ $ > 2 2 2 2 > # # % , > ; : : y # # y y y y y y y 2 , , w % # $ > < 2 2 ",
"# > 2 y 2 2 # , , , , , , , , , % % % , 7.t & , , % # $ $ $ 2 2 > # , , * 1 & , > e c : > 1 t & , , , , , , & 7.7., % % % , % # # ",
"2 ; e y > # t t 7.* * * t t t * % > < > # # # > > < > > $ % # > > > # # # # $ 2 ; : : ; 4 * t * , , , , * t 8.t * # < 2 < > > 2 2 ",
"P P 3 ; # 7.t * # 2 2 $ & t r t $ : 3 Z 3 c : c 3 3 c ; # 7.t 1 > ; c c : ; U 3 3 c z 2 # w % 2 ; : : ; $ 7.r * > ; 3 I 3 c c 3 3 ",
"L L I : # * , > ; c c : > , t t > c P L P 3 c s P P Z : $ * * 4 ; 3 L L / 3 I P Z c : 2 $ # $ ; x 3 3 : > * t , > : P L / 3 s P P ",
"| | P : > % 2 : Z L | P c ; , & 2 3 L Y L P 3 I L Y / c 2 , # e Z  .=.2.)  .Y | / 3 U ; < $ > : 3 P L 3 ; # & # ; 3 L Y | P I L L ",
" . .L c 2 # : /  .) =.! L s $ # : P  .! Y Y L L Y ! ~ 3 ; 4 y 3 Y { ;.9.1.{ )  .| P s : y < y 3 / Y  .P : < 4 2 : P  .$.! ~ L Y Y ",
"$.$.Y 3 ; > 3 Y ) -.-.{ ! P 2 > c K ) { ) ! Y  .} ) ! L : 2 : / ( -.3.4.0.-.{ ! Y L 3 c e y : L  .) ) Y 3 e 2 ; c K } { ) ! Y !  .",
"=.) ! I e 2 3 Y ) -.-.{ ! P ; 2 C <.{ &.{ ) ! $.2.%.) ~ c ; : P ! %.5.3.;.-.2.} ! Y P s x ; c  .=.%.%.) L c : : 3 ! %.1.%.) ! $.! ",
"{ { } / : ; s L ! { { ) Y I ; ; I ( -.q.-.{ ) =.&.1.{ ! 3 : : 3 K ) 1.;.&.) ) ) $.Y L 3 c : 3 } -.;.;.{  .3 c c P ) 1.;.1.{ ) ) } ",
"{ 2.! P : 2 c I K ! ! ~ P 3 : : P } &.1.-.&.%.%.-.%.=.w.3 e z x P ! { %.=.! } { ) ! L 3 U ; s ( 2.&.{ ) ~ 3 c c P ( -.;.1.{ ) { { ",
") ~ 3 : 2 > : c c c c c c : : : 3 /  .} =.{ -.e.r.! t.y.u.i.< z p.w.a.a.$.w.$.{ ) Y Z : 2 # 2 I P P 3 c : ; ; ; c L } { ) !  .%.%.",
"L Z x ; 2 > ; ; ; ; ; ; ; ; ; ; : c I |  .! $.s.d.t.y.u.f.g.$ < h.t.s.$.w.t./ ~ L 3 U ; > # 2 c c : ; 2 2 > > > ; Z | ! Y L / Y Y ",
": e ; 2 2 < < > > > > > > > $ 4 j.; x 3 P L p.U h.k.u.f.f.j l.l.f.y./ z.t.y.x : : ; 2 2 < > < ; ; 2 > $ # w , , > : 3 P P 3 U c c ",
"> > < < 2 2 > # # # # # # # , , # > ; : c 3 z j g.g.j j j f.l.x.g.h.p.t.p.h.V > > > > < < 2 2 2 2 > $ % , & * * , 2 c 6.6.: ; < < ",
"> > < < 2 2 > > > > > > > # , , # > ; x 3 3 z g.g.g.g.j j f.l.x.f.y.^ t.p.y.y > > > 2 2 2 2 y ; 2 < > # % , * 7., 2 c 3 c : ; > > ",
": ; ; 2 2 2 y ; ; ; ; ; ; 2 > # > ; : 3 P / 6.h.h.k.u.f.f.j c.g.h.t.w.w.z.t.6.c x : : ; y y ; x : ; ; 2 > > # w > : 3 v.P C c x : ",
"/ 3 : ; < > : c c c c c c c ; ; : c 3 K ! ( $.w.d.b.y.u.f.g.g.u.p.s.=.=.a.w.! } ! | 3 c ; 2 n.I I 3 c c : ; y > ; 3 K  .Y L P Y Y ",
"} | 3 : ; V 3 P P L / / P P U : 6.P K ! ) =.%.%.a.w.p.h.m.g.u.y.z.a.e.e.M.a.{ ;.-.) L 3 : ; : K Y L L P 3 c : ; c L ! 2.) Y Y 2.2.",
") ! Y L P I Z P Y ( } Y L 3 y ; c K ! $.! ! ) a.$.z.t.p.N.k.y.t.z.w.$.a.=.r.%.1.%.) Y / 6.x c L Y ! $. ./ s : x I  .=.{ ) ! Y / P ",
") ( Y L P 3 Z L ! 2.{ } Y I ; ; 3  .=.2.) ! :.a.$.w.z.t.p.B.t.z.w.! $.a.M.M.%.{ ) ! Y P 3 c 3 | ! =.{ ) ~ 3 c 3 L } %.-.%.)  .L L ",
"2. .P c ,.; 3 Y ) &.-.2. ./ : : / } &.-.{ =.r.M.=.$.w.z.t.t.z.w.$.a.=.M.e.e.%.) ! Y L 3 c : C  .) %.-.{ ! P 3 I Y { ;.9.;.{ ) { 2.",
"=.~ c 2 # # C Y ) -.-.{ ! L x c L =.q.q.-.{ V.%.M.a.$.w.z.t.d.w.$.a.M.M.e.e.%.! Y L Z c : 2 : ! { -.-.%.! P 3 P Y { 5.3.;.{ { 0.5.",
"! I ; # t 7.: L ! ) 2.} ~ 3 ; : P ! { &.{ ) =.r.a.$.w.z.t.p.t.z.z.w.$.a.a.M.$.Y L P c : 2 > ; L $.=.{ ) K 3 : c / ! %.1.%.} } q.q.",
"P : 2 , t t < c I K K P c ; > > : P  .( Y L ~ w.d.t.p.y.h.e h.y.y.p.t.z.d.~ ~ / I 3 : 2 > # < c I ~ Y / c ; < y c P Y ( ~ / P ! ! ",
": 2 > w * 7., > ; c c : > % 7.* > : 3 I 3 c s p.y.h.u.f.g.l.g.j f.f.u.h.U y.6.3 3 : ; > # , # 2 ; c c : 2 % * , > e s 3 s : ; : ; ",
"2 > > # % , t * # 2 2 > , t C.r & 2 : : ; 2 V u.m.j c.Z.A.S.A.x.x.l.c.g.j f.e 3 c : 2 # , & * , > < 2 > , r C.r * > ; : y > % w , ",
"; ; ; 2 < > , , % # # , * t t * > ; : ; # 7.& l.l.l.c.c.c.g.g.g.c.c.$ l.l.% y 3 U 2 # w % # # , # # # , * t 8.& % $ < < $ % & & & ",
"e : : e ; 2 2 2 > > # # # # % > ; c c 2 , = 7.x.l.c.g.f.m.y u.u.m.f.g.c.l.x.y 3 : > , , $ 2 ; 2 > > $ # # # # g.< j j g.$ l.Z.l.l.",
"e e e e : : c c c : : ; ; ; 2 2 : c c 2 # 7.% $ g.j f.m.m.m.u.u.u.m.f.< < j e 3 : 2 # # 2 : c c c c : : ; ; ; y y f.j j g.g.g.< < ",
": ; ; : c Z ~ Y Y K L P P P c : c c : ; > # < u.u.u.u.y m.m.u.k.u.k.e h.h.h.s 3 : 2 > 2 : 3 L Y Y Y L L P P ^ 6.N.u.j j f.u.k.h.h.",
": ; ; : Z ~ ) 2.2.=.) } ! ! / 3 3 c : ; ; ; U p.p.y.h.u.y f.u.k.h.y.B.p.t./ / 3 : ; V : Z Y ) 2.2.2.) } $.!  .d.p.h.j < u.y.p.t.t.",
"x V V U L ) &.-.&.%.{ 2.=.) ! Y P c : : U s / w.d.t.p.h.u.f.u.h.y.p.t.w.$.a.~ 6.: ; : C Y { q.-.-.%.%.{ =.=.=.:.z.h.j j k.b.w.$.s.",
"c 2 2 c Y { -.-.%.{ { ) ) ) ) ! L c : : 3 / $.M.$.~ t.N.u.f.u.h.y.t.w.a.M.D.:.c : : c P ) 5.3.-.-.{ { 2.) ) =.%.w.y.j j N.d.M.e.M.",
"c 2 2 c ! -.%.{ { ) ) $.! $.{ 2.~ c : c P ~ %.e.M.$.t.y.u.f.u.h.B.t.F.M.G.H.=.c : : c L { J.4.%.{ 2.) ) $.! =.1.$.y.< j y.w.e.5.G.",
"3 : z I ) -.) ! !  .Y Y Y  .{ { ~ c : 3 L ! ;.K.1.a.z.y.y g.f.h.L.t.F.M.G.P.=.c ; ; : I 2.4.4.%.{ { 2.2.=.) r.%.$.p.e h.p.s.%.H.D.",
"3 c c / } &.) ! ! ! ! ! ! ! ) ( P c : c P  .1.5.e.$.t.h.g.l.g.u.y.b.w.a.e.G.:.: 2 < V s ! ;.0.%.{ { { { { { =.$.d.p.y.y.t.w.a.V.M.",
": ; : c / ! ) =.=.=.=.=.=.) Y P c ; 2 ; : 3 ~ d.I.p.U u.f.$ c.$ f.h.U.z.w.$./ ; 2 2 ; C Y { &.} $.$.$.$.$.$. ./ y.u.f.f.h.p./ d.z.",
"2 > 2 ; : 3 K <.<.<.<.<.<.Y s ; 2 # % # > < f.f.f.f.< f.f.f.l.x.l.g.f.h.y.s U ; y ; z c / ! ! L L L L L L L I h.f.l.A.A.l.f.h.h.k.",
"> > < 2 2 y : Y.T.T.T.T.T.: < # % % , 1 * * 7.R.S.x.l.g.f.y l.S.x.% l.$ < f.f.2 ; ; : c 3 3 3 c c c c c c c x < l.R.E.E.S.l.j c.c.",
"> 2 ; y < > % , , , , , , , & & % # # , t = = W.S.A.l.g.f.u.j Z.Z.Z.Z.Z.% l.$ 2 ; : c U : ; ; V V V V V V V V g.x.W.Q.!.R.l.g.x.x.",
"; c c : 2 $ * t t t t t t t 7., > 2 2 > * r 7.% % c.j f.u.k.m.j j g.l.l.% Z.# 2 ; c 3 c 2 # # $ $ $ $ $ $ $ i.f.l.S.E.E.S.l.g.Z.x.",
"c P L 3 : < , & & & & & & & * % 2 : : ; , t l.y y u.u.u.u.k.h.h.u.y f.g.l.l.l.> ; c 3 c 2 * t , , , , , , , $ y j x.S.S.Z.f.u.$ l.",
"~.Y ^./.(.).# $ > 2 2 2 > # , # ; 3 P 3 : 2 : 6.Z Z 6.U e V z s s Z b.Z s x x s 3 P I c ; # , > > 2 2 > # , % y u.y u.e h.U s U e ",
"_._.`.'.].[.> ; c Z P c : 2 , # e / ! $.! Y L L  .! Y Z e > 2 s L ) -.-.) ! } { ) ! L 3 : ; ; : 3 P P c ; # w 2 : P ! ) ! ~ L Y | ",
"{._.}.|.]. Xk c P Y  .L 3 : # # : / ! } ! Y L Y ! $. .I e > 2 3 ~ 2.-.-.{ ! ) &.{ ! L 3 U ; : I L  .Y L c 2 > 2 U L } ) ) Y | Y Y ",
".XXXoX|.OX+Xc | ( { %.) ~ Z > > U L ! ) ) ! Y Y ! } ! / : > ; 3 ~ { -.-.{ ! =.-.{ ) Y P c : c Y ) { { ( / c ; ; c L ) 2.) Y Y  . .",
"@X.XoX#XOX].I } %.;.5.-.) ~ $X> c ~ ) 2.) ! Y Y ! ) ! L U 2 ; P Y { ;.;.-.) =.-.{ ) Y P s : 3 ) { ;.;.{ Y Z : ; c K ) { ) ! Y ! ! ",
"%X&X_.#X*X=XP ) -.5.3.1.=.~ ; 2 6.~ ) { { ) ! ! ) =.} L c 2 : P ! -.;.;.-.) %.;.-.=.! L 3 U Z ) { -.;.{  .Z : : 3 Y ) { 2.! ! $.$.",
"%X%X_.#X*X=X/.! { 1.;.%.} L ; 2 6. .{ %.{ ) ! ! ) { ) ~ s ; : L ( -.9.3.q.{ %.;.-.{ ! L 3 c 3  .) { { ) L c e : 3 Y { %.{ ) ! ) ) "
};
