/* XPM */
static char *ff2505b3468c454d98b9dde5aa634f65oigmX6UBEV4ZVi6O[] = {
/* columns rows colors chars-per-pixel */
"128 126 50 1 ",
"  c #A3A763",
". c #A6AA66",
"X c #A8AB67",
"o c #A7AC68",
"O c #A9AD6A",
"+ c #ABB166",
"@ c #ADB26D",
"# c #B2B16E",
"$ c #B1B26E",
"% c #B3B36E",
"& c #B3B36F",
"* c #B0B46C",
"= c #B1B56C",
"- c #B2B66F",
"; c #B4B66C",
": c #B5B76F",
"> c #B7B86E",
", c #AFB570",
"< c #AEB670",
"1 c #AFB670",
"2 c #AFB672",
"3 c #B1B170",
"4 c #B1B271",
"5 c #B4B371",
"6 c #B1B473",
"7 c #B3B473",
"8 c #B6B472",
"9 c #B3B574",
"0 c #B4B474",
"q c #B8B770",
"w c #B3B872",
"e c #B5B871",
"r c #B7B872",
"t c #B0B874",
"y c #B1B874",
"u c #B0B877",
"i c #B0B977",
"p c #B4B974",
"a c #B5BA75",
"s c #B6BA75",
"d c #B5BA77",
"f c #B6BB76",
"g c #B7BB76",
"h c #B7BC77",
"j c #B8B870",
"k c #B8B871",
"l c #B8BB77",
"z c #B1B978",
"x c #B4BB7B",
"c c #B9BD78",
/* pixels */
"$$737,79zxxxxfeeye7y9yetefxlllfft8;<@@@@--ttye7-@78@y-ttttfsleftett;;@@@9@<<@@@8<7tteffffff7t;<<8@-@7@-teefefddy9-7@<@<;<79-3@y7",
"55557799yzzzyeyyetyeteftefy>flfet<<@@77yfffffffffeety-8;7tttfffffeetet8yyyt-@@@@;8teefexeyet>t7tyyy-ttjtyetydeeyy-tt>y7tetfeyftf",
"8877299,zzytyy7>fteyyeftff8xfffyt;<;7<tefflllffffftfyyt77@><ffflffxeexeeeyy7+@@@-tefffffeeeyt8-y->7yt-t8>yt;yeyetjtjyeyffefzfffe",
"8889099itzyt9yyy8eteeyeeyetfffee7<7@@-t>fflfffffeftee-y@,7,>fffefefffeyyye>@<@@tyytffyfefeyy-yyyyyt->tt-tt8teyeytt8teyeetfeftfef",
"87780990tt-t<t<9yyy-yyyeyyye8ftt<<77@8ttefffxefefey>yyj7<;<yedddf8yfeyy-y-t@@@@@-yyefffety9<-<--;t--t@y>t;<tyy<7;ttj8tetdefeeff7",
">8880599t@<t9,9<7-79--y--y>yyeet;7<@;<;dttffftteyyet-yt@7<eydedetfeeyey7-y>t7@@@-7yedeyet-8<>yyy<-tt;77<7<7<>7y<t8te>tteyeyyteye",
"8788899-yt<<@,,<@y><7-yy7-yytt8-7<<<<<<-ejeete8-87tt-y-t<7;tyeedtet8yt;9@8t@@@@7yyeyeyey7t;@@9@@<8t@<-<<<7<9@<<<;7t-t>tt9y8yt-yy",
"7-e8882-@<<@<@,@@@@@@y@-@>-@87@:<@7;@7@7ttye-t-t;t<7<7-;-8@9yyeyetey:7@<7@@;@@@t9etedeyy@@@@@<@7@@@7@@7@<-@@@@<@@8-t8t7-7-<@;t7-",
"-5q58e:@,-*@+,@@@@@<@@,@<@@0@2-@-<@7<77<y@9,,,,,<@t;@7@<79tty7y<9y9,,<,<@@@@@@<<<ttye8<@@@@@@@@@@@@<@@<@@@@<@@@<@77yy>tt@<@<@7<7",
"%%qqe8*8@@+@@@O@@@@@@@@@<@@@@@,@@@@<7@<;79@3,,O,@7<@8<y>@<<;<7><-t@9@,@@@@@@@<@>;tt>-y7@@@@@@@@@@@@@@@@@@@@@@@@@t-yeet8<;@@@@@@@",
"788qee>;<@++O@@+OO@O@@@@@@@@@@@@,7<<@7@d@@,@O,@@@@@@@@@9<;8<7<e<-@,@@@@@@@@@@@<7-t-t7y-@@@@oo@@@@@@@<@O@@@O@@OO@@tyeyet-<@@@@@@@",
"-8k8>-;*++@+OOO@OOOO@oO@@@+<@O@@@@<>-<<@@@@0OO@@@@@@<-,<<t<7@:@<<@,@@@@<@@@@@7<<8-tt-@@@@oo@o@@OOO@@O@O@OO@oOOO@@;yyey7y@@@X+@@@",
"$:qqq5;*@+++++@o@OOO@o@O@O@@o@O@@9@<,-@,@@@@OO@O@@@@@@-<<8t7@@@<@@@@,@OO@O.@@-;<<yy8,7@@OOoO@OO@OOO@O+@OOOoOoOO@@<ttyey@@@OOOO@+",
"%%qqjj;*+++.+.oooOO@OOo@O@oo@oo@@@-<7t,@@@@@OOOO.@O@@@@y@7<-<@@@@@@@O@@OO@+@@t<t8;y-7,+@@oooOO@OO@OOOOO@OO<Oooo@@8>tey9@@@OOOOOO",
"%%qqjj;*+++..+oooOooOOo@o@O@OO@O@@@7@7@@@@o+OoOO+O@@@@,@->@7@@@@@+@@@O,OOOO@@78@<t-,@@@OOOooOOOOOOOOOOOOOOOOo+oO@7-eye,,OOOoOOO@",
"*:qqjj;*++++..oooooOOOoOOoOOOoo@@@<@><@@@O,OOXOXO@@O@@@y<y7<;@@@@@@@@OOOOOO@@<-y7-t77,@@OO..OOOOOO@O@OOO@OOOooo@@-yyyy<@@@OooOOO",
":>eef>-@+X+X.oOoOoOOOOOOOOOOXOOO@@<;<7@@@@Oo.oXXo@o@@@@--tyy>y<@@OOOOOOOOOO@,,-7tt-y:@@@O....OOOOXOOOOOOOOOoooOO@@yytt;@@X..XOOO",
"@eefe>-@++ XoOOOOOoOXOOOOOOX..XO@;<7t<@@@Ooo..ooooO@@@<yt9edfey@@Oo.. ..OOO@,9yyjtyy7@@.o. .XOOOOOOOOOOOOOOOoo.O@@yet<-@+.. o.OX",
"777eey;@+OX.oOOoOoOOOOOOOOXO..OO@@7-tt;@+OoX..oooO+@@@@yttyeffe8@oo.   ooOo@97yytet8@@@.o. .OOOOOOOOOOOXOOOo.+O@@;;t<7@@Ooo..ooX",
"@yfyfet@@OXooOOOoOoOOXOXOOOX..OO@@@y8-@@@Ooo..ooOO@@@7@7tje<fdtt@@o.o. .OOO@@y-et>et@@@@o...XOOoOOXOOOOOOOoOooOO@@8t7;@@OOo.oXXO",
"@-effy:@OOO.OOoOOoOOXOOOOOOo..OO@@8yt7y,OOOoooOOOO@@<@y>;jteffy7@@O.....OO@@-7yyyey<y@@+OooooXOOXXOOOXOXoXOXOOO@@@;7t87@OOoooXOO",
"yyyee-7@@OOooOoooOXOXOOXXOXo..OO@@,y-t-@@@OOOOOOO@@@@@-yttyfedy-@OOo..ooOO@@@:yee-y9@>@,OOooOOXOXOXOOOOOOOOOOOO@@ft8d@@@,OXOXOOO",
"-tfeey7@@OOOoOOoOoOOOOXOOOOOOOO3@:;ttt@@@+OOOOOOO@O@@7:-7eeefdy8@@OOOoOO+@@@8<y-yy7@<,@@OOOOXOOoOOOOOXXOXOOOO@@@@t-:---@OOOOOOO,",
"7fteyy,@@@OOOOOoOOXOOXOXXOOOOOO,@8tqt;8;@@,@O@@O@@@@@@7yyyfyeey@@@@OOOo@@@@<-y7e>y209@@@@OOOOXOoXOXOOXOXOXOOOO@<t-tt<d<@O,OOO,OO",
"tteyey-@@@@O@.OooOOoooooOOOOOO,@@<yye87t<@@@@@@@@@@y-@tt-eyefet;@@@@O@@@@@@7ye7e7t7;<@@@@@@@O.+oOOOOOOOOOOOO@@<<y7ye7y<@,@@@@@@@",
":ty>7y7-@@@OO+OO@o@o@@O@OOOO,,@,--yyeyt-9>y@@@@@,,@9<7>tyyeyeyt-@@@@@@@@@,7<yeyyt-<<8<;<@@@@O@@O3OOOOOOOOOO@@<--yyeyyy8;,,@@@@@@",
"tt>ttt7@>@@@@@@@@@@@@@@@OO3O@<,77yeeyyeyy-7@@<@;9-@<>tt-7-8yy9y7,,@@@<@-,><yye>t-t<@-@<@;@<@@@@@O3O3OO,O@@+@,7y--tyeey-77@@-@@@@",
"j7y-:-t,@y@@@,@@@@@@@@@@7,,,-@7,9etteefyttey<77:9@8y7-tty>yeyey-7,-y@:7;7<>yfeyy-7@7@<@7<d<7@@@@333O,,,2@,,@77yyy>eeyeyy,77@y7<@",
"y>tt7;@<;@@@@--7<;<77-<8@->y79yy99tettxyfetfttte-y7yyy:t-yeyy9@;7@87,tttttyeeyy9t@8@-@7@7<eyy>-78;;-,9@y-7@ytteff>yefye7>yy9y>@9",
"et-7-t>9t@8<tyy>7t7tyete7t7e<yyeet>yef>eeffeeteteyeyy>t87yy-><8tyyetettftffe8fey-;@t@<<<yfdft7ye7ttt998yyet>fff8exfeetyeyyyey-yy",
"yey->y@99t-y>fftefetyefetfyeedeeeffef8efeffzf9teefyet>tjy>y-@97tyyetetfeff8fyeyyt7@@@>@-ydfffefttff7yfyffy8feffff9tt7eteefteyeye",
"eyy@7@7<y@7yeffffffffffffffddeyfye7eyfffffffeffft9feett87y>yy@;t>yeffeffefftedey<@@@@y7yeefffffffefffffffffffffftfeffeexetefeyey",
"y7-<,,029tedfffffffxefeffflffffyeey9,,tyydtzyyey,tyyy>y>ytet-7tt7tyyyy9yeyeyy7,9-@@@@<:edfffxefefytfeeffffflfffff9y>,99tyyftttjt",
"@@@@,,@07tefffffey2eeyfefflfccfeyy@-,@@@>@<<>@<-@@@@7@yeeedfxfee-t>@:77<yy77:@@,@@7<9@7yeefeeyty--:ytty8fflfffey9@@@,,@@@-@7@@@@",
"O@@@+,,,<effffdey>77y3yyeeffdcfet-@@@@@O@@@@@-@@@@@@@,-yedlffffet;@@@@@@@><@@@@@@@@,7<yeyefyt;7@@@@@@;-tyffdfeee<,@@,OO@@@@@@@+@",
"@O@+@o,,>ydddddeyt@,@:,yyxffdffft8<@O@@@@@@@@@@@@@O@@@@yedffffe-t@@@@@@@@@@@O@O,@@@>@yyeydey7@,,@@@,@@t7fffffyyy-@@@OO@@@@@@+@@@",
"O@@O@@,,yddeetty9@@@@@<<yeyefff78>@@@@O@@@@@@@<+@@oO@@7,ydfftttt@@@@@O@@@@@@,O@O@@@<@e9yyeey9@,-@@@@@<8yeffflett<@@@OOO,@@@@@@@O",
"@O@OO@,,-eydy>7-,,@@O,+@>y-yfffe<<@@+@@@OO@@@@@,@@@@@@@9defeet@@@@@OOOOO@oo@O,O,@@@77<@y8yeyy@@@@@O@@@@-yefe>t-t<@@@O@O@@@@@O@@@",
"OOO@@@,,7ydey@@@,O3OO,7@@@@7fffe9@@@,O@O@O@@@@@O@oO@@@@,9efxt8@@O@Xo.XoOo@@oOOOO@@@@><-y7>yy@,@@@@O@@@@7yytffy7@@@+OOOOOO@@@@OO@",
"OO@O@O@,>yt<>@@@OOOOOOOO@@@yefyy@@@@oOOOO@@O@@O@o@Oo@@@,-yye;@@@O+o.o..ooOoOOO,,@@@<@<@<-y7e@@@@@O@+@@@<8eteey7<@@,OO@O@O@@@O@OO",
"OOOOo@@@7tte@@+OOOXOoXOOOO@@ett7@33OOOOO@OO@OOO,OOOOO@@,;ttt@@@OOO... ..oXOOOO@O@@@@@@@yt8t8@@O@oo@oO@@,<7yyt;<;,OOOOOOOO@,OOOO,",
"@OO@O@@@<;tt@@-OOOXXoXOXO@@@tet<,,OOOOOXOOO@,OOOOOO@O@@@@-8>@@O@Oo.. . ..o.OOOOO@o@@@@@@:y;@@@@@O@oOo@@@@97-t7@@@@OOOOOOOOOOOOOO",
"OooOO@@@<7t;7+OOOX..oXXO@O@+tet;@OOOOOOOoOOO,OOOOOOOO@@@@8yy@@OoOoo.  . ....OOO+o@@@@@--t@y-@,ooOOoOO@O@@*-ty@@@@OOOoXXOOO@@OOOO",
"OOOOOo@@@7-tO@OOOoOXooXOOO@@8t<8,@OOO..OOOOOOOOOXOooOOO@@<<<@@@@oo. o. ...oOoOOO@oO@@<@<@@-,@+o@OoOoOOO@@@8@@@@@OOOXooXXoOOO@OOO",
"OOoOO@O@@<79,@OOOOX..ooo@O@@<yt<@@ooO.oOOOXOOOOOoXo+oOo@@><7@@@oOoXX o o.oo.OOOoOO@@@@@<@7@@OOOOo...OOO@@@,,@<@@@Ooo...oooOOOOOO",
"ooooOO@@<@-<@O,OOOO.oo@.O@@@@7;@@OOOoo...XOOOOOOX..ooo@@@y<<<@@@OoXXo  .oOOOOoO@OOOO@@@@@77@@OOoo....oOO@@@,9@@@OOoo....ooOOOOOO",
"OXooOO@@@79,@@OOOOooooO@OO@@7<<<@@Oo.....OoOOoOo.X.oooo@@<7@@@@@OOoXo oooOOOOOOO@OO@@@@@,,<@OOo.X....OOO@@@@@@@@OOo....ooooOOoOO",
"OX.oOO+@@@,,,@@@O+oooOOOO@@@@7<;@OOo......oooOoo.XXooO@@@@@77@@@+OOoooooOOOOOoOo+.O@@@@@-@<@Oooo.....oOO+@@@@@@@OX......oOOOoOOO",
"XoOOOOO,@-t8@@@@+<@oOO@@@@@@7;@@OOooooo..ooXXXXX.XOOOOOO@;<@<7@@@OOOXXXOOOOOOXXOOO@@@@@<@-;@O.oo..oo.OO@@@@@<@@@OOOo....OoOOoO.O",
"oOOO@@@,@tt;@@@@@@@@+@@@@@@@@<<@@@O@OOOoXoXoooXXOOOOO3O7@877t@@@O@OOOOOXOOOOOXXXOOO@@@@@tttt@@@@o@@@@@+@@<<9y@@@@OOooo.oOOOOo..o",
"OO+O@-,,8tt-y>@<@@@,9@@,<<@y<@<@@@@o@OOOOOOo.XXOOOOO+@77*tt7-8@@$OOOOOOOOO3OOXOOOO@@@@<7yeet@@@@@@@@@<@t<7>@-@@@,OOOoOooOO@OO..O",
"OO@@@-@9;-t7,@<@@03@@,<@@<>@7@7@@@@@OOOOoOOOXXOOOO3O9@;77-8jt;7;33OOOOOOOO3OOOOOO@+@<<778yjt@@@@@@7@@77<<>--yy7@@,OOOoO@@O@OOXOO",
"@@@@@,7,<yyt-@7@<<7@9-@<@<9@@7-;@@,O,OOOOOOOOO@OX@@@37777t;te-7;$OOOOOO3O+@+3O@@@@@@;@-tyet-@@@>@<<<-7y>7yyeey7@@O@OOO@o@@@@OO@O",
"@@@@@,@7<7y>y<7>8;t-@t79>9<7yt7t77,,,@O,OO@OO@@@8@$-:@7@8;7tett70$$O,OOO3@@@O9@@@<@t@t-7>y8t,-@@y-78yy-y<yeyfty-,,@@@@o@@@@@@@@@",
"@t<7y<7yt;t7y-8yttyyyyyyyeeyyeety>@,9@,@@@O@8*@;$7-<t@;<7t-7f8t7-8@+OO$@@9@7-@,7>@7@tyy-7t7t7@-y8;-t8yeteded8eet7@@@@@o@@@@@t@,7",
"-y><78@-7<;>yyteeteyee-yyeyyeetfy<-7,,@@@@@@,8t-7-y8;777;t77ffe83@@@9OO$$@@-y7y7y-yt8:-8<>y--yy-tt-tyededtedffet7,7@@@@@@@7@-@7,",
"t>t7t;8@7<7<tettteteetetfeteyef8ey9t;<<<@@@@77t8t>e7t8--t777fefx@:$O$333@$@:7eteyeyyy-ty8<<7-y-tt->tefefffeeffeftt,@@@@@@y<7ttt-",
"8t-tt7y>y-7t;tefetjtttteetetfeexdy-t@t@@@@@@:y>t8te77-e7>;;tefe879$$OOO3$@7@ttt7>t7-y-@><;t7<9@9;tttteeyeffxffftt9@,@@@@@@;t7-te",
"yyt-t;;t7<<ttt7tyy8yy-77:y8yeffeett;<@@@@@@@3977t7y:-y;t;t77ef877@@@@O3O@$@9tttjyy7y:t;yt;<<<7,<<yyteeyefeeeffet-@@@@@@,y><7>yt;",
"-@8;<8<<t8<;<--7-9@>y<-,7y7etetett7-@@@@@@@@@--7;7;78@7-77;tet77-@$O$OO3O$@$@@8@@<@97@7@7<;7<@,,8@-77yyytettfef9@>@@@@O@@@<@@y@8",
"@<@@7,7-;<><7@<<<<,9,,,9@@<ttt-t;89@@@@@+@@O@@7@@@7@$777<77-et-<@@OOOOOOO3@@+@@@@@@@@8<;@;<<@@@@@-<@@@t8y-ytet99<@@+@@O@@@@@@@@@",
"@@@@-@@78ty<<@@@;@@@@@,+>@@@7;tt@@@@@@@OOOOO@O3O@@@$@;@7;t7>8*7@@OOOXOOOOOOO@OO@O@@@@<@t7t<8@@@@@@@@@-@@y--7yt9,<@@,o@O@O@@@@@@@",
"+@@@@<<<-y-7-@@@@@@@@@@@@@@@@<7@@@@@@OOoOOoOXOOOOO@@@-778-7t77@@OOOOXXXOOOOOXOOO@O+@@@7@<-7@@O+@@@@@@@@<y@@88y,,@@oOOOOO@O@OOO.+",
"OOO@@@t7<yy>@@@@@@+@@@@@@@@@@<@@@@@@@@O@OOoOXXXXOOO$O8@-7yt8>@@@OOO.XXXXOOO+....ooO@@@@@<y-y@,Oo@@@@@@@@@@@@@-,@@@@OOoOOo@@OOooo",
"oOO@@@@@<@<,@@@@@OO@@@@@@@@@@@<@3OO3OOOOOOOX..XXOOO$@$@7;t77$$$OOOXXXXXXXXXXX XXooO@O@@,,<<,@o@o@o@O@@@@@@@@t;@@@@ooooXOOO@ooooo",
"OOOOo@@@@@@@@@OOO@OOoOoO+@@@y<7@3O3OOOOOOOOOXX$OOOOO@@@$@@-7@@@73OOOX3XXXXX3XX.XoOOOO@@@@<@@@@o@@oOOOO@O@@@<<@@@@oO+OOOOOOo@@O@@",
"oOOOO@@o@OOO@@@OOOOooOO@@@@@yey>O,OOOOOOOOXOOOOO3OO@O$@$@-$@@OOOO$OOOOOX3XXX..X.OOOOOO@@@,@<@oOOoOoOOOo@@@@@@@@@OOOo.OoOOO@@@@@@",
"OOOOOOo@O@@@@O@OOOoOooOO@o@@-y@<,OOOOOOOOO3OOOOOOO@O$O$O7@$@$OO7OOOOOOOXXXXX3...OOO@@@@@@@@@@O@@OOoOoOOO@@@7@@@@OOOo..ooOOOOO@@@",
"ooO@+@@@@@@@@O@@@Ooo.oOOoO@@<7@@OOOOO.OOOOOOOOOXOO3O7O3$@@@37OOOOOOOO$XX3.O...3..+OO@@@@@9@@@@OOOOXXoOO@O@@@@@@@OO.....ooOOOO@O@",
"ooOO@@@@@<<<@@O.oooooooOO@@@@>7@,OOOO...XOOOXXXOOOOOOOO@O@$OOOOOOOOOXXXX.......3O@,O@@@@@@-@O@OOoXo.oOOo@O@@@@ooOO......ooOOoooo",
"oOO@+@@@7-y>@@@OOX.o.ooOOOO@@y@@OOOo...X.O.OXOXXXOOOO3OOO$O+O3$OOXOXX%XXXX...OOOOOOO@@@@7@t@@@oOXo...ooO@@@@@@o@Ooo.....oXOO..oo",
"oOOO@@y@7yft@@XOOXo.oooo@OO@<@7@OOOo..O...O.XXOXXXOOOOO$OO7OOOOOO$OXXXXXXX..OO.3OO@@@@@@@t-@OoooXoo..oOOOO@@@@@@Oo...  ..Ooo....",
"oOO@,@99ffet@@OOOXoo.oXOOO@@,,@@,OOoo ooo+OooXXOXXOOOOO3,O$OOOOOOOOOOOXXXX.OOO3.O@@@@@@7--@7@oOOOoooooOO@O@@@@@XOXo. .oooXOo. ..",
"OOO@,,yyffff@@@@OOOoOoOOO@@@9,@@OOOOooooo.OoXXOOOOOOO3OOO+O77OOOOOOOOOOX..OOOO.3@O@@@@-;@yy,@,OoXXXXo+O@@@@@@@@@OXXo...ooOOOo. .",
"OO@@3:yefflf@@@@OOOOOOOO+,@<,-@@2,OOOOooOOOOOOOOOOOOO$3O@-@@O@O@O$OOOOOOOOO.O33O@@@@t@7t8yt-@@+OOOOOoo@@@@,9@@@@OOOXoooOOOOOo.oo",
"@@,,@yyfflfet@@@@@OOOO@@@@@-9t7<,OOOOOOOOO@OOOOO$O$OO333@@8@$$$@333$OO@O3.3.OOO3@@@@<7@tey20@@@@@OOO@.@@,-@7tt@@@,OOO.OoO@@@OOOO",
"@@,@ytefffdx>yy@@@@@@@@@@8<yfeyy@@@OOOOO@O@@OO@OO@@@$$:-:@7-7@:@3$@$@@@@3OOO3OO3@<@<<-yyyyee:@@@@@@@@@@@,ytett-@,O@O+O@@@@@@OO@@",
"@@-7y7eeffffyy-7<@@@@@@,-yyefffey3,@O,O,@@@@$@@@7@;@55939877y@77%$:5-@@@3,2,O333@@8-7yeeefdty-@8,@@@,+-7yeefeey8,@,,@@@@@@3:@@,,",
":@y-yytfte8ffteyt;@>@@7yyfefffffey,@,O,,@>9<$@-7$7-7y899efete889y839:7@9,,3O@@O3@@<<7ttddeedy8t-,7@,,<7yefflfffyt:,O@<@@y:-y,997",
"7y-y8eyefefffffft<y@7-yyeffcccffxe0,,,,,@7<@;7@7@;y7eeeeeffffedeee9y399@9993@@@@@-<;-teeydedfety9,7@7,yexffllffet777@<-8@tyeyfey",
"<7y-7<yttteellfedyy9-ytffffccclfeyy-<-3;-7te87;78yyeyfefjffffy8fexe8y8ye87y-@@@@@7><tfteyefddefyyey7-yedfcckffffet;7@t;-tttxffef",
"@y@-7<><t8tttfefeyeyeetf8ffffffe8y7@t@@tftffetetet8ey8tte79877eet5>yee9eyee7@@@@@yyetefe>yeyefeeeyeytddeffcfff>tt8;t7;7ty>ef8yde",
"y@-@><@<;7@-eeteeeyffef>tfffeftty@@@@;-qefxl8ffee8e8>7t798:@@7<8;-yyy8feefet@@@@-yey7f9tyy-yyyeyyefefeffffexeyy>8;8y7t7qef8eetee",
"<8@<@@78<7tt8tttyyeeyyexffeyett8>@@@@@ttfflff0feeyet9-*8@@;7--7@87:38t89efe7@@@@@yefyeyey7@,9yy-7yyeyeyeyefey87ett7-:y8te8efe8x9",
">@<@7@@@@y<@@y-7<<yy779<9-<ttet;@<<@@7<t>flftey87tt77-@>y-;<777-t7;7ytt87yet@@@@@8tefftt7@t-y@7,y@7>7ttyy7tt777-;7t;7t;ty>8yet>7",
"7@;@<;t@@<@,@@@@@<@@@7,,7@><8tt@9@@@@@;texfffeey;7;7<777;77@;@-7;@77-7t-777>@@@@t;tttt8;7,@@@@@@@-<<@@;@-7@;@:@y@77;-8t777y78t:y",
"@y-7<@-;-@@@@@@@@@@@@@,3@@@@7t;7@@>@@<ytyffe@:7787;77;@77;87<*-@<87<78;;<77@@@,7;@t-yyy:@@@@+@@@@@@@@@@@@@@@7@$@t7ttey:7-y7$;77;",
"<@<<7<@<@@@@OOO@OOOO@@O3@@@@@<@<@@<<7@-7t9tt77@:<7<@7<-$@t;<7-@7@;-@@@@-@>@-@@@@t97t>@7@@@@@O@OOoO@+@@@@@@@@@$@9;@;87--7;:9,@-@@",
"@-@77@<@@@@oOOoOOOOOOOOOo@@@@@@@@@@@@-@7-777@@-@$:3$7@,77>7@@-@-@-7@$$$$$$@@@@@@<t-t9@@@@@@oOOOOoOOOOOOOO$OO3O@$@-8;t77@@7$@@@@$",
"@@<7>7<-@@@@OoOoOOOXOOOOOOoo@@@@@@t;-@t7@;<>@@,+O$@@@:7-@-77<-8@y@@$3$OOO@OO@@@77@<;9,@@@@OoXOOooOOOOOOOOOOOOO3O@@7t-7-9@@@@O$$O",
"@<<<<<@@@@OOoo.oO.XoOOoOoOO@@O@@@@@<@t@<<<7@9OOO$@$7@8-*t7@78@$77$$@$OOO3OO@@@@,@78@,,@@OOooXooXo.XooOOOOXOOOO33-7;7-t8$+3O-7OOO",
"@7;<77<@@@.oo.o..oOo.OoOOOoOOOOO@@@<@;@7@@@@O3OOO@OO@@@7<*-77-,$@@$OO$OOOOOOO@@,<<<;@@@OOO...o..ooXOXoOOOOXOOOOO@@7t8;9@9OOOXOOO",
"@<t-7,@@@OO.XX.XooXOoOXOoXOOOOO@+@@@@@@@@@3OOOOOOO37@@@787-7$@7$@@@OOOOOXXXX33,:<;@@@@@OO. ..oXXooXoXooOOXOXXOOO@$778y-@3OOOOOOO",
"@@;t>y@@OOX.X.o.oOXXXXOOOOOOXOOO@@@<<7t@@@O3OOOOO$OO@@;@@77-7,@@@@$OOOOXXXXXOO@@t@7@@@OOo. . oXo.OXoOOXOOOOOXOOO@$;t90;@OX$XXXXO",
"@>8y@y,@OO.ooXOXXXOXXOOOOOOOOoOOO@@<-@7@O@OOXX.OOOOO@O<7@7-78@@7@OOOOOOXXX X,@@@@<@@@@oO.  .ooooO.OoOOOOOOOOXXOOO;87q03OOOXXXXXX",
"@@<-77,,OOooX.OXooOOOOOOOOOoOoOOO@@,,@@,@OOXXXXXOOOO@-@;-<7-@;$@O$$OOOO..  XO3@9@-,@@@+o..  .oooXOOOXOOOOOOXXXXO@@-y50333OXXX  X",
"@@029,,@OOo.oXOoOOOOOO@O@O@OoooOO@@@@9@@@@oo. XXXXOO333377-7@;-@3OOOOXXX ...@@@@@@<@@@Oo.   oOoOOOOOOOOOOOOOooXOOO5977@$OOOXX XX",
"@@<,@-@@OX.oOO@OOOO@OOOOOOOOoooOO@@@@@@@@o+o.. XXXOO3O37:et78@<@3O33XXXXX  .@@y@77<<@@OOo. .oXXXO.OoooOoOOOXX.OO33@9$7@+OOXX XXX",
"@+<@@@@oOo.oOO@O@oOOO@OOO@OOoooO@@@<<@@@OoOo  ..XXOO+@$$3ye79-@-3OOOOOXX X..@@>tt;t-,@@O.   .ooo..OX.OoOoX..OXOOO@@$@@7OOO.OXX X",
"@@@@@@@@OXooOOOOo@OOO@OOOOOOoOOO@@-@>@@@,,OO ...XXOO@@$79eff7@7@33O3OOO.XXOO+@@y<8-77@@Ooo .ooOXOo.OO.O.o+XOOOO3@@@$$$@O7OOOXXXO",
"@@<@@@@@OOOOOXoOOOoXOXXOooOOOoO@@@t@t@@@@@@OO.OOOO@@$@777>t97;7:$@@OOOOOXXXO@-7<<@7t7@OOXo..oO.OOOOOO.O.OOOOOO@+$@;7@@@@@OOOOOOO",
";@7<,@<@@@OOO.OoOoOOXOOooOOO@@@@@@t;;t-7@@,+OOO+O@@@7@7:;teett77$7:$8OO-OOOO@<<-y>y@,@@OOo.oOOOOOOOOOOOOOOOOO@@@$08tt7:@$$@OOO$O",
"<t-7-@7@@O@OOOoOOOOoOOOOOOOOo@@,>78etty-0-@@7+7$7@@;<>;@7-y7>etfy-3,@O@@OOO$@<<;;7-<@@@OOOXoOOOOOO3OOOO3OOOO$7@739e8ee977$@$O333",
"8t-yyt<7,,@@@O,+OOO@OO@OOO+@@7,,yyyteeyy2yy77y7y7777777777-78f8fe777:3$:$$337@8t<<@7,,@@@OOO@O@@3OOOO3OO@O@@@:779eexfjef77$$7533",
"tt>78--7@<<<@@@@@@@@@@+@@@@@@yyeyeddededfef9fkedtef78y>77--teff8ef0987-@;@7><77@7@<-<@@@@+@O@@@@,,O,@@@@@@@@,77>99lllfl9y777-7t;",
"-t-ttty>y-77@;@@@@@-@@7@,@@7yeeyeeetdedexf8xffcef>eeey7-7@*7tfefx8fet>y778<77<<-@t<<@@@@@@@@@@@@O2O,@@@<@@@<><ttklllllljee->te8e",
"y-t;8<t<-t;<y7yyt8yyyyyy9yyeteftfyefedddffxkckkdkffye88<7--78fefeefe8deetet87<7yt@<;-*-7<<@@@:,,,7,,@9@@7@>@>77ecflllllfey9ye8ft",
"yy9@<;@7tyyyyfeeeyeyfeeex7eeffefey7yyeedfflccdfffxeett7*@7<;eefeef5yeeef8eet<><@@;@@@@@@@-y-y97,,,99<897<<79y8yfjfllllf8f598ff8f",
"-8<@<@@<;t-effclffffkcdcffffff8ft8t<y<y>flfldxlff8ee77877*>@77eteefedeeeefe7<;8<<@@@@@7<-tt9y7-7779y-7;7y>7y-78excllflffey77etf8",
"t@@@@@@@@8yyefffffffffffffffffett--;9>yt8flfeye8y87t;t;t8@@7>7@7798t9y8fefexyt7<@<@@@@@7yy>fyeyyt7eytttettey;7>t9kkllfl>f7@>9f8f",
";@@@@@@@t-7-xx>dffffffffx>ffffet@y<@@-7tefff939,77@-8-7@@@7<@777:3@t7>y89eey7y;<-@@@@@<7yeffeeeeeefeeefteey8@7yt9qkcffee9-@7eeef",
"@@@@@@@@@;yy>fyeeefe>ftd8fef8tfe77<:@@-yffff9,,,:77*@7@79>@;<@@-8@--7t8yyee8eyt-<@@@@@@7yffffe7fyeteet8fefet8@-78xx0feft77-77ey8",
"<<o<<oo<@,tteyyye9ye3yytteeyfyey7@@@@@,7yffe,,,,@,$,@-9@@:e@@@-<@@-@3995998yy99,@@@@@@,tyecffextfteyeeeeeffe<;778yef9ef9:3@@77y-",
"oo<ooo<o<>t@yey8y9@-9,97-teyefey@@@@@@@+@@@-@@o@@@O@@@@99@9-7@@@@@+@+O+@$+,@@++@@@@@@@@97<yey2t;7,:@yyyyeezt8t@<,7$@@@@@@@@@@@@:",
"oooo<o<<<tfty-t;@@@@@@@,;9yyefy97@@OOoOOo@+,O@@,OOOO@@@@@yye@@@OOOOoXXooOO@OX.OOOOo@@@@,@97,,@@@+@@@@@yyyxfet;@;,OOOOoOOOO@@Oo@O",
"o<<oo<<<yefe-yt@@@@@O@@@@<7-tey-@@@OO@OOOOO@@@OOOOOo@o@@>yy77@@@OOOooXXoOOOOOoOoOo@Oo@@@@<@>@@@@@@@@@@@@y3eft<<7@@+OOOOOO@@O@@.@",
"ooooo<<<ytet<@t@@@@O@O,@@-@9etxt-@@@OOOOO@o@@OoOOOOOO@@@7yye<@@OOOoXXoXoOOOOoXXXOO@@@@@0<7-@@@@@O@O@O@@@:yyyt<7@@OOOOOOOo@O@OO@O",
"o+o<<oo<<yie,@@@,+OOOOO@@@@@fet;@@OOOXOOOo@o@O,OOOOOO@@@@<yy@@@@OOooo.ooOOOOXooOOOOOo@@@@<<7@@@@OOOO@@@@@87-;7@@@@OOOOOO@o@@@oOO",
"ooooo<<<<eyz@@@@OOOOOOOO@@@;ttt;@@@OOOOOOO@@OO@OOOOOO@@@@-ey<@@OOOO..oXoOOOOXooooOOO@@@@@y-@@o+oO.oOOO+@@7;<<<7@O@OOOXOOo@OO@O@O",
"ooo<<++<<te<@@o@oooooooOO@@@-t78@@@OOOOOOOOOOOOOOOOOO+@@<7t>@@@@OOOo...oOOOOXooXoOOO@O@,-@<@@@,o.oooooO@@@<<-t@@@OOOooXOoo@OOOOO",
"oooo<o<<ttt<<@OOX.....XoOOO@7d9>$@OOOOXOoooOOO@OOOOOO@@@8y-y@@@OOX.....oXOOOOo.XoOO+@@,@@@@@OoOOoo...XOO@@@,9@,@@@OOOooO@oO@oOO@",
"+oooo<o<@tt-@XOoXX.  ..OOOO@@y<<$@@OOooooo@@@@OOOOXOOO@@@<y-<+@OOo.....oOOOXoooooOOOO+O@,,<:@OoXo....oO@O@@,@9,@O+OoooOOo@O@OOOO",
"ooo<o<+<<tt<@++o.. .....oOO@7t9@@OOOOOoOo+OOoOOOOOOOOO@@@7yy@@@@OX......XOOO...ooOoo,@@@@7@@OoX.o.....oO+,@@2,@@@OOooooOOOOOOOOO",
"ooooooo<<<y9@.@oXX.. ..oOOO+<t,>7O@OXoXXOOOOOOOOOOXXOOO@<--@@@OOOO... ..XOOX....oOo,OO@@@@@@OOOo....oOOO@@<;@:@@@OOooXooOOOOOOOO",
"oooooo<<,<<<@OOOX......o+o@@8-;<+OOOOXXooOoOOOOOOoXoOO@@,7<7@@@OOo... ..oXOX....oooOo@@@@@@@@oOoO...oOO@@@@@@7@@@@OoOoooOOOOOoOO",
"oooo<o<o,,t<@@OOOOo..ooo@.@@tt7@@-OOoXoOoOOOOOOOoOXoOO@@@,7@@@OXOo.... ooXOX......+O@@@@@@@@@OOOOoOoOOO@@@t-7@@@OOOoooooOOOOOOOO"
};
