/* XPM */
static char *result[] = {
/* columns rows colors chars-per-pixel */
"64 64 209 2 ",
"   c #010101",
".  c #080808",
"X  c #1F0503",
"o  c #071212",
"O  c #0B1111",
"+  c #131C1D",
"@  c #121717",
"#  c #060F10",
"$  c #370C0A",
"%  c #230907",
"&  c #1A201F",
"*  c #222235",
"=  c #383735",
"-  c #450E06",
";  c #481A13",
":  c #640D01",
">  c #750E01",
",  c #68180C",
"<  c #761708",
"1  c #7C1F10",
"2  c #6D2116",
"3  c #6E251A",
"4  c #762416",
"5  c #4F2622",
"6  c #562C25",
"7  c #6C332A",
"8  c #733628",
"9  c #3A403F",
"0  c #6F4837",
"q  c #754E3C",
"w  c #774236",
"e  c #3A3A4A",
"r  c #3A4443",
"t  c #364040",
"y  c #585B5A",
"u  c #565958",
"i  c #6C4844",
"p  c #775542",
"a  c #745757",
"s  c #5A6464",
"d  c #971E0D",
"f  c #881F10",
"g  c #A81705",
"h  c #96200F",
"j  c #8D2313",
"k  c #802112",
"l  c #922413",
"z  c #9E2715",
"x  c #A42816",
"c  c #AA2715",
"v  c #B32D1A",
"b  c #B62B18",
"n  c #B9301C",
"m  c #A22816",
"M  c #863A28",
"N  c #B33C2A",
"B  c #C72C17",
"V  c #C8331F",
"C  c #D7331D",
"Z  c #C83A24",
"A  c #D63823",
"S  c #E73B23",
"D  c #8E4035",
"F  c #944939",
"G  c #9A533F",
"H  c #A64E3B",
"J  c #AD523F",
"K  c #AA402F",
"L  c #DB422C",
"P  c #D34E3A",
"I  c #E5422A",
"U  c #EB442C",
"Y  c #E44E37",
"T  c #F24D34",
"R  c #EA533B",
"E  c #E4523B",
"W  c #FD593F",
"Q  c #F4533A",
"!  c #9B4F42",
"~  c #955342",
"^  c #B35A49",
"/  c #936A56",
"(  c #956E5B",
")  c #99725E",
"_  c #80625F",
"`  c #AA765D",
"'  c #AB6656",
"]  c #9C7A65",
"[  c #806360",
"{  c #AD6B60",
"}  c #A87D67",
"|  c #BB7663",
" . c #AB7E76",
".. c #C45341",
"X. c #D35B49",
"o. c #E75943",
"O. c #FE5D43",
"+. c #D26959",
"@. c #D4765D",
"#. c #E16654",
"$. c #F7705B",
"%. c #C57867",
"&. c #D57668",
"*. c #E87568",
"=. c #E87E7B",
"-. c #E37F74",
";. c #FE7B65",
":. c #A3826B",
">. c #AA836D",
",. c #B0856E",
"<. c #AD8570",
"1. c #AC8A73",
"2. c #A78976",
"3. c #B48D78",
"4. c #BC967B",
"5. c #BF987D",
"6. c #B69278",
"7. c #D4896C",
"8. c #D88C76",
"9. c #C19A7F",
"0. c #DF967C",
"q. c #E3877B",
"w. c #E3917A",
"e. c #EF856F",
"r. c #6A6D8F",
"t. c #747699",
"y. c #857A99",
"u. c #8A7FA1",
"i. c #8A8A8A",
"p. c #8F8F90",
"a. c #AC918A",
"s. c #BC9B81",
"d. c #A9938C",
"f. c #B4A19E",
"g. c #868BBA",
"h. c #BBA9A4",
"j. c #C39C82",
"k. c #CB9D82",
"l. c #E98C8A",
"z. c #EF8480",
"x. c #E99787",
"c. c #F59687",
"v. c #C4A186",
"b. c #CCA285",
"n. c #CEA588",
"m. c #CDAA8C",
"M. c #D0A689",
"N. c #D5AA8C",
"B. c #D9AD8E",
"V. c #DBAF92",
"C. c #D7AD91",
"Z. c #CDB294",
"A. c #CDBA9C",
"S. c #DCB194",
"D. c #DDB798",
"F. c #E4A588",
"G. c #EDA695",
"H. c #EEAB99",
"J. c #EAAA92",
"K. c #F8A99B",
"L. c #E1B698",
"P. c #E4BA9A",
"I. c #EABD9E",
"U. c #E4B697",
"Y. c #EFBEA1",
"T. c #D8C3A4",
"R. c #E4C5A3",
"E. c #EEC3A5",
"W. c #E4CAA9",
"Q. c #E7C8A8",
"!. c #F1C5A6",
"~. c #F3CAA6",
"^. c #F3C7A9",
"/. c #F4CBAA",
"(. c #FBCDAF",
"). c #EDD4AF",
"_. c #F5D2AC",
"`. c #F8D4AE",
"'. c #EBD7B4",
"]. c #F6D6B2",
"[. c #FAD4B1",
"{. c #F6DAB3",
"}. c #F8DEB6",
"|. c #F8DFB8",
" X c #F1DCB8",
".X c #FCC4BB",
"XX c #F9E0B7",
"oX c #F9E2BA",
"OX c #F2E2BF",
"+X c #919BD1",
"@X c #B0BCF3",
"#X c #F7CAC3",
"$X c #F9D3CC",
"%X c #FFDAD2",
"&X c #F4E4C2",
"*X c #F9E6C1",
"=X c #FBEAC5",
"-X c #FBEDCA",
";X c #F5E6C8",
":X c #FDF3CC",
">X c #FAEFD5",
",X c #FBF1D5",
"<X c #FDFBD5",
"1X c #FEFCD9",
"2X c #FAF2DB",
"3X c #FBF4E3",
"4X c #FAF8EC",
"5X c #FEFEF1",
"6X c None",
/* pixels */
"6X6X6X6X6X6X6X6X6X6X6X6X6X6X6X6X6X6X6X6X6X6X6X6X6X6X6X6X6X6X6X6X6X6X6X6X6X6X6X6X6X6X6X6X6X6X6X6X6X6X6X6X6X6X6X6X6X6X6X6X6X6X6X6X",
"6X6X6X6X6X6X6X6X6X6X6X6X6X6X6X6X6X6X6X6X6X6X6X6X6X6X6X6X6X6X6X6X6X6X6X6X6X6X6X6X6X6X6X6X6X6X6X6X6X6X6X6X6X6X6X6X6X6X6X6X6X6X6X6X",
"6X6X6X6X6X6X6X6X6X6X6X6X6X6X6X6X6X6X6X6X6X6X6X6X6X6X6X6X6X6X6X6X6X6X6X6X6X6X6X6X6X6X6X6X6X6X6X6X6X6X6X6X6X6X6X6X6X6X6X6X6X6X6X6X",
"6X6X6X6X6X6X6X6X6X6X6X6X6X6X6X6X6X6X6X6X6X6X6X6X6X6X6X6X6X6X6X6X6X6X6X6X6X6X6X6X6X6X6X6X6X6X6X6X6X6X6X6X6X6X6X6X6X6X6X6X6X6X6X6X",
"6X6X6X6X6X6X6X6X6X6X6X6X6X6X6X6X6X6X6X6X6X6X6X6X6X6X6X6X6X6X6X6X6X6X6X6X6X6X6X6X6X6X6X6X6X6X6X6X6X6X6X6X6X6X6X6X6X6X6X6X6X6X6X6X",
"6X6X6X6X6X6X6X6X6X6X6X6X6X6X6X6X6X6X6X6X6X6X6X6X6X6X6X6X6X6X] A.Z.m.6X6X6X6X6X6X6X6X6X6X6X6X6X6X6X6X6X6X6X6X6X6X6X6X6X6X6X6X6X6X",
"6X6X6X6X6X6X6X6X6X6X6X6X6X6X6X6X6X6X6X6X6X6X6X6X6X] A.Z.v.6.Z.1X1XoX9.m.Z.m.6X6X6X6X6X6X6X6X6X6X6X6X6X6X6X6X6X6X6X6X6X6X6X6X6X6X",
"6X6X6X6X6X6X6X6X6X6X6X6X6X6X6X6X6X6X6X6X6X6X6X6Xv.T.1X1X(.S.{.].{.].S.}.*X:XZ.6X6X6X6X6X6X6X6X6X6X6X6X6X6X6X6X6X6X6X6X6X6X6X6X6X",
"6X6X6X6X6X6X6X6X6X6X6X6X6X6X6X6X6X6X6X6X6X6X6X} ~.=XoXR.S.n.E.E.!.S.n.V.{.:XoX:.6X6X6X6X6X6X6X6X6X6X6X6X6X6X6X6X6X6X6X6X6X6X6X6X",
"6X6X6X6X6X6X6X6X6X6X6X6X6X6X6X6X6X6X6X6X6X6X6XN.!.!.R.L.S.L.U.~.U.D.U.L.P.{.=XZ.6X6X6X6X6X6X6X6X6X6X6X6X6X6X6X6X6X6X6X6X6X6X6X6X",
"6X6X6X6X6X6X6X6X6X6X6X6X6X6X6X6X6X6X6X6X6X6.4.U.!.L.U.~._.~.S.U.L.{.oXoXP.P.oX:XA.>.S.s.6X6X6X6X6X6X6X6X6X6X6X6X6X6X6X6X6X6X6X6X",
"6X6X6X6X6X6X6X6X6X6X6X6X6X6X6X6X6X6X6X6.9.N.N.S.!.M.~._.{.XX{.M.^.=X<X<XoXM._.*X1XT.v.N.C.6X6X6X6X6X6X6X6X6X6X6X6X6X6X6X6X6X6X6X",
"6X6X6X6X6X6X6X6X6X6X6X6X6X6X6X6X6X4.4.P.B.9.S.~.U.L._.XX:X<XoXR.P.-X<X<X=XP.S.`.=X<XA.[.{.C.N.6X6X6X6X6X6X6X6X6X6X6X6X6X6X6X6X6X",
"6X6X6X6X6X6X6X6X6X6X6X6X6X6X6X6X9.B.I.!.P.U.~.~.n.!._.=X<X<X<XoXM.oX:X<X:XXXP.L.P.{.=XoXXX[.[.C.6X6X6X6X6X6X6X6X6X6X6X6X6X6X6X6X",
"6X6X6X6X6X6X6X6X6X6X6X6X6X6X6X4.B.I.^.!.~.~.~.`.P.~._.XX:X:X=X}.R.L._.{.oXoXXXR.T.`.oX*X*X*X*X[.C.6X6X6X6X6X6X6X6X6X6X6X6X6X6X6X",
"6X6X6X6X6X6X6X6X6X6X6X6X6X6X4.B.U.~.!.!.^.~.~.`._._._.XX*XoXXXXXoXR./._.XXXXoXoXoX*X:X-X-X-X:X*X[.C.6X6X6X6X6X6X6X6X6X6X6X6X6X6X",
"6X6X6X6X6X6X6X6X6X6X6X6X6X:.B.P.^.!.~.E.~._._._.~._._.XXXXXXoXoXoXoXoXXX|.|.|.*XoX-X-X-X=X-X-X-XoX!.4.6X6X6X6X6X6X6X6X6X6X6X6X6X",
"6X6X6X6X6X6X6X6X6X6X6X6X6X3.N.!.!.!.~./._._.`.~._._.`.XXXXXXoXoXoX|.|.|.oX|.oX-X-X-X-X-X,X>X>X,XoX].S.6X6X6X6X6X6X6X6X6X6X6X6X6X",
"6X6X6X6X6X6X6X6X6X6X6X6X:.b.P.!.^.!.!._._.`.`.`.`.{.|.|.XXXXoXoXoXXXoX|.|.*X-X-X-X-X-X>X3X3X3X3X,XOXE.5.6X6X6X6X6X6X6X6X6X6X6X6X",
"6X6X6X6X6X6X6X6X6X6X6X6X3.N.!.^.!.!./.`.`.}.`.`.{.|.|.oXXXXXXXXXXXXX}.*X*X-X-X-X-X-X2X3X3X3X3X3X3XoX~.S.6X6X6X6X6X6X6X6X6X6X6X6X",
"6X6X6X6X6X6X6X6X6X6X6X:.5.N.E.~.~.~.`.`.}.}.}.}.|.|.|.oXoXoX|.}.XX*X*X-X-X-X-X-X>X2X3X3X3X3X3X3X2X|.`.~.9.6X6X6X6X6X6X6X6X6X6X6X",
"6X6X6X6X6X6X6X6X6X6X6X:.9.B.!.!.E.~.`.}.}.}.}.XXoXoXoXoXoXOXoX*X*X-X-X-X-X-X>X,X3X3X3X3X3X3X3X3X2X;X{.E.9.6X6X6X6X6X6X6X6X6X6X6X",
"6X6X6X6X6X6X6X6X6X6X6X3.B.B.!.^.~.~.`.}.}.XXXXXXoXoX*X;X=X=X=X-X-X-X-X-X>X,X3X3X3X3X3X3X3X3X3X3X3X-XoX!.b.6X6X6X6X6X6X6X6X6X6X6X",
"6X6X6X6X6X6X6X6X6X6X:.9.B.B.E.!.!.!.{.{.}.XXXXXXoX*X=X=X=X-X-X-X-X-X-X,X3X3X3X3X3X3X3X3X3X3X3X3X3X-X|.!.B.9.6X6X6X6X6X6X6X6X6X6X",
"6X6X6X6X6X6X6X6X6X6X:.5.N.B.!.^.E.~.{.{.|.|.|.oX*X=X;X*X;X:X-X-X-X-X,X3X3X3X2X3X3X3X3X3X3X3X3X3X,X-XXX!.N.5.6X6X6X6X6X6X6X6X6X6X",
"6X6X6X6X6X6X6X6X6X6X:.4.N.B.!.^.!.~.{.{.|.|.XXoX*X=X<X<X;X-X-X-X-X-X3X3X3X3X5X5X3X3X3X3X3X3X3X3X-XoXXX!.B.5.6X6X6X6X6X6X6X6X6X6X",
"6X6X6X6X6X6X6X6X6X6X:.5.N.B.!.^.!.!.`.{.|.oXoXoX-X<X3.3.<X-X-X-X-X-X3X3X3X3Xa.a.4X4X3X3X3X3X3X>X-XoX|.!.N.9.6X6X6X6X6X6X6X6X6X6X",
"6X6X6X6X6X6X6X6X6X6X:.4.N.B.!.!.~.!.!.XX|.|.|.oX;X2.X X :.-X-X-X-X-X>X3X3Xa.X X 2.3X3X3X>X>X>X-X-XoX|.!.N.9.6X6X6X6X6X6X6X6X6X6X",
"6X6X6X6X6X6X6X6X6X6X:.5.B.B.!.!.!.!.!.(.XX}.|.oX X$     ; OX-X-X-X-X=X2X;X$     ; ;X2X>X-X-X-X-X*X}._.^.B.5.6X6X6X6X6X6X6X6X6X6X",
"6X6X6X6X6X6X6X6X6X6X6X3.b.B.!.!.!.!.!.!._.oX|.oX Xh.p.. 5 &X-X-X-X-X-X-X&Xh.p.. 6 OX:X=X-X-X-X*X}.oX!.L.b.6X6X6X6X6X6X6X6X6X6X6X",
"6X6X6X6X6X6X6X6X6X6X6X:.6.N.P.!.!.!.~.!.!.].|.oX Xf.i.e 5 &X-X-X-X-X=X-X;Xh.i.e 6 OX:X-X-X*X*X|.oX_.!.N.5.6X6X6X6X6X6X6X6X6X6X6X",
"6X6X6X6X6X6X6X6X6X6X6X:.9.B.N.!.~.!.!.~.!.Y./.].).$ * r.i '.=X*X*X-X-X,X&X- * r.i  X;X*X*X}.}.oX_.!.!.S.5.6X6X6X6X6X6X6X6X6X6X6X",
"6X6X6X6X6X6X6X6X6X6X6X6X>.b.N.L.^.!.^.E.E.Y.Y.!.^.i t.g.a  XoX}.XX*X*X*X Xi t.g.a {.oX|.|.oXoX_.E.^.U.6.6X6X6X6X6X6X6X6X6X6X6X6X",
"6X6X6X6X6X6X6X6X6X6X6X6X) 5.B.N.U.^.^./.^.^.^.^.I.a +X@Xa ~.oXXXoXoX|.|._.a +X@Xa ).{.{.].[.].^.^.P.N.] 6X6X6X6X6X6X6X6X6X6X6X6X",
"6X6X6X6X6X6X6X6X6X6X6X6X6X1.n.B.N.P.P.H.H.H.J.H.!.3.u.y.6.!._.(._./.].]._.3.g.y.s.].H.G.G.G.H./.I.B.3.6X6X6X6X6X6X6X6X6X6X6X6X6X",
"6X6X6X6X6X6X6X6X6X6X6X6X6X6X>.n.B.N.8.=.l.l.l.l.c.^.} ,.^.I.I.!.E.!.Y.Y.J.!.,.,.^.x.=.l.l.l.l.x.B.3.6X6X6X6X6X6X6X6X6X6X6X6X6X6X",
"6X6X6X6X6X6X6X6X6X6X6X6X6X6X6X>.b.M.q.*.=.=.=.=.x.Y.(.(.I.7.!./.S.F._.~.7.!.[.[.E.x.*.-.=.=.z.w.6.6X6X6X6X6X6X6X6X6X6X6X6X6X6X6X",
"6X6X6X6X6X6X6X6X6X6X6X6X6X6X6X6X>.>.m.x.8.x.0.l././.E.^.!.x.0.0.J.J.0.0.w./.!.!.^.(.G.l.l.8.| 6.6X6X6X6X6X6X6X6X6X6X6X6X6X6X6X6X",
"6X6X6X6X6X6X6X6X6X6X6X6X6X6X6X6X6X6X} 6.m.M.n.M.U.P.Y.L.P.R.7.7.I.P.7.8.I.I.U.I.S.C.D.n.6.<.6X6X6X6X6X6X6X6X6X6X6X6X6X6X6X6X6X6X",
"6X6X6X6X6X6X6X6X6X6X6X6X6X6X6X6X6X6X6X6X} } 2.2.k.n.b.k.b.b.m.m.b.b.m.m.0.b.b.9.:.2.} >.6X6X6X6X6X6X6X6X6X6X6X6X6X6X6X6X6X6X6X6X",
"6X6X6X6X6X6X6X6X6X6X6X6X6X6X6X6X6X6X6X6X6X6X^ J <.<.} :.2.1.1.1.1.1.1.:.2.:.1.<.H J 6X6X6X6X6X6X6X6X6X6X6X6X6X6X6X6X6X6X6X6X6X6X",
"6X6X6X6X6X6X6X6X6X6X6X6X6X6X6X6X6X6X6X6X6X6XS B F F %.| %.w F F F F w | | | F H B B 6X6X6X6X6X6X6X6X6X6X6X6X6X6X6X6X6X6X6X6X6X6X",
"6X6X6X6X6X6X6X6X6X6X6X6X6X6X6X6X6X6X6X6X6XI U V d h ..e.$.N > d z > K $.e.P b m v V Z o.6X6X6X6X6X6X6X6X6X6X6X6X6X6X6X6X6X6X6X6X",
"6X6X6X6X6X6X6X6X6X6X6X6X6X6X6X6X6X6X6X6X6XS V m l l c ..H.K.{ 4 < { K.H.P c C n x v A o.6X6X6X6X6X6X6X6X6X6X6X6X6X6X6X6X6X6X6X6X",
"6X6X6X6X6X6X6X6X6X6X6X6X6X6X6X6X6X6X6X6XR I v l l v C Z %.$X$Xl { #X$X&.X.I L R l v U o.$.6X6X6X6X6X6X6X6X6X6X6X6X6X6X6X6X6X6X6X",
"6X6X6X6X6X6X6X6X6X6X6X6X6X6X6X6X6X6X6Xj.w.S x l l C A R Z +.+.=.#X#X&.X.c.R R Y v x V @.w.^.6X6X6X6X6X6X6X6X6X6X6X6X6X6X6X6X6X6X",
"6X6X6X6X6X6X6X6X6X6X6X6X6X6X6X6X6X6X6Xj.Q.7.l l v V b B A +.&.#X#X&.P x.x.E Y Y A l G s.'.<X2X6X6X6X6X6X6X6X6X6X6X6X6X6X6X6X6X6X",
"6X6X6X6X6X6X6X6X6X6X6X6X6X6X6X6X6X6X6Xj.).'.x d S A *.-.=.%X%XY.*.C $.c.c.Q Q T C z ] 4.W.>X,X6X6X6X6X6X6X6X6X6X6X6X6X6X6X6X6X6X",
"6X6X6X6X6X6X6X6X6X6X6X6X6X6X6X6X6X6X6X6Xv.6.; 8 D F d.d.f.d.d.a.M ' {  . .! G ! M 7 ( j.Q.<X1X6X6X6X6X6X6X6X6X6X6X6X6X6X6X6X6X6X",
"6X6X6X6X6X6X6X6X6X6X6X6X6X6X6X6X6X6X6X6X6X6X  9 r r = = u y y y s s s y y r t r r & ( j.).;XT.6X6X6X6X6X6X6X6X6X6X6X6X6X6X6X6X6X",
"6X6X6X6X6X6X6X6X6X6X6X6X6X6X6X6X6X6X6X6X6X6X  O O o o o + + + + & + + @ @ o # # O   6X<.s.s.6X6X6X6X6X6X6X6X6X6X6X6X6X6X6X6X6X6X",
"6X6X6X6X6X6X6X6X6X6X6X6X6X6X6X6X6X6X6X6X6X6X. - - , , 3 2 2 2 2 3 3 7 w 0 3 2 , - 6X6X6X6X6X6X6X6X6X6X6X6X6X6X6X6X6X6X6X6X6X6X6X",
"6X6X6X6X6X6X6X6X6X6X6X6X6X6X6X6X6X6X6X6X6X6X6Xz x S S T O.W O.W O.O.;.K.K.O.W V m 6X6X6X6X6X6X6X6X6X6X6X6X6X6X6X6X6X6X6X6X6X6X6X",
"6X6X6X6X6X6X6X6X6X6X6X6X6X6X6X6X6X6X6X6X6X6X6Xl j v b V L A L L A A o.*.+.L v f j 6X6X6X6X6X6X6X6X6X6X6X6X6X6X6X6X6X6X6X6X6X6X6X",
"6X6X6X6X6X6X6X6X6X6X6X6X6X6X6X6X6X6X6X6X6X6X6X6X4 k k v n v v c c c g g g > ! M 6X6X6X6X6X6X6X6X6X6X6X6X6X6X6X6X6X6X6X6X6X6X6X6X",
"6X6X6X6X6X6X6X6X6X6X6X6X6X6X6X6X6X6X6X6X6X6X6X6X, : : > > < 1 j j 8 ' | | } v.p 6X6X6X6X6X6X6X6X6X6X6X6X6X6X6X6X6X6X6X6X6X6X6X6X",
"6X6X6X6X6X6X6X6X6X6X6X6X6X6X6X6X6X6X6X6X6X6X6X6X, ~ ` ` ` ~ < 6X6X6X} T.W.T.) 6X6X6X6X6X6X6X6X6X6X6X6X6X6X6X6X6X6X6X6X6X6X6X6X6X",
"6X6X6X6X6X6X6X6X6X6X6X6X6X6X6X6X6X6X6X6X6X6X6X6X8 j.W.W.W.v.8 6X6X6X6X/ / / 6X6X6X6X6X6X6X6X6X6X6X6X6X6X6X6X6X6X6X6X6X6X6X6X6X6X",
"6X6X6X6X6X6X6X6X6X6X6X6X6X6X6X6X6X6X6X6X6X6X6X6Xp ( / / ( ( p 6X6X6X6X6X6X6X6X6X6X6X6X6X6X6X6X6X6X6X6X6X6X6X6X6X6X6X6X6X6X6X6X6X",
"6X6X6X6X6X6X6X6X6X6X6X6X6X6X6X6X6X6X6X6X6X6X6X6Xq 0 0 0 0 0 q 6X6X6X6X6X6X6X6X6X6X6X6X6X6X6X6X6X6X6X6X6X6X6X6X6X6X6X6X6X6X6X6X6X",
"6X6X6X6X6X6X6X6X6X6X6X6X6X6X6X6X6X6X6X6X6X6X6X6X6Xq q q q q 6X6X6X6X6X6X6X6X6X6X6X6X6X6X6X6X6X6X6X6X6X6X6X6X6X6X6X6X6X6X6X6X6X6X",
"6X6X6X6X6X6X6X6X6X6X6X6X6X6X6X6X6X6X6X6X6X6X6X6X6X6X6X6X6X6X6X6X6X6X6X6X6X6X6X6X6X6X6X6X6X6X6X6X6X6X6X6X6X6X6X6X6X6X6X6X6X6X6X6X",
"6X6X6X6X6X6X6X6X6X6X6X6X6X6X6X6X6X6X6X6X6X6X6X6X6X6X6X6X6X6X6X6X6X6X6X6X6X6X6X6X6X6X6X6X6X6X6X6X6X6X6X6X6X6X6X6X6X6X6X6X6X6X6X6X",
"6X6X6X6X6X6X6X6X6X6X6X6X6X6X6X6X6X6X6X6X6X6X6X6X6X6X6X6X6X6X6X6X6X6X6X6X6X6X6X6X6X6X6X6X6X6X6X6X6X6X6X6X6X6X6X6X6X6X6X6X6X6X6X6X"
};
