/* XPM */
static char *result[] = {
/* columns rows colors chars-per-pixel */
"64 64 210 2 ",
"   c #000001",
".  c #0B0606",
"X  c #050F0F",
"o  c #1F0503",
"O  c #061112",
"+  c #0B1212",
"@  c #131C1D",
"#  c #121717",
"$  c #060F10",
"%  c #370C0A",
"&  c #230907",
"*  c #222235",
"=  c #383735",
"-  c #460F06",
";  c #451913",
":  c #660C02",
">  c #7A0E02",
",  c #6D1A0C",
"<  c #681508",
"1  c #76190A",
"2  c #7C1F10",
"3  c #6D2116",
"4  c #6E251A",
"5  c #762416",
"6  c #4F2622",
"7  c #522F28",
"8  c #713222",
"9  c #6C3026",
"0  c #774236",
"q  c #3A3A4A",
"w  c #394342",
"e  c #585B5A",
"r  c #565958",
"t  c #424140",
"y  c #6A4844",
"u  c #795442",
"i  c #745757",
"p  c #775E53",
"a  c #5A6464",
"s  c #881B0B",
"d  c #941F0E",
"f  c #821F10",
"g  c #96200F",
"h  c #8D2212",
"j  c #802111",
"k  c #982615",
"l  c #98301E",
"z  c #A82816",
"x  c #B12613",
"c  c #B32D1A",
"v  c #B12814",
"b  c #B9301D",
"n  c #AC210F",
"m  c #833928",
"M  c #BC3925",
"N  c #AA3F2E",
"B  c #C52C18",
"V  c #C9321C",
"C  c #D6331D",
"Z  c #C1240F",
"A  c #CB3823",
"S  c #D43923",
"D  c #E63B24",
"F  c #8E4339",
"G  c #944938",
"H  c #8D503E",
"J  c #AB4B38",
"K  c #DC422C",
"L  c #D24D39",
"P  c #E5442C",
"I  c #E54E37",
"U  c #F34D34",
"Y  c #E9543C",
"T  c #FD593F",
"R  c #F8553C",
"E  c #9B4F42",
"W  c #8F5340",
"Q  c #9D5343",
"!  c #AB5945",
"~  c #B35E4D",
"^  c #916854",
"/  c #946D5D",
"(  c #99725D",
")  c #80625F",
"_  c #AB705C",
"`  c #9B7B67",
"'  c #806360",
"]  c #AD6B60",
"[  c #AF7B62",
"{  c #A57E69",
"}  c #BC7365",
"|  c #AB7E76",
" . c #C45341",
".. c #D35B49",
"X. c #FE5D43",
"o. c #D56757",
"O. c #E06752",
"+. c #F7705B",
"@. c #C57767",
"#. c #D47766",
"$. c #E87668",
"%. c #E67C7A",
"&. c #E77C77",
"*. c #FE7B65",
"=. c #9F836E",
"-. c #A3826B",
";. c #AB836D",
":. c #B2866E",
">. c #AC8A74",
",. c #A98975",
"<. c #B38D74",
"1. c #B38D7E",
"2. c #B68D75",
"3. c #BB957B",
"4. c #BE987D",
"5. c #B79278",
"6. c #D4896C",
"7. c #D48B72",
"8. c #C1987E",
"9. c #DF977B",
"0. c #E48379",
"q. c #F48477",
"w. c #E78F73",
"e. c #6A6D8F",
"r. c #747699",
"t. c #857999",
"y. c #8A7FA1",
"u. c #8A8A8A",
"i. c #8F8F90",
"p. c #AC918A",
"a. c #BC9B81",
"s. c #AA9692",
"d. c #A68E82",
"f. c #B4A19E",
"g. c #868BBA",
"h. c #BBA9A4",
"j. c #C49E84",
"k. c #CC9E83",
"l. c #E98C8A",
"z. c #E78A88",
"x. c #ED9B8B",
"c. c #E59382",
"v. c #F59687",
"b. c #C4A086",
"n. c #CCA285",
"m. c #CDA589",
"M. c #CCAA8C",
"N. c #D5AA8C",
"B. c #D9AC8D",
"V. c #D0A68A",
"C. c #CDAF90",
"Z. c #D7AD91",
"A. c #DBAF93",
"S. c #CDB698",
"D. c #D3B394",
"F. c #DDB294",
"G. c #DBB899",
"H. c #E4A588",
"J. c #EDA595",
"K. c #EBAA94",
"L. c #EEAB99",
"P. c #F8A99B",
"I. c #E0B696",
"U. c #E2B698",
"Y. c #E5BA9A",
"T. c #E9BE9E",
"R. c #E6B798",
"E. c #EEBDA1",
"W. c #E6C09E",
"Q. c #DEC3A4",
"!. c #EEC3A4",
"~. c #E6C8A6",
"^. c #F1C5A6",
"/. c #F3CBA7",
"(. c #F3C7A8",
"). c #F4CAAA",
"_. c #FBCEAF",
"`. c #E9D2AE",
"'. c #F5D2AC",
"]. c #F8D4AB",
"[. c #FCCAB6",
"{. c #ECD8B5",
"}. c #F6D6B1",
"|. c #FAD4B2",
" X c #F6DBB3",
".X c #F8DEB6",
"XX c #F8DFB8",
"oX c #F4DBB8",
"OX c #F8E0B7",
"+X c #F4E1BD",
"@X c #F9E2BA",
"#X c #919BD1",
"$X c #B0BCF3",
"%X c #F7CAC3",
"&X c #F9D3CC",
"*X c #FFDAD2",
"=X c #F4E4C2",
"-X c #F9E6C1",
";X c #FAEBC5",
":X c #FBEDCA",
">X c #F3E8C8",
",X c #FDF3CC",
"<X c #FBF1D4",
"1X c #FEFBD4",
"2X c #FBF5DB",
"3X c #FAEFD4",
"4X c #FBF4E3",
"5X c #FAF8EC",
"6X c #FEFEF1",
"7X c None",
/* pixels */
"7X7X7X7X7X7X7X7X7X7X7X7X7X7X7X7X7X7X7X7X7X7X7X7X7X7X7X7X7X7X7X7X7X7X7X7X7X7X7X7X7X7X7X7X7X7X7X7X7X7X7X7X7X7X7X7X7X7X7X7X7X7X7X7X",
"7X7X7X7X7X7X7X7X7X7X7X7X7X7X7X7X7X7X7X7X7X7X7X7X7X7X7X7X7X7X7X7X7X7X7X7X7X7X7X7X7X7X7X7X7X7X7X7X7X7X7X7X7X7X7X7X7X7X7X7X7X7X7X7X",
"7X7X7X7X7X7X7X7X7X7X7X7X7X7X7X7X7X7X7X7X7X7X7X7X7X7X7X7X7X7X7X7X7X7X7X7X7X7X7X7X7X7X7X7X7X7X7X7X7X7X7X7X7X7X7X7X7X7X7X7X7X7X7X7X",
"7X7X7X7X7X7X7X7X7X7X7X7X7X7X7X7X7X7X7X7X7X7X7X7X7X7X7X7X7X7X7X7X7X7X7X7X7X7X7X7X7X7X7X7X7X7X7X7X7X7X7X7X7X7X7X7X7X7X7X7X7X7X7X7X",
"7X7X7X7X7X7X7X7X7X7X7X7X7X7X7X7X7X7X7X7X7X7X7X7X7X7X7X7X7X7X7X7X7X7X7X7X7X7X7X7X7X7X7X7X7X7X7X7X7X7X7X7X7X7X7X7X7X7X7X7X7X7X7X7X",
"7X7X7X7X7X7X7X7X7X7X7X7X7X7X7X7X7X7X7X7X7X7X7X7X7X7X7X7X7X7X` S.S.M.7X7X7X7X7X7X7X7X7X7X7X7X7X7X7X7X7X7X7X7X7X7X7X7X7X7X7X7X7X7X",
"7X7X7X7X7X7X7X7X7X7X7X7X7X7X7X7X7X7X7X7X7X7X7X7X7X=.S.3.j.5.S.4X1X@X4.M.C.M.7X7X7X7X7X7X7X7X7X7X7X7X7X7X7X7X7X7X7X7X7X7X7X7X7X7X",
"7X7X7X7X7X7X7X7X7X7X7X7X7X7X7X7X7X7X7X7X7X7X7X7Xm.M.{.!.).E.-X~.oXXXW.@X1X,XC.7X7X7X7X7X7X7X7X7X7X7X7X7X7X7X7X7X7X7X7X7X7X7X7X7X",
"7X7X7X7X7X7X7X7X7X7X7X7X7X7X7X7X7X7X7X7X7X7X7X-.U.Y.k.(.(.).B.n.F. X X;X;X1X-X-.7X7X7X7X7X7X7X7X7X7X7X7X7X7X7X7X7X7X7X7X7X7X7X7X",
"7X7X7X7X7X7X7X7X7X7X7X7X7X7X7X7X7X7X7X7X7X7X7X5.A.F.U.I.(.I.I.Y.I.I. X1X:X,X,XS.7X7X7X7X7X7X7X7X7X7X7X7X7X7X7X7X7X7X7X7X7X7X7X7X",
"7X7X7X7X7X7X7X7X7X7X7X7X7X7X7X7X7X7X7X7X{ <.3.Y.).).).I.I.I. X@X@XY.R.@X1X,X:X,XD.>.F.a.7X7X7X7X7X7X7X7X7X7X7X7X7X7X7X7X7X7X7X7X",
"7X7X7X7X7X7X7X7X7X7X7X7X7X7X7X7X7X7X-.5.3.Y.N.(.].XXXX}.V.(.-X1X1X@XV.}.;X,X:X;XD.C.b.N.Z.4.7X7X7X7X7X7X7X7X7X7X7X7X7X7X7X7X7X7X",
"7X7X7X7X7X7X7X7X7X7X7X7X7X7X7X7X7X3.3.R.W.R.G./.XX,X1X@X~.I.:X1X1X,XW.F.].-X1XoXC.@XC. X|.Z.N.7X7X7X7X7X7X7X7X7X7X7X7X7X7X7X7X7X",
"7X7X7X7X7X7X7X7X7X7X7X7X7X7X7X7X4.B.T././.V.!.].;X1X1X1X@Xn.@X,X,X:XOXY.F.].-X;X@XOX@X@XXX.X|.Z.7X7X7X7X7X7X7X7X7X7X7X7X7X7X7X7X",
"7X7X7X7X7X7X7X7X7X7X7X7X7X7X7X3.B.R.!././.W./.].@X,X,X@X.X~.I.'.@X@X;XOX~.].OX@X-X-X-X-X@X@X@X|.Z.7X7X7X7X7X7X7X7X7X7X7X7X7X7X7X",
"7X7X7X7X7X7X7X7X7X7X7X7X7X7X3.B.R.^./.].].].].].@X;X@X@XOX@X~.'.OXOXOX@X@XOX-X:X,X:X:X:X:X-X@XOX|.Z.7X7X7X7X7X7X7X7X7X7X7X7X7X7X",
"7X7X7X7X7X7X7X7X7X7X7X7X7X-.B.Y.^./.]./.]././.].XX@X+X@X@X@X@X@XOX@X@XOX&X-X:X:X:X:X:X;X:X:XXXXX@X^.3.7X7X7X7X7X7X7X7X7X7X7X7X7X",
"7X7X7X7X7X7X7X7X7X7X7X7X7X<.N.(./.].'.'.].].].]..XXX@X@X@X@XXX.XOXOXOX@X;X:X:X:X:X3X3X2X<X:X@XXXXX'.F.7X7X7X7X7X7X7X7X7X7X7X7X7X",
"7X7X7X7X7X7X7X7X7X7X7X7X-.n.Y.!.].].].'.].]. X XXXXX@X@X@X@X@XOXXXXX;X:X;X,X:X:X3X4X4X4X4X<X:X@X.X@X!.4.7X7X7X7X7X7X7X7X7X7X7X7X",
"7X7X7X7X7X7X7X7X7X7X7X7X<.B.(.).]. X X X.X X.XOXXXXXXXXXOXXX.X.X-X@X;X:X:X:X:X3X4X4X4X4X4X4X:XXX.X@X/.F.7X7X7X7X7X7X7X7X7X7X7X7X",
"7X7X7X7X7X7X7X7X7X7X7X-.4.B.^.].}. X XXXOXOXOXOX@X@XXXXXXXXX=X-X:X:X:X:X:X<X<X4X4X4X4X4X4X4X:X@X@X.X X^.8.7X7X7X7X7X7X7X7X7X7X7X",
"7X7X7X7X7X7X7X7X7X7X7X-.8.N.(.}.}. X.XXXOXOX@X@X@X-X@X@X-X-X:X:X:X:X:X<X<X4X4X4X4X4X4X4X4X4X:X+X@X.X X!.8.7X7X7X7X7X7X7X7X7X7X7X",
"7X7X7X7X7X7X7X7X7X7X7X<.B.Y.(. X.X.XXX@X@X@X@X-X-X-X;X-X:X:X:X:X:X<X<X4X4X4X4X4X4X4X4X4X4X4X:X:X@XOX@X!.m.7X7X7X7X7X7X7X7X7X7X7X",
"7X7X7X7X7X7X7X7X7X7X-.8.B./.^. X.X.XXX@X@X@X-X;X;X:X:X:X:X:X:X:X3X4X4X4X4X4X4X4X4X4X4X4X4X4X:X:XXX.X.X!.B.4.7X7X7X7X7X7X7X7X7X7X",
"7X7X7X7X7X7X7X7X7X7X-.3.B.!.(. X.X.X.XOX@X-X;X>X-X:X:X:X:X:X:X3X4X4X4X4X4X2X4X4X4X4X4X4X4X3X:X:X@XOXOX(.N.8.7X7X7X7X7X7X7X7X7X7X",
"7X7X7X7X7X7X7X7X7X7X-.4.B.^.(. X.X.XOXOX@X-X;X1X1X:X:X:X:X:X:X4X4X4X4X6X5X4X4X4X4X4X4X4X4X:X:X-XOXOX.X^.B.4.7X7X7X7X7X7X7X7X7X7X",
"7X7X7X7X7X7X7X7X7X7X-.3.B.^.^.'..XXXOXOX-X:X1X>.>.<X:X:X:X:X:X4X4X4X5Xp.p.5X4X4X4X4X4X4X3X:X:XXX.X@XXX^.N.4.7X7X7X7X7X7X7X7X7X7X",
"7X7X7X7X7X7X7X7X7X7X-.4.B.Y.^.^..XXXOXOX@X>X,.& o ,.>X:X:X:X:X3X4X4Xd.& o ,.4X4X4X2X3X<X:X:X-XXX.XOXOX^.N.8.7X7X7X7X7X7X7X7X7X7X",
"7X7X7X7X7X7X7X7X7X7X-.4.B.N.!.(.].XX.X.X@X{.%     ; =X:X:X:X:X:X3X>X%     ; >X4X<X:X:X:X:X@XXXXX@X.X'.(.B.4.7X7X7X7X7X7X7X7X7X7X",
"7X7X7X7X7X7X7X7X7X7X7X<.n.B.^.^.^.].@X.X@X.Xh.i.. 6 =X:X:X:X:X:X:X;Xh.i.. 7 =X:X:X:X:X:X-XXXXXXX.X@X(.U.n.7X7X7X7X7X7X7X7X7X7X7X",
"7X7X7X7X7X7X7X7X7X7X7X-.3.N.Y.^.^.^._.@X@XoXf.u.q 6 =X,X:X:X:X:X:X>Xh.u.q 7 =X:X:X:X-X@XOX@XXXXX@X'.!.N.4.7X7X7X7X7X7X7X7X7X7X7X",
"7X7X7X7X7X7X7X7X7X7X7X-.4.B.N.^.(.^.!.).}.'.% * e.y {.;X-X-X:X:X3X=X- * e.y oX;X@X-XXXXXXXXX@XXX}.^./.Z.4.7X7X7X7X7X7X7X7X7X7X7X",
"7X7X7X7X7X7X7X7X7X7X7X7X:.j.N.Y.^.^.^.T.^.(.y r.g.' .X@X.X.X-X-X-XoXy r.#Xi }.XX@X@X@X@X@XOX'.'.^.(.U.3.7X7X7X7X7X7X7X7X7X7X7X7X",
"7X7X7X7X7X7X7X7X7X7X7X7X` 4.B.N.^./.(.^./.L.i #X$Xi ~.@X@X@XXX@X@X].i #X$Xi }.|.|.|. X}.'.'.^.^.(.R.B./ 7X7X7X7X7X7X7X7X7X7X7X7X",
"7X7X7X7X7X7X7X7X7X7X7X7X7X;.n.Z.L.L.L.L.L.^.p.y.t.1.E._.).'.'.'.}.'.1.i.t.p.}.L.J.J.J.L.(.^.^.(.Y.B.2.7X7X7X7X7X7X7X7X7X7X7X7X7X",
"7X7X7X7X7X7X7X7X7X7X7X7X7X7X{ c.%.z.l.l.l.x.(.:.:.(.R.E.!.^.^.!.E.L.).;.:.).x.%.l.l.l.l.x.(.(.U.B.5.7X7X7X7X7X7X7X7X7X7X7X7X7X7X",
"7X7X7X7X7X7X7X7X7X7X7X7X7X7X7X@.&.%.%.%.%.x.^.|.|.E.6.^.'.H.K.'.(.6.E._._.^.c.$.0.%.%.0.x.Y.W.B.2.7X7X7X7X7X7X7X7X7X7X7X7X7X7X7X",
"7X7X7X7X7X7X7X7X7X7X7X7X7X7X7X7X} @.7.c.9.T.Y.R.^.^.c.9.9.K.H.9.9.c.^.^.^.^.(.J.x.x.x.c.W.V.2.2.7X7X7X7X7X7X7X7X7X7X7X7X7X7X7X7X",
"7X7X7X7X7X7X7X7X7X7X7X7X7X7X7X7X7X` >.5.V.n.k.n.R.T.W.7.7.W.W.6.7.W.Y.Y.Y.Y.R.E.F.G.G.m.2.;./ 7X7X7X7X7X7X7X7X7X7X7X7X7X7X7X7X7X",
"7X7X7X7X7X7X7X7X7X7X7X7X7X7X7X7X7X7X7X/ { ;.,.<.8.n.n.N.N.n.8.V.V.n.n.n.k.m.k.k.,.[ { ;./ 7X7X7X7X7X7X7X7X7X7X7X7X7X7X7X7X7X7X7X",
"7X7X7X7X7X7X7X7X7X7X7X7X7X7X7X7X7X7X7X7X7X7XJ ! ;.>.-.-.-.>.>.>.>.>.>.-.-.-.>.:.J 7X7X7X7X7X7X7X7X7X7X7X7X7X7X7X7X7X7X7X7X7X7X7X",
"7X7X7X7X7X7X7X7X7X7X7X7X7X7X7X7X7X7X7X7X7X7XV B G G @.@.} 0 G G G G 0 } } @.H G V 7X7X7X7X7X7X7X7X7X7X7X7X7X7X7X7X7X7X7X7X7X7X7X",
"7X7X7X7X7X7X7X7X7X7X7X7X7X7X7X7X7X7X7X7XI S Z B g g L q.+.J > g g > J +.q. .n d b P 7X7X7X7X7X7X7X7X7X7X7X7X7X7X7X7X7X7X7X7X7X7X",
"7X7X7X7X7X7X7X7X7X7X7X7X7X7X7X7X7X7X7X7Xw.w.#.~ h h z  .L.P.] 2 1 ] P.L.L n S M z A 7X7X7X7X7X7X7X7X7X7X7X7X7X7X7X7X7X7X7X7X7X7X",
"7X7X7X7X7X7X7X7X7X7X7X7X7X7X7X7X7X7X7XE.-X>X>XS.! c S A @.&X&Xk ] %X&X#...P P I k v D 7X7X7X7X7X7X7X7X7X7X7X7X7X7X7X7X7X7X7X7X7X",
"7X7X7X7X7X7X7X7X7X7X7X7X7X7X7X7X7X7X7X`.,X1X<X`.j.S S Y S o.o.#.%X[.#...v...Y I c z O.7X7X7X7X7X7X7X7X7X7X7X7X7X7X7X7X7X7X7X7X7X",
"7X7X7X7X7X7X7X7X7X7X7X7X7X7X7X7X7X7X7X`.<X<X<X~.8.S x B S #.#.%X%X#.L x.v.Y I I A l {.7X7X7X7X7X7X7X7X7X7X7X7X7X7X7X7X7X7X7X7X7X",
"7X7X7X7X7X7X7X7X7X7X7X7X7X7X7X7X7X7X7XS.-X:X=X`.2.S $.&.%.&X*X[.$.C +.v.v.U U U C z <.7X7X7X7X7X7X7X7X7X7X7X7X7X7X7X7X7X7X7X7X7X",
"7X7X7X7X7X7X7X7X7X7X7X7X7X7X7X7X7X7X7X7Xa.a.M.a.p H p.s.f.s.s.p.W ~ ] | | Q E E F 9 7X7X7X7X7X7X7X7X7X7X7X7X7X7X7X7X7X7X7X7X7X7X",
"7X7X7X7X7X7X7X7X7X7X7X7X7X7X7X7X7X7X7X7X7X7X7 y w w = = r e r r a a a a e w w w = @ 7X7X7X7X7X7X7X7X7X7X7X7X7X7X7X7X7X7X7X7X7X7X",
"7X7X7X7X7X7X7X7X7X7X7X7X7X7X7X7X7X7X7X7X7X7X  O O O O O @ @ @ @ @ @ @ @ # O X O +   7X7X7X7X7X7X7X7X7X7X7X7X7X7X7X7X7X7X7X7X7X7X",
"7X7X7X7X7X7X7X7X7X7X7X7X7X7X7X7X7X7X7X7X7X7X. - - < , 4 3 3 4 3 3 3 9 y 9 4 4 < - . 7X7X7X7X7X7X7X7X7X7X7X7X7X7X7X7X7X7X7X7X7X7X",
"7X7X7X7X7X7X7X7X7X7X7X7X7X7X7X7X7X7X7X7X7X7X7Xz l D D U T T T T X.X.*.P.P.X.R V z 7X7X7X7X7X7X7X7X7X7X7X7X7X7X7X7X7X7X7X7X7X7X7X",
"7X7X7X7X7X7X7X7X7X7X7X7X7X7X7X7X7X7X7X7X7X7X7Xh k c c C K K K K S S ..O.O.M M d h 7X7X7X7X7X7X7X7X7X7X7X7X7X7X7X7X7X7X7X7X7X7X7X",
"7X7X7X7X7X7X7X7X7X7X7X7X7X7X7X7X7X7X7X7X7X7X7X7X2 > 5 b c n v v z x Z x n 2 2 j 7X7X7X7X7X7X7X7X7X7X7X7X7X7X7X7X7X7X7X7X7X7X7X7X",
"7X7X7X7X7X7X7X7X7X7X7X7X7X7X7X7X7X7X7X7X7X7X7X7X8 H : : > Q m j h 2 2 2 2 , , , 7X7X7X7X7X7X7X7X7X7X7X7X7X7X7X7X7X7X7X7X7X7X7X7X",
"7X7X7X7X7X7X7X7X7X7X7X7X7X7X7X7X7X7X7X7X7X7X7X7Xu b.[ _ [ b.u 7X7X< , , , , , , 7X7X7X7X7X7X7X7X7X7X7X7X7X7X7X7X7X7X7X7X7X7X7X7X",
"7X7X7X7X7X7X7X7X7X7X7X7X7X7X7X7X7X7X7X7X7X7X7X7X7X/ Q.`.Q.( 7X7X7X8 < , 2 , < 8 7X7X7X7X7X7X7X7X7X7X7X7X7X7X7X7X7X7X7X7X7X7X7X7X",
"7X7X7X7X7X7X7X7X7X7X7X7X7X7X7X7X7X7X7X7X7X7X7X7X7X7X^ ^ ^ 7X7X7X7Xu W : : : H u 7X7X7X7X7X7X7X7X7X7X7X7X7X7X7X7X7X7X7X7X7X7X7X7X",
"7X7X7X7X7X7X7X7X7X7X7X7X7X7X7X7X7X7X7X7X7X7X7X7X7X7X7X7X7X7X7X7X7Xu j.[ _ [ j.u 7X7X7X7X7X7X7X7X7X7X7X7X7X7X7X7X7X7X7X7X7X7X7X7X",
"7X7X7X7X7X7X7X7X7X7X7X7X7X7X7X7X7X7X7X7X7X7X7X7X7X7X7X7X7X7X7X7X7X7X( Q.~.Q.( 7X7X7X7X7X7X7X7X7X7X7X7X7X7X7X7X7X7X7X7X7X7X7X7X7X",
"7X7X7X7X7X7X7X7X7X7X7X7X7X7X7X7X7X7X7X7X7X7X7X7X7X7X7X7X7X7X7X7X7X7X7X^ ^ ^ 7X7X7X7X7X7X7X7X7X7X7X7X7X7X7X7X7X7X7X7X7X7X7X7X7X7X",
"7X7X7X7X7X7X7X7X7X7X7X7X7X7X7X7X7X7X7X7X7X7X7X7X7X7X7X7X7X7X7X7X7X7X7X7X7X7X7X7X7X7X7X7X7X7X7X7X7X7X7X7X7X7X7X7X7X7X7X7X7X7X7X7X",
"7X7X7X7X7X7X7X7X7X7X7X7X7X7X7X7X7X7X7X7X7X7X7X7X7X7X7X7X7X7X7X7X7X7X7X7X7X7X7X7X7X7X7X7X7X7X7X7X7X7X7X7X7X7X7X7X7X7X7X7X7X7X7X7X"
};
