/* XPM */
static char *result[] = {
/* columns rows colors chars-per-pixel */
"64 64 204 2 ",
"   c #010101",
".  c #090808",
"X  c #1F0503",
"o  c #071212",
"O  c #0B1111",
"+  c #131C1D",
"@  c #121717",
"#  c #060F10",
"$  c #370C0A",
"%  c #230907",
"&  c #222235",
"*  c #383735",
"=  c #450E06",
"-  c #49170E",
";  c #471B17",
":  c #750F02",
">  c #67160B",
",  c #78190A",
"<  c #620A00",
"1  c #6D2116",
"2  c #6E251A",
"3  c #762416",
"4  c #4F2622",
"5  c #562C25",
"6  c #713529",
"7  c #39403F",
"8  c #6F4837",
"9  c #754E3C",
"0  c #774236",
"q  c #3A3A4A",
"w  c #3B4443",
"e  c #364140",
"r  c #585B5A",
"t  c #565958",
"y  c #6C4844",
"u  c #775542",
"i  c #745757",
"p  c #5A6464",
"a  c #931D0C",
"s  c #821F10",
"d  c #A81D0B",
"f  c #97200F",
"g  c #8D2313",
"h  c #932413",
"j  c #9E2917",
"k  c #A72815",
"l  c #B32D1A",
"z  c #B42915",
"x  c #BC301D",
"c  c #873B2C",
"v  c #BC3925",
"b  c #AA3F2E",
"n  c #C62C17",
"m  c #C7331E",
"M  c #D8331C",
"N  c #CA3823",
"B  c #D23521",
"V  c #D73923",
"C  c #E73B24",
"Z  c #944939",
"A  c #8E4035",
"S  c #A74F3C",
"D  c #AD533F",
"F  c #AA402F",
"G  c #DC432C",
"H  c #D24D39",
"J  c #E5422B",
"K  c #EA432B",
"L  c #E74D36",
"P  c #F44F35",
"I  c #EA543C",
"U  c #E4523B",
"Y  c #FD593F",
"T  c #F8553C",
"R  c #9B4F42",
"E  c #975442",
"W  c #B45A4A",
"Q  c #87665C",
"!  c #936A56",
"~  c #956E5A",
"^  c #98725E",
"/  c #AA765D",
"(  c #AF6B58",
")  c #9C7B66",
"_  c #806360",
"`  c #AD6B60",
"'  c #A67D67",
"]  c #BB7663",
"[  c #AB7E76",
"{  c #C45341",
"}  c #D35B49",
"|  c #E75943",
" . c #FE5D43",
".. c #D56757",
"X. c #D4765D",
"o. c #EC6A57",
"O. c #C57867",
"+. c #D57668",
"@. c #E87667",
"#. c #E67C7A",
"$. c #E97E7B",
"%. c #E57C71",
"&. c #FE7B65",
"*. c #A3826B",
"=. c #AA836D",
"-. c #B0866F",
";. c #AC8A73",
":. c #A98874",
">. c #B38D75",
",. c #B58D79",
"<. c #BC967B",
"1. c #BF987D",
"2. c #B69277",
"3. c #D4896C",
"4. c #D48A73",
"5. c #C19A7F",
"6. c #DF977B",
"7. c #E2897C",
"8. c #E49178",
"9. c #EE856F",
"0. c #6A6D8F",
"q. c #747699",
"w. c #857999",
"e. c #8A7FA1",
"r. c #8A8A8A",
"t. c #8F8F90",
"y. c #AC918A",
"u. c #BC9B82",
"i. c #A9938C",
"p. c #B4A19E",
"a. c #868BBA",
"s. c #BBA9A4",
"d. c #C39D83",
"f. c #CC9E82",
"g. c #E98C8A",
"h. c #ED9B8B",
"j. c #E69483",
"k. c #F59687",
"l. c #CCA285",
"z. c #CCAA8C",
"x. c #CBA488",
"c. c #D5AA8C",
"v. c #D9AD8E",
"b. c #D0A689",
"n. c #D7AE91",
"m. c #DAAE92",
"M. c #CDB597",
"N. c #DEB295",
"B. c #D7B799",
"V. c #E4A588",
"C. c #EDA695",
"Z. c #EBAA94",
"A. c #EEAB99",
"S. c #F8A99B",
"D. c #E0B696",
"F. c #E2B699",
"G. c #E5BB9B",
"H. c #EBBD9E",
"J. c #E7B698",
"K. c #EFBEA1",
"L. c #DDC3A5",
"P. c #E4C4A2",
"I. c #EEC4A5",
"U. c #E4CAAA",
"Y. c #E8C9A7",
"T. c #F1C5A6",
"R. c #F3CBA7",
"E. c #F3C7A8",
"W. c #F4CAAA",
"Q. c #EDD4AF",
"!. c #F5D2AC",
"~. c #F8D4AB",
"^. c #FCCAB6",
"/. c #EBD6B3",
"(. c #F6D6B1",
"). c #FAD3B1",
"_. c #F6DAB4",
"`. c #F8DEB6",
"'. c #F8DFB8",
"]. c #F1DCB8",
"[. c #F9E0B7",
"{. c #F9E2BA",
"}. c #F2E2BF",
"|. c #919BD1",
" X c #B0BCF3",
".X c #F7CAC3",
"XX c #F9D3CC",
"oX c #FFDAD2",
"OX c #F5E4C2",
"+X c #F9E6C1",
"@X c #FAEAC5",
"#X c #FBEDCA",
"$X c #F4E6C9",
"%X c #FCF3CC",
"&X c #FEF5CB",
"*X c #FBF1D5",
"=X c #FEFCD4",
"-X c #FEFDD9",
";X c #FAF2DC",
":X c #FAEFD4",
">X c #FBF4E3",
",X c #FAF8EC",
"<X c #FEFEF1",
"1X c None",
/* pixels */
"1X1X1X1X1X1X1X1X1X1X1X1X1X1X1X1X1X1X1X1X1X1X1X1X1X1X1X1X1X1X1X1X1X1X1X1X1X1X1X1X1X1X1X1X1X1X1X1X1X1X1X1X1X1X1X1X1X1X1X1X1X1X1X1X",
"1X1X1X1X1X1X1X1X1X1X1X1X1X1X1X1X1X1X1X1X1X1X1X1X1X1X1X1X1X1X1X1X1X1X1X1X1X1X1X1X1X1X1X1X1X1X1X1X1X1X1X1X1X1X1X1X1X1X1X1X1X1X1X1X",
"1X1X1X1X1X1X1X1X1X1X1X1X1X1X1X1X1X1X1X1X1X1X1X1X1X1X1X1X1X1X1X1X1X1X1X1X1X1X1X1X1X1X1X1X1X1X1X1X1X1X1X1X1X1X1X1X1X1X1X1X1X1X1X1X",
"1X1X1X1X1X1X1X1X1X1X1X1X1X1X1X1X1X1X1X1X1X1X1X1X1X1X1X1X1X1X1X1X1X1X1X1X1X1X1X1X1X1X1X1X1X1X1X1X1X1X1X1X1X1X1X1X1X1X1X1X1X1X1X1X",
"1X1X1X1X1X1X1X1X1X1X1X1X1X1X1X1X1X1X1X1X1X1X1X1X1X1X1X1X1X1X1X1X1X1X1X1X1X1X1X1X1X1X1X1X1X1X1X1X1X1X1X1X1X1X1X1X1X1X1X1X1X1X1X1X",
"1X1X1X1X1X1X1X1X1X1X1X1X1X1X1X1X1X1X1X1X1X1X1X1X1X1X1X1X1X1X) M.M.z.1X1X1X1X1X1X1X1X1X1X1X1X1X1X1X1X1X1X1X1X1X1X1X1X1X1X1X1X1X1X",
"1X1X1X1X1X1X1X1X1X1X1X1X1X1X1X1X1X1X1X1X1X1X1X1X1X) L.M.<.2.M.-X-X{.<.z.z.z.1X1X1X1X1X1X1X1X1X1X1X1X1X1X1X1X1X1X1X1X1X1X1X1X1X1X",
"1X1X1X1X1X1X1X1X1X1X1X1X1X1X1X1X1X1X1X1X1X1X1X1Xd.B.$X/.K.B.).`.U.(.Y.{.=X%XM.1X1X1X1X1X1X1X1X1X1X1X1X1X1X1X1X1X1X1X1X1X1X1X1X1X",
"1X1X1X1X1X1X1X1X1X1X1X1X1X1X1X1X1X1X1X1X1X1X1X' (.(.m.l.E.E.T.N.l.N._.[.=X=XOX) 1X1X1X1X1X1X1X1X1X1X1X1X1X1X1X1X1X1X1X1X1X1X1X1X",
"1X1X1X1X1X1X1X1X1X1X1X1X1X1X1X1X1X1X1X1X1X1X1Xz.B.m.D.F.D.T.D.D.G.D.D._.=X=X%XM.1X1X1X1X1X1X1X1X1X1X1X1X1X1X1X1X1X1X1X1X1X1X1X1X",
"1X1X1X1X1X1X1X1X1X1X1X1X1X1X1X1X1X1X1X1X1X<.l.G.F.W.R.E.D.D.D._.{.{.G.G.{.=X=X{.z.2.N.u.1X1X1X1X1X1X1X1X1X1X1X1X1X1X1X1X1X1X1X1X",
"1X1X1X1X1X1X1X1X1X1X1X1X1X1X1X1X1X1X*.2.<.c.R.b.R.~.`.[.).b.R.@X=X=X{.b.~.@X&X@X{.' d.c.n.1X1X1X1X1X1X1X1X1X1X1X1X1X1X1X1X1X1X1X",
"1X1X1X1X1X1X1X1X1X1X1X1X1X1X1X1X1X<.<.J.v.N.N.D.~.[.&X=X@XP.G.%X=X=X@XG.N.(.#X=XOXM.z._.).n.c.1X1X1X1X1X1X1X1X1X1X1X1X1X1X1X1X1X",
"1X1X1X1X1X1X1X1X1X1X1X1X1X1X1X1X5.v.H.T.F.R.b.I.~.@X=X=X&X[.b.{.&X&X%X[.D.N.G._.@X{.{.'.[._.).n.1X1X1X1X1X1X1X1X1X1X1X1X1X1X1X1X",
"1X1X1X1X1X1X1X1X1X1X1X1X1X1X1X<.v.F.T.T.~.!.G.R.~.{.@X&X@X[.P.F.~._.{.+X[.P.P.~.{.+X{.@X+X@X[.).n.1X1X1X1X1X1X1X1X1X1X1X1X1X1X1X",
"1X1X1X1X1X1X1X1X1X1X1X1X1X1X<.v.G.R.T.R.R.!.~.!.~.[.@X{.{.[.{.P.!.).'.[.{.{.{.@X%X#X#X#X#X#X+X[.E.n.1X1X1X1X1X1X1X1X1X1X1X1X1X1X",
"1X1X1X1X1X1X1X1X1X1X1X1X1X*.v.G.T.T.E.~.!.!.R.~.!.[.{.{.{.{.{.{.{.'.'.'.'.+X+X#X#X#X@X@X#X@X#X`.(.T.1.1X1X1X1X1X1X1X1X1X1X1X1X1X",
"1X1X1X1X1X1X1X1X1X1X1X1X1X>.c.T.T.R.~.~.!.R.~.~.~.'.[.[.{.{.{.'.'.'.'.'.+X#X#X#X#X#X*X;X*X*X#X+X'.T.n.1X1X1X1X1X1X1X1X1X1X1X1X1X",
"1X1X1X1X1X1X1X1X1X1X1X1X*.x.G.T.T.~.~.~.~.~.~._._.'.[.'.[.{.[.'.'.`.'.+X#X#X#X#X@X;X>X>X>X>X*X#X'.(.T.1.1X1X1X1X1X1X1X1X1X1X1X1X",
"1X1X1X1X1X1X1X1X1X1X1X1X>.c.E.E.R.~._._._._._.`.'.'.'.'.'.'.'.'.'.+X+X#X#X#X@X#X;X>X>X>X>X>X>X@X[.[.T.n.1X1X1X1X1X1X1X1X1X1X1X1X",
"1X1X1X1X1X1X1X1X1X1X1X*.1.c.I.E.~.~._._.`.`.[.[.'.'.{.'.'.'._.+X+X#X#X#X@X@X*X*X>X>X>X>X>X>X>X#X'.'.(.E.d.1X1X1X1X1X1X1X1X1X1X1X",
"1X1X1X1X1X1X1X1X1X1X1X*.5.v.T.E._._._.`.[.[.[.[.'.+X+X{.[.+X+X#X#X#X#X#X;X*X>X>X>X>X>X>X>X>X>X#X{.'.[.I.1.1X1X1X1X1X1X1X1X1X1X1X",
"1X1X1X1X1X1X1X1X1X1X1X>.v.v.I.E._._.`.[.[.[.[.{.+X+X@X@X@X#X#X#X#X#X*X*X>X>X>X>X>X>X>X>X>X>X>X#X#X[.[.I.l.1X1X1X1X1X1X1X1X1X1X1X",
"1X1X1X1X1X1X1X1X1X1X*.5.v.v.I.E.~.[.`.[.[.{.{.@X@X@X@X#X#X#X#X#X#X*X>X>X>X;X>X>X>X>X>X>X>X>X>X#X#X[.'.E.v.1.1X1X1X1X1X1X1X1X1X1X",
"1X1X1X1X1X1X1X1X1X1X*.1.c.v.T.E._._.[.[.{.{.@X@X+X$X#X#X#X#X#X#X*X>X>X>X;X;X>X>X>X>X>X>X>X>X*X#X#X[.[.T.c.1.1X1X1X1X1X1X1X1X1X1X",
"1X1X1X1X1X1X1X1X1X1X*.<.c.v.T.E.[.[.[.[.{.{.+X$X=X=X+X#X#X#X#X#X>X>X>X;X<X<X>X>X>X>X>X>X>X>X#X#X+X[.'.T.v.1.1X1X1X1X1X1X1X1X1X1X",
"1X1X1X1X1X1X1X1X1X1X*.5.c.v.T.T.~._.[.[.{.{.%X*X;.2.=X#X#X#X#X#X>X>X>X,Xy.y.,X>X>X>X>X>X>X*X#X#X[.[.[.T.c.5.1X1X1X1X1X1X1X1X1X1X",
"1X1X1X1X1X1X1X1X1X1X*.<.c.v.T.T.T.`.`.'.[.{.$X:.X X *.$X#X#X#X#X*X>X>Xy.% X r.>X>X>X*X*X*X#X#X+X[.'.!.T.v.<.1X1X1X1X1X1X1X1X1X1X",
"1X1X1X1X1X1X1X1X1X1X*.5.c.v.T.T.T.!.[.'.'.[./.$ .   ; OX#X$X#X#X#X*X$X$     ; $X*X*X#X#X#X#X+X'.[.'.E.E.v.1.1X1X1X1X1X1X1X1X1X1X",
"1X1X1X1X1X1X1X1X1X1X1X>.l.v.T.T.T.T.).'.[.[.(.s.t.. 4 OX%X#X#X#X#X#X$Xs.t.. 5 {.#X#X#X#X#X+X'.[.[.[.E.F.l.1X1X1X1X1X1X1X1X1X1X1X",
"1X1X1X1X1X1X1X1X1X1X1X*.<.c.G.T.T.T.T.!.[.[.'.s.r.q 4 OX%X#X#X#X#X#X$Xs.r.q 5 OX%X#X#X+X+X'.[.[.[.!.T.b.1.1X1X1X1X1X1X1X1X1X1X1X",
"1X1X1X1X1X1X1X1X1X1X1X*.1.v.c.T.E.T.T.T.W._.Q.$ & 0.y /.@XOX+X#X#X%XOX= & 0.y ].@X+XOX`.`.'.[.[.).T.E.m.1.1X1X1X1X1X1X1X1X1X1X1X",
"1X1X1X1X1X1X1X1X1X1X1X1X=.f.b.G.E.E.E.K.K.K.I.8 q.|.i _.[.'.'.+X+X@X_.y q.a._ (.'.'.'.[.[.[.).W.T.E.N.<.1X1X1X1X1X1X1X1X1X1X1X1X",
"1X1X1X1X1X1X1X1X1X1X1X1X^ 5.v.v.F.E.E.E.E.W.J.i |. Xi E.{.[.[.[.'.'.~.i |. Xi !.].(.)._.(.).T.T.R.G.b.) 1X1X1X1X1X1X1X1X1X1X1X1X",
"1X1X1X1X1X1X1X1X1X1X1X1X1X-.x.v.n.A.A.A.A.A.E.y.e.w.,.K.).!.R.!.!.).W.y.e.w.y.~.A.A.C.C.A.R.T.E.J.v.,.1X1X1X1X1X1X1X1X1X1X1X1X1X",
"1X1X1X1X1X1X1X1X1X1X1X1X1X1X=.l.j.#.g.g.g.g.h.E.=.=.W.J.K.K.T.T.K.K.J.W.-.-.T.h.$.g.g.g.g.h.I.G.v.2.1X1X1X1X1X1X1X1X1X1X1X1X1X1X",
"1X1X1X1X1X1X1X1X1X1X1X1X1X1X1X=.4.#.$.$.#.$.h.E.).).K.3.!.W.Z.D.W.E.3.H.).).K.k.@.#.#.#.7.7.H.v.2.1X1X1X1X1X1X1X1X1X1X1X1X1X1X1X",
"1X1X1X1X1X1X1X1X1X1X1X1X1X1X1X1X*.] 4.j.6.j.G.G.T.T.T.8.6.6.Z.V.6.6.j.T.T.T.R.R.C.h.h.j.j.b.>.>.1X1X1X1X1X1X1X1X1X1X1X1X1X1X1X1X",
"1X1X1X1X1X1X1X1X1X1X1X1X1X1X1X1X1X1X[ 2.b.b.f.l.G.G.H.H.4.3.G.G.3.4.H.H.F.H.G.F.B.G.F.b.2.' 1X1X1X1X1X1X1X1X1X1X1X1X1X1X1X1X1X1X",
"1X1X1X1X1X1X1X1X1X1X1X1X1X1X1X1X1X1X1X1X' =.-.>.5.l.l.l.b.z.l.l.z.z.l.l.l.l.f.f.=.*.' =.1X1X1X1X1X1X1X1X1X1X1X1X1X1X1X1X1X1X1X1X",
"1X1X1X1X1X1X1X1X1X1X1X1X1X1X1X1X1X1X1X1X1X1XD D -.;.' ' *.:.:.:.;.;.>.*.' *.:.=.W W 1X1X1X1X1X1X1X1X1X1X1X1X1X1X1X1X1X1X1X1X1X1X",
"1X1X1X1X1X1X1X1X1X1X1X1X1X1X1X1X1X1X1X1X1X1Xn n Z Z O.O.] 0 Z Z Z Z 0 ] O.O.Z Z n C 1X1X1X1X1X1X1X1X1X1X1X1X1X1X1X1X1X1X1X1X1X1X",
"1X1X1X1X1X1X1X1X1X1X1X1X1X1X1X1X1X1X1X1X| m m x a f { 9.@.b : a f : F @.9.{ z a x K K 1X1X1X1X1X1X1X1X1X1X1X1X1X1X1X1X1X1X1X1X1X",
"1X1X1X1X1X1X1X1X1X1X1X1X1X1X1X1X1X1X1X1X| V l k h h k { S.S.` g , / S.S.H z m v k m J 1X1X1X1X1X1X1X1X1X1X1X1X1X1X1X1X1X1X1X1X1X",
"1X1X1X1X1X1X1X1X1X1X1X1X1X1X1X1X1X1X1X@.| K l h h l B N +.XXXXh ( .XXX+.} L G I h l J I 1X1X1X1X1X1X1X1X1X1X1X1X1X1X1X1X1X1X1X1X",
"1X1X1X1X1X1X1X1X1X1X1X1X1X1X1X1X1X1XE.8.X.m k h h M V I N ..X.+..X.X+.} k.I L U l k C 8.d.1X1X1X1X1X1X1X1X1X1X1X1X1X1X1X1X1X1X1X",
"1X1X1X1X1X1X1X1X1X1X1X1X1X1X1X1X1X1X-X/.d.Z g h z B n n N ..+..X.X+.H h.j.L L L B h 3.U.u.1X1X1X1X1X1X1X1X1X1X1X1X1X1X1X1X1X1X1X",
"1X1X1X1X1X1X1X1X1X1X1X1X1X1X1X1X1X*X#XY.u.) k a M M %.#.4.oXoX^.@.M o.k.k.T P P M k Q.Q.d.1X1X1X1X1X1X1X1X1X1X1X1X1X1X1X1X1X1X1X",
"1X1X1X1X1X1X1X1X1X1X1X1X1X1X1X1X1X-X*XU.1.~ - 6 A A i.i.p.i.i.y.R W ` [ [ E R R A 6 <.d.1X1X1X1X1X1X1X1X1X1X1X1X1X1X1X1X1X1X1X1X",
"1X1X1X1X1X1X1X1X1X1X1X1X1X1X1X1X1XL.$XQ.d.~ . e t * * * t r r r p p p p r w e w e + 1X1X1X1X1X1X1X1X1X1X1X1X1X1X1X1X1X1X1X1X1X1X",
"1X1X1X1X1X1X1X1X1X1X1X1X1X1X1X1X1X1Xu.u.;.!   O o o o o + + + + o + @ @ @ o # o O   1X1X1X1X1X1X1X1X1X1X1X1X1X1X1X1X1X1X1X1X1X1X",
"1X1X1X1X1X1X1X1X1X1X1X1X1X1X1X1X1X1X1X1X1X1X1X= - > > 2 1 1 2 1 1 2 6 8 0 2 1 > = . 1X1X1X1X1X1X1X1X1X1X1X1X1X1X1X1X1X1X1X1X1X1X",
"1X1X1X1X1X1X1X1X1X1X1X1X1X1X1X1X1X1X1X1X1X1X1Xk j C C P T Y Y Y |  .&.S.S.Y Y m k 1X1X1X1X1X1X1X1X1X1X1X1X1X1X1X1X1X1X1X1X1X1X1X",
"1X1X1X1X1X1X1X1X1X1X1X1X1X1X1X1X1X1X1X1X1X1X1Xg a k l M G G G G V G | o.o.F x h g 1X1X1X1X1X1X1X1X1X1X1X1X1X1X1X1X1X1X1X1X1X1X1X",
"1X1X1X1X1X1X1X1X1X1X1X1X1X1X1X1X1X1X1X1X1X1X1X1Xc E , d d d k k k l k z l , , g 1X1X1X1X1X1X1X1X1X1X1X1X1X1X1X1X1X1X1X1X1X1X1X1X",
"1X1X1X1X1X1X1X1X1X1X1X1X1X1X1X1X1X1X1X1X1X1X1X1Xu u.' ] ] W c g g , : : : < < > 1X1X1X1X1X1X1X1X1X1X1X1X1X1X1X1X1X1X1X1X1X1X1X1X",
"1X1X1X1X1X1X1X1X1X1X1X1X1X1X1X1X1X1X1X1X1X1X1X1X1X^ L.U.L.) 1X1X1X> E / / ' Z , 1X1X1X1X1X1X1X1X1X1X1X1X1X1X1X1X1X1X1X1X1X1X1X1X",
"1X1X1X1X1X1X1X1X1X1X1X1X1X1X1X1X1X1X1X1X1X1X1X1X1X1X! ! ! 1X1X1X1X6 x.Y.L.L.x.6 1X1X1X1X1X1X1X1X1X1X1X1X1X1X1X1X1X1X1X1X1X1X1X1X",
"1X1X1X1X1X1X1X1X1X1X1X1X1X1X1X1X1X1X1X1X1X1X1X1X1X1X1X1X1X1X1X1X1Xu ^ ! ! ! ~ u 1X1X1X1X1X1X1X1X1X1X1X1X1X1X1X1X1X1X1X1X1X1X1X1X",
"1X1X1X1X1X1X1X1X1X1X1X1X1X1X1X1X1X1X1X1X1X1X1X1X1X1X1X1X1X1X1X1X1X9 8 8 8 8 8 9 1X1X1X1X1X1X1X1X1X1X1X1X1X1X1X1X1X1X1X1X1X1X1X1X",
"1X1X1X1X1X1X1X1X1X1X1X1X1X1X1X1X1X1X1X1X1X1X1X1X1X1X1X1X1X1X1X1X1X1X9 9 9 9 u 1X1X1X1X1X1X1X1X1X1X1X1X1X1X1X1X1X1X1X1X1X1X1X1X1X",
"1X1X1X1X1X1X1X1X1X1X1X1X1X1X1X1X1X1X1X1X1X1X1X1X1X1X1X1X1X1X1X1X1X1X1X1X1X1X1X1X1X1X1X1X1X1X1X1X1X1X1X1X1X1X1X1X1X1X1X1X1X1X1X1X",
"1X1X1X1X1X1X1X1X1X1X1X1X1X1X1X1X1X1X1X1X1X1X1X1X1X1X1X1X1X1X1X1X1X1X1X1X1X1X1X1X1X1X1X1X1X1X1X1X1X1X1X1X1X1X1X1X1X1X1X1X1X1X1X1X",
"1X1X1X1X1X1X1X1X1X1X1X1X1X1X1X1X1X1X1X1X1X1X1X1X1X1X1X1X1X1X1X1X1X1X1X1X1X1X1X1X1X1X1X1X1X1X1X1X1X1X1X1X1X1X1X1X1X1X1X1X1X1X1X1X"
};
