/* XPM */
static char *result[] = {
/* columns rows colors chars-per-pixel */
"64 64 201 2 ",
"   c #010101",
".  c #050F0F",
"X  c #071212",
"o  c #0C1111",
"O  c #131C1D",
"+  c #121717",
"@  c #060F10",
"#  c #383735",
"$  c #450E06",
"%  c #5F0700",
"&  c #4D140B",
"*  c #660F04",
"=  c #7A0E02",
"-  c #68160A",
";  c #7C1C0D",
":  c #761506",
">  c #7C1F10",
",  c #6D2116",
"<  c #6E251A",
"1  c #7D2112",
"2  c #712519",
"3  c #6D2F25",
"4  c #743625",
"5  c #6F372E",
"6  c #774236",
"7  c #3B4342",
"8  c #374140",
"9  c #585B5A",
"0  c #565958",
"q  c #7B5744",
"w  c #5A6464",
"e  c #951E0D",
"r  c #98200F",
"t  c #8D2312",
"y  c #822010",
"u  c #932413",
"i  c #9E2513",
"p  c #A42816",
"a  c #AD2C19",
"s  c #AA2715",
"d  c #B32C19",
"f  c #B52916",
"g  c #BB301C",
"h  c #A1200E",
"j  c #BB3925",
"k  c #AA3F2E",
"l  c #C72C17",
"z  c #C3321E",
"x  c #CD331F",
"c  c #D7331D",
"v  c #E7361F",
"b  c #CB3923",
"n  c #D43A24",
"m  c #D73721",
"M  c #E53B24",
"N  c #8E4136",
"B  c #954B3A",
"V  c #934738",
"C  c #8D503E",
"Z  c #90513E",
"A  c #AA4E3B",
"S  c #AC523F",
"D  c #AA402F",
"F  c #DB422B",
"G  c #D24D39",
"H  c #E8442C",
"J  c #E54C35",
"K  c #F34D34",
"L  c #EA543C",
"P  c #E4523B",
"I  c #FD593F",
"U  c #F8553C",
"Y  c #9B4F42",
"T  c #9C5145",
"R  c #AA5E52",
"E  c #916854",
"W  c #956B5A",
"Q  c #986858",
"!  c #96725D",
"~  c #99725D",
"^  c #AA745B",
"/  c #AE6A5F",
"(  c #9C7965",
")  c #AD6B60",
"_  c #A17F69",
"`  c #AD7B64",
"'  c #B67762",
"]  c #AB7E76",
"[  c #C45341",
"{  c #D35B49",
"}  c #E95C45",
"|  c #E25943",
" . c #FE5D43",
".. c #D6664E",
"X. c #D56757",
"o. c #E9614A",
"O. c #EC6A57",
"+. c #C57867",
"@. c #D57668",
"#. c #E8786A",
"$. c #E67D7B",
"%. c #E87E7B",
"&. c #E27F71",
"*. c #FE7B65",
"=. c #A3826C",
"-. c #AA836D",
";. c #A58571",
":. c #AD8570",
">. c #AC8A73",
",. c #B28D75",
"<. c #B88F76",
"1. c #B69277",
"2. c #BC967B",
"3. c #BF987D",
"4. c #B79279",
"5. c #D4886C",
"6. c #D88B77",
"7. c #C19A7F",
"8. c #DF987B",
"9. c #F68573",
"0. c #E3927B",
"q. c #E18173",
"w. c #AA918D",
"e. c #BD9C82",
"r. c #AA9692",
"t. c #B9A394",
"y. c #C69D83",
"u. c #CB9D82",
"i. c #E98C8A",
"p. c #E39280",
"a. c #ED998B",
"s. c #EA9486",
"d. c #F59687",
"f. c #EF9E92",
"g. c #C4A086",
"h. c #CCA285",
"j. c #CDA589",
"k. c #CCA98B",
"l. c #C0A78C",
"z. c #D1A68A",
"x. c #D6AA8C",
"c. c #D9AD8E",
"v. c #D7AD91",
"b. c #DCAE91",
"n. c #CDB192",
"m. c #CCB99A",
"M. c #DDB194",
"N. c #DDB899",
"B. c #E4A588",
"V. c #EEA596",
"C. c #EAAB94",
"Z. c #EDAB99",
"A. c #F7A899",
"S. c #E0B696",
"D. c #E1B996",
"F. c #E2B698",
"G. c #E5BA9B",
"H. c #EBBD9E",
"J. c #EAB197",
"K. c #D0BFA0",
"L. c #EEBEA2",
"P. c #F1B5A4",
"I. c #DDC3A5",
"U. c #E4C4A2",
"Y. c #EEC2A4",
"T. c #EDCCAA",
"R. c #E6CCAC",
"E. c #F1C5A6",
"W. c #F3CAA6",
"Q. c #F3C7A8",
"!. c #F4CBAA",
"~. c #F9CDAE",
"^. c #E4D1AE",
"/. c #F6D2AC",
"(. c #F8D6AD",
"). c #F5C9B3",
"_. c #FCC4BB",
"`. c #F5D6B1",
"'. c #FBD4B2",
"]. c #F6DAB3",
"[. c #F8DEB6",
"{. c #F9DFB8",
"}. c #F5DCB9",
"|. c #F9E0B7",
" X c #F9E2BA",
".X c #FCE8BF",
"XX c #F7CAC3",
"oX c #F9D3CC",
"OX c #FFDAD2",
"+X c #F7E5C2",
"@X c #FAE6C1",
"#X c #FAEBC5",
"$X c #FBEDCA",
"%X c #FCF4CB",
"&X c #FEF0C6",
"*X c #FBF0D6",
"=X c #FEFBD3",
"-X c #FEFCD9",
";X c #FBF4E3",
":X c #FFFFE1",
">X c None",
/* pixels */
">X>X>X>X>X>X>X>X>X>X>X>X>X>X>X>X>X>X>X>X>X>X>X>X>X>X>X>X>X>X>X>X>X>X>X>X>X>X>X>X>X>X>X>X>X>X>X>X>X>X>X>X>X>X>X>X>X>X>X>X>X>X>X>X",
">X>X>X>X>X>X>X>X>X>X>X>X>X>X>X>X>X>X>X>X>X>X>X>X>X>X>X>X>X>X>X>X>X>X>X>X>X>X>X>X>X>X>X>X>X>X>X>X>X>X>X>X>X>X>X>X>X>X>X>X>X>X>X>X",
">X>X>X>X>X>X>X>X>X>X>X>X>X>X>X>X>X>X>X>X>X>X>X>X>X>X>X>X>X>X>X>X>X>X>X>X>X>X>X>X>X>X>X>X>X>X>X>X>X>X>X>X>X>X>X>X>X>X>X>X>X>X>X>X",
">X>X>X>X>X>X>X>X>X>X>X>X>X>X>X>X>X>X>X>X>X>X>X>X>X>X>X>X>X>X>X>X>X>X>X>X>X>X>X>X>X>X>X>X>X>X>X>X>X>X>X>X>X>X>X>X>X>X>X>X>X>X>X>X",
">X>X>X>X>X>X>X>X>X>X>X>X>X>X>X>X>X>X>X>X>X>X>X>X>X>X>X>X>X>X>X>X>X>X>X>X>X>X>X>X>X>X>X>X>X>X>X>X>X>X>X>X>X>X>X>X>X>X>X>X>X>X>X>X",
">X>X>X>X>X>X>X>X>X>X>X>X>X>X>X>X>X>X>X>X>X>X>X>X>X>X>X>X>X>X( m.m.n.=.>X>X>X>X>X>X>X>X>X>X>X>X>X>X>X>X>X>X>X>X>X>X>X>X>X>X>X>X>X",
">X>X>X>X>X>X>X>X>X>X>X>X>X>X>X>X>X>X>X>X>X>X>X>X>X( m.m.j.4.n.-X=X X2.k.k.k.>X>X>X>X>X>X>X>X>X>X>X>X>X>X>X>X>X>X>X>X>X>X>X>X>X>X",
">X>X>X>X>X>X>X>X>X>X>X>X>X>X>X>X>X>X>X>X>X>X>X>Xg.K.-X#XH.G.'.}.}.U.H.#X=X%Xn.>X>X>X>X>X>X>X>X>X>X>X>X>X>X>X>X>X>X>X>X>X>X>X>X>X",
">X>X>X>X>X>X>X>X>X>X>X>X>X>X>X>X>X>X>X>X>X>X>X_ W.=XU.c.j.Q.E.E.M.h.F.'.$X=X+X=.>X>X>X>X>X>X>X>X>X>X>X>X>X>X>X>X>X>X>X>X>X>X>X>X",
">X>X>X>X>X>X>X>X>X>X>X>X>X>X>X>X>X>X>X>X>X>X>Xk.Y.G.M.S.F.S.E.S.S.G.S.N.].=X%Xn.>X>X>X>X>X>X>X>X>X>X>X>X>X>X>X>X>X>X>X>X>X>X>X>X",
">X>X>X>X>X>X>X>X>X>X>X>X>X>X>X>X>X>X>X>X=.4.2.Q.G.M.!.~.W.S.D.S.[. X XG.G. X=X&Xk.>.M.e.>X>X>X>X>X>X>X>X>X>X>X>X>X>X>X>X>X>X>X>X",
">X>X>X>X>X>X>X>X>X>X>X>X>X>X>X>X>X>X=.1.2.z.G.Y.z.!./.[.{.`.j.!.#X=X=X Xz.`. X=X%Xn.y.v.v.2.>X>X>X>X>X>X>X>X>X>X>X>X>X>X>X>X>X>X",
">X>X>X>X>X>X>X>X>X>X>X>X>X>X>X>X>X2.2.J.c.S.W.D.G.W. X%X=X#XU.D.$X=X=X$XG.M.(.#X=X$Xn.`.'.v.x.>X>X>X>X>X>X>X>X>X>X>X>X>X>X>X>X>X",
">X>X>X>X>X>X>X>X>X>X>X>X>X>X>X>X7.c.H.E.D.W.W.z.E./.#X=X=X%X|.k. X&X%X%X XD.M.G.{. X.X{.[.'.'.v.>X>X>X>X>X>X>X>X>X>X>X>X>X>X>X>X",
">X>X>X>X>X>X>X>X>X>X>X>X>X>X>X2.c.G.E.E.E.W.W.D.W./. X%X%X#X}.U.D./.]. X.X|.U.U./. X+X@X@X#X@X/.v.>X>X>X>X>X>X>X>X>X>X>X>X>X>X>X",
">X>X>X>X>X>X>X>X>X>X>X>X>X>X2.c.G.E.E.W.W./././././.|.#X.X|.|.{.U.!.`.{. X X X X#X$X$X%X$X$X$X#X'.v.>X>X>X>X>X>X>X>X>X>X>X>X>X>X",
">X>X>X>X>X>X>X>X>X>X>X>X>X=.c.G.Q.E.E./././.W./././.|. X|.|. X X X X X[.{.].+X+X$X$X$X#X$X#X$X$X XY.3.>X>X>X>X>X>X>X>X>X>X>X>X>X",
">X>X>X>X>X>X>X>X>X>X>X>X>X,.x.E.E.E.W././././././.(.|.|.|. X X.X|.{.{. X{.+X$X$X$X$X#X*X*X*X*X$X@X/.M.>X>X>X>X>X>X>X>X>X>X>X>X>X",
">X>X>X>X>X>X>X>X>X>X>X>X=.h.G.E.E.E./.(.(.(./.(.].'.{. X|.|. X X X|.{.{.@X$X$X$X$X$X*X;X;X;X;X*X$X XY.3.>X>X>X>X>X>X>X>X>X>X>X>X",
">X>X>X>X>X>X>X>X>X>X>X>X,.c.E.E.Q.!.(.(.].(.].].[.[.{.{.|.|.|.|.[.|.@X@X$X$X$X$X#X*X;X;X;X;X;X;X$X X!.v.>X>X>X>X>X>X>X>X>X>X>X>X",
">X>X>X>X>X>X>X>X>X>X>X=.3.c.Y.Q.W.(.].].].].|.|.{.{.{. X{. X{.{.@X#X$X$X$X$X#X*X*X;X;X;X;X*X;X;X$X{./.W.e.>X>X>X>X>X>X>X>X>X>X>X",
">X>X>X>X>X>X>X>X>X>X>X=.y.v.Y.Q.E.(.].].|.|.|.|.{.@X@X X X{.@X@X$X$X#X$X$X*X*X;X;X;X;X;X;X;X;X;X$X.X{.Y.3.>X>X>X>X>X>X>X>X>X>X>X",
">X>X>X>X>X>X>X>X>X>X>X,.x.c.Y.W.E.].[.[.|.|.|.|. X@X#X@X#X@X$X$X$X#X$X*X*X;X;X;X;X;X;X;X;X;X;X;X$X$X|.Y.h.>X>X>X>X>X>X>X>X>X>X>X",
">X>X>X>X>X>X>X>X>X>X=.3.c.c.Y.Q.W.].[.|.|.|.|. X@X#X$X$X$X$X$X$X$X$X*X;X;X;X;X;X;X;X;X;X;X;X;X;X$X$X{.E.c.3.>X>X>X>X>X>X>X>X>X>X",
">X>X>X>X>X>X>X>X>X>X=.3.x.c.Y.Q.W.'.|.|.{. X X@X#X#X#X$X$X$X$X$X$X*X;X;X;X;X;X;X;X;X;X;X;X;X;X*X$X$X XE.x.3.>X>X>X>X>X>X>X>X>X>X",
">X>X>X>X>X>X>X>X>X>X=.2.x.c.Y.W.E.'.[.|.|.{. X#X#X#X$X$X$X$X$X$X$X;X;X;X;X;X;X;X;X;X;X;X;X;X;X$X$X@X[.E.c.3.>X>X>X>X>X>X>X>X>X>X",
">X>X>X>X>X>X>X>X>X>X=.2.c.c.Y.Q.E./.].|. X X X#X$X$X$X$X$X$X$X$X$X;X;X;X;X;X;X;X;X;X;X;X;X;X*X$X$X|.[.E.x.3.>X>X>X>X>X>X>X>X>X>X",
">X>X>X>X>X>X>X>X>X>X=.7.c.c.Y.Q.E.E.[.|.{. X X$X$X$X$X$X$X$X$X$X$X*X;X;X;X;X;X;X;X;X;X*X*X*X$X$X@X X XE.x.3.>X>X>X>X>X>X>X>X>X>X",
">X>X>X>X>X>X>X>X>X>X=.3.c.c.Y.W.E.E./.|.|.{.{.+X$X#X$X$X$X$X$X$X$X$X*X*X*X*X*X*X*X*X*X$X$X$X$X@X{.{./.Q.c.3.>X>X>X>X>X>X>X>X>X>X",
">X>X>X>X>X>X>X>X>X>X>X,.u.c.E.Q.E.E.E./.|.|.{.{.@X$X$X#X$X$X$X$X$X$X$X$X$X$X#X$X$X$X$X#X$X$X@X[.|.|.Y.G.h.>X>X>X>X>X>X>X>X>X>X>X",
">X>X>X>X>X>X>X>X>X>X>X=.2.c.G.E.Q.E.E.E./. X X{.}. X#X#X$X$X$X$X$X$X$X$X+X$X$X#X$X$X$X$X@X@X[.[. X/.E.z.3.>X>X>X>X>X>X>X>X>X>X>X",
">X>X>X>X>X>X>X>X>X>X>X=.3.c.z.E.W.E.E.E.Y.!.`.|.$X[.{.%X@X@X@X@X$X$X$X$X-X$X#X-X@X+X#X X{.{. X{.`.E.W.M.3.>X>X>X>X>X>X>X>X>X>X>X",
">X>X>X>X>X>X>X>X>X>X>X>X:.u.x.G.Q.E.E.E.L.L.L.R._ #X#X_ ]. X].{.@X@X#X}.;.%X%X=.`.{.{.{.|.|.`.~.Y.Q.F.4.>X>X>X>X>X>X>X>X>X>X>X>X",
">X>X>X>X>X>X>X>X>X>X>X>X! 3.c.x.F.Q.!.!.W.Q.W.L.E ! ! Q T. X|.|. X{.|.].( ! ! ( ]. X].`.`.`.E.Y.W.G.z.( >X>X>X>X>X>X>X>X>X>X>X>X",
">X>X>X>X>X>X>X>X>X>X>X>X>X-.h.c.x.G.Z.Z.Z.V.Z.!.~.Q Q ~.Q./././.!.`.!.`.{.W E {.{.L.V.V.V.Z.!.W.G.c.<.>X>X>X>X>X>X>X>X>X>X>X>X>X",
">X>X>X>X>X>X>X>X>X>X>X>X>X>X-.k.v.6.%.i.i.i.i.a.L.'.'.L.J.L.Y.Q.Q.L.L.Z.L.'.'.L.s.%.i.i.i.i.a.F.c.<.>X>X>X>X>X>X>X>X>X>X>X>X>X>X",
">X>X>X>X>X>X>X>X>X>X>X>X>X>X>X-.j.6.#.$.$.$.$.s.E.E.L.L.5.E.E.B.B.Q.E.5.L.E.L.E.s.#.$.$.$.%.p.c.<.>X>X>X>X>X>X>X>X>X>X>X>X>X>X>X",
">X>X>X>X>X>X>X>X>X>X>X>X>X>X>X>X-.:.6.i.0.8.p.L.E.E.E.E.B.8.0.C.C.8.0.B.E.Q.Q.Q.!.V.a.p.p.6.1.<.>X>X>X>X>X>X>X>X>X>X>X>X>X>X>X>X",
">X>X>X>X>X>X>X>X>X>X>X>X>X>X>X>X>X( =.4.j.z.z.h.J.H.G.H.U.5.5.G.H.5.5.U.H.G.G.G.M.N.N.k.1.-.W >X>X>X>X>X>X>X>X>X>X>X>X>X>X>X>X>X",
">X>X>X>X>X>X>X>X>X>X>X>X>X>X>X>X>X>X>XW -.-.-.,.7.u.h.u.h.k.k.h.h.k.z.h.u.j.u.u.;.=.` -.W >X>X>X>X>X>X>X>X>X>X>X>X>X>X>X>X>X>X>X",
">X>X>X>X>X>X>X>X>X>X>X>X>X>X>X>X>X>X>X>X>X>XA S :.>.=.=.=.>.>.>.>.>.>.=.-.=.>.;.T A >X>X>X>X>X>X>X>X>X>X>X>X>X>X>X>X>X>X>X>X>X>X",
">X>X>X>X>X>X>X>X>X>X>X>X>X>X>X>X>X>X>X>X>X>Xl l V B +.+.+.6 B B B B 6 ' ' +.B A x l >X>X>X>X>X>X>X>X>X>X>X>X>X>X>X>X>X>X>X>X>X>X",
">X>X>X>X>X>X>X>X>X>X>X>X>X>X>X>X>X>X>X>X>Xz z g e e [ 9.O.D = r e = D *.9.[ f h g z x | >X>X>X>X>X>X>X>X>X>X>X>X>X>X>X>X>X>X>X>X",
">X>X>X>X>X>X>X>X>X>X>X>X>X>X>X>X>X>X>X>X} m g p u t s [ A.A.) 1 : ) A.Z.G s c j p g m } >X>X>X>X>X>X>X>X>X>X>X>X>X>X>X>X>X>X>X>X",
">X>X>X>X>X>X>X>X>X>X>X>X>X>X>X>X>X>X>X9.} H d u u d m b +.OXoXu ) XXoX@.{ J F J u d H } #.>X>X>X>X>X>X>X>X>X>X>X>X>X>X>X>X>X>X>X",
">X>X>X>X>X>X>X>X>X>X>X>X>X>X>X>X>X>Xf.} J b p u u c n L n X.X.@.XXXX@.{ d.L P J d p x J } V.>X>X>X>X>X>X>X>X>X>X>X>X>X>X>X>X>X>X",
">X>X>X>X>X>X>X>X>X>X>X>X>X>X>X>X>XP.f.} M a u u f x l l n X.@.XXXX@.G a.s.J J J n u a M o.V.>X>X>X>X>X>X>X>X>X>X>X>X>X>X>X>X>X>X",
">X>X>X>X>X>X>X>X>X>X>X>X>X>X>X>X>Xf.a.L v d p e c c &.$.6.oXOX_.#.c O.d.d.U K U c r d v U a.f.>X>X>X>X>X>X>X>X>X>X>X>X>X>X>X>X>X",
">X>X>X>X>X>X>X>X>X>X>X>X>X>X>X>X>X).).0...a & 5 N N w.w.t.r.r.w.Y R ) ] ] T Y Y N 3 d ..0.).).>X>X>X>X>X>X>X>X>X>X>X>X>X>X>X>X>X",
">X>X>X>X>X>X>X>X>X>X>X>X>X>X>X>X>X:X-X^.t.>X  7 7 0 # # 0 9 0 9 w w w 9 9 7 8 7 8 O >Xt.^.-X:X>X>X>X>X>X>X>X>X>X>X>X>X>X>X>X>X>X",
">X>X>X>X>X>X>X>X>X>X>X>X>X>X>X>X>XI.+XT.7.>X  o X X . . O O O O O O X + + X @ X o   >Xy.T.+XI.>X>X>X>X>X>X>X>X>X>X>X>X>X>X>X>X>X",
">X>X>X>X>X>X>X>X>X>X>X>X>X>X>X>X>X>Xe.e.>X>X>X$ $ - - < , , , , , , 3 q 6 < , - $ >X>X>Xe.e.>X>X>X>X>X>X>X>X>X>X>X>X>X>X>X>X>X>X",
">X>X>X>X>X>X>X>X>X>X>X>X>X>X>X>X>X>X>X>X>X>X>Xi i M M K I I I I }  .*.A.A. .I z p >X>X>X>X>X>X>X>X>X>X>X>X>X>X>X>X>X>X>X>X>X>X>X",
">X>X>X>X>X>X>X>X>X>X>X>X>X>X>X>X>X>X>X>X>X>X>Xu u a d x F F F F n M | O...b j u t >X>X>X>X>X>X>X>X>X>X>X>X>X>X>X>X>X>X>X>X>X>X>X",
">X>X>X>X>X>X>X>X>X>X>X>X>X>X>X>X>X>X>X>X>X>X>X>X1 > > a a d f s s a s s a ; ; y >X>X>X>X>X>X>X>X>X>X>X>X>X>X>X>X>X>X>X>X>X>X>X>X",
">X>X>X>X>X>X>X>X>X>X>X>X>X>X>X>X>X>X>X>X>X>X>X>X- * ; 1 > : ; t t ; = ; y - * - >X>X>X>X>X>X>X>X>X>X>X>X>X>X>X>X>X>X>X>X>X>X>X>X",
">X>X>X>X>X>X>X>X>X>X>X>X>X>X>X>X>X>X>X>X>X>X>X>X4 Z * % * C 4 >X>X4 C * % * Z 4 >X>X>X>X>X>X>X>X>X>X>X>X>X>X>X>X>X>X>X>X>X>X>X>X",
">X>X>X>X>X>X>X>X>X>X>X>X>X>X>X>X>X>X>X>X>X>X>X>Xq g.` ^ ` g.q >X>Xq y.` ^ ` g.q >X>X>X>X>X>X>X>X>X>X>X>X>X>X>X>X>X>X>X>X>X>X>X>X",
">X>X>X>X>X>X>X>X>X>X>X>X>X>X>X>X>X>X>X>X>X>X>X>X>X~ I.R.U.~ >X>X>X>X( I.R.I.~ >X>X>X>X>X>X>X>X>X>X>X>X>X>X>X>X>X>X>X>X>X>X>X>X>X",
">X>X>X>X>X>X>X>X>X>X>X>X>X>X>X>X>X>X>X>X>X>X>X>X>X>XE E E >X>X>X>X>X>XE E E >X>X>X>X>X>X>X>X>X>X>X>X>X>X>X>X>X>X>X>X>X>X>X>X>X>X",
">X>X>X>X>X>X>X>X>X>X>X>X>X>X>X>X>X>X>X>X>X>X>X>X>X>X>X>X>X>X>X>X>X>X>X>X>X>X>X>X>X>X>X>X>X>X>X>X>X>X>X>X>X>X>X>X>X>X>X>X>X>X>X>X",
">X>X>X>X>X>X>X>X>X>X>X>X>X>X>X>X>X>X>X>X>X>X>X>X>X>X>X>X>X>X>X>X>X>X>X>X>X>X>X>X>X>X>X>X>X>X>X>X>X>X>X>X>X>X>X>X>X>X>X>X>X>X>X>X",
">X>X>X>X>X>X>X>X>X>X>X>X>X>X>X>X>X>X>X>X>X>X>X>X>X>X>X>X>X>X>X>X>X>X>X>X>X>X>X>X>X>X>X>X>X>X>X>X>X>X>X>X>X>X>X>X>X>X>X>X>X>X>X>X",
">X>X>X>X>X>X>X>X>X>X>X>X>X>X>X>X>X>X>X>X>X>X>X>X>X>X>X>X>X>X>X>X>X>X>X>X>X>X>X>X>X>X>X>X>X>X>X>X>X>X>X>X>X>X>X>X>X>X>X>X>X>X>X>X"
};
