/* XPM */
static char *result[] = {
/* columns rows colors chars-per-pixel */
"64 64 210 2 ",
"   c #000101",
".  c #08090A",
"X  c #1F0503",
"o  c #071212",
"O  c #0C1111",
"+  c #131C1D",
"@  c #121717",
"#  c #060F10",
"$  c #370C0A",
"%  c #230907",
"&  c #222235",
"*  c #383735",
"=  c #450E06",
"-  c #5F0700",
";  c #471811",
":  c #660F04",
">  c #68160A",
",  c #7C1C0D",
"<  c #761506",
"1  c #7A1407",
"2  c #6D2116",
"3  c #6E251A",
"4  c #7D2112",
"5  c #712519",
"6  c #4F2622",
"7  c #562C25",
"8  c #6D2F25",
"9  c #743625",
"0  c #6F372E",
"q  c #774236",
"w  c #3A3A4A",
"e  c #3B4342",
"r  c #374140",
"t  c #585B5A",
"y  c #565958",
"u  c #6C4844",
"i  c #7B5744",
"p  c #745656",
"a  c #5A6464",
"s  c #951E0D",
"d  c #98200F",
"f  c #8E2312",
"g  c #822010",
"h  c #932413",
"j  c #9E2513",
"k  c #A42816",
"l  c #AD2C19",
"z  c #AA2715",
"x  c #B32C19",
"c  c #B52916",
"v  c #BB301C",
"b  c #A1200E",
"n  c #BB3925",
"m  c #AA3F2E",
"M  c #C72C17",
"N  c #C3321E",
"B  c #CD331F",
"V  c #D7331D",
"C  c #E7361F",
"Z  c #CB3923",
"A  c #D53823",
"S  c #E53B24",
"D  c #8E4136",
"F  c #944939",
"G  c #8D503E",
"H  c #90513E",
"J  c #AA4E3B",
"K  c #AC523F",
"L  c #AA402F",
"P  c #DB422B",
"I  c #D24D39",
"U  c #E8442C",
"Y  c #E54C35",
"T  c #F34D34",
"R  c #EA543C",
"E  c #E4523B",
"W  c #FD593F",
"Q  c #F8553C",
"!  c #9B4F42",
"~  c #9C5145",
"^  c #916854",
"/  c #946C5B",
"(  c #99725D",
")  c #AB715C",
"_  c #806360",
"`  c #9C7966",
"'  c #AD6B60",
"]  c #A87C66",
"[  c #B67762",
"{  c #AB7E76",
"}  c #AA5E52",
"|  c #C45341",
" . c #D35B49",
".. c #E95C45",
"X. c #E25943",
"o. c #FE5D43",
"O. c #D56757",
"+. c #D6664E",
"@. c #EA6550",
"#. c #C57867",
"$. c #D57668",
"%. c #E8786A",
"&. c #E87E7B",
"*. c #E47D76",
"=. c #FE7B65",
"-. c #A3826C",
";. c #AB846D",
":. c #AC8A73",
">. c #A98874",
",. c #B28D75",
"<. c #B48D79",
"1. c #BC967B",
"2. c #BF987D",
"3. c #B79278",
"4. c #B0846E",
"5. c #D4886C",
"6. c #D88B77",
"7. c #C19A7F",
"8. c #DF987B",
"9. c #E3927C",
"0. c #EF8473",
"q. c #6A6D8F",
"w. c #747699",
"e. c #857A99",
"r. c #8A7FA1",
"t. c #8A8A8A",
"y. c #8F8F90",
"u. c #AC918A",
"i. c #BD9C82",
"p. c #A9938C",
"a. c #B4A19E",
"s. c #BFA68B",
"d. c #868BBA",
"f. c #BBA9A4",
"g. c #C89D82",
"h. c #E98C8A",
"j. c #ED9A8B",
"k. c #E69282",
"l. c #F59687",
"z. c #EF9E92",
"x. c #C4A086",
"c. c #CCA285",
"v. c #CDA589",
"b. c #CCA98B",
"n. c #C0A78C",
"m. c #D1A68A",
"M. c #D6AA8C",
"N. c #D9AD8E",
"B. c #D7AD91",
"V. c #DCAE91",
"C. c #CDB192",
"Z. c #CCB99A",
"A. c #DDB194",
"S. c #DDB899",
"D. c #E4A588",
"F. c #EEA596",
"G. c #EBAA94",
"H. c #EEAB99",
"J. c #F7A899",
"K. c #E0B696",
"L. c #E2B698",
"P. c #E5BA9B",
"I. c #EABD9E",
"U. c #E6B698",
"Y. c #D0BFA0",
"T. c #EEBEA1",
"R. c #F1B5A5",
"E. c #DDC3A5",
"W. c #E4C4A2",
"Q. c #EEC4A5",
"!. c #E8CCAB",
"~. c #F1C5A6",
"^. c #F3CAA6",
"/. c #F3C7A8",
"(. c #F4CBAA",
"). c #FBCEAF",
"_. c #E7D2AE",
"`. c #F5D2AC",
"'. c #F8D6AD",
"]. c #F6C8B4",
"[. c #F6D5B1",
"{. c #F9D4B1",
"}. c #F6DAB3",
"|. c #F8DEB5",
" X c #F8DFB8",
".X c #F4DBB8",
"XX c #EFD9B6",
"oX c #F9E0B7",
"OX c #F9E2BA",
"+X c #F8E5BF",
"@X c #919BD1",
"#X c #B0BCF3",
"$X c #F7CAC3",
"%X c #F9D3CC",
"&X c #FFDAD2",
"*X c #F5E4C2",
"=X c #FAE6C1",
"-X c #FAEAC5",
";X c #FBEDCA",
":X c #F4E6C9",
">X c #FCF3CC",
",X c #FBF1D5",
"<X c #FEFBD3",
"1X c #FDFCD9",
"2X c #FAF2DC",
"3X c #FAEFD4",
"4X c #FBF4E3",
"5X c #FDFCE7",
"6X c #FEFEF1",
"7X c None",
/* pixels */
"7X7X7X7X7X7X7X7X7X7X7X7X7X7X7X7X7X7X7X7X7X7X7X7X7X7X7X7X7X7X7X7X7X7X7X7X7X7X7X7X7X7X7X7X7X7X7X7X7X7X7X7X7X7X7X7X7X7X7X7X7X7X7X7X",
"7X7X7X7X7X7X7X7X7X7X7X7X7X7X7X7X7X7X7X7X7X7X7X7X7X7X7X7X7X7X7X7X7X7X7X7X7X7X7X7X7X7X7X7X7X7X7X7X7X7X7X7X7X7X7X7X7X7X7X7X7X7X7X7X",
"7X7X7X7X7X7X7X7X7X7X7X7X7X7X7X7X7X7X7X7X7X7X7X7X7X7X7X7X7X7X7X7X7X7X7X7X7X7X7X7X7X7X7X7X7X7X7X7X7X7X7X7X7X7X7X7X7X7X7X7X7X7X7X7X",
"7X7X7X7X7X7X7X7X7X7X7X7X7X7X7X7X7X7X7X7X7X7X7X7X7X7X7X7X7X7X7X7X7X7X7X7X7X7X7X7X7X7X7X7X7X7X7X7X7X7X7X7X7X7X7X7X7X7X7X7X7X7X7X7X",
"7X7X7X7X7X7X7X7X7X7X7X7X7X7X7X7X7X7X7X7X7X7X7X7X7X7X7X7X7X7X7X7X7X7X7X7X7X7X7X7X7X7X7X7X7X7X7X7X7X7X7X7X7X7X7X7X7X7X7X7X7X7X7X7X",
"7X7X7X7X7X7X7X7X7X7X7X7X7X7X7X7X7X7X7X7X7X7X7X7X7X7X7X7X7X7X` Z.Z.b.-.7X7X7X7X7X7X7X7X7X7X7X7X7X7X7X7X7X7X7X7X7X7X7X7X7X7X7X7X7X",
"7X7X7X7X7X7X7X7X7X7X7X7X7X7X7X7X7X7X7X7X7X7X7X7X7X` Z.Z.v.3.C.1X1X+X1.n.b.b.7X7X7X7X7X7X7X7X7X7X7X7X7X7X7X7X7X7X7X7X7X7X7X7X7X7X",
"7X7X7X7X7X7X7X7X7X7X7X7X7X7X7X7X7X7X7X7X7X7X7X7Xx.E.1X:XI.P.|.[.|.W.Q.=X<X>XC.7X7X7X7X7X7X7X7X7X7X7X7X7X7X7X7X7X7X7X7X7X7X7X7X7X",
"7X7X7X7X7X7X7X7X7X7X7X7X7X7X7X7X7X7X7X7X7X7X7X] (.<XW.N.c./.~.~.A.c.K.}.;X<X=X-.7X7X7X7X7X7X7X7X7X7X7X7X7X7X7X7X7X7X7X7X7X7X7X7X",
"7X7X7X7X7X7X7X7X7X7X7X7X7X7X7X7X7X7X7X7X7X7X7Xv.Q.P.A.K.L.K.~.L.K.P.K.K.}.>X>XC.7X7X7X7X7X7X7X7X7X7X7X7X7X7X7X7X7X7X7X7X7X7X7X7X",
"7X7X7X7X7X7X7X7X7X7X7X7X7X7X7X7X7X7X7X7X` 3.1./.L.K.(.`.^.K.L.S.}.OXOXP.P.+X<X>Xb.,.A.i.7X7X7X7X7X7X7X7X7X7X7X7X7X7X7X7X7X7X7X7X",
"7X7X7X7X7X7X7X7X7X7X7X7X7X7X7X7X7X7X-.1.2.M.P.Q.m.(.`.|.oX[.c.(.-X<X<XOXm.`.+X<X>XC.x.M.B.1.7X7X7X7X7X7X7X7X7X7X7X7X7X7X7X7X7X7X",
"7X7X7X7X7X7X7X7X7X7X7X7X7X7X7X7X7X1.1.U.M.K.^.U.L.`.oX>X<X-XW.P.;X<X<X>XP.A.'.-X<X;XC.'.{.B.M.7X7X7X7X7X7X7X7X7X7X7X7X7X7X7X7X7X",
"7X7X7X7X7X7X7X7X7X7X7X7X7X7X7X7X1.N.I./.L.^.^.m.~.`.-X<X<X>XoXM.oX>X>X;XoXP.A.P.}.+X-XoXoX{.{.B.7X7X7X7X7X7X7X7X7X7X7X7X7X7X7X7X",
"7X7X7X7X7X7X7X7X7X7X7X7X7X7X7X1.M.U.~.~.^.^.^.P.^.`.OX>X>X-X XW.L.`.}.OX+XoXW.W.`.OX*X=X=X=X=X{.B.7X7X7X7X7X7X7X7X7X7X7X7X7X7X7X",
"7X7X7X7X7X7X7X7X7X7X7X7X7X7X1.N.P.^.~.~.^.`.`.'.`.`.oX+X+XoXoXOXW.`.`. XOXOXOXOX=X>X;X;X>X;X;X-X{.B.7X7X7X7X7X7X7X7X7X7X7X7X7X7X",
"7X7X7X7X7X7X7X7X7X7X7X7X7X-.N.P.~.~.^.^.`.`.^.`.^.'.oXOXoXoXoXOXOXOXOX X|.|.=X=X;X;X;X;X-X;X;X;XoX/.1.7X7X7X7X7X7X7X7X7X7X7X7X7X",
"7X7X7X7X7X7X7X7X7X7X7X7X7X,.M./.~.~.^.`.`.`.^.`.`.}.oX|.oXOXoX+XOX X X X X=X;X;X;X;X-X3X,X3X,X;X=X`.A.7X7X7X7X7X7X7X7X7X7X7X7X7X",
"7X7X7X7X7X7X7X7X7X7X7X7X-.c.P.~.~.~.`.`.'.'.'.'.[.}. X XoXoXoXOXoXOX|.|.=X;X;X;X;X;X2X4X4X4X4X,X;XOXQ.2.7X7X7X7X7X7X7X7X7X7X7X7X",
"7X7X7X7X7X7X7X7X7X7X7X7X,.M./././.(.'.}.'.'.|.|. X X X XoXoXoXOX|.|.=X=X;X;X;X;X;X3X4X4X4X4X4X4X;XoX(.B.7X7X7X7X7X7X7X7X7X7X7X7X",
"7X7X7X7X7X7X7X7X7X7X7X-.2.N.~.~.^.'.}.}.|.|.oX|. X XOXOXOXoX|.|.=X=X;X;X;X;X;X3X3X4X4X4X4X4X4X4X;X X{.~.7.7X7X7X7X7X7X7X7X7X7X7X",
"7X7X7X7X7X7X7X7X7X7X7X-.7.N.Q./.^.'.'.}.oXoXoXoX XOX=XOXOXoX=X=X;X;X;X;X;X,X,X4X4X4X4X4X4X4X4X2X;X*X|.Q.2.7X7X7X7X7X7X7X7X7X7X7X",
"7X7X7X7X7X7X7X7X7X7X7X,.N.N.~.~.^.}.}.|.oXoXoXoXOX=X=X=X;X-X;X;X;X;X;X,X,X4X4X4X4X4X4X4X4X4X4X4X;X;XoXQ.c.7X7X7X7X7X7X7X7X7X7X7X",
"7X7X7X7X7X7X7X7X7X7X-.7.M.N.Q././.}.|.oXoXoXoXOX-X-X-X;X;X;X;X;X;X;X,X4X4X4X4X4X4X4X4X4X4X4X4X4X;X;XoX/.N.2.7X7X7X7X7X7X7X7X7X7X",
"7X7X7X7X7X7X7X7X7X7X-.2.M.N.~.~./.|.|.|. XoXOX=X-X*X-X;X;X;X;X;X;X3X4X4X4X2X4X2X4X4X4X4X4X4X4X3X;X;XoX~.M.2.7X7X7X7X7X7X7X7X7X7X",
"7X7X7X7X7X7X7X7X7X7X-.1.M.N.~././.'.|.oXoXoX+X-X-X<X<X:X;X;X;X;X;X4X4X4X4X6X6X4X4X4X4X4X4X4X4X;X;X=XoX~.M.2.7X7X7X7X7X7X7X7X7X7X",
"7X7X7X7X7X7X7X7X7X7X-.1.M.N.~./.~.`.|.|. XoXOX;X<X,.<.,X;X;X;X;X;X4X4X4X4Xu.u.4X4X4X4X4X4X4X,X;X;XoX|./.N.2.7X7X7X7X7X7X7X7X7X7X",
"7X7X7X7X7X7X7X7X7X7X-.2.M.N.Q.~.~.~.|.oX X X+X;X>.% X -.:X;X;X;X;X,X4X4Xp.X X u.4X4X4X,X2X3X;X;X=XoXoX~.M.2.7X7X7X7X7X7X7X7X7X7X",
"7X7X7X7X7X7X7X7X7X7X-.7.M.N.~.~.~.~.`.oX X XOXXX%     ; *X3X;X;X;X;X2X:X$     ; :X2X3X;X;X;X;X*XoX X{./.N.2.7X7X7X7X7X7X7X7X7X7X",
"7X7X7X7X7X7X7X7X7X7X7X,.c.N.~.~.~.~.~.`.oX XoX}.f.y.  6 *X;X;X;X;X;X;X:Xf.y.. 7 *X;X-X;X;X;X=X XoXoXQ.L.c.7X7X7X7X7X7X7X7X7X7X7X",
"7X7X7X7X7X7X7X7X7X7X7X-.1.M.P.~.~./.~.~.`.oXOX}.f.t.w 6 *X>X;X;X;X;X;X:Xf.t.w 7 +X;X;X;X=X=X X XoX{.~.M.2.7X7X7X7X7X7X7X7X7X7X7X",
"7X7X7X7X7X7X7X7X7X7X7X-.2.M.M.~.~.~./.~.Q.(.{.XX$ & q.u XX=X=X=X;X-X>X.X; & q.u .X-X+X+X XoXOXoX`.Q.~.A.2.7X7X7X7X7X7X7X7X7X7X7X",
"7X7X7X7X7X7X7X7X7X7X7X7X4.g.M.P./.~.Q.Q.Q.T.Q.Q.u w.d._ }.oX XoX+X*X-X.Xu w.d._ [.oXoXoXoXoX[.(.~./.L.1.7X7X7X7X7X7X7X7X7X7X7X7X",
"7X7X7X7X7X7X7X7X7X7X7X7X` 2.N.M.L./.(.(././.(.P.p @X#Xp !.+XoXoXoXoXoXXXp @X#Xp `.-X}.`.}.[.~.Q./.P.M.( 7X7X7X7X7X7X7X7X7X7X7X7X",
"7X7X7X7X7X7X7X7X7X7X7X7X7X;.c.N.M.P.H.H.H.F.H.Q.<.d.e.<.~.(.`.(.`.(.[.`.<.r.e.3._.R.F.F.F.H.(.(.U.N.<.7X7X7X7X7X7X7X7X7X7X7X7X7X",
"7X7X7X7X7X7X7X7X7X7X7X7X7X7X;.v.M.k.&.h.h.h.h.j.~.[ 4.^.H.I.Q.~./.T.T.H./.;.,.(.j.*.h.h.h.h.j.L.N.3.7X7X7X7X7X7X7X7X7X7X7X7X7X7X",
"7X7X7X7X7X7X7X7X7X7X7X7X7X7X7X;.c.6.%.&.&.&.&.j.~.).).I.5.~.(.D.D./.~.5.T.).{.~.j.%.*.&.&.&.9.N.3.7X7X7X7X7X7X7X7X7X7X7X7X7X7X7X",
"7X7X7X7X7X7X7X7X7X7X7X7X7X7X7X7X-.;.6.h.k.6.8.T.~.~.~.~.D.8.8.G.G.8.8.D.T./././.(.F.j.k.k.6.3.3.7X7X7X7X7X7X7X7X7X7X7X7X7X7X7X7X",
"7X7X7X7X7X7X7X7X7X7X7X7X7X7X7X7X7X` -.<.b.M.m.c.U.U.U.U.I.5.5.I.P.5.6.I.I.U.U.P.V.S.S.M.3.;./ 7X7X7X7X7X7X7X7X7X7X7X7X7X7X7X7X7X",
"7X7X7X7X7X7X7X7X7X7X7X7X7X7X7X7X7X7X7X/ ] ;.;.:.c.c.c.c.c.b.M.7.c.b.m.c.c.c.c.g.>.-.] ] / 7X7X7X7X7X7X7X7X7X7X7X7X7X7X7X7X7X7X7X",
"7X7X7X7X7X7X7X7X7X7X7X7X7X7X7X7X7X7X7X7X7X7XJ K 4.:.-.-.-.:.:.:.:.:.:.-.-.-.:.;.K J 7X7X7X7X7X7X7X7X7X7X7X7X7X7X7X7X7X7X7X7X7X7X",
"7X7X7X7X7X7X7X7X7X7X7X7X7X7X7X7X7X7X7X7X7X7XM M F F #.#.[ q F F F F D [ #.#.F J N M 7X7X7X7X7X7X7X7X7X7X7X7X7X7X7X7X7X7X7X7X7X7X",
"7X7X7X7X7X7X7X7X7X7X7X7X7X7X7X7X7X7X7X7X7XN N v d d | 0.=.m 1 s s 1 L %.0.| z b v N N X.7X7X7X7X7X7X7X7X7X7X7X7X7X7X7X7X7X7X7X7X",
"7X7X7X7X7X7X7X7X7X7X7X7X7X7X7X7X7X7X7X7X..A v k h h z | F.J.' , < ' J.J.I z V n k v A ..7X7X7X7X7X7X7X7X7X7X7X7X7X7X7X7X7X7X7X7X",
"7X7X7X7X7X7X7X7X7X7X7X7X7X7X7X7X7X7X7X*...U c h h l V Z #.%X%Xf ' $X%X$. .U U Y h x U ..%.7X7X7X7X7X7X7X7X7X7X7X7X7X7X7X7X7X7X7X",
"7X7X7X7X7X7X7X7X7X7X7X7X7X7X7X7X7X7Xz...Y Z k h h V A R Z O.O.*.$X].$. .l...R Y x k Z Y ..z.7X7X7X7X7X7X7X7X7X7X7X7X7X7X7X7X7X7X",
"7X7X7X7X7X7X7X7X7X7X7X7X7X7X7X7X7XR.z...S x f h l B c N A O.$.$X$X$.I F.k.E Y E A h l S ..F.7X7X7X7X7X7X7X7X7X7X7X7X7X7X7X7X7X7X",
"7X7X7X7X7X7X7X7X7X7X7X7X7X7X7X7X7Xz.j.R S c k d V S %.*.*.&X&X].%.V @.l.l.Q T T V d x C ..l.z.7X7X7X7X7X7X7X7X7X7X7X7X7X7X7X7X7X",
"7X7X7X7X7X7X7X7X7X7X7X7X7X7X7X7X7X].].9.+.l ; 0 D D p.p.a.p.p.u.D } ' { { ~ ! ! D 8 l +.9.].].7X7X7X7X7X7X7X7X7X7X7X7X7X7X7X7X7X",
"7X7X7X7X7X7X7X7X7X7X7X7X7X7X7X7X7X5X<X_.s.7X  r y * * * y t t t a a a a t e r e r + 7Xs._.<X5X7X7X7X7X7X7X7X7X7X7X7X7X7X7X7X7X7X",
"7X7X7X7X7X7X7X7X7X7X7X7X7X7X7X7X7XE.=X_.x.7X  O o o o o + + + + + + @ @ @ o # o O   7Xg._.+XE.7X7X7X7X7X7X7X7X7X7X7X7X7X7X7X7X7X",
"7X7X7X7X7X7X7X7X7X7X7X7X7X7X7X7X7X7Xi.i.7X7X7X= = > > 3 2 2 2 2 2 2 8 u q 3 2 > = 7X7X7Xi.2.7X7X7X7X7X7X7X7X7X7X7X7X7X7X7X7X7X7X",
"7X7X7X7X7X7X7X7X7X7X7X7X7X7X7X7X7X7X7X7X7X7X7Xk j S S T W W o.W o.o.=.J.J.o.W N k 7X7X7X7X7X7X7X7X7X7X7X7X7X7X7X7X7X7X7X7X7X7X7X",
"7X7X7X7X7X7X7X7X7X7X7X7X7X7X7X7X7X7X7X7X7X7X7Xh h l x Z P P P P A P X.@.+.Z n h f 7X7X7X7X7X7X7X7X7X7X7X7X7X7X7X7X7X7X7X7X7X7X7X",
"7X7X7X7X7X7X7X7X7X7X7X7X7X7X7X7X7X7X7X7X7X7X7X7X4 4 , x c x c z z l z c l , , g 7X7X7X7X7X7X7X7X7X7X7X7X7X7X7X7X7X7X7X7X7X7X7X7X",
"7X7X7X7X7X7X7X7X7X7X7X7X7X7X7X7X7X7X7X7X7X7X7X7X> : > g 4 < , f 7X1 < 4 g > : > 7X7X7X7X7X7X7X7X7X7X7X7X7X7X7X7X7X7X7X7X7X7X7X7X",
"7X7X7X7X7X7X7X7X7X7X7X7X7X7X7X7X7X7X7X7X7X7X7X7X9 H : - : G 9 7X7X9 G : - : H 9 7X7X7X7X7X7X7X7X7X7X7X7X7X7X7X7X7X7X7X7X7X7X7X7X",
"7X7X7X7X7X7X7X7X7X7X7X7X7X7X7X7X7X7X7X7X7X7X7X7Xi x.] ) ] x.i 7X7Xi x.[ ) ] x.i 7X7X7X7X7X7X7X7X7X7X7X7X7X7X7X7X7X7X7X7X7X7X7X7X",
"7X7X7X7X7X7X7X7X7X7X7X7X7X7X7X7X7X7X7X7X7X7X7X7X7X( E.!.W.( 7X7X7X7X( E.!.E.( 7X7X7X7X7X7X7X7X7X7X7X7X7X7X7X7X7X7X7X7X7X7X7X7X7X",
"7X7X7X7X7X7X7X7X7X7X7X7X7X7X7X7X7X7X7X7X7X7X7X7X7X7X^ ^ ^ 7X7X7X7X7X7X^ ^ ^ 7X7X7X7X7X7X7X7X7X7X7X7X7X7X7X7X7X7X7X7X7X7X7X7X7X7X",
"7X7X7X7X7X7X7X7X7X7X7X7X7X7X7X7X7X7X7X7X7X7X7X7X7X7X7X7X7X7X7X7X7X7X7X7X7X7X7X7X7X7X7X7X7X7X7X7X7X7X7X7X7X7X7X7X7X7X7X7X7X7X7X7X",
"7X7X7X7X7X7X7X7X7X7X7X7X7X7X7X7X7X7X7X7X7X7X7X7X7X7X7X7X7X7X7X7X7X7X7X7X7X7X7X7X7X7X7X7X7X7X7X7X7X7X7X7X7X7X7X7X7X7X7X7X7X7X7X7X",
"7X7X7X7X7X7X7X7X7X7X7X7X7X7X7X7X7X7X7X7X7X7X7X7X7X7X7X7X7X7X7X7X7X7X7X7X7X7X7X7X7X7X7X7X7X7X7X7X7X7X7X7X7X7X7X7X7X7X7X7X7X7X7X7X",
"7X7X7X7X7X7X7X7X7X7X7X7X7X7X7X7X7X7X7X7X7X7X7X7X7X7X7X7X7X7X7X7X7X7X7X7X7X7X7X7X7X7X7X7X7X7X7X7X7X7X7X7X7X7X7X7X7X7X7X7X7X7X7X7X"
};
