/* XPM */
static char *result[] = {
/* columns rows colors chars-per-pixel */
"64 64 208 2 ",
"   c #010101",
".  c #0A0606",
"X  c #050F0F",
"o  c #1F0503",
"O  c #061112",
"+  c #0C1111",
"@  c #131C1D",
"#  c #121717",
"$  c #060F10",
"%  c #370C0A",
"&  c #230907",
"*  c #222235",
"=  c #383735",
"-  c #460F06",
";  c #48160D",
":  c #471B17",
">  c #670D02",
",  c #7A0E02",
"<  c #6C1A0C",
"1  c #681408",
"2  c #7C1E0E",
"3  c #73180A",
"4  c #6D2116",
"5  c #6E251A",
"6  c #762416",
"7  c #4F2622",
"8  c #522F28",
"9  c #733525",
"0  c #6F3329",
"q  c #3A413F",
"w  c #774236",
"e  c #3A3A4A",
"r  c #3B4443",
"t  c #585B5A",
"y  c #565958",
"u  c #434140",
"i  c #6A4844",
"p  c #7A5745",
"a  c #745757",
"s  c #786055",
"d  c #5A6464",
"f  c #811D0D",
"g  c #941E0E",
"h  c #AB1E0C",
"j  c #96200F",
"k  c #9C200D",
"l  c #8F2312",
"z  c #922413",
"x  c #9A2A18",
"c  c #A82816",
"v  c #B22C19",
"b  c #B42814",
"n  c #BE311D",
"m  c #843928",
"M  c #B63C29",
"N  c #C52C17",
"B  c #CA331E",
"V  c #D8341D",
"C  c #CA3823",
"Z  c #D43A25",
"A  c #D83621",
"S  c #E53B24",
"D  c #964B3A",
"F  c #944738",
"G  c #8E513E",
"H  c #8E4035",
"J  c #AC523F",
"K  c #AB4735",
"L  c #DB422B",
"P  c #D7462F",
"I  c #D64C38",
"U  c #EA543C",
"Y  c #FD593F",
"T  c #F6543A",
"R  c #EA4831",
"E  c #9D5444",
"W  c #974D41",
"Q  c #B05E4C",
"!  c #916854",
"~  c #936D5C",
"^  c #98725D",
"/  c #97715F",
"(  c #80625F",
")  c #AB705C",
"_  c #9D7A66",
"`  c #806360",
"'  c #AD6B60",
"]  c #AF7A62",
"[  c #A57F69",
"{  c #BC7364",
"}  c #AB7E77",
"|  c #BF6F65",
" . c #C45241",
".. c #D25B49",
"X. c #FE5D43",
"o. c #D56757",
"O. c #E86752",
"+. c #C57867",
"@. c #D47766",
"#. c #E77669",
"$. c #E87D7B",
"%. c #E47E77",
"&. c #FE7B65",
"*. c #A4826B",
"=. c #AA836D",
"-. c #B1866E",
";. c #AC8A73",
":. c #A98975",
">. c #B38D74",
",. c #B38D7E",
"<. c #B68A72",
"1. c #BC967B",
"2. c #BF987D",
"3. c #B69178",
"4. c #D4896C",
"5. c #D88C76",
"6. c #C1987E",
"7. c #DF967C",
"8. c #E6857B",
"9. c #E4927B",
"0. c #F18772",
"q. c #6A6D8F",
"w. c #747699",
"e. c #857999",
"r. c #8A7EA1",
"t. c #8A8A8A",
"y. c #8F8F90",
"u. c #AC918A",
"i. c #BC9A81",
"p. c #AA9692",
"a. c #A68E82",
"s. c #B4A19E",
"d. c #868BBA",
"f. c #BBA9A4",
"g. c #C49E84",
"h. c #CC9E82",
"j. c #E98C8A",
"k. c #ED9B8C",
"l. c #E69584",
"z. c #F59788",
"x. c #F08380",
"c. c #C4A086",
"v. c #CCA285",
"b. c #CDA589",
"n. c #CDA98B",
"m. c #D1A689",
"M. c #D5AA8C",
"N. c #D9AD8E",
"B. c #D7AD91",
"V. c #DBAF92",
"C. c #CDB79A",
"Z. c #DDB294",
"A. c #D1B79A",
"S. c #CCAF90",
"D. c #E4A588",
"F. c #EEAC99",
"G. c #EBA894",
"H. c #F8A99B",
"J. c #E1B596",
"K. c #E2B699",
"L. c #E5BB9B",
"P. c #EABD9E",
"I. c #E6B798",
"U. c #D1BEA0",
"Y. c #EEBDA1",
"T. c #E2C19F",
"R. c #DBC3A3",
"E. c #E4C4A2",
"W. c #EEC3A4",
"Q. c #E8CCAA",
"!. c #F1C5A6",
"~. c #F3C7A8",
"^. c #F4CBAA",
"/. c #F5CBA9",
"(. c #E9D2AE",
"). c #F5D2AC",
"_. c #F8D4AB",
"`. c #FCCAB6",
"'. c #EDD7B4",
"]. c #F5D5B1",
"[. c #F9D4B2",
"{. c #F6DAB3",
"}. c #F8DEB6",
"|. c #F9DFB8",
" X c #F3DBB9",
".X c #F9E0B7",
"XX c #F9E2BA",
"oX c #F2E2BF",
"OX c #919BD1",
"+X c #B0BCF3",
"@X c #F7CBC4",
"#X c #FAD4CD",
"$X c #FFDAD2",
"%X c #F4E4C2",
"&X c #FAE6C1",
"*X c #FAEAC5",
"=X c #FBEDCA",
"-X c #F3E8C8",
";X c #FDF3CC",
":X c #F7F1C8",
">X c #FBF1D5",
",X c #FEFBD3",
"<X c #FAF3DB",
"1X c #FAEFD4",
"2X c #FBF4E3",
"3X c #FAF8EC",
"4X c #FEFEF1",
"5X c None",
/* pixels */
"5X5X5X5X5X5X5X5X5X5X5X5X5X5X5X5X5X5X5X5X5X5X5X5X5X5X5X5X5X5X5X5X5X5X5X5X5X5X5X5X5X5X5X5X5X5X5X5X5X5X5X5X5X5X5X5X5X5X5X5X5X5X5X5X",
"5X5X5X5X5X5X5X5X5X5X5X5X5X5X5X5X5X5X5X5X5X5X5X5X5X5X5X5X5X5X5X5X5X5X5X5X5X5X5X5X5X5X5X5X5X5X5X5X5X5X5X5X5X5X5X5X5X5X5X5X5X5X5X5X",
"5X5X5X5X5X5X5X5X5X5X5X5X5X5X5X5X5X5X5X5X5X5X5X5X5X5X5X5X5X5X5X5X5X5X5X5X5X5X5X5X5X5X5X5X5X5X5X5X5X5X5X5X5X5X5X5X5X5X5X5X5X5X5X5X",
"5X5X5X5X5X5X5X5X5X5X5X5X5X5X5X5X5X5X5X5X5X5X5X5X5X5X5X5X5X5X5X5X5X5X5X5X5X5X5X5X5X5X5X5X5X5X5X5X5X5X5X5X5X5X5X5X5X5X5X5X5X5X5X5X",
"5X5X5X5X5X5X5X5X5X5X5X5X5X5X5X5X5X5X5X5X5X5X5X5X5X5X5X5X5X5X5X5X5X5X5X5X5X5X5X5X5X5X5X5X5X5X5X5X5X5X5X5X5X5X5X5X5X5X5X5X5X5X5X5X",
"5X5X5X5X5X5X5X5X5X5X5X5X5X5X5X5X5X5X5X5X5X5X5X5X5X5X5X5X5X5X5XR.C.n._ 5X5X5X5X5X5X5X5X5X5X5X5X5X5X5X5X5X5X5X5X5X5X5X5X5X5X5X5X5X",
"5X5X5X5X5X5X5X5X5X5X5X5X5X5X5X5X5X5X5X5X5X5X5X5X5X_ C.C.g.3.b.'.;X=XC.S.S.n.5X5X5X5X5X5X5X5X5X5X5X5X5X5X5X5X5X5X5X5X5X5X5X5X5X5X",
"5X5X5X5X5X5X5X5X5X5X5X5X5X5X5X5X5X5X5X5X5X5X5X5Xc.U.,X*X&XY.Y.V.^. X&X).XXXXU.5X5X5X5X5X5X5X5X5X5X5X5X5X5X5X5X5X5X5X5X5X5X5X5X5X",
"5X5X5X5X5X5X5X5X5X5X5X5X5X5X5X5X5X5X5X5X5X5X5X[ ~.,XE.).Q.K.v./.~.!.V.h.Z..X:X*.5X5X5X5X5X5X5X5X5X5X5X5X5X5X5X5X5X5X5X5X5X5X5X5X",
"5X5X5X5X5X5X5X5X5X5X5X5X5X5X5X5X5X5X5X5X5X5X5Xn.W.T.Z.T.Z.Z.K.J.~.K.K.K.J.K._.A.5X5X5X5X5X5X5X5X5X5X5X5X5X5X5X5X5X5X5X5X5X5X5X5X",
"5X5X5X5X5X5X5X5X5X5X5X5X5X5X5X5X5X5X5X5X*.3.3.~.K.Z.L.Z./././.J.K.J.{.XXXXL.T.&XC.;.m.i.5X5X5X5X5X5X5X5X5X5X5X5X5X5X5X5X5X5X5X5X",
"5X5X5X5X5X5X5X5X5X5X5X5X5X5X5X5X5X5X*.3.3.M.P.W.K.~.v./._.}..X].b./.&X,X,X.Xm.).*XU.XXV.M.i.5X5X5X5X5X5X5X5X5X5X5X5X5X5X5X5X5X5X",
"5X5X5X5X5X5X5X5X5X5X5X5X5X5X5X5X5X1.1.I.N.J.!.!.~.K.K._.XX;X,X:XE.L.=X,X,X:XT.J.).;X,X#X{.N.M.5X5X5X5X5X5X5X5X5X5X5X5X5X5X5X5X5X",
"5X5X5X5X5X5X5X5X5X5X5X5X5X5X5X5X1.N.W.W.L.!.!.!.~.b.W._.*X,X,X;XXXm..X;X;X;X.XK.Z.L.{.*X.X[.[.B.5X5X5X5X5X5X5X5X5X5X5X5X5X5X5X5X",
"5X5X5X5X5X5X5X5X5X5X5X5X5X5X5X1.N.I.!.~./.W.W././.T.~._.XX:X:X*X}.E.J.).{.XX*X.XE.T._.XXXX*XXX].B.5X5X5X5X5X5X5X5X5X5X5X5X5X5X5X",
"5X5X5X5X5X5X5X5X5X5X5X5X5X5X1.N.I./.W.W./.W.!._._._./.).}.*XXXXX.XXXE.^.[.}..XXXXXXX*X=X;X;X=X*X[.B.5X5X5X5X5X5X5X5X5X5X5X5X5X5X",
"5X5X5X5X5X5X5X5X5X5X5X5X5X*.N.L.!.!.!.!.!./.).).)././._..X.X.X.XXXXXXXXX|.|.|.|.XX&X=X=X=X=X=X=XXX~.1.5X5X5X5X5X5X5X5X5X5X5X5X5X",
"5X5X5X5X5X5X5X5X5X5X5X5X5X>.M.~.!.!.W.~./._.).).)._._._..X.XXXXXXXXXXX}.|.|.|.&X=X=X=X=X=X1X1X>X=X^.Z.5X5X5X5X5X5X5X5X5X5X5X5X5X",
"5X5X5X5X5X5X5X5X5X5X5X5X*.v.L.!.~.!.!.~._._._._._.].{.}..X.X.XXXXXXXXX|.|.|.&X=X=X=X=X=X1X2X2X2X2X1X!.1.5X5X5X5X5X5X5X5X5X5X5X5X",
"5X5X5X5X5X5X5X5X5X5X5X5X>.M.~.!.!.!.!./._.{.].].{.{.}.}..X.X.X.XXX}.}.}.&X&X=X=X=X=X=X1X2X2X2X2X2X2X^.B.5X5X5X5X5X5X5X5X5X5X5X5X",
"5X5X5X5X5X5X5X5X5X5X5X*.1.N.!.!.!.!.~._.{.{.}.}.}.}.XX|.XXXXXX|.}.}.&X&X=X=X=X*X=X1X>X2X2X2X2X2X2X2X&X~.i.5X5X5X5X5X5X5X5X5X5X5X",
"5X5X5X5X5X5X5X5X5X5X5X*.c.N.!.~.!.!.~._.{.{.}.}.|.|.XXXXXXoXXX|.XX*X=X=X=X=X=X>X1X2X2X2X2X2X2X2X2X2X=XW.2.5X5X5X5X5X5X5X5X5X5X5X",
"5X5X5X5X5X5X5X5X5X5X5X>.M.N.W.!.!.!.~.{.{..X.X.X|.XXXX&X*X&X*X*X=X=X=X=X=X>X<X2X2X2X2X2X2X2X2X2X2X2X*XW.v.5X5X5X5X5X5X5X5X5X5X5X",
"5X5X5X5X5X5X5X5X5X5X*.6.M.N.!.~.!.!./._.}.{..X.XXXXX*X*X*X=X=X=X=X=X=X=X>X2X2X2X2X2X2X2X2X2X2X2X2X2X:X~.N.6.5X5X5X5X5X5X5X5X5X5X",
"5X5X5X5X5X5X5X5X5X5X*.2.N.N.!.!.!.!.!.{.}.}.}..XXXXX*X-X-X=X=X=X=X=X=X>X2X2X2X2X2X2X2X2X2X2X2X2X2X<X=X~.M.2.5X5X5X5X5X5X5X5X5X5X",
"5X5X5X5X5X5X5X5X5X5X*.1.M.N.W.~.!.!.!.}.}..X.XXXXX*X*X,X,X:X*X=X=X=X=X2X2X2X<X4X4X2X2X2X2X2X2X2X2X=XXX!.N.2.5X5X5X5X5X5X5X5X5X5X",
"5X5X5X5X5X5X5X5X5X5X*.2.M.N.!.~.!.!.!._.}.}.XXXX&X=X>X;.,.>X;X=X=X=X=X2X2X2X3Xu.u.2X2X2X2X2X2X2X>X=X}.!.M.6.5X5X5X5X5X5X5X5X5X5X",
"5X5X5X5X5X5X5X5X5X5X*.1.M.N.W.!.!.!.!.!.}..X X.XXX:X:.& o *.*X=X=X=X=X>X2X2Xa.o o a.2X2X2X1X1X1X*X=XXX!.M.2.5X5X5X5X5X5X5X5X5X5X",
"5X5X5X5X5X5X5X5X5X5X*.2.N.N.!.!.!.!.!.!.)..X.X.XXX X%     : %X=X=X=X=X=X<X-X%     : -X<X1X=X=X=X=X&X].!.N.2.5X5X5X5X5X5X5X5X5X5X",
"5X5X5X5X5X5X5X5X5X5X5X>.v.N.!.!.!.!.~.!.!.]..X.X.X Xs.y.. 7 %X=X=X-X=X=X=X-Xf.y.. 8 &X=X*X=X=X:X&XXX!.K.v.5X5X5X5X5X5X5X5X5X5X5X",
"5X5X5X5X5X5X5X5X5X5X5X*.3.M.L.!.~.!.!.!.!.!.).XX.X}.s.t.e 7 oX;X=X=X=X=X=X-Xf.t.e 7 %X;X=X=X&X&X|.).!.M.2.5X5X5X5X5X5X5X5X5X5X5X",
"5X5X5X5X5X5X5X5X5X5X5X*.6.N.M.!.!.!.!.!.!.~.W.^.[.'.% * q.i '.*X&X&X=X=X;X X; * q.i  X&X&X%X.X}.[.!.!.N.2.5X5X5X5X5X5X5X5X5X5X5X",
"5X5X5X5X5X5X5X5X5X5X5X5X-.c.N.K.~.!.!.W.!.!.Y.Y.!.!.i w.d.s {..X}.}.&X&X&X Xi w.d.( [.XX}.|.|.[.W.~.!.1.5X5X5X5X5X5X5X5X5X5X5X5X",
"5X5X5X5X5X5X5X5X5X5X5X5X^ 1.N.N.Z.~.!.!.~.~.~.~.~.I.a OX+Xa !.XXXXXX|.|.XX].a OX+Xa ).{.{.].].~.!.L.I./ 5X5X5X5X5X5X5X5X5X5X5X5X",
"5X5X5X5X5X5X5X5X5X5X5X5X5X=.b.N.B.L.W.Y.F.F.F.G.F.~.,.r.r.,.Y._.).^.[.).).).u.r.r.a.].F.G.G.G.F.~.V.<.5X5X5X5X5X5X5X5X5X5X5X5X5X",
"5X5X5X5X5X5X5X5X5X5X5X5X5X5X=.b.V.M.V.l.$.j.j.j.j.k./.-.-.~.I.W.W.!.!.Y.P.F./.-.-.^.k.$.j.j.j.j.k.3.5X5X5X5X5X5X5X5X5X5X5X5X5X5X",
"5X5X5X5X5X5X5X5X5X5X5X5X5X5X5X=.v.m.M.9.#.$.$.$.$.k.Y.[._.Y.@.~.^.D.D.].~.4.P._._.!.l.#.$.$.x.8.+.5X5X5X5X5X5X5X5X5X5X5X5X5X5X5X",
"5X5X5X5X5X5X5X5X5X5X5X5X5X5X5X5X*.=.v.Z.l.9.l.5.k.^.~.Y.!.!.D.9.l.G.J.7.9.D.!.!.~.~./.l.j.5.+.{ 5X5X5X5X5X5X5X5X5X5X5X5X5X5X5X5X",
"5X5X5X5X5X5X5X5X5X5X5X5X5X5X5X5X5X_ =.<.m.n.n.n.Y.I.L.I.I.P.T.4.4.T.P.4.4.Y.I.I.Z.V.Z.n.>.*.5X5X5X5X5X5X5X5X5X5X5X5X5X5X5X5X5X5X",
"5X5X5X5X5X5X5X5X5X5X5X5X5X5X5X5X5X5X5X~ [ =.=.=.h.v.v.v.v.v.v.m.n.v.v.n.M.v.h.h.:.*.[ =.5X5X5X5X5X5X5X5X5X5X5X5X5X5X5X5X5X5X5X5X",
"5X5X5X5X5X5X5X5X5X5X5X5X5X5X5X5X5X5X5X5X5X5X5XJ -.;.[ *.*.;.;.;.;.;.;.*.[ [ =.;.J K 5X5X5X5X5X5X5X5X5X5X5X5X5X5X5X5X5X5X5X5X5X5X",
"5X5X5X5X5X5X5X5X5X5X5X5X5X5X5X5X5X5X5X5X5X5X5XN F D +.+.{ w D F F D w { +.+.D F N B 5X5X5X5X5X5X5X5X5X5X5X5X5X5X5X5X5X5X5X5X5X5X",
"5X5X5X5X5X5X5X5X5X5X5X5X5X5X5X5X5X5X5X5X5X5XR n g g  .0.#.K , g g , K #.0.Q g g N b Z U 5X5X5X5X5X5X5X5X5X5X5X5X5X5X5X5X5X5X5X5X",
"5X5X5X5X5X5X5X5X5X5X5X5X5X5X5X5X5X5X5X5X5X5XB c z l b  .H.H.' 2 , ) H.H.I c l g Q @.9.0.5X5X5X5X5X5X5X5X5X5X5X5X5X5X5X5X5X5X5X5X",
"5X5X5X5X5X5X5X5X5X5X5X5X5X5X5X5X5X5X5X5X5XS b l z v A C +.#X#Xl ' @X@X@...Z v Q Z.:X-X-XP.5X5X5X5X5X5X5X5X5X5X5X5X5X5X5X5X5X5X5X",
"5X5X5X5X5X5X5X5X5X5X5X5X5X5X5X5X5X5X5X5X5XO.c l z V A U C o.o.#.@X@X@...z.P A g.(.;X,X>X(.5X5X5X5X5X5X5X5X5X5X5X5X5X5X5X5X5X5X5X",
"5X5X5X5X5X5X5X5X5X5X5X5X5X5X5X5X5X5X5X5X5X5Xz l v B b N Z o.@.@X@X@.P l.k.U P 6.E.>X>X;X(.5X5X5X5X5X5X5X5X5X5X5X5X5X5X5X5X5X5X5X",
"5X5X5X5X5X5X5X5X5X5X5X5X5X5X5X5X5X5X5X5X5X<.x j V A %.%.%.$X$X`.#.V &.z.z.T T -.(.-X*X%XA.5X5X5X5X5X5X5X5X5X5X5X5X5X5X5X5X5X5X5X",
"5X5X5X5X5X5X5X5X5X5X5X5X5X5X5X5X5X5X5X5X5X5X; 0 F F p.p.s.p.u.u.W Q ' } } E D a i.n.i.i.5X5X5X5X5X5X5X5X5X5X5X5X5X5X5X5X5X5X5X5X",
"5X5X5X5X5X5X5X5X5X5X5X5X5X5X5X5X5X5X5X5X5X5X  q r r = = y t t t d d d t t r r r i 8 5X5X5X5X5X5X5X5X5X5X5X5X5X5X5X5X5X5X5X5X5X5X",
"5X5X5X5X5X5X5X5X5X5X5X5X5X5X5X5X5X5X5X5X5X5X  + O O O O @ @ @ @ @ @ @ # @ $ X O O   5X5X5X5X5X5X5X5X5X5X5X5X5X5X5X5X5X5X5X5X5X5X",
"5X5X5X5X5X5X5X5X5X5X5X5X5X5X5X5X5X5X5X5X5X5X. - ; 1 1 5 4 4 4 4 4 4 0 w w 5 5 < ; . 5X5X5X5X5X5X5X5X5X5X5X5X5X5X5X5X5X5X5X5X5X5X",
"5X5X5X5X5X5X5X5X5X5X5X5X5X5X5X5X5X5X5X5X5X5X5Xx c A S R X.Y X.Y X.X.&.H.H.X.Y B x 5X5X5X5X5X5X5X5X5X5X5X5X5X5X5X5X5X5X5X5X5X5X5X",
"5X5X5X5X5X5X5X5X5X5X5X5X5X5X5X5X5X5X5X5X5X5X5Xl z v v C L Z L L C P I o.O.M n l z 5X5X5X5X5X5X5X5X5X5X5X5X5X5X5X5X5X5X5X5X5X5X5X",
"5X5X5X5X5X5X5X5X5X5X5X5X5X5X5X5X5X5X5X5X5X5X5Xz f 2 2 v v v v c c b h b b 2 , f 5X5X5X5X5X5X5X5X5X5X5X5X5X5X5X5X5X5X5X5X5X5X5X5X",
"5X5X5X5X5X5X5X5X5X5X5X5X5X5X5X5X5X5X5X5X5X5X5X5X< < < 2 f f 2 5X5Xm E , > > G 9 5X5X5X5X5X5X5X5X5X5X5X5X5X5X5X5X5X5X5X5X5X5X5X5X",
"5X5X5X5X5X5X5X5X5X5X5X5X5X5X5X5X5X5X5X5X5X5X5X5X< < < < < < < 5X5Xp i.] ) ] c.p 5X5X5X5X5X5X5X5X5X5X5X5X5X5X5X5X5X5X5X5X5X5X5X5X",
"5X5X5X5X5X5X5X5X5X5X5X5X5X5X5X5X5X5X5X5X5X5X5X5X3 1 < < < > 3 5X5X5X_ E.Q.R._ 5X5X5X5X5X5X5X5X5X5X5X5X5X5X5X5X5X5X5X5X5X5X5X5X5X",
"5X5X5X5X5X5X5X5X5X5X5X5X5X5X5X5X5X5X5X5X5X5X5X5X9 G > > 1 G 9 5X5X5X5X! ! ! 5X5X5X5X5X5X5X5X5X5X5X5X5X5X5X5X5X5X5X5X5X5X5X5X5X5X",
"5X5X5X5X5X5X5X5X5X5X5X5X5X5X5X5X5X5X5X5X5X5X5X5Xp c.] ) ] g.p 5X5X5X5X5X5X5X5X5X5X5X5X5X5X5X5X5X5X5X5X5X5X5X5X5X5X5X5X5X5X5X5X5X",
"5X5X5X5X5X5X5X5X5X5X5X5X5X5X5X5X5X5X5X5X5X5X5X5X5X^ E.Q.R.^ 5X5X5X5X5X5X5X5X5X5X5X5X5X5X5X5X5X5X5X5X5X5X5X5X5X5X5X5X5X5X5X5X5X5X",
"5X5X5X5X5X5X5X5X5X5X5X5X5X5X5X5X5X5X5X5X5X5X5X5X5X5X! ! ! 5X5X5X5X5X5X5X5X5X5X5X5X5X5X5X5X5X5X5X5X5X5X5X5X5X5X5X5X5X5X5X5X5X5X5X",
"5X5X5X5X5X5X5X5X5X5X5X5X5X5X5X5X5X5X5X5X5X5X5X5X5X5X5X5X5X5X5X5X5X5X5X5X5X5X5X5X5X5X5X5X5X5X5X5X5X5X5X5X5X5X5X5X5X5X5X5X5X5X5X5X",
"5X5X5X5X5X5X5X5X5X5X5X5X5X5X5X5X5X5X5X5X5X5X5X5X5X5X5X5X5X5X5X5X5X5X5X5X5X5X5X5X5X5X5X5X5X5X5X5X5X5X5X5X5X5X5X5X5X5X5X5X5X5X5X5X"
};
