/* XPM */
static char *result[] = {
/* columns rows colors chars-per-pixel */
"64 64 206 2 ",
"   c #060302",
".  c #060F10",
"X  c #071011",
"o  c #0C1515",
"O  c #131C1D",
"+  c #343533",
"@  c #460F06",
"#  c #47160D",
"$  c #630D01",
"%  c #610702",
"&  c #661104",
"*  c #6C1A0C",
"=  c #64170C",
"-  c #7D1C0D",
";  c #711D0F",
":  c #7C1F10",
">  c #631F15",
",  c #6D2216",
"<  c #60261D",
"1  c #73291B",
"2  c #542927",
"3  c #59312C",
"4  c #783929",
"5  c #6E352C",
"6  c #764E3C",
"7  c #78513E",
"8  c #513D4A",
"9  c #3B4444",
"0  c #5B4555",
"q  c #795441",
"w  c #685048",
"e  c #5C5063",
"r  c #685664",
"t  c #5A6363",
"y  c #576161",
"u  c #72627D",
"i  c #851B0B",
"p  c #811F10",
"a  c #AA1E0A",
"s  c #8C2515",
"d  c #822213",
"f  c #932312",
"g  c #9E2715",
"h  c #B1210E",
"j  c #AD2917",
"k  c #A82715",
"l  c #B22C19",
"z  c #BA2713",
"x  c #BC311E",
"c  c #873B2D",
"v  c #BB3622",
"b  c #A23B2B",
"n  c #C82F18",
"m  c #D72F18",
"M  c #CA331E",
"N  c #C6301A",
"B  c #D7341E",
"V  c #C5230D",
"C  c #E32F16",
"Z  c #E73017",
"A  c #CF3621",
"S  c #C63A26",
"D  c #D53923",
"F  c #E63D26",
"G  c #E83C25",
"H  c #8E4B3B",
"J  c #844438",
"K  c #924436",
"L  c #AF4D3E",
"P  c #CF422D",
"I  c #DD432C",
"U  c #D2402B",
"Y  c #EA4B33",
"T  c #E34F37",
"R  c #F24D33",
"E  c #ED553C",
"W  c #E55139",
"Q  c #FD593F",
"!  c #E8432D",
"~  c #985747",
"^  c #9B4F42",
"/  c #A85A47",
"(  c #A95D51",
")  c #A75C50",
"_  c #96684E",
"`  c #926A55",
"'  c #956E5B",
"]  c #9B6253",
"[  c #98715E",
"{  c #BE6D5A",
"}  c #BA6A57",
"|  c #AB755C",
" . c #B16751",
".. c #9E7D68",
"X. c #9A7C76",
"o. c #A87D66",
"O. c #B47967",
"+. c #DB5A47",
"@. c #E85D46",
"#. c #FD5C42",
"$. c #C0715E",
"%. c #CF6C55",
"&. c #E36655",
"*. c #CC7A6D",
"=. c #CA7568",
"-. c #D2796C",
";. c #D27D71",
":. c #E77C7A",
">. c #E46F6D",
",. c #9F806D",
"<. c #A3836C",
"1. c #AA826C",
"2. c #AD8C74",
"3. c #AA8672",
"4. c #B38C74",
"5. c #B88F76",
"6. c #B58C7C",
"7. c #BC967B",
"8. c #BF987D",
"9. c #B79177",
"0. c #DD8C7C",
"q. c #D58E75",
"w. c #C19A7F",
"e. c #DE917E",
"r. c #D4866D",
"t. c #EB8475",
"y. c #E7817E",
"u. c #FF8E7B",
"i. c #EC8D72",
"p. c #6B668D",
"a. c #8A7C9F",
"s. c #BE9A80",
"d. c #A18885",
"f. c #858ABA",
"g. c #C59F84",
"h. c #CC9E82",
"j. c #D69D8A",
"k. c #E98D8A",
"l. c #EB9889",
"z. c #F59C93",
"x. c #CCA285",
"c. c #CEA689",
"v. c #CAAA8D",
"b. c #C7A288",
"n. c #D0A689",
"m. c #D6AA8C",
"M. c #D9AD8E",
"N. c #CCAF90",
"B. c #D7AE91",
"V. c #DAAE91",
"C. c #CDB193",
"Z. c #CCB99C",
"A. c #DDB294",
"S. c #D4BB9D",
"D. c #D7B89A",
"F. c #E5AB8F",
"G. c #EDA695",
"H. c #F7A999",
"J. c #E1B696",
"K. c #E2B699",
"L. c #E5BA9A",
"P. c #EABE9D",
"I. c #E8B596",
"U. c #F6BA9E",
"Y. c #FBAEA2",
"T. c #F7ADA1",
"R. c #EDBFA1",
"E. c #F0BFA3",
"W. c #F6BBB2",
"Q. c #E7C09E",
"!. c #DEC7A9",
"~. c #E4C4A2",
"^. c #EEC3A4",
"/. c #E5CAA9",
"(. c #EBCAA7",
"). c #F1C5A6",
"_. c #F3CBA7",
"`. c #F3C7A8",
"'. c #F4CBA9",
"]. c #F8C3A3",
"[. c #E2D1AF",
"{. c #F5D2AD",
"}. c #F8D4AB",
"|. c #EED7B4",
" X c #F5D5B1",
".X c #F8D5B2",
"XX c #F7DAB3",
"oX c #F8DEB6",
"OX c #F9DFB8",
"+X c #F1C1BA",
"@X c #F9E0B7",
"#X c #F9E2BA",
"$X c #F3E0BF",
"%X c #B6B4C3",
"&X c #B0B8EA",
"*X c #F9E6C0",
"=X c #FAEBC5",
"-X c #FBEDCA",
";X c #F5E4C0",
":X c #FCF4CC",
">X c #FFF9CF",
",X c #FBF1D5",
"<X c #FEFCD4",
"1X c #FDFBDA",
"2X c #FBF4E3",
"3X c None",
/* pixels */
"3X3X3X3X3X3X3X3X3X3X3X3X3X3X3X3X3X3X3X3X3X3X3X3X3X3X3X3X3X3X3X3X3X3X3X3X3X3X3X3X3X3X3X3X3X3X3X3X3X3X3X3X3X3X3X3X3X3X3X3X3X3X3X3X",
"3X3X3X3X3X3X3X3X3X3X3X3X3X3X3X3X3X3X3X3X3X3X3X3X3X3X3X3X3X3X3X3X3X3X3X3X3X3X3X3X3X3X3X3X3X3X3X3X3X3X3X3X3X3X3X3X3X3X3X3X3X3X3X3X",
"3X3X3X3X3X3X3X3X3X3X3X3X3X3X3X3X3X3X3X3X3X3X3X3X3X3X3X3X3X3X3X3X3X3X3X3X3X3X3X3X3X3X3X3X3X3X3X3X3X3X3X3X3X3X3X3X3X3X3X3X3X3X3X3X",
"3X3X3X3X3X3X3X3X3X3X3X3X3X3X3X3X3X3X3X3X3X3X3X3X3X3X3X3X3X3X3X3X3X3X3X3X3X3X3X3X3X3X3X3X3X3X3X3X3X3X3X3X3X3X3X3X3X3X3X3X3X3X3X3X",
"3X3X3X3X3X3X3X3X3X3X3X3X3X3X3X3X3X3X3X3X3X3X3X3X3X3X3X3X3X3X3X3X3X3X3X3X3X3X3X3X3X3X3X3X3X3X3X3X3X3X3X3X3X3X3X3X3X3X3X3X3X3X3X3X",
"3X3X3X3X3X3X3X3X3X3X3X3X3X3X3X3X3X3X3X3X3X3X3X3X3X3X3X3X3X3XX.Z.C.v.3.3X3X3X3X3X3X3X3X3X3X3X3X3X3X3X3X3X3X3X3X3X3X3X3X3X3X3X3X3X",
"3X3X3X3X3X3X3X3X3X3X3X3X3X3X3X3X3X3X3X3X3X3X3X3X3X..Z.Z.9.9.C.1X1X#X7.v.v.v.3X3X3X3X3X3X3X3X3X3X3X3X3X3X3X3X3X3X3X3X3X3X3X3X3X3X",
"3X3X3X3X3X3X3X3X3X3X3X3X3X3X3X3X3X3X3X3X3X3X3X3Xg.S.-X XL.L.OX.X/. X(.#X>X:XC.3X3X3X3X3X3X3X3X3X3X3X3X3X3X3X3X3X3X3X3X3X3X3X3X3X",
"3X3X3X3X3X3X3X3X3X3X3X3X3X3X3X3X3X3X3X3X3X3X3X<. X XV.h.'.'.).A.x.A.@X@X<X1X*X<.3X3X3X3X3X3X3X3X3X3X3X3X3X3X3X3X3X3X3X3X3X3X3X3X",
"3X3X3X3X3X3X3X3X3X3X3X3X3X3X3X3X3X3X3X3X3X3X3Xm.D.V.J.J.J.).J.J.L.A.J.XX:X<X:XC.3X3X3X3X3X3X3X3X3X3X3X3X3X3X3X3X3X3X3X3X3X3X3X3X",
"3X3X3X3X3X3X3X3X3X3X3X3X3X3X3X3X3X3X3X3X3X9.b.L.K.{.'._.A.K.A.XX#X#XQ.L.;X<X<X#Xv.2.A.s.3X3X3X3X3X3X3X3X3X3X3X3X3X3X3X3X3X3X3X3X",
"3X3X3X3X3X3X3X3X3X3X3X3X3X3X3X3X3X3X<.9.7.m.'.n.'.}.OX#X Xn.`.*X<X<X@Xn.{.*X>X-X#XN.b.m.B.3X3X3X3X3X3X3X3X3X3X3X3X3X3X3X3X3X3X3X",
"3X3X3X3X3X3X3X3X3X3X3X3X3X3X3X3X3X7.7.L.M.J.J.J.'.@X:X>X=XQ.Q.:X<X<X=XL.A.}.=X<X=X#XC..X.XV.m.3X3X3X3X3X3X3X3X3X3X3X3X3X3X3X3X3X",
"3X3X3X3X3X3X3X3X3X3X3X3X3X3X3X3X7.M.P.).L.).n.).}.=X<X<X>X@Xc.#X:X>X:X#XL.A.L.oX*XOX#XOXOXXX XV.3X3X3X3X3X3X3X3X3X3X3X3X3X3X3X3X",
"3X3X3X3X3X3X3X3X3X3X3X3X3X3X3X7.M.L.).^.'.}.L.(.}.#X:X:X=X@XQ.L.{.XX#X*XOX~.L.}.#X*X*X*X*X*X#X.XB.3X3X3X3X3X3X3X3X3X3X3X3X3X3X3X",
"3X3X3X3X3X3X3X3X3X3X3X3X3X3X7.M.L.`.)._._.}.}.}.}.#X#X#X@X@X@X~._. X#X#X#X#X#X=X-X:X-X-X-X-X*X#X'.B.3X3X3X3X3X3X3X3X3X3X3X3X3X3X",
"3X3X3X3X3X3X3X3X3X3X3X3X3X<.M.L.`.)._.}.{._._.}.}.OX#X#XOX#X#X#X#X#XOXOXXX*X*X-X-X-X-X-X-X=X-XOX{.`.8.3X3X3X3X3X3X3X3X3X3X3X3X3X",
"3X3X3X3X3X3X3X3X3X3X3X3X3X4.m.).`._.}.}.}.{._.}.}.OX#XOX#X#X$XoXOXOXOXOX*X-X-X-X-X-X,X,X,X,X=X;XOX^.V.3X3X3X3X3X3X3X3X3X3X3X3X3X",
"3X3X3X3X3X3X3X3X3X3X3X3X<.x.L.).).}.}.}.}.}.}.XXXXOX#XOX#XOX#X#X#XoXOX*X-X-X-X-X-X,X2X2X2X2X,X-XOX X).8.3X3X3X3X3X3X3X3X3X3X3X3X",
"3X3X3X3X3X3X3X3X3X3X3X3X4.m.).).'. XXX XXXXXXX@XOXOXOXOXOXOXOXoXOX;X*X-X-X-X-X-X,X2X2X2X2X2X2X-X#X#X^.B.3X3X3X3X3X3X3X3X3X3X3X3X",
"3X3X3X3X3X3X3X3X3X3X3X<.8.m.^.`.}.XXXXXX@X@X@X@XOXOXOXOXOXOXOX*X*X-X-X-X;X=X,X,X2X2X2X2X2X2X2X-XOXOX{.`.g.3X3X3X3X3X3X3X3X3X3X3X",
"3X3X3X3X3X3X3X3X3X3X3X<.b.M.).`. XXXXXoX@X@X@X@X*XOX*XOXOX*X*X-X-X-X-X-X,X,X2X2X2X2X2X2X2X2X2X=X#XOX@X^.8.3X3X3X3X3X3X3X3X3X3X3X",
"3X3X3X3X3X3X3X3X3X3X3X4.m.M.^.`.XXXXoXoX#X#X@X$X*X*X*X=X=X-X-X-X-X=X,X,X2X2X2X2X2X2X2X2X2X2X2X-X-X#XOX^.x.3X3X3X3X3X3X3X3X3X3X3X",
"3X3X3X3X3X3X3X3X3X3X<.w.m.M.^.`.XX@XoX@X@X#X#X*X=X-X-X-X-X-X-X-X-X,X2X2X2X2X2X2X2X2X2X2X2X2X2X-X-X#XOX).M.8.3X3X3X3X3X3X3X3X3X3X",
"3X3X3X3X3X3X3X3X3X3X<.7.m.M.^.`.XXoXoX@X#X#X*X=X=X=X-X-X-X-X-X-X,X2X2X2X2X2X2X2X2X2X2X2X2X2X,X-X-X#XOX).m.8.3X3X3X3X3X3X3X3X3X3X",
"3X3X3X3X3X3X3X3X3X3X<.8.m.M.).`.XXXXXX@X#X#X=X=X=X=X-X-X-X-X-X-X2X2X2X2X2X2X2X2X2X2X2X2X2X2X-X-X*X@XOX).m.8.3X3X3X3X3X3X3X3X3X3X",
"3X3X3X3X3X3X3X3X3X3X<.7.m.M.).].}.@X@X@X#X$X=X=X-X-X-X-X-X-X-X-X2X2X2X2X2X2X2X2X2X2X2X2X2X,X-X-XOX@X#X).m.w.3X3X3X3X3X3X3X3X3X3X",
"3X3X3X3X3X3X3X3X3X3X<.w.m.V.^.].U.]._. X#X#X-X-X-X-X-X-X-X-X-X-X,X2X2X2X2X2X2X2X2X2X,X,X,X-X-X;X@XoX{.).m.w.3X3X3X3X3X3X3X3X3X3X",
"3X3X3X3X3X3X3X3X3X3X<.8.m.M.).I.H H ~ F. X@X*X:X-X=X-X-X-X-X-X-X-X,X,X,X,X,X,X,X,X,X=X-X-X-X;XoX#XoX).).M.8.3X3X3X3X3X3X3X3X3X3X",
"3X3X3X3X3X3X3X3X3X3X3X4.x.V.P.] d.e 0 ~ F.@X@X$X-X-X-X-X=X-X-X-X-X-X-X-X-X=X=X-X=X-X-X-X-X;X#XoXoX#X`.K.x.3X3X3X3X3X3X3X3X3X3X3X",
"3X3X3X3X3X3X3X3X3X3X3X<.9.M.M.3 %Xr f.2 q.@X@XoX*X*X-X-X-X-X-X-X-X-X-X-X-X-X-X-X:X-X-X*X*X@X#XoX#X X).m.8.3X3X3X3X3X3X3X3X3X3X3X",
"3X3X3X3X3X3X3X3X3X3X3X<.w.M.x.2 p.a.&X2 q.{.@X#XOXOX*X*X*X*X*X-X-X-X-X-X-X-X-X*X*X*X#XoXOXOXoX#X{.).].V.8.3X3X3X3X3X3X3X3X3X3X3X",
"3X3X3X3X3X3X3X3X3X3X3X3X1.x.n.` 0 p.p.` F.`.{.{.OX#X#X#XOXOXOX;X*X*X;X*X*X*X*XOXOXOXOX#X#X#XOX X).`.K.w.3X3X3X3X3X3X3X3X3X3X3X3X",
"3X3X3X3X3X3X3X3X3X3X3X3X[ w.M.A.] _ ^ l.H.G.G.).'.{. X'.#X#X#X#X#XOXOXOXOXOXOX#X X{..X{. X{.{.).`.K.m.' 3X3X3X3X3X3X3X3X3X3X3X3X",
"3X3X3X3X3X3X3X3X3X3X3X3X3X3.x.M.I.H.z.k.k.k.:.l.^.E.E.E._. X'.{.{. X{. X X'. X{.).).).).).).).`.L.M.5.3X3X3X3X3X3X3X3X3X3X3X3X3X",
"3X3X3X3X3X3X3X3X3X3X3X3X3X3X1.x.m.i.:.:.:.:.>.l.).`.).).).^.).).E.E.E.E.).).).).`.).).`.).`.).K.M.5.3X3X3X3X3X3X3X3X3X3X3X3X3X3X",
"3X3X3X3X3X3X3X3X3X3X3X3X3X3X3X3.x.n.e.0.0.l.G.'.).`.^.).^.).).).).`.`.`.`.).).^.).).`.`.].L.P.M.5.3X3X3X3X3X3X3X3X3X3X3X3X3X3X3X",
"3X3X3X3X3X3X3X3X3X3X3X3X3X3X3X3X<.1.v.A.A.~.Q.L.`.`.).).`.].`.).`.`.`.`.`.`.`.`.`.'.`.L.P.x.5.4.3X3X3X3X3X3X3X3X3X3X3X3X3X3X3X3X",
"3X3X3X3X3X3X3X3X3X3X3X3X3X3X3X3X3X[ 1.5.n.j.h.n.L.L.L.L.L.L.L.L.L.L.L.I.L.L.L.L.A.A.A.x.4.1.3X3X3X3X3X3X3X3X3X3X3X3X3X3X3X3X3X3X",
"3X3X3X3X3X3X3X3X3X3X3X3X3X3X3X3X3X3X3X' o.3.o.1.h.h.x.h.x.x.x.x.x.x.x.x.x.x.x.h.1.<.o.1.' 3X3X3X3X3X3X3X3X3X3X3X3X3X3X3X3X3X3X3X",
"3X3X3X3X3X3X3X3X3X3X3X3X3X3X3X3X3X3X3X3X3X3X3X3X4.4.4.o.<.<.3.<.<.<.<.<.o.<.o.6.3X3X3X3X3X3X3X3X3X3X3X3X3X3X3X3X3X3X3X3X3X3X3X3X",
"3X3X3X3X3X3X3X3X3X3X3X3X3X3X3X3X3X3X3X3X3X3X3X3X6 4 4 } { { { { $.$.{ $.$.$.s.c 3X3X3X3X3X3X3X3X3X3X3X3X3X3X3X3X3X3X3X3X3X3X3X3X",
"3X3X3X3X3X3X3X3X3X3X3X3X3X3X3X3X3X3X3X3X3X3X3X3X& b O.H.Y.Y.Y.Y.T.T.H.Y.Y.Y./ i 3X3X3X3X3X3X3X3X3X3X3X3X3X3X3X3X3X3X3X3X3X3X3X3X",
"3X3X3X3X3X3X3X3X3X3X3X3X3X3X3X3X3X3X3X3X3X3X3Xv L H.k.=.*.*.*.;.t.t.t.;.;.=.x j 3X3X3X3X3X3X3X3X3X3X3X3X3X3X3X3X3X3X3X3X3X3X3X3X",
"3X3X3X3X3X3X3X3X3X3X3X3X3X3X3X3X3X3X3X3X3X3X3Xx z.*.z N N N N h C Z C V a A R I f 3X3X3X3X3X3X3X3X3X3X3X3X3X3X3X3X3X3X3X3X3X3X3X",
"3X3X3X3X3X3X3X3X3X3X3X3X3X3X3X3X3X3X3X3X3X3Xx +.+Xj B E E E E x F F F Y A P @.W l 3X3X3X3X3X3X3X3X3X3X3X3X3X3X3X3X3X3X3X3X3X3X3X",
"3X3X3X3X3X3X3X3X3X3X3X3X3X3X3X3X3X3X3X3X3X3Xv l.-.S A T W W T S A F F @.T A N ! D f 3X3X3X3X3X3X3X3X3X3X3X3X3X3X3X3X3X3X3X3X3X3X",
"3X3X3X3X3X3X3X3X3X3X3X3X3X3X3X3X3X3X3X3X3X3XU W.z C B R R Y R R D m F @.@.G r.%.M k 3X3X3X3X3X3X3X3X3X3X3X3X3X3X3X3X3X3X3X3X3X3X",
"3X3X3X3X3X3X3X3X3X3X3X3X3X3X3X3X3X3X3X3X3X3X> X.J c H ^ ) ) ) ) ( H B Y Y i.1X!. .< 3X3X3X3X3X3X3X3X3X3X3X3X3X3X3X3X3X3X3X3X3X3X",
"3X3X3X3X3X3X3X3X3X3X3X3X3X3X3X3X3X3X3X3X3X3X  + 9 9 9 0 y t t t t t J D t.1X,X<XZ.w 3X3X3X3X3X3X3X3X3X3X3X3X3X3X3X3X3X3X3X3X3X3X",
"3X3X3X3X3X3X3X3X3X3X3X3X3X3X3X3X3X3X3X3X3X3X  o X . . . O O O O O O o # !.;X,X<X(.o.3X3X3X3X3X3X3X3X3X3X3X3X3X3X3X3X3X3X3X3X3X3X",
"3X3X3X3X3X3X3X3X3X3X3X3X3X3X3X3X3X3X3X3X3X3X  @ @ = = , , , , , , , 5 w v./.$X#XS.3X3X3X3X3X3X3X3X3X3X3X3X3X3X3X3X3X3X3X3X3X3X3X",
"3X3X3X3X3X3X3X3X3X3X3X3X3X3X3X3X3X3X3X3X3X3X3Xg k F G R Q Q Q Q #.#.k.H.j.S.S.C./ 3X3X3X3X3X3X3X3X3X3X3X3X3X3X3X3X3X3X3X3X3X3X3X",
"3X3X3X3X3X3X3X3X3X3X3X3X3X3X3X3X3X3X3X3X3X3X3Xs f j l M I I I I F I @.&.&./ / / f 3X3X3X3X3X3X3X3X3X3X3X3X3X3X3X3X3X3X3X3X3X3X3X",
"3X3X3X3X3X3X3X3X3X3X3X3X3X3X3X3X3X3X3X3X3X3X3Xf : - - j j j j j j j h h h i - - d 3X3X3X3X3X3X3X3X3X3X3X3X3X3X3X3X3X3X3X3X3X3X3X",
"3X3X3X3X3X3X3X3X3X3X3X3X3X3X3X3X3X3X3X3X3X3X3X3X* * * : s 3X3X3X3X3Xs c 1 $ % $ & 3X3X3X3X3X3X3X3X3X3X3X3X3X3X3X3X3X3X3X3X3X3X3X",
"3X3X3X3X3X3X3X3X3X3X3X3X3X3X3X3X3X3X3X3X7 s.!.% ; ; * & 3X3X3X3X3X3X3Xq 2.O.| | ~ 6 3X3X3X3X3X3X3X3X3X3X3X3X3X3X3X3X3X3X3X3X3X3X",
"3X3X3X3X3X3X3X3X3X3X3X3X3X3X3X3X3X3X3X3X7 7.~.| $ $ & H 3X3X3X3X3X3X3Xq S./././.b.q 3X3X3X3X3X3X3X3X3X3X3X3X3X3X3X3X3X3X3X3X3X3X",
"3X3X3X3X3X3X3X3X3X3X3X3X3X3X3X3X3X3X3X3Xq 8.D.|.O.| | b.3X3X3X3X3X3X3X6 ` ` ` ` ` 7 3X3X3X3X3X3X3X3X3X3X3X3X3X3X3X3X3X3X3X3X3X3X",
"3X3X3X3X3X3X3X3X3X3X3X3X3X3X3X3X3X3X3X3X3X' [ D././.!.b.3X3X3X3X3X3X3X3X3X3X3X3X3X3X3X3X3X3X3X3X3X3X3X3X3X3X3X3X3X3X3X3X3X3X3X3X",
"3X3X3X3X3X3X3X3X3X3X3X3X3X3X3X3X3X3X3X3X3X3X3X` ` ` ` ' 3X3X3X3X3X3X3X3X3X3X3X3X3X3X3X3X3X3X3X3X3X3X3X3X3X3X3X3X3X3X3X3X3X3X3X3X",
"3X3X3X3X3X3X3X3X3X3X3X3X3X3X3X3X3X3X3X3X3X3X3X3X3X3X3X3X3X3X3X3X3X3X3X3X3X3X3X3X3X3X3X3X3X3X3X3X3X3X3X3X3X3X3X3X3X3X3X3X3X3X3X3X",
"3X3X3X3X3X3X3X3X3X3X3X3X3X3X3X3X3X3X3X3X3X3X3X3X3X3X3X3X3X3X3X3X3X3X3X3X3X3X3X3X3X3X3X3X3X3X3X3X3X3X3X3X3X3X3X3X3X3X3X3X3X3X3X3X",
"3X3X3X3X3X3X3X3X3X3X3X3X3X3X3X3X3X3X3X3X3X3X3X3X3X3X3X3X3X3X3X3X3X3X3X3X3X3X3X3X3X3X3X3X3X3X3X3X3X3X3X3X3X3X3X3X3X3X3X3X3X3X3X3X"
};
