/* XPM */
static char *result[] = {
/* columns rows colors chars-per-pixel */
"64 64 199 2 ",
"   c #020201",
".  c #080A0A",
"X  c #070F10",
"o  c #071011",
"O  c #0C1212",
"+  c #141B1A",
"@  c #1B201F",
"#  c #343533",
"$  c #450E06",
"%  c #5F0A00",
"&  c #421713",
"*  c #640F03",
"=  c #65150A",
"-  c #771709",
";  c #631F15",
":  c #6E2217",
">  c #71271B",
",  c #763828",
"<  c #6A2E24",
"1  c #754E3C",
"2  c #73453D",
"3  c #78503E",
"4  c #3B4443",
"5  c #374140",
"6  c #5B5958",
"7  c #7A5542",
"8  c #5D605F",
"9  c #566262",
"0  c #831D0D",
"q  c #8D1D0C",
"w  c #A81C0B",
"e  c #8C2312",
"r  c #932313",
"t  c #9E2513",
"y  c #AE210D",
"u  c #A72916",
"i  c #B32916",
"p  c #B22C19",
"a  c #B82A16",
"s  c #BA321F",
"d  c #8E3F34",
"f  c #823423",
"g  c #BA3623",
"h  c #B93825",
"j  c #B43622",
"k  c #A23B2B",
"l  c #C52C15",
"z  c #C7331D",
"x  c #DB341D",
"c  c #D02812",
"v  c #E42E16",
"b  c #E7321B",
"n  c #C83521",
"m  c #D13521",
"M  c #E53B25",
"N  c #E93E27",
"B  c #874639",
"V  c #934434",
"C  c #8E513F",
"Z  c #AC493A",
"A  c #DD442E",
"S  c #D2402B",
"D  c #C64D3B",
"F  c #E44E36",
"G  c #EC4C34",
"H  c #E74E38",
"J  c #F34E34",
"K  c #ED543C",
"L  c #E5523B",
"P  c #FA573D",
"I  c #E74029",
"U  c #894E40",
"Y  c #9B4F42",
"T  c #9C5346",
"R  c #A55D54",
"E  c #A8594D",
"W  c #916955",
"Q  c #986A58",
"!  c #98725F",
"~  c #97705E",
"^  c #8E6551",
"/  c #B2614C",
"(  c #BE6D5A",
")  c #BA6A57",
"_  c #AC755D",
"`  c #AB725A",
"'  c #8E776F",
"]  c #9D7B67",
"[  c #9A7C76",
"{  c #A37F69",
"}  c #A87D69",
"|  c #AD7968",
" . c #B97B65",
".. c #D75B48",
"X. c #EA5C45",
"o. c #E55942",
"O. c #F95C42",
"+. c #DC604E",
"@. c #CC6A53",
"#. c #C0715E",
"$. c #FF6147",
"%. c #CD7A6E",
"&. c #CB7569",
"*. c #D17A6D",
"=. c #CE7C70",
"-. c #E67B79",
";. c #E87D7B",
":. c #E4706D",
">. c #A3836C",
",. c #AA826C",
"<. c #AE8772",
"1. c #AF8B75",
"2. c #B38C74",
"3. c #B88E76",
"4. c #B28979",
"5. c #B79279",
"6. c #BC967B",
"7. c #BF987D",
"8. c #DD8D7D",
"9. c #C19A7F",
"0. c #E78568",
"q. c #E98579",
"w. c #F38E7E",
"e. c #BE9D83",
"r. c #B79C81",
"t. c #BEA58B",
"y. c #C59E84",
"u. c #CB9D82",
"i. c #E98D8A",
"p. c #ED9788",
"a. c #EC9C8C",
"s. c #EA9587",
"d. c #F29789",
"f. c #F59893",
"g. c #CDA285",
"h. c #CDA589",
"j. c #C9AB8D",
"k. c #C2A288",
"l. c #D1A689",
"z. c #D6AB8C",
"x. c #D9AD8E",
"c. c #D7AD91",
"v. c #DAAD90",
"b. c #CDB192",
"n. c #CCB99A",
"m. c #DCB294",
"M. c #D1B194",
"N. c #E5A98D",
"B. c #E2A68C",
"V. c #F2A68A",
"C. c #EDA695",
"Z. c #F5A998",
"A. c #E1B596",
"S. c #E1B996",
"D. c #E1B698",
"F. c #E5BA9A",
"G. c #EABE9E",
"H. c #D0BFA0",
"J. c #FBAEA2",
"K. c #F7ADA0",
"L. c #EABFA0",
"P. c #F0BFA3",
"I. c #FEB1A5",
"U. c #F6BBB2",
"Y. c #E7C09F",
"T. c #DAC0A1",
"R. c #E4C4A2",
"E. c #EEC2A3",
"W. c #E3C9A9",
"Q. c #E8CEAB",
"!. c #F1C5A6",
"~. c #F3CAA6",
"^. c #F3C7A8",
"/. c #F4CBAA",
"(. c #EAD1AE",
"). c #F5D2AC",
"_. c #F8D6AD",
"`. c #E4D7B5",
"'. c #F6D5B1",
"]. c #FBD4B1",
"[. c #F7DAB3",
"{. c #F8DEB6",
"}. c #F9DFB8",
"|. c #F5DCBB",
" X c #F1C1BA",
".X c #F9E0B7",
"XX c #F9E2BA",
"oX c #FCE8BF",
"OX c #F7E5C1",
"+X c #FAE6C1",
"@X c #FAEBC5",
"#X c #FBEDCA",
"$X c #F6E4CB",
"%X c #FCF4CB",
"&X c #FBF0D6",
"*X c #FEFBD3",
"=X c #FDFCDB",
"-X c #FBF4E3",
";X c None",
/* pixels */
";X;X;X;X;X;X;X;X;X;X;X;X;X;X;X;X;X;X;X;X;X;X;X;X;X;X;X;X;X;X;X;X;X;X;X;X;X;X;X;X;X;X;X;X;X;X;X;X;X;X;X;X;X;X;X;X;X;X;X;X;X;X;X;X",
";X;X;X;X;X;X;X;X;X;X;X;X;X;X;X;X;X;X;X;X;X;X;X;X;X;X;X;X;X;X;X;X;X;X;X;X;X;X;X;X;X;X;X;X;X;X;X;X;X;X;X;X;X;X;X;X;X;X;X;X;X;X;X;X",
";X;X;X;X;X;X;X;X;X;X;X;X;X;X;X;X;X;X;X;X;X;X;X;X;X;X;X;X;X;X;X;X;X;X;X;X;X;X;X;X;X;X;X;X;X;X;X;X;X;X;X;X;X;X;X;X;X;X;X;X;X;X;X;X",
";X;X;X;X;X;X;X;X;X;X;X;X;X;X;X;X;X;X;X;X;X;X;X;X;X;X;X;X;X;X;X;X;X;X;X;X;X;X;X;X;X;X;X;X;X;X;X;X;X;X;X;X;X;X;X;X;X;X;X;X;X;X;X;X",
";X;X;X;X;X;X;X;X;X;X;X;X;X;X;X;X;X;X;X;X;X;X;X;X;X;X;X;X;X;X;X;X;X;X;X;X;X;X;X;X;X;X;X;X;X;X;X;X;X;X;X;X;X;X;X;X;X;X;X;X;X;X;X;X",
";X;X;X;X;X;X;X;X;X;X;X;X;X;X;X;X;X;X;X;X;X;X;X;X;X;X;X;X;X;X] n.n.j.>.;X;X;X;X;X;X;X;X;X;X;X;X;X;X;X;X;X;X;X;X;X;X;X;X;X;X;X;X;X",
";X;X;X;X;X;X;X;X;X;X;X;X;X;X;X;X;X;X;X;X;X;X;X;X;X] n.M.h.5.b.=X*X+X6.j.j.j.;X;X;X;X;X;X;X;X;X;X;X;X;X;X;X;X;X;X;X;X;X;X;X;X;X;X",
";X;X;X;X;X;X;X;X;X;X;X;X;X;X;X;X;X;X;X;X;X;X;X;Xk.n.=X@XL.F.[.|.[.R.G.oX*X%Xb.;X;X;X;X;X;X;X;X;X;X;X;X;X;X;X;X;X;X;X;X;X;X;X;X;X",
";X;X;X;X;X;X;X;X;X;X;X;X;X;X;X;X;X;X;X;X;X;X;X>.^.*XW.x.h.^.!./.m.u.D.[.%X*XOX>.;X;X;X;X;X;X;X;X;X;X;X;X;X;X;X;X;X;X;X;X;X;X;X;X",
";X;X;X;X;X;X;X;X;X;X;X;X;X;X;X;X;X;X;X;X;X;X;Xh.E.F.m.D.D.D.!.m.D.F.D.S.[.%X%Xb.;X;X;X;X;X;X;X;X;X;X;X;X;X;X;X;X;X;X;X;X;X;X;X;X",
";X;X;X;X;X;X;X;X;X;X;X;X;X;X;X;X;X;X;X;X] 5.5.!.F.m././.~.D.F.m.'.oX.XF.F.oX*X%Xj.<.m.e.;X;X;X;X;X;X;X;X;X;X;X;X;X;X;X;X;X;X;X;X",
";X;X;X;X;X;X;X;X;X;X;X;X;X;X;X;X;X;X,.3.7.l.G.!.l./.).{..X_.h./.+X*X*XXXl./.oX*X%Xb.y.c.c.6.;X;X;X;X;X;X;X;X;X;X;X;X;X;X;X;X;X;X",
";X;X;X;X;X;X;X;X;X;X;X;X;X;X;X;X;X3.6.F.x.S.~.Y.F./..X%X*X@XR.F.%X*X*X#XF.m._.+X*X#Xb.'.].c.z.;X;X;X;X;X;X;X;X;X;X;X;X;X;X;X;X;X",
";X;X;X;X;X;X;X;X;X;X;X;X;X;X;X;X9.x.G.!.S.~.~.9.E._.@X*X*X%XXXh.}.%X%X#X.XF.m.T.[.XX+X.X.X[.].c.;X;X;X;X;X;X;X;X;X;X;X;X;X;X;X;X",
";X;X;X;X;X;X;X;X;X;X;X;X;X;X;X6.x.F.~.~.~.~.~.Y.~.).oX@X%X@X}.R.D.).[.oX@X.XY.Y.'.oXXXOX+X+X+X].c.;X;X;X;X;X;X;X;X;X;X;X;X;X;X;X",
";X;X;X;X;X;X;X;X;X;X;X;X;X;X6.x.F.!.!.~.~./.)._.~.)..X@XXX.X}.XXR./.'.{..XXXoX.X@X#X#X#X#X#X#X@X].c.;X;X;X;X;X;X;X;X;X;X;X;X;X;X",
";X;X;X;X;X;X;X;X;X;X;X;X;X>.x.F.^.E.!.~.).).~.).).).{.XX.X.X.XXXoXXX.X.X}.[.oXOX%X$X#X#X@X#X#X#X.X!.5.;X;X;X;X;X;X;X;X;X;X;X;X;X",
";X;X;X;X;X;X;X;X;X;X;X;X;X2.z.^.^.^.~.)._.).).).)._.{..X.X.X}.oX}..X.X.X{.oX#X#X@X#X#X&X&X&X&X$X+X'.m.;X;X;X;X;X;X;X;X;X;X;X;X;X",
";X;X;X;X;X;X;X;X;X;X;X;X>.g.F.E.!.!._._._._._._.[.[.}.}..XXXXXXX}..X}.{.+X#X%X#X#X#X&X-X-X-X-X&X#XXX!.6.;X;X;X;X;X;X;X;X;X;X;X;X",
";X;X;X;X;X;X;X;X;X;X;X;X2.z.^.^.!./._._._._.[.[.}.}.}.}..X.X.X}.{.}.OX+X#X#X$X#X@X&X-X-X-X-X-X-X#X.X/.m.;X;X;X;X;X;X;X;X;X;X;X;X",
";X;X;X;X;X;X;X;X;X;X;X>.7.z.E.!.!._._.[.{.{.{.{.}.}.XXXXXX}.}.}.OX+X#X%X#X@X#X&X&X-X-X-X-X-X-X-X#X}.[.E.y.;X;X;X;X;X;X;X;X;X;X;X",
";X;X;X;X;X;X;X;X;X;X;X>.g.x.!.^.!._.[.[.{..X.X.XXXXX+XXXXX}.+X+X#X#X#X#X#X&X&X-X-X-X-X-X-X-X-X&X#XOX[.E.7.;X;X;X;X;X;X;X;X;X;X;X",
";X;X;X;X;X;X;X;X;X;X;X2.z.z.!.^.~.[.[..X.X.X.X.X+X+X+X+X#X+X#X#X#X#X#X&X&X-X-X-X-X-X-X-X-X-X-X-X#X#X.X!.g.;X;X;X;X;X;X;X;X;X;X;X",
";X;X;X;X;X;X;X;X;X;X>.7.z.x.E.^.!.[.[..X.X.X.XoX+X@X@X#X#X#X#X#X#X#X&X-X-X-X-X-X-X-X-X-X-X-X-X-X#X#X.X!.x.7.;X;X;X;X;X;X;X;X;X;X",
";X;X;X;X;X;X;X;X;X;X>.6.z.x.!.!.!.[.[..X}..XXX+X@X@X@X#X#X#X#X#X#X&X-X-X-X-X-X-X-X-X-X-X-X-X-X&X#X#X.X!.z.7.;X;X;X;X;X;X;X;X;X;X",
";X;X;X;X;X;X;X;X;X;X>.7.z.x.!.^.~..X{..X.X.X+X+X#X@X#X#X#X#X#X@X#X-X-X-X-X-X-X-X-X-X-X-X-X-X-X#X#XoX.X!.z.7.;X;X;X;X;X;X;X;X;X;X",
";X;X;X;X;X;X;X;X;X;X>.6.z.x.!.^.^.).{..X}..XoX@X#X@X#X#X#X#X#X#X#X-X-X-X-X-X-X-X-X-X-X-X-X-X&X#X#X{.{.!.z.9.;X;X;X;X;X;X;X;X;X;X",
";X;X;X;X;X;X;X;X;X;X>.6.z.x.E.!.!.E..X.X}.}.XX#X#X#X#X#X#X#X#X#X#X&X-X-X-X-X-X-X-X-X-X&X&X&X#X#X+X.X}.!.z.9.;X;X;X;X;X;X;X;X;X;X",
";X;X;X;X;X;X;X;X;X;X>.7.z.x.!.!.!.^.'.}.}.}.}.+X#X#X#X#X#X@X#X#X@X#X&X&X&X&X&X&X&X&X&X#X#X#X#X+X.X}.'.^.x.7.;X;X;X;X;X;X;X;X;X;X",
";X;X;X;X;X;X;X;X;X;X;X2.g.x.!.!.E.E.^./.{..X}.}.+X#X#X#X#X#X#X#X#X#X#X#X#X@X@X#X#X#X@X#X#X#X+X}..X.X!.D.h.;X;X;X;X;X;X;X;X;X;X;X",
";X;X;X;X;X;X;X;X;X;X;X>.5.z.F.!.].).P.).XX[.}..X}.+X+X#X#X#X#X#X#X#X#X#X#X#X#X#X%X#X#X#X+X+X}.}..X'.E.z.6.;X;X;X;X;X;X;X;X;X;X;X",
";X;X;X;X;X;X;X;X;X;X;X,.9.x.z.E.] } $X| Q B./.XX}.}.}.+X+X+X+X+X#X#X#X#X#X#X#X#X+X+X+XOX{.{..X.X).!.^.v.7.;X;X;X;X;X;X;X;X;X;X;X",
";X;X;X;X;X;X;X;X;X;X;X;X<.u.z.D.B & ' & U N.E.).'.XXXX.X.X}.}.}.+X+X+X+X+X+XOX+X}.}.}..X.XXX.X'.!.^.D.6.;X;X;X;X;X;X;X;X;X;X;X;X",
";X;X;X;X;X;X;X;X;X;X;X;X! 7.z.x.N.Q B R B.K.C.C.!./.'.).].XXXXXX}.}.}.|.}.}..X}.}.'.).).'.].).!.^.D.z.~ ;X;X;X;X;X;X;X;X;X;X;X;X",
";X;X;X;X;X;X;X;X;X;X;X;X;X,.h.x.z.N.d.f.i.i.i.;.s.P.P.P.!./.)./.).).).'.'./.'.).).!.!.!.!.E.!.^.F.x.3.;X;X;X;X;X;X;X;X;X;X;X;X;X",
";X;X;X;X;X;X;X;X;X;X;X;X;X;X,.h.x.z.8.;.;.;.-.:.s.!.!.!.!.E.P.P.P.!.P.P.P.!.!.!.!.!.!.!.!.^.!.F.x.3.;X;X;X;X;X;X;X;X;X;X;X;X;X;X",
";X;X;X;X;X;X;X;X;X;X;X;X;X;X;X,.g.z.x.8.8.a.a.C.^.!.!.!.!.!.~.!.!.!.!.^.!.!.!.!.!.!.!.!.!.F.G.x.3.;X;X;X;X;X;X;X;X;X;X;X;X;X;X;X",
";X;X;X;X;X;X;X;X;X;X;X;X;X;X;X;X} ,.h.m.m.L.Y.Y.!.^.^.^.!.!.!.!.!.^.^.^.^.^.^.^././.^.G.G.g.2.3.;X;X;X;X;X;X;X;X;X;X;X;X;X;X;X;X",
";X;X;X;X;X;X;X;X;X;X;X;X;X;X;X;X;X! ,.3.g.g.u.g.F.F.F.F.S.F.F.F.F.F.F.F.F.F.F.F.m.m.m.g.3.,.;X;X;X;X;X;X;X;X;X;X;X;X;X;X;X;X;X;X",
";X;X;X;X;X;X;X;X;X;X;X;X;X;X;X;X;X;X;XW ,.} <.,.u.u.u.g.g.h.h.g.g.g.g.g.g.g.g.u.,.} } ,.;X;X;X;X;X;X;X;X;X;X;X;X;X;X;X;X;X;X;X;X",
";X;X;X;X;X;X;X;X;X;X;X;X;X;X;X;X;X;X;X;X;X;X;X;X<.2.4.>.>.>.,.>.>.>.,.>.>.>.} <.;X;X;X;X;X;X;X;X;X;X;X;X;X;X;X;X;X;X;X;X;X;X;X;X",
";X;X;X;X;X;X;X;X;X;X;X;X;X;X;X;X;X;X;X;X;X;X;X;XB , , ) #.( ( #.#.#.( ( #. .4.V ;X;X;X;X;X;X;X;X;X;X;X;X;X;X;X;X;X;X;X;X;X;X;X;X",
";X;X;X;X;X;X;X;X;X;X;X;X;X;X;X;X;X;X;X;X;X;X;X;X* k  .Z.Z.J.I.J.J.J.J.J.I.Z.Z q ;X;X;X;X;X;X;X;X;X;X;X;X;X;X;X;X;X;X;X;X;X;X;X;X",
";X;X;X;X;X;X;X;X;X;X;X;X;X;X;X;X;X;X;X;X;X;X;X;XE Z.i.%.*.%.*.=.q.q.=.%.&.&.s p ;X;X;X;X;X;X;X;X;X;X;X;X;X;X;X;X;X;X;X;X;X;X;X;X",
";X;X;X;X;X;X;X;X;X;X;X;X;X;X;X;X;X;X;X;X;X;X;Xs V.%.a l z l w l v v l w D z K A r ;X;X;X;X;X;X;X;X;X;X;X;X;X;X;X;X;X;X;X;X;X;X;X",
";X;X;X;X;X;X;X;X;X;X;X;X;X;X;X;X;X;X;X;X;X;X;X.. Xp x H K H s I N G H h p.O.F F p ;X;X;X;X;X;X;X;X;X;X;X;X;X;X;X;X;X;X;X;X;X;X;X",
";X;X;X;X;X;X;X;X;X;X;X;X;X;X;X;X;X;X;X;X;X;Xn a.&.z z F L F s M N X.o.j q.L F F m r ;X;X;X;X;X;X;X;X;X;X;X;X;X;X;X;X;X;X;X;X;X;X",
";X;X;X;X;X;X;X;X;X;X;X;X;X;X;X;X;X;X;X;X;X;XS U.a x b J J G a M N o.L h w.P J J x t ;X;X;X;X;X;X;X;X;X;X;X;X;X;X;X;X;X;X;X;X;X;X",
";X;X;X;X;X;X;X;X;X;X;X;X;X;X;X;X;X;X;X;X;X;X; [ B V V Y E E j M N X.o.j | T Y Y V < ;X;X;X;X;X;X;X;X;X;X;X;X;X;X;X;X;X;X;X;X;X;X",
";X;X;X;X;X;X;X;X;X;X;X;X;X;X;X;X;X;X;X;X;X;X  # 4 4 4 4 8 8 u v M F F i 6 4 5 4 5 + ;X;X;X;X;X;X;X;X;X;X;X;X;X;X;X;X;X;X;X;X;X;X",
";X;X;X;X;X;X;X;X;X;X;X;X;X;X;X;X;X;X;X;X;X;X  O O X o o + @ / 0.:.V.V./ + o o o O   ;X;X;X;X;X;X;X;X;X;X;X;X;X;X;X;X;X;X;X;X;X;X",
";X;X;X;X;X;X;X;X;X;X;X;X;X;X;X;X;X;X;X;X;X;X. $ $ = = > : > 7.`.`.=X-Xr.7 > : = $ . ;X;X;X;X;X;X;X;X;X;X;X;X;X;X;X;X;X;X;X;X;X;X",
";X;X;X;X;X;X;X;X;X;X;X;X;X;X;X;X;X;X;X;X;X;X;Xu u M N G P O.9.Q.'.oX|.t.Z.$.P z u ;X;X;X;X;X;X;X;X;X;X;X;X;X;X;X;X;X;X;X;X;X;X;X",
";X;X;X;X;X;X;X;X;X;X;X;X;X;X;X;X;X;X;X;X;X;X;Xe e u i m A A @.k.t.t.t.@.+.h s e q ;X;X;X;X;X;X;X;X;X;X;X;X;X;X;X;X;X;X;X;X;X;X;X",
";X;X;X;X;X;X;X;X;X;X;X;X;X;X;X;X;X;X;X;X;X;X;X;Xr e f w w w i V V V V i i e ;Xr ;X;X;X;X;X;X;X;X;X;X;X;X;X;X;X;X;X;X;X;X;X;X;X;X",
";X;X;X;X;X;X;X;X;X;X;X;X;X;X;X;X;X;X;X;X;X;X;X;X;X;X7 | &. .- - 0 0 0 - - ;X;X;X;X;X;X;X;X;X;X;X;X;X;X;X;X;X;X;X;X;X;X;X;X;X;X;X",
";X;X;X;X;X;X;X;X;X;X;X;X;X;X;X;X;X;X;X;X;X;X;X;X;X;X7 T.T.7.` * % % * C , ;X;X;X;X;X;X;X;X;X;X;X;X;X;X;X;X;X;X;X;X;X;X;X;X;X;X;X",
";X;X;X;X;X;X;X;X;X;X;X;X;X;X;X;X;X;X;X;X;X;X;X;X;X;X3 W W 1 W.,._ _ | 6.7 ;X;X;X;X;X;X;X;X;X;X;X;X;X;X;X;X;X;X;X;X;X;X;X;X;X;X;X",
";X;X;X;X;X;X;X;X;X;X;X;X;X;X;X;X;X;X;X;X;X;X;X;X;X;X;X;X;X7 M.W.W.W.W.e.3 ;X;X;X;X;X;X;X;X;X;X;X;X;X;X;X;X;X;X;X;X;X;X;X;X;X;X;X",
";X;X;X;X;X;X;X;X;X;X;X;X;X;X;X;X;X;X;X;X;X;X;X;X;X;X;X;X;X3 W W W W W W 3 ;X;X;X;X;X;X;X;X;X;X;X;X;X;X;X;X;X;X;X;X;X;X;X;X;X;X;X",
";X;X;X;X;X;X;X;X;X;X;X;X;X;X;X;X;X;X;X;X;X;X;X;X;X;X;X;X;X;X;X;X;X;X;X;X;X;X;X;X;X;X;X;X;X;X;X;X;X;X;X;X;X;X;X;X;X;X;X;X;X;X;X;X",
";X;X;X;X;X;X;X;X;X;X;X;X;X;X;X;X;X;X;X;X;X;X;X;X;X;X;X;X;X;X;X;X;X;X;X;X;X;X;X;X;X;X;X;X;X;X;X;X;X;X;X;X;X;X;X;X;X;X;X;X;X;X;X;X",
";X;X;X;X;X;X;X;X;X;X;X;X;X;X;X;X;X;X;X;X;X;X;X;X;X;X;X;X;X;X;X;X;X;X;X;X;X;X;X;X;X;X;X;X;X;X;X;X;X;X;X;X;X;X;X;X;X;X;X;X;X;X;X;X",
";X;X;X;X;X;X;X;X;X;X;X;X;X;X;X;X;X;X;X;X;X;X;X;X;X;X;X;X;X;X;X;X;X;X;X;X;X;X;X;X;X;X;X;X;X;X;X;X;X;X;X;X;X;X;X;X;X;X;X;X;X;X;X;X"
};
