/* XPM */
static char *result[] = {
/* columns rows colors chars-per-pixel */
"64 64 210 2 ",
"   c #010101",
".  c #0A0908",
"X  c #0B1212",
"o  c #131A1A",
"O  c #121717",
"+  c #060F10",
"@  c #3D0E07",
"#  c #0D2224",
"$  c #3B3A37",
"%  c #420C05",
"&  c #540F07",
"*  c #630B01",
"=  c #6D1B0D",
"-  c #691407",
";  c #7C1C0D",
":  c #741A0C",
">  c #621E14",
",  c #6F2116",
"<  c #6A261B",
"1  c #7D2112",
"2  c #542926",
"3  c #5A312C",
"4  c #783929",
"5  c #6D3329",
"6  c #754D3B",
"7  c #70423B",
"8  c #78513E",
"9  c #76503D",
"0  c #6F4534",
"q  c #513D4A",
"w  c #3A4342",
"e  c #374140",
"r  c #585E5E",
"t  c #58484A",
"y  c #7A5341",
"u  c #5C5063",
"i  c #685664",
"p  c #696371",
"a  c #871D0D",
"s  c #A91C0A",
"d  c #BC1E0A",
"f  c #892212",
"g  c #932413",
"h  c #9B2715",
"j  c #A52714",
"k  c #B22512",
"l  c #B32D19",
"z  c #B22A17",
"x  c #B72A16",
"c  c #BA3723",
"v  c #BE3B27",
"b  c #A23B2B",
"n  c #C82B15",
"m  c #CB331C",
"M  c #C4331E",
"N  c #DA331D",
"B  c #D5301A",
"V  c #E22E15",
"C  c #D13924",
"Z  c #CF3621",
"A  c #E33D26",
"S  c #E83C24",
"D  c #894638",
"F  c #934634",
"G  c #AA4B3B",
"H  c #B24E3D",
"J  c #DC432C",
"K  c #C8513F",
"L  c #CF4530",
"P  c #E2432C",
"I  c #E54F37",
"U  c #E94D36",
"Y  c #E74730",
"T  c #F44F35",
"R  c #EA523B",
"E  c #FE593E",
"W  c #F5533A",
"Q  c #9B4F42",
"!  c #985646",
"~  c #8F4A41",
"^  c #B75945",
"/  c #A05944",
"(  c #926A55",
")  c #946D5A",
"_  c #976352",
"`  c #97705C",
"'  c #98715F",
"]  c #926650",
"[  c #BE6D5A",
"{  c #BA6A57",
"}  c #AB755C",
"|  c #A7745C",
" . c #A36D56",
".. c #9E7D68",
"X. c #A37F69",
"o. c #A67869",
"O. c #B17D64",
"+. c #BA7965",
"@. c #AA7C75",
"#. c #DA5845",
"$. c #E95B44",
"%. c #FE5E44",
"&. c #CD6854",
"*. c #E5634E",
"=. c #CB796D",
"-. c #CB7568",
";. c #D37D70",
":. c #D17366",
">. c #E67B79",
",. c #E5706D",
"<. c #9D8079",
"1. c #A3836C",
"2. c #AA826C",
"3. c #AD8A73",
"4. c #AE8574",
"5. c #B38C74",
"6. c #B88F76",
"7. c #B58B7C",
"8. c #BC957B",
"9. c #BE987D",
"0. c #B4957C",
"q. c #D88D78",
"w. c #C19A7F",
"e. c #EB8377",
"r. c #FA937C",
"t. c #6B668D",
"y. c #8A7C9F",
"u. c #BC9C82",
"i. c #A18985",
"p. c #B8A187",
"a. c #858ABA",
"s. c #C49D83",
"d. c #CB9D82",
"f. c #DF9280",
"g. c #E98D8A",
"h. c #E68D80",
"j. c #EB9788",
"k. c #EC9D8C",
"l. c #EA9385",
"z. c #F49A8B",
"x. c #F69D95",
"c. c #C5A086",
"v. c #CDA285",
"b. c #CEA488",
"n. c #CAAC8D",
"m. c #C5A389",
"M. c #D0A689",
"N. c #D5AA8C",
"B. c #D9AD8E",
"V. c #D7AD91",
"C. c #DAAF97",
"Z. c #CDB294",
"A. c #CDBA9C",
"S. c #DCB194",
"D. c #D6B799",
"F. c #E7A78F",
"G. c #EDAA96",
"H. c #FAA99A",
"J. c #E1B595",
"K. c #E1B896",
"L. c #E2B699",
"P. c #E5BA9A",
"I. c #EABD9E",
"U. c #EEB195",
"Y. c #F6BA9E",
"T. c #D4BDA0",
"R. c #FBAEA2",
"E. c #F7ADA1",
"W. c #F0BFA3",
"Q. c #FEB1A5",
"!. c #F0BCB5",
"~. c #DEC09F",
"^. c #E7C19F",
"/. c #D6C2A3",
"(. c #DBCFB2",
"). c #E3C5A3",
"_. c #EDC2A3",
"`. c #E4C9A9",
"'. c #F1C5A6",
"]. c #F3CAA6",
"[. c #F3C7A8",
"{. c #F4CBA9",
"}. c #F9CAAA",
"|. c #E9D1AE",
" X c #F5D2AC",
".X c #F8D5AD",
"XX c #FAC8B5",
"oX c #EED5B2",
"OX c #F5D5B2",
"+X c #F8D5B1",
"@X c #F7DAB3",
"#X c #F8DEB6",
"$X c #F9DFB8",
"%X c #F7DAB8",
"&X c #F9E1B7",
"*X c #F9E2BA",
"=X c #B6B4C3",
"-X c #B0B8EA",
";X c #F9E6C0",
":X c #FBEBC5",
">X c #FBEDCA",
",X c #F7E7C3",
"<X c #FDF4CB",
"1X c #FBF0D6",
"2X c #FEFBD5",
"3X c #FDFCD8",
"4X c #FCF4D8",
"5X c #FAEFD5",
"6X c #FBF4E3",
"7X c None",
/* pixels */
"7X7X7X7X7X7X7X7X7X7X7X7X7X7X7X7X7X7X7X7X7X7X7X7X7X7X7X7X7X7X7X7X7X7X7X7X7X7X7X7X7X7X7X7X7X7X7X7X7X7X7X7X7X7X7X7X7X7X7X7X7X7X7X7X",
"7X7X7X7X7X7X7X7X7X7X7X7X7X7X7X7X7X7X7X7X7X7X7X7X7X7X7X7X7X7X7X7X7X7X7X7X7X7X7X7X7X7X7X7X7X7X7X7X7X7X7X7X7X7X7X7X7X7X7X7X7X7X7X7X",
"7X7X7X7X7X7X7X7X7X7X7X7X7X7X7X7X7X7X7X7X7X7X7X7X7X7X7X7X7X7X7X7X7X7X7X7X7X7X7X7X7X7X7X7X7X7X7X7X7X7X7X7X7X7X7X7X7X7X7X7X7X7X7X7X",
"7X7X7X7X7X7X7X7X7X7X7X7X7X7X7X7X7X7X7X7X7X7X7X7X7X7X7X7X7X7X7X7X7X7X7X7X7X7X7X7X7X7X7X7X7X7X7X7X7X7X7X7X7X7X7X7X7X7X7X7X7X7X7X7X",
"7X7X7X7X7X7X7X7X7X7X7X7X7X7X7X7X7X7X7X7X7X7X7X7X7X7X7X7X7X7X7X7X7X7X7X7X7X7X7X7X7X7X7X7X7X7X7X7X7X7X7X7X7X7X7X7X7X7X7X7X7X7X7X7X",
"7X7X7X7X7X7X7X7X7X7X7X7X7X7X7X7X7X7X7X7X7X7X7X7X7X7X7X7X7X7X7XA.Z.n.7X7X7X7X7X7X7X7X7X7X7X7X7X7X7X7X7X7X7X7X7X7X7X7X7X7X7X7X7X7X",
"7X7X7X7X7X7X7X7X7X7X7X7X7X7X7X7X7X7X7X7X7X7X7X7X7X..A.Z.c.8.n.3X3X*Xw.n.n.n.7X7X7X7X7X7X7X7X7X7X7X7X7X7X7X7X7X7X7X7X7X7X7X7X7X7X",
"7X7X7X7X7X7X7X7X7X7X7X7X7X7X7X7X7X7X7X7X7X7X7X7Xm./.3X3X XS.+X%X@XOXB.#X:X<XZ.7X7X7X7X7X7X7X7X7X7X7X7X7X7X7X7X7X7X7X7X7X7X7X7X7X",
"7X7X7X7X7X7X7X7X7X7X7X7X7X7X7X7X7X7X7X7X7X7X7XX.].>X;X).S.M.'.'.'.S.b.S.@X<X*X1.7X7X7X7X7X7X7X7X7X7X7X7X7X7X7X7X7X7X7X7X7X7X7X7X",
"7X7X7X7X7X7X7X7X7X7X7X7X7X7X7X7X7X7X7X7X7X7X7Xn._.'.P.S.S.J.S.[.L.L.K.J.K.@X:XZ.7X7X7X7X7X7X7X7X7X7X7X7X7X7X7X7X7X7X7X7X7X7X7X7X",
"7X7X7X7X7X7X7X7X7X7X7X7X7X7X7X7X7X7X7X7X..6.8.L.'.P.J.}. X].S.K.J.+X*X*XP.^.*X:XA.3.S.u.7X7X7X7X7X7X7X7X7X7X7X7X7X7X7X7X7X7X7X7X",
"7X7X7X7X7X7X7X7X7X7X7X7X7X7X7X7X7X7XX.6.9.N.N.S.'.M.]..X#X&X@Xn.{.:X3X2X*XM.OX,X3X/.c.N.V.8.7X7X7X7X7X7X7X7X7X7X7X7X7X7X7X7X7X7X",
"7X7X7X7X7X7X7X7X7X7X7X7X7X7X7X7X7X8.8.P.B.v.J.].L.L. X&X<X2X:X^.P.>X2X2X>XP.J..X:X2XA.OX+XV.N.7X7X7X7X7X7X7X7X7X7X7X7X7X7X7X7X7X",
"7X7X7X7X7X7X7X7X7X7X7X7X7X7X7X7X8.B.I.[.J.K.'.].b.'. X:X2X2X<X&XM.*X<X<X>X&XP.J.P.OX:X*X*X+X+XB.7X7X7X7X7X7X7X7X7X7X7X7X7X7X7X7X",
"7X7X7X7X7X7X7X7X7X7X7X7X7X7X7X8.N.P.[.'.].].]..XK.]. X&X<X<X:X#X).J.{.@X*X*X*X).~..X*X;X;X:X;X+XV.7X7X7X7X7X7X7X7X7X7X7X7X7X7X7X",
"7X7X7X7X7X7X7X7X7X7X7X7X7X7X8.B.P.[.'.[.'.].]..X.X X X&X,X*X&X&X*X). XOX&X*X*X*X*X,X<X>X>X>X>X:X+XV.7X7X7X7X7X7X7X7X7X7X7X7X7X7X",
"7X7X7X7X7X7X7X7X7X7X7X7X7X1.B.P.'.'.'.'.]. X X X]. X X&X*X&X$X*X*X*X*X*X*X#X$X;X*X>X>X>X:X>X>X>X*X'.8.7X7X7X7X7X7X7X7X7X7X7X7X7X",
"7X7X7X7X7X7X7X7X7X7X7X7X7X5.N.[.[.'.[.]. X.X.X]. X.X.X&X&X*X*X*X*X#X&X#X$X$X;X>X>X>X>X>X5X5X5X5X;X XS.7X7X7X7X7X7X7X7X7X7X7X7X7X",
"7X7X7X7X7X7X7X7X7X7X7X7X1.v.P.'.'.'.'. X.X.X.X.X.X@X@X$X&X#X*X$X*X*X*X#X#X;X>X>X>X>X>X1X6X6X6X6X1X*X_.9.7X7X7X7X7X7X7X7X7X7X7X7X",
"7X7X7X7X7X7X7X7X7X7X7X7X5.N.'.'.'.[.{.@X.X@X.X.X#X#X#X$X#X*X&X*X*X&X#X;X,X>X>X>X>X>X5X6X6X6X6X6X6X*X{.S.7X7X7X7X7X7X7X7X7X7X7X7X",
"7X7X7X7X7X7X7X7X7X7X7X1.9.B.'.[.'.'. X@X@X@X&X&X$X$X$X*X*X$X$X$X&X;X;X>X>X>X>X:X5X5X6X6X6X6X6X6X6X#X@X'.s.7X7X7X7X7X7X7X7X7X7X7X",
"7X7X7X7X7X7X7X7X7X7X7X1.c.B._.'.'.].@X@X@X&X&X&X$X$X*X;X;X*X*X;X;X>X>X>X>X>X1X1X6X6X6X6X6X6X6X6X6X;X#X_.9.7X7X7X7X7X7X7X7X7X7X7X",
"7X7X7X7X7X7X7X7X7X7X7X5.N.B.'.'.'.[.@X@X@X&X&X&X$X;X;X;X,X:X:X>X>X:X>X>X1X1X6X6X6X6X6X6X6X6X6X6X6X>X$X_.v.7X7X7X7X7X7X7X7X7X7X7X",
"7X7X7X7X7X7X7X7X7X7X1.9.B.B.'.[.'.[.@X&X@X&X&X&X;X,X:X:X:X:X>X>X>X>X>X1X6X6X6X6X6X6X6X6X6X6X6X6X6X>X#X_.B.9.7X7X7X7X7X7X7X7X7X7X",
"7X7X7X7X7X7X7X7X7X7X1.8.N.B.'.'.'.'.@X@X#X&X&X*X;X:X:X:X>X>X>X>X>X>X1X6X6X6X6X6X6X6X6X6X6X6X6X6X1X>X&X[.N.9.7X7X7X7X7X7X7X7X7X7X",
"7X7X7X7X7X7X7X7X7X7X1.9.N.B.'.'.'.].@X&X#X*X*X*X,X:X:X>X>X>X:X>X>X>X6X6X6X6X6X6X6X6X6X6X6X6X6X6X>X;X#X'.N.9.7X7X7X7X7X7X7X7X7X7X",
"7X7X7X7X7X7X7X7X7X7X1.8.N.B.'.'.].'. X&X*X*X*X*X:X>X>X>X>X>X>X>X>X>X6X6X6X6X6X6X6X6X6X4X6X6X6X1X>X#X#X'.B.w.7X7X7X7X7X7X7X7X7X7X",
"7X7X7X7X7X7X7X7X7X7X1.8.N.B.'.'.'.'.Y.'.'.OX*X*X>X>X>X>X>X>X>X>X:X>X1X6X6X6X6X6X6X6X6X6X1X1X1X>X>X*X&X[.N.8.7X7X7X7X7X7X7X7X7X7X",
"7X7X7X7X7X7X7X7X7X7X1.w.N.B.'.'.'.U.D D ! U.OX&X;X>X>X>X>X>X>X>X>X>X>X1X1X1X1X1X5X1X1X1X>X>X:X>X;X#X X[.B.9.7X7X7X7X7X7X7X7X7X7X",
"7X7X7X7X7X7X7X7X7X7X7X5.d.B.[.{.W.! i.u t ! F.#X$X;X>X>X>X:X>X>X:X>X>X>X>X>X:X:X>X>X:X>X:X>X>X;X&X*X'.P.v.7X7X7X7X7X7X7X7X7X7X7X",
"7X7X7X7X7X7X7X7X7X7X7X1.8.N.P.[.L.3 =Xi a.2 q.$X$X$X;X,X>X>X>X>X>X>X>X>X>X>X>X>X>X5X>X>X>X;X;X$X&XOX_.N.9.7X7X7X7X7X7X7X7X7X7X7X",
"7X7X7X7X7X7X7X7X7X7X7X1.w.B.M.].P.2 t.y.-X2 q.OX*X*X#X#X;X;X;X;X;X>X>X>X>X>X5X>X>X;X;X;X;X$X#X*X X'.'.S.9.7X7X7X7X7X7X7X7X7X7X7X",
"7X7X7X7X7X7X7X7X7X7X7X7X4.d.N.P.W.o.t t.p _ F.'.OXOX*X*X*X*X&X&X$X;X;X;X;X;X;X;X;X#X$X*X#X*X*X X'.[.L.8.7X7X7X7X7X7X7X7X7X7X7X7X",
"7X7X7X7X7X7X7X7X7X7X7X7X' w.B.N.P.}.o._ / j.U.G.G.'. X X X X*X*X*X*X$X$X$X*X*X#X*X$XOX XOX X X'.[.L.N.' 7X7X7X7X7X7X7X7X7X7X7X7X",
"7X7X7X7X7X7X7X7X7X7X7X7X7X2.m.V.N.L.XXH.x.g.g.g.>.j.W.W._.W.}.}.{. X XOX X X XOXOX X'.'._._.[.[.P.B.6.7X7X7X7X7X7X7X7X7X7X7X7X7X",
"7X7X7X7X7X7X7X7X7X7X7X7X7X7X2.b.B.N.L.g.>.>.>.>.,.j.'.'.[._.'.W._.'.W.W.W.W.'._.'.'.'.[.'.[.[.P.B.6.7X7X7X7X7X7X7X7X7X7X7X7X7X7X",
"7X7X7X7X7X7X7X7X7X7X7X7X7X7X7X4.v.M.V.P.q.k.k.k.k.[.'.'.'.'.'.'.'.'.[.[.[.'.'.'.'.'.'.[.[.P.I.B.6.7X7X7X7X7X7X7X7X7X7X7X7X7X7X7X",
"7X7X7X7X7X7X7X7X7X7X7X7X7X7X7X7XO.2.b.B.S.^.^._. X[.[.'.[.[.'.'.'.[.[.[.[.[.[.[.}.}.[.P.I.v.5.6.7X7X7X7X7X7X7X7X7X7X7X7X7X7X7X7X",
"7X7X7X7X7X7X7X7X7X7X7X7X7X7X7X7X7X) 2.6.v.v.d.b.P.P.L.P.P.P.P.P.P.P.P.P.L.P.P.P.S.S.S.v.5.2.7X7X7X7X7X7X7X7X7X7X7X7X7X7X7X7X7X7X",
"7X7X7X7X7X7X7X7X7X7X7X7X7X7X7X7X7X7X7X) @.2.2.2.d.d.d.b.v.b.b.b.v.v.v.v.v.v.b.d.2.O.X.2.) 7X7X7X7X7X7X7X7X7X7X7X7X7X7X7X7X7X7X7X",
"7X7X7X7X7X7X7X7X7X7X7X7X7X7X7X7X7X7X7X7X7X7X7X7X4.3.3.1.1.1.1.1.2.1.1.1.1.1.1.4.7X7X7X7X7X7X7X7X7X7X7X7X7X7X7X7X7X7X7X7X7X7X7X7X",
"7X7X7X7X7X7X7X7X7X7X7X7X7X7X7X7X7X7X7X7X7X7X7X7XD 5 4 { [ [ [ [ [ &.[ [ { -.7.F 7X7X7X7X7X7X7X7X7X7X7X7X7X7X7X7X7X7X7X7X7X7X7X7X",
"7X7X7X7X7X7X7X7X7X7X7X7X7X7X7X7X7X7X7X7X7X7X7X7X* b +.H.Q.R.Q.R.E.E.E.Q.Q.R.H a 7X7X7X7X7X7X7X7X7X7X7X7X7X7X7X7X7X7X7X7X7X7X7X7X",
"7X7X7X7X7X7X7X7X7X7X7X7X7X7X7X7X7X7X7X7X7X7X7X7X^ E.f.-.=.=.;.e.e.e.=.=.-.-.c z 7X7X7X7X7X7X7X7X7X7X7X7X7X7X7X7X7X7X7X7X7X7X7X7X",
"7X7X7X7X7X7X7X7X7X7X7X7X7X7X7X7X7X7X7X7X7X7X7XM x.:.d n m m s V P V k K K m R J g 7X7X7X7X7X7X7X7X7X7X7X7X7X7X7X7X7X7X7X7X7X7X7X",
"7X7X7X7X7X7X7X7X7X7X7X7X7X7X7X7X7X7X7X7X7X7X7X#.!.^ &.&.L L m U *.S v k.G.R U I l 7X7X7X7X7X7X7X7X7X7X7X7X7X7X7X7X7X7X7X7X7X7X7X",
"7X7X7X7X7X7X7X7X7X7X7X7X7X7X7X7X7X7X7X7X7X7Xc k.C.T.(./.n m U *.U S z e.h.R U I C g 7X7X7X7X7X7X7X7X7X7X7X7X7X7X7X7X7X7X7X7X7X7X",
"7X7X7X7X7X7X7X7X7X7X7X7X7X7X7X7X7X7X7X7X7X7XC XXs.`.3X2Xr.R $.U S B #.z.z.T T T N h 7X7X7X7X7X7X7X7X7X7X7X7X7X7X7X7X7X7X7X7X7X7X",
"7X7X7X7X7X7X7X7X7X7X7X7X7X7X7X7X7X7X7X7X7X7X> @.u.`.<X4X4X$.Y B m D @.4.@.! Q Q D 5 7X7X7X7X7X7X7X7X7X7X7X7X7X7X7X7X7X7X7X7X7X7X",
"7X7X7X7X7X7X7X7X7X7X7X7X7X7X7X7X7X7X7X7X7X7X  $ c.oX,X,X*XP N D D p r r r w w w $ o 7X7X7X7X7X7X7X7X7X7X7X7X7X7X7X7X7X7X7X7X7X7X",
"7X7X7X7X7X7X7X7X7X7X7X7X7X7X7X7X7X7X7X7X7X7X  O t u.p.p.0.% @ # # o o o O + + + X   7X7X7X7X7X7X7X7X7X7X7X7X7X7X7X7X7X7X7X7X7X7X",
"7X7X7X7X7X7X7X7X7X7X7X7X7X7X7X7X7X7X7X7X7X7X. % @ G H ^ ^ < < = , < 5 7 7 , , = % . 7X7X7X7X7X7X7X7X7X7X7X7X7X7X7X7X7X7X7X7X7X7X",
"7X7X7X7X7X7X7X7X7X7X7X7X7X7X7X7X7X7X7X7X7X7X7Xh j B N P T E E E %.%.r.H.H.%.W M j 7X7X7X7X7X7X7X7X7X7X7X7X7X7X7X7X7X7X7X7X7X7X7X",
"7X7X7X7X7X7X7X7X7X7X7X7X7X7X7X7X7X7X7X7X7Xp.T.h g l c m P P J J C J #.*.*.v c f f 7X7X7X7X7X7X7X7X7X7X7X7X7X7X7X7X7X7X7X7X7X7X7X",
"7X7X7X7X7X7X7X7X7X7X7X7X7X7X7X7X7X7X7X7X8 9./.a 1 1 1 k s s l z z z x k k ; ; g 7X7X7X7X7X7X7X7X7X7X7X7X7X7X7X7X7X7X7X7X7X7X7X7X",
"7X7X7X7X7X7X7X7X7X7X7X7X7X7X7X7X7X7X7X7X8 9.`. .* * * ! +.+.: ; 1 1 a 1 ; = = 7X7X7X7X7X7X7X7X7X7X7X7X7X7X7X7X7X7X7X7X7X7X7X7X7X",
"7X7X7X7X7X7X7X7X7X7X7X7X7X7X7X7X7X7X7X7X8 u.~.oXO.} } c./.u. .* * * * * = = = = 7X7X7X7X7X7X7X7X7X7X7X7X7X7X7X7X7X7X7X7X7X7X7X7X",
"7X7X7X7X7X7X7X7X7X7X7X7X7X7X7X7X7X7X7X7X7X) ` V.`.`.`.s.( 6 |.O.| o.O.! < = = = = 7X7X7X7X7X7X7X7X7X7X7X7X7X7X7X7X7X7X7X7X7X7X7X",
"7X7X7X7X7X7X7X7X7X7X7X7X7X7X7X7X7X7X7X7X7X7X7X) ( ( ( ` 7Xy Z.`.`./.u.m.3.- * * - 6 7X7X7X7X7X7X7X7X7X7X7X7X7X7X7X7X7X7X7X7X7X7X",
"7X7X7X7X7X7X7X7X7X7X7X7X7X7X7X7X7X7X7X7X7X7X7X7X7X7X7X7X7X8 ( ( _ ] 7 8.|.O.} } ! 9 7X7X7X7X7X7X7X7X7X7X7X7X7X7X7X7X7X7X7X7X7X7X",
"7X7X7X7X7X7X7X7X7X7X7X7X7X7X7X7X7X7X7X7X7X7X7X7X7X7X7X7X7X7X7X7X7X7X8 s.D.`.`.`.m.y 7X7X7X7X7X7X7X7X7X7X7X7X7X7X7X7X7X7X7X7X7X7X",
"7X7X7X7X7X7X7X7X7X7X7X7X7X7X7X7X7X7X7X7X7X7X7X7X7X7X7X7X7X7X7X7X7X7X9 ) ) ( ] ( ( 9 7X7X7X7X7X7X7X7X7X7X7X7X7X7X7X7X7X7X7X7X7X7X",
"7X7X7X7X7X7X7X7X7X7X7X7X7X7X7X7X7X7X7X7X7X7X7X7X7X7X7X7X7X7X7X7X7X7X7X7X7X7X7X7X7X7X7X7X7X7X7X7X7X7X7X7X7X7X7X7X7X7X7X7X7X7X7X7X",
"7X7X7X7X7X7X7X7X7X7X7X7X7X7X7X7X7X7X7X7X7X7X7X7X7X7X7X7X7X7X7X7X7X7X7X7X7X7X7X7X7X7X7X7X7X7X7X7X7X7X7X7X7X7X7X7X7X7X7X7X7X7X7X7X"
};
