/* XPM */
static char *result[] = {
/* columns rows colors chars-per-pixel */
"64 64 206 2 ",
"   c #0A0605",
".  c #060F10",
"X  c #051011",
"o  c #0B1516",
"O  c #131C1C",
"+  c #111716",
"@  c #35312D",
"#  c #460F06",
"$  c #640B01",
"%  c #6D0A00",
"&  c #720D00",
"*  c #6D1B0D",
"=  c #66160B",
"-  c #7C1E0E",
";  c #731A0C",
":  c #7C1F10",
">  c #6D2116",
",  c #6D271B",
"<  c #712519",
"1  c #542927",
"2  c #58302B",
"3  c #763626",
"4  c #6F372E",
"5  c #74483C",
"6  c #78513F",
"7  c #77513E",
"8  c #513D4A",
"9  c #3C4444",
"0  c #5B4555",
"q  c #795341",
"w  c #7A5946",
"e  c #5A5862",
"r  c #685664",
"t  c #596363",
"y  c #576161",
"u  c #6A6472",
"i  c #8D1B0B",
"p  c #AE1F0B",
"a  c #8B2515",
"s  c #932413",
"d  c #9E2715",
"f  c #AE200D",
"g  c #AD2917",
"h  c #AB2815",
"j  c #B32C19",
"k  c #B72915",
"l  c #BF321E",
"z  c #8E3F34",
"x  c #823B29",
"c  c #A73D2C",
"v  c #BC3824",
"b  c #C52B15",
"n  c #C62E19",
"m  c #D62E18",
"M  c #C6301A",
"N  c #CC331E",
"B  c #DE351E",
"V  c #C63B26",
"C  c #D33520",
"Z  c #EB3D26",
"A  c #E33A23",
"S  c #F33C23",
"D  c #8E4A3C",
"F  c #834438",
"G  c #944435",
"H  c #885A3F",
"J  c #AB4535",
"K  c #B34F3E",
"L  c #CF402B",
"P  c #DD422C",
"I  c #D4412A",
"U  c #D44C37",
"Y  c #E54B34",
"T  c #EC4D35",
"R  c #E44F38",
"E  c #F14D33",
"W  c #E55139",
"Q  c #ED553D",
"!  c #FD593F",
"~  c #F55136",
"^  c #995648",
"/  c #9B4F42",
"(  c #A75B4F",
")  c #A85D51",
"_  c #926A55",
"`  c #946E5B",
"'  c #966655",
"]  c #98715E",
"[  c #96705A",
"{  c #936751",
"}  c #BE6D5A",
"|  c #BA6A57",
" . c #AB765D",
".. c #A7735B",
"X. c #BB7259",
"o. c #9F7F6A",
"O. c #997A75",
"+. c #A47F69",
"@. c #AB7A66",
"#. c #BB7866",
"$. c #CF5543",
"%. c #D75947",
"&. c #E85C45",
"*. c #FE5E44",
"=. c #DE6251",
"-. c #E9614A",
";. c #E76049",
":. c #E26554",
">. c #C57D6B",
",. c #CC7A6D",
"<. c #C37664",
"1. c #D2796C",
"2. c #E87D7B",
"3. c #E77D7A",
"4. c #E4706D",
"5. c #9E816C",
"6. c #A3826C",
"7. c #AA826C",
"8. c #AE8A73",
"9. c #AF8674",
"0. c #B38C74",
"q. c #B88F76",
"w. c #BC957B",
"e. c #BE987D",
"r. c #B5937A",
"t. c #DE8D7D",
"y. c #D68C77",
"u. c #C19A7F",
"i. c #F2907C",
"p. c #6C678E",
"a. c #897C9E",
"s. c #BB9C82",
"d. c #A28985",
"f. c #858ABA",
"g. c #C39D82",
"h. c #CC9E82",
"j. c #E98C8A",
"k. c #EB988A",
"l. c #F59A8B",
"z. c #F69A97",
"x. c #C4A186",
"c. c #CDA285",
"v. c #CDA489",
"b. c #CAAB8C",
"n. c #C0A58A",
"m. c #D1A689",
"M. c #D6AA8C",
"N. c #D9AC8D",
"B. c #D1A485",
"V. c #CDAF91",
"C. c #D7AD91",
"Z. c #DAAF92",
"A. c #CEB193",
"S. c #CDBA9C",
"D. c #DDB294",
"F. c #D4B698",
"G. c #E8A88F",
"H. c #EDA898",
"J. c #FAAA9B",
"K. c #E1B696",
"L. c #E1B996",
"P. c #E2B698",
"I. c #E5BA9A",
"U. c #E9BE9E",
"Y. c #EDB195",
"T. c #F6BB9E",
"R. c #DBBFA1",
"E. c #FCAEA2",
"W. c #F7ADA0",
"Q. c #F0BFA3",
"!. c #FEB0A4",
"~. c #F7BCB3",
"^. c #DBC0A1",
"/. c #E4C5A2",
"(. c #E5CAAA",
"). c #E6C6A5",
"_. c #F1C5A6",
"`. c #F3CBA7",
"'. c #F3C7A8",
"]. c #F4CBA9",
"[. c #F8C3A3",
"{. c #F5D2AD",
"}. c #F8D4AB",
"|. c #EED9B6",
" X c #F5D4B0",
".X c #F8D6B1",
"XX c #F7DAB3",
"oX c #F8DEB6",
"OX c #F9DFB8",
"+X c #F7DAB8",
"@X c #EEC9B4",
"#X c #F8E0B7",
"$X c #F9E2BA",
"%X c #F3E1BF",
"&X c #B6B4C3",
"*X c #B0B8EA",
"=X c #F6E5C2",
"-X c #F9E6C1",
";X c #FAEBC6",
":X c #FBEDCA",
">X c #FCF4CB",
",X c #FBF1D5",
"<X c #FEFDD5",
"1X c #FDFADA",
"2X c #FBF4E3",
"3X c None",
/* pixels */
"3X3X3X3X3X3X3X3X3X3X3X3X3X3X3X3X3X3X3X3X3X3X3X3X3X3X3X3X3X3X3X3X3X3X3X3X3X3X3X3X3X3X3X3X3X3X3X3X3X3X3X3X3X3X3X3X3X3X3X3X3X3X3X3X",
"3X3X3X3X3X3X3X3X3X3X3X3X3X3X3X3X3X3X3X3X3X3X3X3X3X3X3X3X3X3X3X3X3X3X3X3X3X3X3X3X3X3X3X3X3X3X3X3X3X3X3X3X3X3X3X3X3X3X3X3X3X3X3X3X",
"3X3X3X3X3X3X3X3X3X3X3X3X3X3X3X3X3X3X3X3X3X3X3X3X3X3X3X3X3X3X3X3X3X3X3X3X3X3X3X3X3X3X3X3X3X3X3X3X3X3X3X3X3X3X3X3X3X3X3X3X3X3X3X3X",
"3X3X3X3X3X3X3X3X3X3X3X3X3X3X3X3X3X3X3X3X3X3X3X3X3X3X3X3X3X3X3X3X3X3X3X3X3X3X3X3X3X3X3X3X3X3X3X3X3X3X3X3X3X3X3X3X3X3X3X3X3X3X3X3X",
"3X3X3X3X3X3X3X3X3X3X3X3X3X3X3X3X3X3X3X3X3X3X3X3X3X3X3X3X3X3X3X3X3X3X3X3X3X3X3X3X3X3X3X3X3X3X3X3X3X3X3X3X3X3X3X3X3X3X3X3X3X3X3X3X",
"3X3X3X3X3X3X3X3X3X3X3X3X3X3X3X3X3X3X3X3X3X3X3X3X3X3X3X3X3X3Xo.S.A.V.6.3X3X3X3X3X3X3X3X3X3X3X3X3X3X3X3X3X3X3X3X3X3X3X3X3X3X3X3X3X",
"3X3X3X3X3X3X3X3X3X3X3X3X3X3X3X3X3X3X3X3X3X3X3X3X3Xo.S.w.g.w.S.1X1X$Xw.n.b.b.3X3X3X3X3X3X3X3X3X3X3X3X3X3X3X3X3X3X3X3X3X3X3X3X3X3X",
"3X3X3X3X3X3X3X3X3X3X3X3X3X3X3X3X3X3X3X3X3X3X3X3Xv.b.|.U.].U.-X(.OXoXU.>X<X>XA.3X3X3X3X3X3X3X3X3X3X3X3X3X3X3X3X3X3X3X3X3X3X3X3X3X",
"3X3X3X3X3X3X3X3X3X3X3X3X3X3X3X3X3X3X3X3X3X3X3X6.P.I.h.'.'.].Z.h.D.XX.X<X1X<X-X5.3X3X3X3X3X3X3X3X3X3X3X3X3X3X3X3X3X3X3X3X3X3X3X3X",
"3X3X3X3X3X3X3X3X3X3X3X3X3X3X3X3X3X3X3X3X3X3X3Xw.Z.D.P.P.'.D.L.I.K.L.XX,X<X<X>XA.3X3X3X3X3X3X3X3X3X3X3X3X3X3X3X3X3X3X3X3X3X3X3X3X",
"3X3X3X3X3X3X3X3X3X3X3X3X3X3X3X3X3X3X3X3X3X0.w.L.].].].D.P.P.XX$X$XI.I.$X<X<X<X>Xb.0.D.s.3X3X3X3X3X3X3X3X3X3X3X3X3X3X3X3X3X3X3X3X",
"3X3X3X3X3X3X3X3X3X3X3X3X3X3X3X3X3X3X5.w.w.I.M.`.}.#X#X.Xv.'.-X<X<X$Xm. X-X>X<X<X:XA.g.M.C.3X3X3X3X3X3X3X3X3X3X3X3X3X3X3X3X3X3X3X",
"3X3X3X3X3X3X3X3X3X3X3X3X3X3X3X3X3Xw.w.I.U.L.D.`.#X>X<X;X).L.:X<X<X;XI.K.{.-X<X,X:X$XA..X.XZ.M.3X3X3X3X3X3X3X3X3X3X3X3X3X3X3X3X3X",
"3X3X3X3X3X3X3X3X3X3X3X3X3X3X3X3Xe.N.U._.`.B._.}.;X<X<X>X#Xm.$X>X>X>X#XI.D. X-X-X$X#X$X#XoX+X.XZ.3X3X3X3X3X3X3X3X3X3X3X3X3X3X3X3X",
"3X3X3X3X3X3X3X3X3X3X3X3X3X3X3Xw.N.I._.`.{.I.`.}.$X>X>X$X#X).D.{.$X%X;X#X/.}.#X$X-X-X=X-X-X#X#X.XC.3X3X3X3X3X3X3X3X3X3X3X3X3X3X3X",
"3X3X3X3X3X3X3X3X3X3X3X3X3X3Xw.N.I._.`.`.}.}.}.}.#X;X$X$X#X$X/.{.#X#X#X$X$X$X$X>X>X:X:X:X:X-X#X#X.XZ.3X3X3X3X3X3X3X3X3X3X3X3X3X3X",
"3X3X3X3X3X3X3X3X3X3X3X3X3X6.N.I._.].}.`.}.}.`.}.OX$X$X$X#X$X$X$XOXOXoX+X-X%X:X:X;X;X;X:X:X:XOXOX#X_.w.3X3X3X3X3X3X3X3X3X3X3X3X3X",
"3X3X3X3X3X3X3X3X3X3X3X3X3X0.M._.`.}.}.}.`.}.}.}.OXOX#X$X$X$XOXOX#XOXoX-X:X:X:X:X:X,X,X,X,X:X=X#XOX{.D.3X3X3X3X3X3X3X3X3X3X3X3X3X",
"3X3X3X3X3X3X3X3X3X3X3X3X6.c.I._.}.}. X}.}.XXXXXXOX#X#X#X$X$X#XOXoXoX-X:X:X:X:X:X,X2X2X2X2X,X:X#X#X#X_.w.3X3X3X3X3X3X3X3X3X3X3X3X",
"3X3X3X3X3X3X3X3X3X3X3X3X0.M._.]. X XXXXXXXXXXX#XOXOXOXOX$XOXOXOX-X-X:X:X:X:X:X,X2X2X2X2X2X2X:X#X#XOX].D.3X3X3X3X3X3X3X3X3X3X3X3X",
"3X3X3X3X3X3X3X3X3X3X3X6.e.M._.{.XXXXoXoX#X#X#X#X#X#XOXOXoXoX-X-X:X:X:X:X:X,X,X2X2X2X2X2X2X2X:X#XOXOX.X'.s.3X3X3X3X3X3X3X3X3X3X3X",
"3X3X3X3X3X3X3X3X3X3X3X6.x.M._.XX XXXoX#X#X#X$X$X-X$X-XOX-X-X:X:X:X:X;X,X,X2X2X2X2X2X2X2X2X2X:X$X#XoXXX_.u.3X3X3X3X3X3X3X3X3X3X3X",
"3X3X3X3X3X3X3X3X3X3X3X0.N.I._.XXXX#X#X#X#X$X$X%X-X:X;X-X:X:X:X:X:X,X,X2X2X2X2X2X2X2X2X2X2X2X:X:X#X#X#X).c.3X3X3X3X3X3X3X3X3X3X3X",
"3X3X3X3X3X3X3X3X3X3X6.e.N._._.XXXXXX#X#X$X$X;X;X-X:X:X:X:X:X:X:X,X2X2X2X2X2X2X2X2X2X2X2X2X2X:X;X#X#XOX_.N.w.3X3X3X3X3X3X3X3X3X3X",
"3X3X3X3X3X3X3X3X3X3X6.w.M._.'.XX#X#X#X#X$X-X:X:X;X:X:X:X:X:X:X,X2X2X2X2X2X2X2X2X2X2X2X2X2X,X:X:X#X#X#X_.N.e.3X3X3X3X3X3X3X3X3X3X",
"3X3X3X3X3X3X3X3X3X3X6.e.M._.'.XXXX#XoX#X$X-X:X;X:X:X:X:X:X:X:X2X2X2X2X2X2X2X2X2X2X2X2X2X2X:X:X=X#X#X#X_.M.e.3X3X3X3X3X3X3X3X3X3X",
"3X3X3X3X3X3X3X3X3X3X6.w.C._._.].#X#X#X#X-X;X:X:X:X:X-X:X:X:X:X2X2X2X2X2X2X2X2X2X2X2X2X2X,X:X:XOXOX#XoX_.M.u.3X3X3X3X3X3X3X3X3X3X",
"3X3X3X3X3X3X3X3X3X3X6.w.C.I._.U.'.'..X#X#X:X:X:X:X:X:X:X:X:X:X,X2X2X2X2X2X2X2X2X2X,X,X,X:X:X-XOXOX#X#X_.M.w.3X3X3X3X3X3X3X3X3X3X",
"3X3X3X3X3X3X3X3X3X3X6.u.M.N.Y./ G ^ Y.XXoX$X:X:X:X:X:X:X:X:X:X:X,X,X,X,X,X,X,X,X,X:X;X:X:X-X#XoX#XOX X'.N.u.3X3X3X3X3X3X3X3X3X3X",
"3X3X3X3X3X3X3X3X3X3X3X0.c.m.' 5.e 0 ^ G.oX#X-X:X:X:X:X:X:X:X:X:X;X:X:X:X:X:X:X:X:X:X:X:X-XOX#XOX#X#X_.I.c.3X3X3X3X3X3X3X3X3X3X3X",
"3X3X3X3X3X3X3X3X3X3X3X+.e.c.2 &Xr f.1 y.#X#XOX-X-X:X:X:X:X:X:X:X:X:X:X:X:X:X:X:X:X:X-X-XOX#XOXOXOX X_.m.w.3X3X3X3X3X3X3X3X3X3X3X",
"3X3X3X3X3X3X3X3X3X3X3X6.u.B.1 p.a.*X1 y. X#X#XOXOX-X-X-X-X-X:X:X:X:X:X:X:X:X-X-X-X-XoXoXOXOX#XOX X_.'.Z.u.3X3X3X3X3X3X3X3X3X3X3X",
"3X3X3X3X3X3X3X3X3X3X3X3X0.u.' 0 p.u ' Y._. X X#X$X#X#XOXoXoX-X-X-X-X-X-X-X-XoXoXOX#X#X#X#X#X X].'.'.P.w.3X3X3X3X3X3X3X3X3X3X3X3X",
"3X3X3X3X3X3X3X3X3X3X3X3X[ u.D.{ ^ / k.H.H.H.'.]. X X X$X$X#X#XOXOX+X#XoXOX#X#X.X{.{. X X X X_._.'.I.M.` 3X3X3X3X3X3X3X3X3X3X3X3X",
"3X3X3X3X3X3X3X3X3X3X3X3X3X7.c.L.k.z.j.j.j.3.k.Q.Q.Q.Q.]. X].]. X{.{.@X{. X{.{.'._._.Q._._._.'.'.I.N.q.3X3X3X3X3X3X3X3X3X3X3X3X3X",
"3X3X3X3X3X3X3X3X3X3X3X3X3X3X7.c.j.2.3.3.3.4.k._._._._._._._._.Q.Q._._._._._._.'.'._.'._._.'.'.P.N.q.3X3X3X3X3X3X3X3X3X3X3X3X3X3X",
"3X3X3X3X3X3X3X3X3X3X3X3X3X3X3X7.x.y.t.t.j.G._.'._._._._._._._._._._.'._._._._._.'._.'.'._.U.U.Z.q.3X3X3X3X3X3X3X3X3X3X3X3X3X3X3X",
"3X3X3X3X3X3X3X3X3X3X3X3X3X3X3X3X6.8.b.D.D.U.L.I._.'._._._.'._.'.'.'.'.'._.'.'.'.'.].'.U.U.c.0.q.3X3X3X3X3X3X3X3X3X3X3X3X3X3X3X3X",
"3X3X3X3X3X3X3X3X3X3X3X3X3X3X3X3X3X] 7.q.m.h.h.m.I.I.I.I.I.I.I.I.I.I.I.I.I.I.I.I.P.D.Z.h.0.@.3X3X3X3X3X3X3X3X3X3X3X3X3X3X3X3X3X3X",
"3X3X3X3X3X3X3X3X3X3X3X3X3X3X3X3X3X3X3X` 7.7.+.7.h.h.h.c.c.c.c.c.c.B.c.c.c.c.c.h.@.+.+.+.o.3X3X3X3X3X3X3X3X3X3X3X3X3X3X3X3X3X3X3X",
"3X3X3X3X3X3X3X3X3X3X3X3X3X3X3X3X3X3X3X3X3X3X3X3X0.0.0.6.6.6.+.6.6.6.6.+.6.6.7.8.3X3X3X3X3X3X3X3X3X3X3X3X3X3X3X3X3X3X3X3X3X3X3X3X",
"3X3X3X3X3X3X3X3X3X3X3X3X3X3X3X3X3X3X3X3X3X3X3X3XF 3 3 | <.} <.} } >.>.>.<.<.9.G 3X3X3X3X3X3X3X3X3X3X3X3X3X3X3X3X3X3X3X3X3X3X3X3X",
"3X3X3X3X3X3X3X3X3X3X3X3X3X3X3X3X3X3X3X3X3X3X3X3X% c #.E.E.E.E.E.J.%.$.$.%.l.J i 3X3X3X3X3X3X3X3X3X3X3X3X3X3X3X3X3X3X3X3X3X3X3X3X",
"3X3X3X3X3X3X3X3X3X3X3X3X3X3X3X3X3X3X3X3X3X3X3Xv / H.j.,.,.,.,.,.,.M b b n c s j 3X3X3X3X3X3X3X3X3X3X3X3X3X3X3X3X3X3X3X3X3X3X3X3X",
"3X3X3X3X3X3X3X3X3X3X3X3X3X3X3X3X3X3X3X3X3X3X3Xl l.,.k b N b N b f Z T E Z N N M i 3X3X3X3X3X3X3X3X3X3X3X3X3X3X3X3X3X3X3X3X3X3X3X",
"3X3X3X3X3X3X3X3X3X3X3X3X3X3X3X3X3X3X3X3X3X3X3X%.@Xh C Q Q Q Q &.V V -.&.Y T T b X.3X3X3X3X3X3X3X3X3X3X3X3X3X3X3X3X3X3X3X3X3X3X3X",
"3X3X3X3X3X3X3X3X3X3X3X3X3X3X3X3X3X3X3X3X3X3Xv k.1.V C Y Y R W W Q V V &.-.&.;.l.-XA.3X3X3X3X3X3X3X3X3X3X3X3X3X3X3X3X3X3X3X3X3X3X",
"3X3X3X3X3X3X3X3X3X3X3X3X3X3X3X3X3X3X3X3X3Xv.U ~.k m B E E E T T E E %.P T Y &.,X1XOXA.3X3X3X3X3X3X3X3X3X3X3X3X3X3X3X3X3X3X3X3X3X",
"3X3X3X3X3X3X3X3X3X3X3X3X3X3X3X3X3X3X3X3Xg.(., O.F G G / ( ( ( ) ) ) @.D m E i.|.,X1X|.g.3X3X3X3X3X3X3X3X3X3X3X3X3X3X3X3X3X3X3X3X",
"3X3X3X3X3X3X3X3X3X3X3X3X3X3X3X3X3X3X3X3X3Xr.. @ 9 9 9 9 t t t t t t e t 5 G A.(.=X=Xg.3X3X3X3X3X3X3X3X3X3X3X3X3X3X3X3X3X3X3X3X3X",
"3X3X3X3X3X3X3X3X3X3X3X3X3X3X3X3X3X3X3X3X3X3X  . X X X X O O O O O O + + o . @ e.n.w.3X3X3X3X3X3X3X3X3X3X3X3X3X3X3X3X3X3X3X3X3X3X",
"3X3X3X3X3X3X3X3X3X3X3X3X3X3X3X3X3X3X3X3X3X3X  # # = = < > > > > > < 4 5 5 > > K G 3X3X3X3X3X3X3X3X3X3X3X3X3X3X3X3X3X3X3X3X3X3X3X",
"3X3X3X3X3X3X3X3X3X3X3X3X3X3X3X3X3X3X3X3X3X3X3Xh h A Z E ! ! *.*.*.*.i.E.J.*.! j s 3X3X3X3X3X3X3X3X3X3X3X3X3X3X3X3X3X3X3X3X3X3X3X",
"3X3X3X3X3X3X3X3X3X3X3X3X3X3X3X3X3X3X3X3X3X3X3Xa s g j N C A P P A P &.:.=.V v s i _ 6 3X3X3X3X3X3X3X3X3X3X3X3X3X3X3X3X3X3X3X3X3X",
"3X3X3X3X3X3X3X3X3X3X3X3X3X3X3X3X3X3X3X3X3X3X3X3Xa : : j j j g g g g f h p & % - #.u.q 3X3X3X3X3X3X3X3X3X3X3X3X3X3X3X3X3X3X3X3X3X",
"3X3X3X3X3X3X3X3X3X3X3X3X3X3X3X3X3X3X3X3X3X3X3X3X3X* * - : : a 3X3X3X3Xa x .. . .F.s.6 3X3X3X3X3X3X3X3X3X3X3X3X3X3X3X3X3X3X3X3X3X",
"3X3X3X3X3X3X3X3X3X3X3X3X3X3X3X3X3X3X3X3X3X3X3X3X3X* ; * * = 3X3X3X3X3X3Xw R.(.(.g.` 3X3X3X3X3X3X3X3X3X3X3X3X3X3X3X3X3X3X3X3X3X3X",
"3X3X3X3X3X3X3X3X3X3X3X3X3X3X3X3X3X3X3X3X3X3X3X3X3X$ $ $ $ 3 3X3X3X3X3X3X7 _ _ _ [ 3X3X3X3X3X3X3X3X3X3X3X3X3X3X3X3X3X3X3X3X3X3X3X",
"3X3X3X3X3X3X3X3X3X3X3X3X3X3X3X3X3X3X3X3X3X3X6 w.(.@. . ...q 3X3X3X3X3X3X3X3X3X3X3X3X3X3X3X3X3X3X3X3X3X3X3X3X3X3X3X3X3X3X3X3X3X3X",
"3X3X3X3X3X3X3X3X3X3X3X3X3X3X3X3X3X3X3X3X3X3X6 g.F./.(.(.R.q 3X3X3X3X3X3X3X3X3X3X3X3X3X3X3X3X3X3X3X3X3X3X3X3X3X3X3X3X3X3X3X3X3X3X",
"3X3X3X3X3X3X3X3X3X3X3X3X3X3X3X3X3X3X3X3X3X3X6 ` [ _ _ _ { 7 3X3X3X3X3X3X3X3X3X3X3X3X3X3X3X3X3X3X3X3X3X3X3X3X3X3X3X3X3X3X3X3X3X3X",
"3X3X3X3X3X3X3X3X3X3X3X3X3X3X3X3X3X3X3X3X3X3X3X3X3X3X3X3X3X3X3X3X3X3X3X3X3X3X3X3X3X3X3X3X3X3X3X3X3X3X3X3X3X3X3X3X3X3X3X3X3X3X3X3X",
"3X3X3X3X3X3X3X3X3X3X3X3X3X3X3X3X3X3X3X3X3X3X3X3X3X3X3X3X3X3X3X3X3X3X3X3X3X3X3X3X3X3X3X3X3X3X3X3X3X3X3X3X3X3X3X3X3X3X3X3X3X3X3X3X",
"3X3X3X3X3X3X3X3X3X3X3X3X3X3X3X3X3X3X3X3X3X3X3X3X3X3X3X3X3X3X3X3X3X3X3X3X3X3X3X3X3X3X3X3X3X3X3X3X3X3X3X3X3X3X3X3X3X3X3X3X3X3X3X3X"
};
