/* XPM */
static char *result[] = {
/* columns rows colors chars-per-pixel */
"64 64 215 2 ",
"   c #050909",
".  c #071112",
"X  c #131B1C",
"o  c #121717",
"O  c #060F10",
"+  c #3E0E08",
"@  c #142223",
"#  c #353F3F",
"$  c #5B180E",
"%  c #48140B",
"&  c #630B01",
"*  c #6C1A0D",
"=  c #691307",
"-  c #7C1D0E",
";  c #75180A",
":  c #6E2116",
">  c #6C271A",
",  c #7D2112",
"<  c #742416",
"1  c #542927",
"2  c #5A312C",
"3  c #6F382E",
"4  c #783A2A",
"5  c #744D3B",
"6  c #70423B",
"7  c #77503E",
"8  c #78513F",
"9  c #6E4534",
"0  c #513D4A",
"q  c #3A4342",
"w  c #585E5D",
"e  c #5A4454",
"r  c #795340",
"t  c #7E5C48",
"y  c #5C5063",
"u  c #685664",
"i  c #5A6363",
"p  c #72627E",
"a  c #8B1B0B",
"s  c #911E0D",
"d  c #A81B0A",
"f  c #942514",
"g  c #952817",
"h  c #8E2413",
"j  c #A72916",
"k  c #B22512",
"l  c #B22C19",
"z  c #B22A17",
"x  c #B12612",
"c  c #923C2F",
"v  c #BA3925",
"b  c #A23B2B",
"n  c #C52F19",
"m  c #C4321D",
"M  c #CC341E",
"N  c #D8311B",
"B  c #CD2913",
"V  c #E8321A",
"C  c #D53923",
"Z  c #CF3520",
"A  c #E43D25",
"S  c #E73D26",
"D  c #894637",
"F  c #934735",
"G  c #B24E3C",
"H  c #DC432C",
"J  c #C84B39",
"K  c #E54E36",
"L  c #EA4B34",
"P  c #F24C33",
"I  c #EC523A",
"U  c #E5523B",
"Y  c #FD593F",
"T  c #F6533A",
"R  c #EB442C",
"E  c #9B4F42",
"W  c #9B5345",
"Q  c #975A49",
"!  c #8C4B42",
"~  c #AA4F43",
"^  c #A95D51",
"/  c #A15A45",
"(  c #916955",
")  c #946D5A",
"_  c #9B6253",
"`  c #9A745E",
"'  c #97705D",
"]  c #90654F",
"[  c #BE6D5A",
"{  c #BA6A57",
"}  c #AB755D",
"|  c #A4715A",
" . c #AF6952",
".. c #9B7661",
"X. c #9E7B67",
"o. c #A47F69",
"O. c #A87864",
"+. c #BC7B61",
"@. c #B47A66",
"#. c #AB7E77",
"$. c #D35543",
"%. c #E65C45",
"&. c #EC5A42",
"*. c #E95740",
"=. c #FE5E44",
"-. c #CA6B58",
";. c #EA614A",
":. c #E06452",
">. c #CC7568",
",. c #CD7A6E",
"<. c #CC7366",
"1. c #D27D70",
"2. c #E6756B",
"3. c #E67B79",
"4. c #E37977",
"5. c #F57D6A",
"6. c #A3836C",
"7. c #AA826C",
"8. c #AD8C74",
"9. c #AE8772",
"0. c #B48C74",
"q. c #B88E78",
"w. c #BC957B",
"e. c #BE987E",
"r. c #B59279",
"t. c #D58E75",
"y. c #C19A7F",
"u. c #E88477",
"i. c #F78977",
"p. c #6B668D",
"a. c #8A7C9F",
"s. c #BB9D82",
"d. c #B79B81",
"f. c #A18985",
"g. c #858ABA",
"h. c #C39D83",
"j. c #CB9E82",
"k. c #D09D8E",
"l. c #E98D8A",
"z. c #E98F81",
"x. c #EC9C8B",
"c. c #EA9587",
"v. c #F7998A",
"b. c #F79B98",
"n. c #C4A187",
"m. c #CDA285",
"M. c #CCA589",
"N. c #C6A98C",
"B. c #D1A689",
"V. c #D6AA8C",
"C. c #D9AD8E",
"Z. c #CEAF91",
"A. c #D7AD91",
"S. c #DCAF92",
"D. c #CDB69A",
"F. c #CEBA9D",
"G. c #CDB192",
"H. c #D2B295",
"J. c #DDB294",
"K. c #D7BB9D",
"L. c #E7A78F",
"P. c #EDA898",
"I. c #F8A798",
"U. c #E0B596",
"Y. c #E2B997",
"T. c #E3B799",
"R. c #E5BA9A",
"E. c #EABC9D",
"W. c #EEB195",
"Q. c #F6BB9E",
"!. c #CFBFA0",
"~. c #FBAEA2",
"^. c #F7ADA1",
"/. c #EEBEA2",
"(. c #F0BFA3",
"). c #FEB1A5",
"_. c #E5C19F",
"`. c #DDC3A4",
"'. c #D0C0A1",
"]. c #DDCFB2",
"[. c #E3C4A3",
"{. c #EDC2A4",
"}. c #E4CAA9",
"|. c #ECCFAC",
" X c #F1C5A6",
".X c #F3CAA7",
"XX c #F3C7A8",
"oX c #F4CBAA",
"OX c #FAC8A9",
"+X c #F5D2AC",
"@X c #F8D4AB",
"#X c #ECD5B2",
"$X c #ECDAB5",
"%X c #F5D4B0",
"&X c #F9D6B2",
"*X c #F7DAB2",
"=X c #F8DEB6",
"-X c #F9DFB8",
";X c #F5DBBA",
":X c #E6D0AD",
">X c #F9E0B7",
",X c #F9E2BA",
"<X c #B6B4C3",
"1X c #B0B8EA",
"2X c #FAE6C1",
"3X c #FAEBC5",
"4X c #FBEDCA",
"5X c #F4E3C1",
"6X c #FDF4CB",
"7X c #F7F1C8",
"8X c #FBF1D6",
"9X c #FEFCD3",
"0X c #FEFCDB",
"qX c #FBF4E3",
"wX c None",
/* pixels */
"wXwXwXwXwXwXwXwXwXwXwXwXwXwXwXwXwXwXwXwXwXwXwXwXwXwXwXwXwXwXwXwXwXwXwXwXwXwXwXwXwXwXwXwXwXwXwXwXwXwXwXwXwXwXwXwXwXwXwXwXwXwXwXwX",
"wXwXwXwXwXwXwXwXwXwXwXwXwXwXwXwXwXwXwXwXwXwXwXwXwXwXwXwXwXwXwXwXwXwXwXwXwXwXwXwXwXwXwXwXwXwXwXwXwXwXwXwXwXwXwXwXwXwXwXwXwXwXwXwX",
"wXwXwXwXwXwXwXwXwXwXwXwXwXwXwXwXwXwXwXwXwXwXwXwXwXwXwXwXwXwXwXwXwXwXwXwXwXwXwXwXwXwXwXwXwXwXwXwXwXwXwXwXwXwXwXwXwXwXwXwXwXwXwXwX",
"wXwXwXwXwXwXwXwXwXwXwXwXwXwXwXwXwXwXwXwXwXwXwXwXwXwXwXwXwXwXwXwXwXwXwXwXwXwXwXwXwXwXwXwXwXwXwXwXwXwXwXwXwXwXwXwXwXwXwXwXwXwXwXwX",
"wXwXwXwXwXwXwXwXwXwXwXwXwXwXwXwXwXwXwXwXwXwXwXwXwXwXwXwXwXwXwXwXwXwXwXwXwXwXwXwXwXwXwXwXwXwXwXwXwXwXwXwXwXwXwXwXwXwXwXwXwXwXwXwX",
"wXwXwXwXwXwXwXwXwXwXwXwXwXwXwXwXwXwXwXwXwXwXwXwXwXwXwXwXwXwXwX!.D.Z...wXwXwXwXwXwXwXwXwXwXwXwXwXwXwXwXwXwXwXwXwXwXwXwXwXwXwXwXwX",
"wXwXwXwXwXwXwXwXwXwXwXwXwXwXwXwXwXwXwXwXwXwXwXwXwXX.F.D.h.r.M.$X6X4XF.G.Z.Z.wXwXwXwXwXwXwXwXwXwXwXwXwXwXwXwXwXwXwXwXwXwXwXwXwXwX",
"wXwXwXwXwXwXwXwXwXwXwXwXwXwXwXwXwXwXwXwXwXwXwXwXn.'.0X2X2X/.E.S.oX;X2X+X>X,XF.wXwXwXwXwXwXwXwXwXwXwXwXwXwXwXwXwXwXwXwXwXwXwXwXwX",
"wXwXwXwXwXwXwXwXwXwXwXwXwXwXwXwXwXwXwXwXwXwXwXo.oX9X[.+X}.U.m.oX X XS.j.J.>X7Xo.wXwXwXwXwXwXwXwXwXwXwXwXwXwXwXwXwXwXwXwXwXwXwXwX",
"wXwXwXwXwXwXwXwXwXwXwXwXwXwXwXwXwXwXwXwXwXwXwXM. XR.J._.J.J.T.U. XT.Y.Y.J.R.@XF.wXwXwXwXwXwXwXwXwXwXwXwXwXwXwXwXwXwXwXwXwXwXwXwX",
"wXwXwXwXwXwXwXwXwXwXwXwXwXwXwXwXwXwXwXwXX.w.w. XJ.J.E.U.oXoX.XU.T.T.*X,X,XY._.3XD.0.J.s.wXwXwXwXwXwXwXwXwXwXwXwXwXwXwXwXwXwXwXwX",
"wXwXwXwXwXwXwXwXwXwXwXwXwXwXwXwXwXwXo.q.e.B.R.{.T..Xm..X@X=X>X&XM.oX2X9X9X,XB.@X3XD.h.V.V.d.wXwXwXwXwXwXwXwXwXwXwXwXwXwXwXwXwXwX",
"wXwXwXwXwXwXwXwXwXwXwXwXwXwXwXwXwXw.w.R.C.U. X.XoXT.R.oX,X6X9X7X[.R.4X9X9X4XR.J.%X4XF.-X&XS.A.wXwXwXwXwXwXwXwXwXwXwXwXwXwXwXwXwX",
"wXwXwXwXwXwXwXwXwXwXwXwXwXwXwXwXw.C.E. XU. X X.X XM.{.+X3X9X9X6X,Xm.-X6X6X6X,XY.J.Y.2X2X-X&X%XA.wXwXwXwXwXwXwXwXwXwXwXwXwXwXwXwX",
"wXwXwXwXwXwXwXwXwXwXwXwXwXwXwXw.C.T. X XOX X_..X+XR..X+X,X7X7X7X=X[.U.@X*X,X2X,X[._.@X2X2X2X2X&XA.wXwXwXwXwXwXwXwXwXwXwXwXwXwXwX",
"wXwXwXwXwXwXwXwXwXwXwXwXwXwXw.C.R.oX X X X X.X@X@X@X+X+X,X2X,X>X,X>X[.oX%X=X,X,X,X,X2X7X4X4X6X2X&XS.wXwXwXwXwXwXwXwXwXwXwXwXwXwX",
"wXwXwXwXwXwXwXwXwXwXwXwXwX6.C.R.XX X{. X XoX+X+X.X+X.X@X>X,X>X>X,X,X,X,X,X,X=X=X2X5X4X4X4X3X3X4X,XXXw.wXwXwXwXwXwXwXwXwXwXwXwXwX",
"wXwXwXwXwXwXwXwXwXwXwXwXwX0.V..X X XXXXXoX@X@X+X+X+X@X@X>X>X,X,X,X,X,X=X=X-X=X2X4X4X2X4X4X8X8X8X4XoXJ.wXwXwXwXwXwXwXwXwXwXwXwXwX",
"wXwXwXwXwXwXwXwXwXwXwXwX6.m.R.{. XXX{. X@X+X@X@X@X*X*X=X>X>X>X>X,X,X-X>X=X=X5X4X4X4X4X4X8XqXqXqXqX8X Xw.wXwXwXwXwXwXwXwXwXwXwXwX",
"wXwXwXwXwXwXwXwXwXwXwXwX0.V.XX X X X.XoX@X@X*X*X*X*X=X=X>X>X;X>X,X=X=X,X2X2X4X4X4X4X4X8XqXqXqXqXqXqXoXA.wXwXwXwXwXwXwXwXwXwXwXwX",
"wXwXwXwXwXwXwXwXwXwXwX6.w.C.{.XX X X{.*X*X*X*X>X=X=X,X-X-X,X,X-X=X,X2X2X4X4X4X4X4X8X8XqXqXqXqXqXqX8X,X Xs.wXwXwXwXwXwXwXwXwXwXwX",
"wXwXwXwXwXwXwXwXwXwXwX6.y.C. XXX X X.X@X*X*X=X>X-X-X,X,X,X2X,X,X,X2X4X4X4X4X4X8X8XqXqXqXqXqXqXqXqXqX8X{.e.wXwXwXwXwXwXwXwXwXwXwX",
"wXwXwXwXwXwXwXwXwXwXwX0.C.C. XXX X{.XX*X*X=X>X>X-X,X,X2X3X2X2X2X4X4X4X4X4X8X8XqXqXqXqXqXqXqXqXqXqXqX4X{.m.wXwXwXwXwXwXwXwXwXwXwX",
"wXwXwXwXwXwXwXwXwXwX6.y.C.C.{. X XXX X*X=X=X=X>X,X2X2X3X3X4X4X4X4X4X4X4X8XqXqXqXqXqXqXqXqXqXqXqXqXqX4X XC.e.wXwXwXwXwXwXwXwXwXwX",
"wXwXwXwXwXwXwXwXwXwX6.w.V.C.{.XX X X.X*X=X=X=X>X>X2X3X3X4X4X4X4X4X4X4X8XqXqXqXqXqXqXqXqXqXqXqXqXqX8X4XXXV.e.wXwXwXwXwXwXwXwXwXwX",
"wXwXwXwXwXwXwXwXwXwX6.e.C.C. X X X XXX*X=X=X=X>X,X3X3X4X4X4X4X4X4X4X4XqXqXqXqXqXqXqXqXqXqXqXqXqXqX4X,X XV.y.wXwXwXwXwXwXwXwXwXwX",
"wXwXwXwXwXwXwXwXwXwX6.w.V.C. XXXXXXX{.%X>X,X,X,X2X3X3X4X4X4X4X4X4X4X4XqXqXqXqXqXqXqXqXqXqXqXqXqX8X4X=X XC.e.wXwXwXwXwXwXwXwXwXwX",
"wXwXwXwXwXwXwXwXwXwX6.w.V.C. X X{.{.XXQ. X X%X,X,X4X4X4X4X4X4X4X4X4X4X8XqXqXqXqXqXqXqXqXqX8X8X8X4X4X>X XV.y.wXwXwXwXwXwXwXwXwXwX",
"wXwXwXwXwXwXwXwXwXwX6.y.V.C. X X X XP.D D Q P.&X-X2X4X4X4X4X4X4X4X4X4X4X8X8X8X8X8X8X8X8X8X4X4X4X4X2X+X XC.e.wXwXwXwXwXwXwXwXwXwX",
"wXwXwXwXwXwXwXwXwXwXwX0.j.C. X X XE._ f.w e Q L.-X-X2X4X4X4X4X4X4X4X4X4X4X3X3X4X4X4X3X4X3X4X4X4X2X,X XR.m.wXwXwXwXwXwXwXwXwXwXwX",
"wXwXwXwXwXwXwXwXwXwXwX6.w.V.R.{. XR.2 <Xu g.1 t.-X-X=X2X2X4X6X4X4X4X4X4X4X4X4X4X4X4X6X4X4X4X2X2X,X%X XB.w.wXwXwXwXwXwXwXwXwXwXwX",
"wXwXwXwXwXwXwXwXwXwXwX6.y.C.V. X XW.1 p.a.1X1 t.+X-X,X=X>X,X2X2X2X2X4X4X4X4X4X4X4X4X2X2X2X2X=X=X+X X{.J.e.wXwXwXwXwXwXwXwXwXwXwX",
"wXwXwXwXwXwXwXwXwXwXwXwX9.j.B.R.XX(.O.e p.p _ L.XX%XoX,X,X,X>X=X-X=X2X2X2X2X2X2X2X2X=X>X>X,X-X%X XoX{.w.wXwXwXwXwXwXwXwXwXwXwXwX",
"wXwXwXwXwXwXwXwXwXwXwXwX' e.C.V.T.XXXX| _ W x.P.P.P.XX+XoX%X&X-X,X,X-X-X,X-X,X-X=X,X,X%X%X+X+X X XR.T...wXwXwXwXwXwXwXwXwXwXwXwX",
"wXwXwXwXwXwXwXwXwXwXwXwXwX7.m.S.V.T. XOXI.I.l.l.l.u.c.(. X(.(.+X+X+X+X+X+X+X+X%XoX%X+X X X X XXXR.C.0.wXwXwXwXwXwXwXwXwXwXwXwXwX",
"wXwXwXwXwXwXwXwXwXwXwXwXwXwX7.M.C.C.U./.c.4.3.3.4.2.c. X X X X(.{.{.(.{.(.(.{.{. X X X X XXX XT.C.q.wXwXwXwXwXwXwXwXwXwXwXwXwXwX",
"wXwXwXwXwXwXwXwXwXwXwXwXwXwXwX7.m.B.V.T.R.x.x.x.x.P. X{. X X X X X X X XXXXX X X X X XXX XR.E.S.q.wXwXwXwXwXwXwXwXwXwXwXwXwXwXwX",
"wXwXwXwXwXwXwXwXwXwXwXwXwXwXwXwX7.7.m.S.C.E.[./.oXoXXXXX X X X X X X XXXXXXXXXXXoXXXXXE.E.m.0.q.wXwXwXwXwXwXwXwXwXwXwXwXwXwXwXwX",
"wXwXwXwXwXwXwXwXwXwXwXwXwXwXwXwXwX' 7.q.B.m.j.m.T.R.R.R.R.R.R.R.R.E.R.R.R.R.T.R.J.J.J.m.0.7.) wXwXwXwXwXwXwXwXwXwXwXwXwXwXwXwXwX",
"wXwXwXwXwXwXwXwXwXwXwXwXwXwXwXwXwXwXwX) 7.7.7.7.j.j.j.k.m.m.m.N.m.m.m.m.m.m.M.j.7.o.7.7.) wXwXwXwXwXwXwXwXwXwXwXwXwXwXwXwXwXwXwX",
"wXwXwXwXwXwXwXwXwXwXwXwXwXwXwXwXwXwXwXwXwXwXwXwX9.0.8.6.6.6.6.6.7.6.6.6.6.6.6.9.wXwXwXwXwXwXwXwXwXwXwXwXwXwXwXwXwXwXwXwXwXwXwXwX",
"wXwXwXwXwXwXwXwXwXwXwXwXwXwXwXwXwXwXwXwXwXwXwXwXD 3 4 { [ [ -.[ [ [ [ [ [ [ r.F wXwXwXwXwXwXwXwXwXwXwXwXwXwXwXwXwXwXwXwXwXwXwXwX",
"wXwXwXwXwXwXwXwXwXwXwXwXwXwXwXwXwXwXwXwXwXwXwXwX& b @.I.).I.^.).~.~.~.).).~.G a wXwXwXwXwXwXwXwXwXwXwXwXwXwXwXwXwXwXwXwXwXwXwXwX",
"wXwXwXwXwXwXwXwXwXwXwXwXwXwXwXwXwXwXwXwXwXwXwXwXG ^.z.,.u.u.u.1.,.,.>.>.>.>.v l wXwXwXwXwXwXwXwXwXwXwXwXwXwXwXwXwXwXwXwXwXwXwXwX",
"wXwXwXwXwXwXwXwXwXwXwXwXwXwXwXwXwXwXwXwXwXwXwXm I.,.d B S S V k n m J J J M I H f wXwXwXwXwXwXwXwXwXwXwXwXwXwXwXwXwXwXwXwXwXwXwX",
"wXwXwXwXwXwXwXwXwXwXwXwXwXwXwXwXwXwXwXwXwXwXwX{ k.n N I %.;.C v I &.u.I.v.&.K K l wXwXwXwXwXwXwXwXwXwXwXwXwXwXwXwXwXwXwXwXwXwXwX",
"wXwXwXwXwXwXwXwXwXwXwXwXwXwXwXwXwXwXwXwXwXwX`.].K.R L %.&.I S l K U 2.c.c.K K K C g wXwXwXwXwXwXwXwXwXwXwXwXwXwXwXwXwXwXwXwXwXwX",
"wXwXwXwXwXwXwXwXwXwXwXwXwXwXwXwXwXwXwXwXwXZ.9X0X8X*.%.%.I V N C P P 5.v.v.T P T N j M.wXwXwXwXwXwXwXwXwXwXwXwXwXwXwXwXwXwXwXwXwX",
"wXwXwXwXwXwXwXwXwXwXwXwXwXwXwXwXwXwXwXwXh.#X8X9X4X&.L P N ~ ! ^ ^ ^ O.#.#.W E E F 3 }.h.wXwXwXwXwXwXwXwXwXwXwXwXwXwXwXwXwXwXwXwX",
"wXwXwXwXwXwXwXwXwXwXwXwXwXwXwXwXwXwXwXwXwXn.5X4X;XC N b 6 i i i i i i w w q q q # @ r.wXwXwXwXwXwXwXwXwXwXwXwXwXwXwXwXwXwXwXwXwX",
"wXwXwXwXwXwXwXwXwXwXwXwXwXwXwXwXwXwXwXwXwXwXd.n.d.% + . @ X X X X X o o o O O O .   wXwXwXwXwXwXwXwXwXwXwXwXwXwXwXwXwXwXwXwXwXwX",
"wXwXwXwXwXwXwXwXwXwXwXwXwXwXwXwXwXwXwXwXwXwXwXF D $ $ < : : : : : > 3 r 3 > : * % wXwXwXwXwXwXwXwXwXwXwXwXwXwXwXwXwXwXwXwXwXwXwX",
"wXwXwXwXwXwXwXwXwXwXwXwXwXwXwXwXwXwXwXwXwXwXwXa f S S P Y Y =.T &.=.v.~.I.=.=.m j wXwXwXwXwXwXwXwXwXwXwXwXwXwXwXwXwXwXwXwXwXwXwX",
"wXwXwXwXwXwXwXwXwXwXwXwXwXwXwXwXwXwXwXwXwXwXwXg f z l M H H H H A C *.:.:.m v f a ] 7 wXwXwXwXwXwXwXwXwXwXwXwXwXwXwXwXwXwXwXwXwX",
"wXwXwXwXwXwXwXwXwXwXwXwXwXwXwXwXwXwXwXwXr d._.h - - - k d d l z z z k k k - - ; +.h.r wXwXwXwXwXwXwXwXwXwXwXwXwXwXwXwXwXwXwXwXwX",
"wXwXwXwXwXwXwXwXwXwXwXwXwXwXwXwXwXwXwXwX8 w.[.< = * * / +.+.; a , , , - - * & | K.r.8 wXwXwXwXwXwXwXwXwXwXwXwXwXwXwXwXwXwXwXwXwX",
"wXwXwXwXwXwXwXwXwXwXwXwXwXwXwXwXwXwXwXwX8 w.M.< * * < h.`.e.| & & & & & = * } $Xw.w.r wXwXwXwXwXwXwXwXwXwXwXwXwXwXwXwXwXwXwXwXwX",
"wXwXwXwXwXwXwXwXwXwXwXwXwXwXwXwXwXwXwXwXr w.n.= & & = 0.( 5 |.7.} O.@.Q > 4 :XH.w.` wXwXwXwXwXwXwXwXwXwXwXwXwXwXwXwXwXwXwXwXwXwX",
"wXwXwXwXwXwXwXwXwXwXwXwXwXwXwXwXwXwXwXwX8 r.:X@.} } O.w.5 8 H.}./.`.d.h.8.t Z.n.y.5 wXwXwXwXwXwXwXwXwXwXwXwXwXwXwXwXwXwXwXwXwXwX",
"wXwXwXwXwXwXwXwXwXwXwXwXwXwXwXwXwXwXwXwXr h.K.}.}.}.[.N.wX7 ( ( ( ( 6 d.}.5 ] ) ( 8 wXwXwXwXwXwXwXwXwXwXwXwXwXwXwXwXwXwXwXwXwXwX",
"wXwXwXwXwXwXwXwXwXwXwXwXwXwXwXwXwXwXwXwX8 ) ) ( ( ( ( ) wXwXwXwXwXwXr h.K.o.' ` ' 8 wXwXwXwXwXwXwXwXwXwXwXwXwXwXwXwXwXwXwXwXwXwX",
"wXwXwXwXwXwXwXwXwXwXwXwXwXwXwXwXwXwXwXwXwXwXwXwXwXwXwXwXwXwXwXwXwXwX7 ) ) ` ` O.` 8 wXwXwXwXwXwXwXwXwXwXwXwXwXwXwXwXwXwXwXwXwXwX",
"wXwXwXwXwXwXwXwXwXwXwXwXwXwXwXwXwXwXwXwXwXwXwXwXwXwXwXwXwXwXwXwXwXwXwXwXwXwXwXwXwXwXwXwXwXwXwXwXwXwXwXwXwXwXwXwXwXwXwXwXwXwXwXwX",
"wXwXwXwXwXwXwXwXwXwXwXwXwXwXwXwXwXwXwXwXwXwXwXwXwXwXwXwXwXwXwXwXwXwXwXwXwXwXwXwXwXwXwXwXwXwXwXwXwXwXwXwXwXwXwXwXwXwXwXwXwXwXwXwX"
};
