/* XPM */
static char *result[] = {
/* columns rows colors chars-per-pixel */
"64 64 206 2 ",
"   c #020201",
".  c #080A0A",
"X  c #071011",
"o  c #0C1212",
"O  c #141B1A",
"+  c #070F10",
"@  c #1B201F",
"#  c #343533",
"$  c #450E06",
"%  c #5F0A00",
"&  c #640F03",
"*  c #65150A",
"=  c #771709",
"-  c #631F15",
";  c #6E2217",
":  c #71271B",
">  c #542927",
",  c #5A322D",
"<  c #763828",
"1  c #6A2E24",
"2  c #754E3C",
"3  c #73453D",
"4  c #78503E",
"5  c #513D4A",
"6  c #3B4443",
"7  c #374140",
"8  c #5A4F56",
"9  c #7A5542",
"0  c #5D605F",
"q  c #5C5063",
"w  c #685664",
"e  c #566262",
"r  c #72627E",
"t  c #831D0D",
"y  c #8D1D0C",
"u  c #A81C0B",
"i  c #8C2312",
"p  c #932313",
"a  c #9E2513",
"s  c #AE210D",
"d  c #A72916",
"f  c #B32916",
"g  c #B22C19",
"h  c #B82A16",
"j  c #BA321F",
"k  c #883A2C",
"l  c #BA3623",
"z  c #B93825",
"x  c #B43622",
"c  c #A23B2B",
"v  c #C52C15",
"b  c #C7331D",
"n  c #DB341D",
"m  c #D02812",
"M  c #E42E16",
"N  c #E7321B",
"B  c #C83521",
"V  c #D13521",
"C  c #E53B25",
"Z  c #E93E27",
"A  c #894638",
"S  c #934434",
"D  c #8E513F",
"F  c #AC4839",
"G  c #DD442E",
"H  c #D2402B",
"J  c #C64D3B",
"K  c #E44E36",
"L  c #EC4C34",
"P  c #E74E38",
"I  c #F34E34",
"U  c #ED543C",
"Y  c #E5523B",
"T  c #FA573D",
"R  c #E74029",
"E  c #9B4F42",
"W  c #9B5445",
"Q  c #975B4D",
"!  c #A85B4F",
"~  c #916955",
"^  c #976756",
"/  c #98715F",
"(  c #926750",
")  c #B2614C",
"_  c #BE6D5A",
"`  c #BA6A57",
"'  c #A9755D",
"]  c #AB725A",
"[  c #9D7B67",
"{  c #9A7C76",
"}  c #A37F69",
"|  c #A97A68",
" . c #B97B65",
".. c #D75B48",
"X. c #EA5C45",
"o. c #E55942",
"O. c #F95C42",
"+. c #DC604E",
"@. c #CC6A53",
"#. c #C0715E",
"$. c #FF6147",
"%. c #CD7A6E",
"&. c #CB7568",
"*. c #D17A6D",
"=. c #CE7C70",
"-. c #E67B79",
";. c #E87D7B",
":. c #E4706D",
">. c #A3836C",
",. c #AA826C",
"<. c #AF8973",
"1. c #B38C74",
"2. c #B88E76",
"3. c #B28878",
"4. c #BC967B",
"5. c #BF987D",
"6. c #B79279",
"7. c #DE8D7D",
"8. c #D78B76",
"9. c #C19A7F",
"0. c #E78568",
"q. c #E98579",
"w. c #F38E7E",
"e. c #6B668D",
"r. c #8A7C9F",
"t. c #BE9D83",
"y. c #B79C81",
"u. c #A18885",
"i. c #BEA58B",
"p. c #858ABA",
"a. c #C59E84",
"s. c #CB9D82",
"d. c #E98D8A",
"f. c #EC9788",
"g. c #EC9C8C",
"h. c #EA9587",
"j. c #F59C93",
"k. c #CDA285",
"l. c #CDA589",
"z. c #C9AB8D",
"x. c #C2A288",
"c. c #D1A689",
"v. c #D6AA8C",
"b. c #D9AD8E",
"n. c #D7AD91",
"m. c #DAAD90",
"M. c #CDB192",
"N. c #CCB99A",
"B. c #DCB294",
"V. c #D1B194",
"C. c #D8B08F",
"Z. c #E5AB8F",
"A. c #F2A68A",
"S. c #EDA695",
"D. c #F7A999",
"F. c #E1B696",
"G. c #E1B996",
"H. c #E1B698",
"J. c #E5BA9A",
"K. c #EABD9E",
"L. c #EEB195",
"P. c #F6BB9E",
"I. c #CFBFA0",
"U. c #FBAEA2",
"Y. c #F7ADA0",
"T. c #ECBFA1",
"R. c #F0BFA3",
"E. c #FEB1A5",
"W. c #F6BBB2",
"Q. c #E7C09F",
"!. c #DAC0A1",
"~. c #E4C4A2",
"^. c #EEC3A4",
"/. c #E3C9A9",
"(. c #E8CEAB",
"). c #F1C5A6",
"_. c #F3CAA6",
"`. c #F3C7A8",
"'. c #F4CBA9",
"]. c #F8C3A3",
"[. c #EAD1AE",
"{. c #F5D2AC",
"}. c #F8D6AD",
"|. c #E4D7B5",
" X c #F6D5B1",
".X c #F8D5B1",
"XX c #F7DAB3",
"oX c #F8DEB6",
"OX c #F9DFB8",
"+X c #F5DCBB",
"@X c #F1C1BA",
"#X c #F9E0B7",
"$X c #F9E2BA",
"%X c #FCE8BF",
"&X c #B6B4C3",
"*X c #B0B8EA",
"=X c #FAE6C1",
"-X c #FAEBC5",
";X c #FBEDCA",
":X c #F7E5C1",
">X c #FCF4CB",
",X c #FBF0D6",
"<X c #FEFBD3",
"1X c #FDFCDB",
"2X c #FBF4E3",
"3X c None",
/* pixels */
"3X3X3X3X3X3X3X3X3X3X3X3X3X3X3X3X3X3X3X3X3X3X3X3X3X3X3X3X3X3X3X3X3X3X3X3X3X3X3X3X3X3X3X3X3X3X3X3X3X3X3X3X3X3X3X3X3X3X3X3X3X3X3X3X",
"3X3X3X3X3X3X3X3X3X3X3X3X3X3X3X3X3X3X3X3X3X3X3X3X3X3X3X3X3X3X3X3X3X3X3X3X3X3X3X3X3X3X3X3X3X3X3X3X3X3X3X3X3X3X3X3X3X3X3X3X3X3X3X3X",
"3X3X3X3X3X3X3X3X3X3X3X3X3X3X3X3X3X3X3X3X3X3X3X3X3X3X3X3X3X3X3X3X3X3X3X3X3X3X3X3X3X3X3X3X3X3X3X3X3X3X3X3X3X3X3X3X3X3X3X3X3X3X3X3X",
"3X3X3X3X3X3X3X3X3X3X3X3X3X3X3X3X3X3X3X3X3X3X3X3X3X3X3X3X3X3X3X3X3X3X3X3X3X3X3X3X3X3X3X3X3X3X3X3X3X3X3X3X3X3X3X3X3X3X3X3X3X3X3X3X",
"3X3X3X3X3X3X3X3X3X3X3X3X3X3X3X3X3X3X3X3X3X3X3X3X3X3X3X3X3X3X[ N.N.z.>.3X3X3X3X3X3X3X3X3X3X3X3X3X3X3X3X3X3X3X3X3X3X3X3X3X3X3X3X3X",
"3X3X3X3X3X3X3X3X3X3X3X3X3X3X3X3X3X3X3X3X3X3X3X3X3X[ N.N.l.4.M.1X<X=X4.z.z.z.3X3X3X3X3X3X3X3X3X3X3X3X3X3X3X3X3X3X3X3X3X3X3X3X3X3X",
"3X3X3X3X3X3X3X3X3X3X3X3X3X3X3X3X3X3X3X3X3X3X3X3Xx.N.1X=XT.T..X+X+X~.Q.%X<X>XM.3X3X3X3X3X3X3X3X3X3X3X3X3X3X3X3X3X3X3X3X3X3X3X3X3X",
"3X3X3X3X3X3X3X3X3X3X3X3X3X3X3X3X3X3X3X3X3X3X3X} '.<X/.m.s.`.^.).B.s.G.}.>X1X:X} 3X3X3X3X3X3X3X3X3X3X3X3X3X3X3X3X3X3X3X3X3X3X3X3X",
"3X3X3X3X3X3X3X3X3X3X3X3X3X3X3X3X3X3X3X3X3X3X3Xl.).J.B.F.H.H.).H.F.G.F.F.XX,X>XM.3X3X3X3X3X3X3X3X3X3X3X3X3X3X3X3X3X3X3X3X3X3X3X3X",
"3X3X3X3X3X3X3X3X3X3X3X3X3X3X3X3X3X3X3X3X[ 4.6.`.G.F.'._._.B.H.F.XX%X$XJ.G.%X<X>Xz.1.B.t.3X3X3X3X3X3X3X3X3X3X3X3X3X3X3X3X3X3X3X3X",
"3X3X3X3X3X3X3X3X3X3X3X3X3X3X3X3X3X3X>.6.4.c.K.).c.'.{.#X$X Xl.'.=X<X<X$Xl. X%X<X>XM.a.v.n.4.3X3X3X3X3X3X3X3X3X3X3X3X3X3X3X3X3X3X",
"3X3X3X3X3X3X3X3X3X3X3X3X3X3X3X3X3X6.4.J.b.G.).G.G.{.#X>X<X-X~.G.>X<X<X-XJ.B.{.-X<X;XM. X.Xn.v.3X3X3X3X3X3X3X3X3X3X3X3X3X3X3X3X3X",
"3X3X3X3X3X3X3X3X3X3X3X3X3X3X3X3X4.b.K.).G._._.9.).{.%X<X<X>X$Xv.$X>X>X>X$XG.B.J.XX:X%XoX#X.X.Xn.3X3X3X3X3X3X3X3X3X3X3X3X3X3X3X3X",
"3X3X3X3X3X3X3X3X3X3X3X3X3X3X3X4.b.J.`.).]._.}.Q.`.{.$X>X>X-X#X~.G.'. X%X=XoX~.Q.}.$X:X=X=X=X=X Xn.3X3X3X3X3X3X3X3X3X3X3X3X3X3X3X",
"3X3X3X3X3X3X3X3X3X3X3X3X3X3X4.b.G.`._._._.}.{.}.{.{.#X%X$X$X$X$X~.'. XoX$X$X$X$X-X;X;X;X>X;X;X=X.Xn.3X3X3X3X3X3X3X3X3X3X3X3X3X3X",
"3X3X3X3X3X3X3X3X3X3X3X3X3X>.b.J._.].^._._.}._.{._.{.#X$X$XoX$X$X%X$X$X$X#XoX%X=X;X-X;X;X-X;X;X;X$X).5.3X3X3X3X3X3X3X3X3X3X3X3X3X",
"3X3X3X3X3X3X3X3X3X3X3X3X3X1.v.).).`.'.{.{.{.{.{.{.}.oXoX$X$X$X$XOXOXOX$XOX:X;X;X;X;X;X,X,X,X,X;X=X{.n.3X3X3X3X3X3X3X3X3X3X3X3X3X",
"3X3X3X3X3X3X3X3X3X3X3X3X>.k.J.).`.^.{.}.}.}.}.}.XXoXoX$X#X$X$X$X$XOXOXOX:X;X;X;X;X;X,X2X2X2X2X,X;X$X`.5.3X3X3X3X3X3X3X3X3X3X3X3X",
"3X3X3X3X3X3X3X3X3X3X3X3X<.b.`.).`.'.}.}.XXXXXXXXoXoXOXOXoXoX$XOXoXoX=X=X-X;X;X;X;X,X2X2X2X2X2X2X-X$X'.n.3X3X3X3X3X3X3X3X3X3X3X3X",
"3X3X3X3X3X3X3X3X3X3X3X>.4.b.^.`.).}.XXXXXXXX#X#XOXOX$XOX$X$XoXoX:X:X;X;X;X-X;X,X,X2X2X2X2X2X2X,X;X#X X`.a.3X3X3X3X3X3X3X3X3X3X3X",
"3X3X3X3X3X3X3X3X3X3X3X>.s.b.).).).}.XXXX#X#X#X#XOX:X%X:X$XOX=X=X;X;X;X;X;X,X,X2X2X2X2X2X2X2X2X2X;X:XXX^.5.3X3X3X3X3X3X3X3X3X3X3X",
"3X3X3X3X3X3X3X3X3X3X3X1.v.v.).'.).XXXXoX#X#X#X#XOX:X=X=X-X-X;X;X;X;X-X,X,X2X2X2X2X2X2X2X2X2X2X2X;X;X$X).k.3X3X3X3X3X3X3X3X3X3X3X",
"3X3X3X3X3X3X3X3X3X3X>.9.v.b.).).`.XXoXoXoX#X#X$X=X;X-X-X;X;X;X;X;X;X,X2X2X2X2X2X2X2X2X2X2X2X2X2X;X;X$X^.b.5.3X3X3X3X3X3X3X3X3X3X",
"3X3X3X3X3X3X3X3X3X3X>.4.b.b.).).`.XXoXoX#X#X$X%X;X-X;X;X;X;X-X;X;X,X2X2X2X2X2X2X2X2X2X2X2X2X2X,X;X;XOX`.v.5.3X3X3X3X3X3X3X3X3X3X",
"3X3X3X3X3X3X3X3X3X3X>.4.v.b.).).`.XXoXoXoX$X$X=X-X-X;X;X;X;X;X;X;X2X2X2X2X2X2X2X2X2X2X2X2X2X2X;X;X=X#X).v.5.3X3X3X3X3X3X3X3X3X3X",
"3X3X3X3X3X3X3X3X3X3X>.5.v.b.).).^.}.#X$X$X$X=X-X-X;X;X;X;X;X;X;X;X2X2X2X2X2X2X2X2X2X2X2X2X2X,X;X;X#XoX).v.5.3X3X3X3X3X3X3X3X3X3X",
"3X3X3X3X3X3X3X3X3X3X>.4.v.b.).)._.P.].`. X$X$X;X;X;X;X;X;X;X;X;X;X,X2X2X2X2X2X2X2X2X2X,X,X,X-X;X=X$X$X).v.9.3X3X3X3X3X3X3X3X3X3X",
"3X3X3X3X3X3X3X3X3X3X>.9.v.v.).'.L.D A W L..XoX=X;X-X;X;X;X;X;X;X;X;X,X,X,X,X,X,X,X,X,X;X;X;X;X:XoXoX{.).b.9.3X3X3X3X3X3X3X3X3X3X",
"3X3X3X3X3X3X3X3X3X3X3X1.k.v.'.R.^ u.q 5 W Z.oXoX=X;X;X;X;X-X;X;X;X;X-X;X;X;X;X-X;X-X;X;X;X;X=XoX$X$X).H.k.3X3X3X3X3X3X3X3X3X3X3X",
"3X3X3X3X3X3X3X3X3X3X3X>.4.v.J.J., &Xq p.> 8.$X#XOX=X=X;X;X;X;X;X;X;X;X;X;X;X;X-X;X;X;X;X=X=XOXoX#X{.).v.5.3X3X3X3X3X3X3X3X3X3X3X",
"3X3X3X3X3X3X3X3X3X3X3X>.5.v.b.J.> e.r.*X> 8.'.$X$XOXOX:X=X=X=X=X;X;X;X;X;X;X;X;X=X:X%X%XOXOXOX$X{.).`.B.5.3X3X3X3X3X3X3X3X3X3X3X",
"3X3X3X3X3X3X3X3X3X3X3X3X<.a.v.F.' 8 e.r ^ Z.). X{.OX$X$X$X$XOXoX=X=X=X=X=X=X=X=XoXOXoX$X$X$X$X{.).'.F.2.3X3X3X3X3X3X3X3X3X3X3X3X",
"3X3X3X3X3X3X3X3X3X3X3X3X/ 5.b.b.K.' ^ W f.L.S.S.).{.{. X{.%X%XOX$X$X+XOX$XOXOXOX%X X'. X{. X{.).`.J.v./ 3X3X3X3X3X3X3X3X3X3X3X3X",
"3X3X3X3X3X3X3X3X3X3X3X3X3X,.l.b.v.).D.j.d.d.d.;.h.R.R.R.R.'.'.{.{.{.{. X{. X{. X'.).).).R.).R.'.J.v.2.3X3X3X3X3X3X3X3X3X3X3X3X3X",
"3X3X3X3X3X3X3X3X3X3X3X3X3X3X,.l.b.c.8.-.;.;.-.:.h.).).).).R.R.).R.R.^.R.R.).^.).).).'.).).'.).J.b.2.3X3X3X3X3X3X3X3X3X3X3X3X3X3X",
"3X3X3X3X3X3X3X3X3X3X3X3X3X3X3X,.k.c.C.8.d.g.g.S.`.).R.).).).).).^.).`.`.`.`.^.).).).).'.`.J.K.b.2.3X3X3X3X3X3X3X3X3X3X3X3X3X3X3X",
"3X3X3X3X3X3X3X3X3X3X3X3X3X3X3X3X,.,.k.B.B.K.Q.Q.).`.).).).).).).).).'.).`.`.`.`.'.'.'.J.K.k.1.2.3X3X3X3X3X3X3X3X3X3X3X3X3X3X3X3X",
"3X3X3X3X3X3X3X3X3X3X3X3X3X3X3X3X3X/ ,.2.k.k.k.k.T.H.H.T.J.J.J.J.K.J.J.J.J.J.J.J.B.B.B.s.1.,.3X3X3X3X3X3X3X3X3X3X3X3X3X3X3X3X3X3X",
"3X3X3X3X3X3X3X3X3X3X3X3X3X3X3X3X3X3X3X~ ,.,.,.,.s.k.s.l.l.l.k.l.k.k.l.l.k.k.k.s.,.,.| ,.3X3X3X3X3X3X3X3X3X3X3X3X3X3X3X3X3X3X3X3X",
"3X3X3X3X3X3X3X3X3X3X3X3X3X3X3X3X3X3X3X3X3X3X3X3X<.<.3.>.>.>.>.>.>.>.>.>.>.>.| <.3X3X3X3X3X3X3X3X3X3X3X3X3X3X3X3X3X3X3X3X3X3X3X3X",
"3X3X3X3X3X3X3X3X3X3X3X3X3X3X3X3X3X3X3X3X3X3X3X3XA < < ` #.#._ _ #.#._ _ _ &.<.S 3X3X3X3X3X3X3X3X3X3X3X3X3X3X3X3X3X3X3X3X3X3X3X3X",
"3X3X3X3X3X3X3X3X3X3X3X3X3X3X3X3X3X3X3X3X3X3X3X3X& c  .U.U.U.U.U.D.U.U.U.U.U.c y 3X3X3X3X3X3X3X3X3X3X3X3X3X3X3X3X3X3X3X3X3X3X3X3X",
"3X3X3X3X3X3X3X3X3X3X3X3X3X3X3X3X3X3X3X3X3X3X3X3XF U.7.%.&.*.*.=.0.;.=.*.%.&.z g 3X3X3X3X3X3X3X3X3X3X3X3X3X3X3X3X3X3X3X3X3X3X3X3X",
"3X3X3X3X3X3X3X3X3X3X3X3X3X3X3X3X3X3X3X3X3X3X3Xl f.*.h v b v u m M M v s J V U V p 3X3X3X3X3X3X3X3X3X3X3X3X3X3X3X3X3X3X3X3X3X3X3X",
"3X3X3X3X3X3X3X3X3X3X3X3X3X3X3X3X3X3X3X3X3X3X3X..W.g V o.U Y j R Z P L z f.X.P P g 3X3X3X3X3X3X3X3X3X3X3X3X3X3X3X3X3X3X3X3X3X3X3X",
"3X3X3X3X3X3X3X3X3X3X3X3X3X3X3X3X3X3X3X3X3X3XB g.&.l V K Y K g C Z X.o.z q.Y P L V p 3X3X3X3X3X3X3X3X3X3X3X3X3X3X3X3X3X3X3X3X3X3X",
"3X3X3X3X3X3X3X3X3X3X3X3X3X3X3X3X3X3X3X3X3X3XH W.h n N I I L g C Z X.o.z h.T I I V a 3X3X3X3X3X3X3X3X3X3X3X3X3X3X3X3X3X3X3X3X3X3X",
"3X3X3X3X3X3X3X3X3X3X3X3X3X3X3X3X3X3X3X3X3X3X- { A S S D ! ! j C Z X.o.x | W E E S 1 3X3X3X3X3X3X3X3X3X3X3X3X3X3X3X3X3X3X3X3X3X3X",
"3X3X3X3X3X3X3X3X3X3X3X3X3X3X3X3X3X3X3X3X3X3X  # 6 7 6 6 0 0 d M N P K g 0 6 7 6 7 O 3X3X3X3X3X3X3X3X3X3X3X3X3X3X3X3X3X3X3X3X3X3X",
"3X3X3X3X3X3X3X3X3X3X3X3X3X3X3X3X3X3X3X3X3X3X  o o X X o O @ ) 0.0.A.A.) O + X o o   3X3X3X3X3X3X3X3X3X3X3X3X3X3X3X3X3X3X3X3X3X3X",
"3X3X3X3X3X3X3X3X3X3X3X3X3X3X3X3X3X3X3X3X3X3X. $ $ * * : ; : 5.[.|.2X1Xt.3 ; ; * $ . 3X3X3X3X3X3X3X3X3X3X3X3X3X3X3X3X3X3X3X3X3X3X",
"3X3X3X3X3X3X3X3X3X3X3X3X3X3X3X3X3X3X3X3X3X3X3Xd d C Z L T T i.(.[.=X+Xa.D.$.T b d 3X3X3X3X3X3X3X3X3X3X3X3X3X3X3X3X3X3X3X3X3X3X3X",
"3X3X3X3X3X3X3X3X3X3X3X3X3X3X3X3X3X3X3X3X3X3X3Xi p d s b G G @.x.z.i.i.@.+.l x i i 3X3X3X3X3X3X3X3X3X3X3X3X3X3X3X3X3X3X3X3X3X3X3X",
"3X3X3X3X3X3X3X3X3X3X3X3X3X3X3X3X3X3X3X3X3X3X3X3Xp i k u u u h S A S S f f i 3Xp 3X3X3X3X3X3X3X3X3X3X3X3X3X3X3X3X3X3X3X3X3X3X3X3X",
"3X3X3X3X3X3X3X3X3X3X3X3X3X3X3X3X3X3X3X3X3X3X3X3X3X3X9  .&.,.= = t t t = = 3X3X3X3X3X3X3X3X3X3X3X3X3X3X3X3X3X3X3X3X3X3X3X3X3X3X3X",
"3X3X3X3X3X3X3X3X3X3X3X3X3X3X3X3X3X3X3X3X3X3X3X3X3X3X9 I./.5.] & & % & D < 3X3X3X3X3X3X3X3X3X3X3X3X3X3X3X3X3X3X3X3X3X3X3X3X3X3X3X",
"3X3X3X3X3X3X3X3X3X3X3X3X3X3X3X3X3X3X3X3X3X3X3X3X3X3X2 ~ ( 2 (. .] ' | 4.9 3X3X3X3X3X3X3X3X3X3X3X3X3X3X3X3X3X3X3X3X3X3X3X3X3X3X3X",
"3X3X3X3X3X3X3X3X3X3X3X3X3X3X3X3X3X3X3X3X3X3X3X3X3X3X3X3X3X4 N.(./././.a.4 3X3X3X3X3X3X3X3X3X3X3X3X3X3X3X3X3X3X3X3X3X3X3X3X3X3X3X",
"3X3X3X3X3X3X3X3X3X3X3X3X3X3X3X3X3X3X3X3X3X3X3X3X3X3X3X3X3X2 ~ ~ ~ ~ ~ ~ 4 3X3X3X3X3X3X3X3X3X3X3X3X3X3X3X3X3X3X3X3X3X3X3X3X3X3X3X",
"3X3X3X3X3X3X3X3X3X3X3X3X3X3X3X3X3X3X3X3X3X3X3X3X3X3X3X3X3X3X3X3X3X3X3X3X3X3X3X3X3X3X3X3X3X3X3X3X3X3X3X3X3X3X3X3X3X3X3X3X3X3X3X3X",
"3X3X3X3X3X3X3X3X3X3X3X3X3X3X3X3X3X3X3X3X3X3X3X3X3X3X3X3X3X3X3X3X3X3X3X3X3X3X3X3X3X3X3X3X3X3X3X3X3X3X3X3X3X3X3X3X3X3X3X3X3X3X3X3X",
"3X3X3X3X3X3X3X3X3X3X3X3X3X3X3X3X3X3X3X3X3X3X3X3X3X3X3X3X3X3X3X3X3X3X3X3X3X3X3X3X3X3X3X3X3X3X3X3X3X3X3X3X3X3X3X3X3X3X3X3X3X3X3X3X",
"3X3X3X3X3X3X3X3X3X3X3X3X3X3X3X3X3X3X3X3X3X3X3X3X3X3X3X3X3X3X3X3X3X3X3X3X3X3X3X3X3X3X3X3X3X3X3X3X3X3X3X3X3X3X3X3X3X3X3X3X3X3X3X3X",
"3X3X3X3X3X3X3X3X3X3X3X3X3X3X3X3X3X3X3X3X3X3X3X3X3X3X3X3X3X3X3X3X3X3X3X3X3X3X3X3X3X3X3X3X3X3X3X3X3X3X3X3X3X3X3X3X3X3X3X3X3X3X3X3X"
};
