/* XPM */
static char *_bcbbecd14ed4078f12d1bf6c0a68976AR7vJnCYuZJyBAOp[] = {
/* columns rows colors chars-per-pixel */
"64 64 207 2 ",
"   c None",
".  c #0B0F11",
"X  c #091313",
"o  c #121C1D",
"O  c gray5",
"+  c #313231",
"@  c #47140C",
"#  c #470D05",
"$  c #640B01",
"%  c #6E1A0C",
"&  c #67160A",
"*  c #7B1C0D",
"=  c #6E1C10",
"-  c #6F2216",
";  c #732518",
":  c #542A27",
">  c #5A322C",
",  c #753729",
"<  c #692E25",
"1  c #754C3A",
"2  c #513E4A",
"3  c #3C4544",
"4  c #5C4655",
"5  c #775448",
"6  c #6C6157",
"7  c #5C5063",
"8  c #685664",
"9  c #5A6363",
"0  c #576161",
"q  c #766C7A",
"w  c #861C0C",
"e  c #AA1A05",
"r  c #AB1A06",
"t  c #94200F",
"y  c #842718",
"u  c #962818",
"i  c #B4210D",
"p  c #B32D19",
"a  c #BA2A16",
"s  c #BC311E",
"d  c #A22512",
"f  c #893E31",
"g  c #A53524",
"h  c #B83522",
"j  c #C82F19",
"k  c #D72E18",
"l  c #CA321C",
"z  c #D3331E",
"x  c #C7230D",
"c  c #E62F16",
"v  c #E6331B",
"b  c #C83A26",
"n  c #D33521",
"m  c #DC3C25",
"M  c #EB3D26",
"N  c #EA3A24",
"B  c #89493C",
"V  c #91473A",
"C  c #D44733",
"Z  c #E4442E",
"A  c #E14630",
"S  c #ED4B34",
"D  c #E64F37",
"F  c #F54D33",
"G  c #EB533B",
"H  c #E75038",
"J  c #F1553D",
"K  c #FF593F",
"L  c #8B5E49",
"P  c #875D49",
"I  c #9A5A4A",
"U  c #995544",
"Y  c #9C4F42",
"T  c #A95A47",
"R  c #AA5D51",
"E  c #B55140",
"W  c #8A624F",
"Q  c #95674E",
"!  c #976654",
"~  c #98705D",
"^  c #BE6C58",
"/  c #AD765E",
"(  c #A3765F",
")  c #AF634D",
"_  c #9A7A74",
"`  c #A67A64",
"'  c #A87764",
"]  c #B67968",
"[  c #E85D47",
"{  c #FE5C42",
"}  c #C16D5A",
"|  c #D66751",
" . c #E66655",
".. c #CD7A6D",
"X. c #C67365",
"o. c #D47A6D",
"O. c #D37D71",
"+. c #E97C7A",
"@. c #E66F6D",
"#. c #A4836D",
"$. c #A98168",
"%. c #B3846A",
"&. c #B4896E",
"*. c #A78873",
"=. c #AA8A74",
"-. c #B28C75",
";. c #B98F71",
":. c #BA857C",
">. c #BD967B",
",. c #B79379",
"<. c #DE8B7C",
"1. c #D78E75",
"2. c #C39A7E",
"3. c #CB8776",
"4. c #EA8679",
"5. c #EF8E77",
"6. c #6B678D",
"7. c #8A7C9F",
"8. c #BC8880",
"9. c #AA968D",
"0. c #AB988F",
"q. c #AB948D",
"w. c #BCA79D",
"e. c #B7A39A",
"r. c #858ABA",
"t. c #D58E84",
"y. c #C29D83",
"u. c #CD9E82",
"i. c #C99B8E",
"p. c #CD9385",
"a. c #EB8D8A",
"s. c #EC9889",
"d. c #F79B92",
"f. c #CDA385",
"g. c #CAA48A",
"h. c #CBAB8C",
"j. c #C6A587",
"k. c #D1A589",
"l. c #D6AA8C",
"z. c #DAAD8D",
"x. c #D2A486",
"c. c #DCAE90",
"v. c #CDB393",
"b. c #CAB599",
"n. c #DDB295",
"m. c #D5B89A",
"M. c #E7AB8F",
"N. c #EFA695",
"B. c #F9A999",
"V. c #E1B596",
"C. c #E2B996",
"Z. c #E2B699",
"A. c #E6BA9A",
"S. c #EABD9E",
"D. c #EFB296",
"F. c #F4B69A",
"G. c #C1ACA3",
"H. c #C3B1A9",
"J. c #C4B1A7",
"K. c #DEBFA2",
"L. c #FCAEA1",
"P. c #F2BFA3",
"I. c #FFB0A3",
"U. c #F3BDA9",
"Y. c #E8C09E",
"T. c #DDCBAF",
"R. c #E5C4A2",
"E. c #E5CAAB",
"W. c #E9CBAA",
"Q. c #EEC2A3",
"!. c #F2C4A6",
"~. c #F4CAA7",
"^. c #F4C7A8",
"/. c #F5CBA9",
"(. c #F8C9A7",
"). c #F6D2AC",
"_. c #F8D6AD",
"`. c #F5D1A7",
"'. c #EBD5B4",
"]. c #F6D5B1",
"[. c #F9D5B2",
"{. c #F8DDB5",
"}. c #F8DFB8",
"|. c #F7DEB7",
" X c #F2C1BA",
".X c #F8E0B7",
"XX c #FAE4BD",
"oX c #F9E2B9",
"OX c #F3E1BF",
"+X c #B6B4C3",
"@X c #B0B8EA",
"#X c #FAE6C0",
"$X c #FAE6C0",
"%X c #FBEBC5",
"&X c #FBECCA",
"*X c #FCEDCA",
"=X c #FCEDCA",
"-X c #F6E4C1",
";X c #FDF4CC",
":X c #FBF0D6",
">X c #FBF1D5",
",X c #FEFED5",
"<X c #FEFAD2",
"1X c #FDFBDB",
"2X c #EAEAEA",
"3X c #FBF4E3",
"4X c #ECF2F2",
/* pixels */
"                                                                                                                                ",
"                                                                                                                                ",
"                                                                                                                                ",
"                                                                                                                                ",
"                                                                                                                                ",
"                                                                h.                                                              ",
"                                                      v.&.&.h.1X,XXX;.j.j.                                                      ",
"                                                  b.*X].A.S.{.{.W.).W.XX<X;X                                                    ",
"                                                [.'.c.u.^.^.!.n.u.n.{.oX,X,X-X                                                  ",
"                                                A.c.n.Z.V.!.V.C.C.C.C.[.;X,X;Xm.                                                ",
"                                            2.Z.V./.`.~.V.Z.V.[.XXXXA.A.XX<X,XXXj.$.                                            ",
"                                        ;.l./.k./.).{.oX[.k.^.%X<X<XoXk.).#X;X%XXXv.g.x.                                        ",
"                                    ;.Z.z.V.V.Z.).oX;X<X%XR.A.=X,X,X%XA.V.[.%X<X%XoXv.[.[.l.                                    ",
"                                  z.S.!.Z.~.k.!.).%X,X,X;XoXk.oX;X;X*XoXA.n.A.{.#X|.XX.X{.{.[.                                  ",
"                                z.Z.!.!./.`.A.~.).oX;X;X%X|.R.V.).{.XX%X{.R.A._.XX#XXX#X#X#XoX[.                                ",
"                              z.Z.^.!.~.`.)._.).).{.#XXXoXoXoXR./.).{.oXoXXXXX%X*X*X*X*X*X*X#XoX^.                              ",
"                            z.Z.^.!./._.).).).).)..XXXoXoXoXoXXXoXoXoX{.{.XX#X*X*X*X%X%X%X*X*X{.].!.                            ",
"                          -.l.!.!./.).).).).).)._.{.{.oXoXoXXX{.{.}.oX{.#X*X*X*X*X*X:X:X:X:X*X#XoX!.n.                          ",
"                          f.Z.!.!.)._._._._._.[.[.{..X.XoXoXoXoXoX{.{.#X*X*X*X*X*X:X3X3X3X3X:X*X}.[.!.>.                        ",
"                        ,.z.^.!./._.[.[.[.[.{.{.{.{.{.{.{.oX}.{.{.#X#X*X*X*X%X*X:X3X3X3X3X3X3X*XoXoX!.n.                        ",
"                        >.z.!.!._.[.{.{.{..X{.}.oXoXoXoXoX{.{.#X#X*X*X*X%X*X:X:X3X3X3X3X3X3X3X*X{.{.[.!.2.                      ",
"                      =.y.z.!.!.[.[.{.{.{.oX}.oXXXXXXXXXoX#X#X*X*X*X%X*X:X:X3X3X3X3X3X3X3X3X3X*X#XoXoXQ.y.                      ",
"                      -.l.z.!.^.[.{.{..X.X}.oXXX#X%X%X%X%X*X*X*X*X*X:X:X3X3X3X3X3X3X3X3X3X3X3X*X*XoX{.!.f.                      ",
"                      >.l.z.!.^.[.{.{..XoXoXXX#X%X%X%X*X*X*X*X*X*X:X3X3X3X3X3X3X3X3X3X3X3X3X3X*X%XoX{.!.z.>.                    ",
"                    =.>.l.z.!.^.[.{.{.{..XoX#X%X%X%X*X*X*X*X*X*X:X3X3X3X3X3X3X3X3X3X3X3X3X3X:X*X*XoX{.!.l.y.                    ",
"                    *.>.l.z.!.^.[.{.{.{.oXXX%X%X%X&X*X*X*X*X*X*X3X3X3X3X3X3X3X3X3X3X3X3X3X3X*X*X#XoX{.!.l.y.                    ",
"                    *.>.l.z.!.!.)..XoXoXoXXX%X*X*X*X*X*X*X*X*X*X3X3X3X3X3X3X3X3X3X3X3X3X3X:X*X*X{..XoX!.l.y.                    ",
"                    =.>.l.z.!.^.F.(.(.[.oXoX*X*X*X*X*X*X*X*X*X*X:X3X3X3X3X3X3X3X3X3X:X:X:X*X*X#XoX{.).!.l.y.                    ",
"                    #.>.z.z.!.D.B V U D.[.{.#X*X*X*X*X*X*X*X*X*X*X:X:X:X:X:X:X:X:X:X*X%X*X*X#X{.oX{.!.^.z.>.                    ",
"                      -.f.c.P.! q.7 2 I M.{.{.#X*X*X*X*X*X*X*X*X*X*X%X%X%X%X%X%X%X%X*X*X*X#X{.{.oXoX^.Z.f.                      ",
"                      *.,.z.z.> +X8 r.: 1.oXoX{.#X%X*X*X*X*X*X*X*X*X*X*X*X*X*X*X*X*X*X#X#X{.{.{.oX).!.k.y.                      ",
"                      #.>.c.u.: 6.7.@X: 1.).oXoX{.{.XX#X#X#X#X*X*X*X*X*X*X*X*X#X#X#X#X{.{.{.{.oX).!.^.z.>.                      ",
"                        =.f.k.! 4 6.q ! M.!.).).oXoXoXoX{.{.{.#X#X#X#X#X#X#X#X{..X.XoXoXoXoXoX).!.^.V.>.                        ",
"                        ~ >.c.n.Q Q U s.B.N.N.^.).).).].oXoXoXoXoXoXoXoX.X.XoXoX[.).).).).).).!.^.Z.l.~                         ",
"                          $.f.z.Z.B.d.a.a.a.4.s.P.P.P.P./.).).).).).).).).).).).!.!.!.!.!.!.!.^.Z.z.&.                          ",
"                            ` f.l.<.+.+.+.+.@.s.!.!.!.!.!.!.!.!.!.!.!.!.!.!.!.!.!.!.!.!.!.^.!.Z.z.&.G.                          ",
"                              ` f.l.<.<.4.s.N.^.!.!.!.!.!.!.!.!.!.!.!.!.!.!.!.!.!.!.!.^.!.A.S.z.&.G.                            ",
"                              G.` ` h.n.n.Y.Y.Z.^.^.^.^.^.^.^.^.^.^.^.^.^.^.^.^.^.^.^.S.S.f.%.%.G.                              ",
"                                  w.` %.x.f.f.k.Z.Z.Z.Z.A.A.A.Z.Z.Z.Z.Z.A.A.A.Z.n.n.n.f.%.` w.                                  ",
"                                    H.w.` ` ` ` u.u.f.f.f.f.f.f.f.f.f.f.f.f.x.u.` ( ( ` w.H.                                    ",
"                                        H.G.G.G.-.-.-.#.#.#.#.#.#.#.#.#.#.#.` -.G.G.G.H.                                        ",
"                                              2XB , , ^ } } } } } } } } ^ X.i.I 2X                                              ",
"                                              2X% g ] L.L.L.L.L.L.L.L.L.I.L.X.u 2X                                              ",
"                                              t.E L.<.........O.4.4.4...O...p p p.                                              ",
"                                              s d.o.a j l l j i c c c x r l J m t                                               ",
"                                            t.|  Xp n J J J G s M M M S n C G H h 3.                                            ",
"                                            s s.o.b n D H H D b l M M [ S l l S z t                                             ",
"                                            C U.a k v F F F F F m k M [ [ N 1.| k g                                             ",
"                                            < _ B f V Y R R R R R V z S Z 5.1XT.) <                                             ",
"                                            . + 3 3 3 3 0 9 9 9 9 9 B m 4.1X>X<Xb.6                                             ",
"                                            O . X . . . o o o o o o o @ T.}.>X<XW.`                                             ",
"                                            q @ # & & ; - - - - - - , 5 h.W.-XOXm.J.                                            ",
"                                              g d N M F K K K K K { 5.B.x.m.m.v.)                                               ",
"                                              w t p p z A A A A A A [  . .T T T u                                               ",
"                                              :.y * * p e e e e e e e i i w w * y                                               ",
"                                                ; & % y :.8.:.:.:.8.:.f ; $ $ $ & 0.                                            ",
"                                        1 ;.  ' - = % =             4X5 =.' / / U 1                                             ",
"                                        P >.E.I $ $ $ I               P m.E.E.E.g.W                                             ",
"                                        1 y.K.'.] / / j.              1 P L L L L 1                                             ",
"                                          Q Q m.E.E.R.g.              e.9.0.9.0.9.e.                                            ",
"                                            9.W L L L !                                                                         ",
"                                                9.0.9.0.                                                                        ",
"                                                                                                                                ",
"                                                                                                                                "
};
