/* XPM */
static char *result[] = {
/* columns rows colors chars-per-pixel */
"64 64 206 2 ",
"   c #020201",
".  c #080A0A",
"X  c #071011",
"o  c #0C1212",
"O  c #141B1A",
"+  c #070F10",
"@  c #1B201F",
"#  c #343533",
"$  c #450E06",
"%  c #5F0A00",
"&  c #640F03",
"*  c #65150A",
"=  c #771709",
"-  c #631F15",
";  c #6E2217",
":  c #71271B",
">  c #542927",
",  c #5A322D",
"<  c #763828",
"1  c #6A2E24",
"2  c #754E3C",
"3  c #73453D",
"4  c #78503E",
"5  c #513D4A",
"6  c #3B4443",
"7  c #374140",
"8  c #5A4F56",
"9  c #7A5542",
"0  c #5D605F",
"q  c #5C5063",
"w  c #685664",
"e  c #566262",
"r  c #72627E",
"t  c #831D0D",
"y  c #8D1D0C",
"u  c #A81C0B",
"i  c #8C2312",
"p  c #932313",
"a  c #9E2513",
"s  c #AE210D",
"d  c #A72916",
"f  c #B32916",
"g  c #B22C19",
"h  c #B82A16",
"j  c #BA321F",
"k  c #883A2C",
"l  c #BA3623",
"z  c #B93825",
"x  c #B43622",
"c  c #A23B2B",
"v  c #C52C15",
"b  c #C7331D",
"n  c #DB341D",
"m  c #D02812",
"M  c #E42E16",
"N  c #E7321B",
"B  c #C83521",
"V  c #D13521",
"C  c #E53B25",
"Z  c #E93E27",
"A  c #894638",
"S  c #934434",
"D  c #8E513F",
"F  c #AC4839",
"G  c #DD442E",
"H  c #D2402B",
"J  c #C64D3B",
"K  c #E44E36",
"L  c #EC4C34",
"P  c #E74E38",
"I  c #F34E34",
"U  c #ED543C",
"Y  c #E5523B",
"T  c #FA573D",
"R  c #E74029",
"E  c #9B4F42",
"W  c #9B5445",
"Q  c #975B4D",
"!  c #A85B4F",
"~  c #916955",
"^  c #976756",
"/  c #98715F",
"(  c #926750",
")  c #B2614C",
"_  c #BE6D5A",
"`  c #BA6A57",
"'  c #A9755D",
"]  c #AB725A",
"[  c #9D7B67",
"{  c #9A7C76",
"}  c #A37F69",
"|  c #A97A68",
" . c #B97B65",
".. c #D75B48",
"X. c #EA5C45",
"o. c #E55942",
"O. c #F95C42",
"+. c #DC604E",
"@. c #CC6A53",
"#. c #C0715E",
"$. c #FF6147",
"%. c #CD7A6E",
"&. c #CB7568",
"*. c #D17A6D",
"=. c #CE7C70",
"-. c #E67B79",
";. c #E87D7B",
":. c #E4706D",
">. c #A3836C",
",. c #AA826C",
"<. c #AF8973",
"1. c #B38C74",
"2. c #B88E76",
"3. c #B28878",
"4. c #BC967B",
"5. c #BF987D",
"6. c #B79279",
"7. c #DE8D7D",
"8. c #D78B76",
"9. c #C19A7F",
"0. c #E78568",
"q. c #E98579",
"w. c #F38E7E",
"e. c #6B668D",
"r. c #8A7C9F",
"t. c #BE9D83",
"y. c #B79C81",
"u. c #A18885",
"i. c #BEA58B",
"p. c #858ABA",
"a. c #C59E84",
"s. c #CB9D82",
"d. c #E98D8A",
"f. c #EC9788",
"g. c #EC9C8C",
"h. c #EA9587",
"j. c #F59C93",
"k. c #CDA285",
"l. c #CDA589",
"z. c #C9AB8D",
"x. c #C2A288",
"c. c #D1A689",
"v. c #D6AA8C",
"b. c #D9AD8E",
"n. c #D7AD91",
"m. c #DAAD90",
"M. c #CDB192",
"N. c #CCB99A",
"B. c #DCB294",
"V. c #D1B194",
"C. c #D8B08F",
"Z. c #E5AB8F",
"A. c #F2A68A",
"S. c #EDA695",
"D. c #F7A999",
"F. c #E1B696",
"G. c #E1B996",
"H. c #E1B698",
"J. c #E5BA9A",
"K. c #EABD9E",
"L. c #EEB195",
"P. c #F6BB9E",
"I. c #CFBFA0",
"U. c #FBAEA2",
"Y. c #F7ADA0",
"T. c #ECBFA1",
"R. c #F0BFA3",
"E. c #FEB1A5",
"W. c #F6BBB2",
"Q. c #E7C09F",
"!. c #DAC0A1",
"~. c #E4C4A2",
"^. c #EEC3A4",
"/. c #E3C9A9",
"(. c #E8CEAB",
"). c #F1C5A6",
"_. c #F3CAA6",
"`. c #F3C7A8",
"'. c #F4CBA9",
"]. c #F8C3A3",
"[. c #EAD1AE",
"{. c #F5D2AC",
"}. c #F8D6AD",
"|. c #E4D7B5",
" X c #F6D5B1",
".X c #F8D5B1",
"XX c #F7DAB3",
"oX c #F8DEB6",
"OX c #F9DFB8",
"+X c #F5DCBB",
"@X c #F1C1BA",
"#X c #F9E0B7",
"$X c #F9E2BA",
"%X c #FCE8BF",
"&X c #B6B4C3",
"*X c #B0B8EA",
"=X c #FAE6C1",
"-X c #FAEBC5",
";X c #FBEDCA",
":X c #F7E5C1",
">X c #FCF4CB",
",X c #FBF0D6",
"<X c #FEFBD3",
"1X c #FDFCDB",
"2X c #FBF4E3",
"3X c None",
/* pixels */
"3X3X3X3X3X3X3X3X3X3X3X3X3X3X3X3X3X3X3X3X3X3X3X3X3X3X3X3X3X3X3X3X3X3X3X3X3X3X3X3X3X3X3X3X3X3X3X3X3X3X3X3X3X3X3X3X3X3X3X3X3X3X3X3X",
"3X3X3X3X3X3X3X3X3X3X3X3X3X3X3X3X3X3X3X3X3X3X3X3X3X3X3X3X3X3X3X3X3X3X3X3X3X3X3X3X3X3X3X3X3X3X3X3X3X3X3X3X3X3X3X3X3X3X3X3X3X3X3X3X",
"3X3X3X3X3X3X3X3X3X3X3X3X3X3X3X3X3X3X3X3X3X3X3X3X3X3X3X3X3X3X3X3X3X3X3X3X3X3X3X3X3X3X3X3X3X3X3X3X3X3X3X3X3X3X3X3X3X3X3X3X3X3X3X3X",
"3X3X3X3X3X3X3X3X3X3X3X3X3X3X3X3X3X3X3X3X3X3X3X3X3X3X3X3X3X3X3X3X3X3X3X3X3X3X3X3X3X3X3X3X3X3X3X3X3X3X3X3X3X3X3X3X3X3X3X3X3X3X3X3X",
"3X3X3X3X3X3X3X3X3X3X3X3X3X3X3X3X3X3X3X3X3X3X3X3X3X3X3X3X3X>.z.M.N.} 3X3X3X3X3X3X3X3X3X3X3X3X3X3X3X3X3X3X3X3X3X3X3X3X3X3X3X3X3X3X",
"3X3X3X3X3X3X3X3X3X3X3X3X3X3X3X3X3X3X3X3X3X3X3X3X3X3Xz.z.z.4.%X1X1XM.6.a.N.N.[ 3X3X3X3X3X3X3X3X3X3X3X3X3X3X3X3X3X3X3X3X3X3X3X3X3X",
"3X3X3X3X3X3X3X3X3X3X3X3X3X3X3X3X3X3X3X3X3X3X3X3X3XM.>X<X%X^.~.XX+X.XJ.T.=X1XN.x.3X3X3X3X3X3X3X3X3X3X3X3X3X3X3X3X3X3X3X3X3X3X3X3X",
"3X3X3X3X3X3X3X3X3X3X3X3X3X3X3X3X3X3X3X3X3X3X3X3X} :X1X>XXXB.k.B.).).`.c.m./.<X'.} 3X3X3X3X3X3X3X3X3X3X3X3X3X3X3X3X3X3X3X3X3X3X3X",
"3X3X3X3X3X3X3X3X3X3X3X3X3X3X3X3X3X3X3X3X3X3X3X3XM.>X>XXXG.F.J.B.H.).H.H.F.m.J.).l.3X3X3X3X3X3X3X3X3X3X3X3X3X3X3X3X3X3X3X3X3X3X3X",
"3X3X3X3X3X3X3X3X3X3X3X3X3X3X3X3X3X3X3X3Xt.B.<.z.>X<X=XJ.G.%X%X.XH.H.B.`.{._.F.G.`.4.6.[ 3X3X3X3X3X3X3X3X3X3X3X3X3X3X3X3X3X3X3X3X",
"3X3X3X3X3X3X3X3X3X3X3X3X3X3X3X3X3X3X5.v.v.a.M.>X<X:X{.c.$X<X<X-X'.c. X$XoX}._.k.^.K.c.5.2.>.3X3X3X3X3X3X3X3X3X3X3X3X3X3X3X3X3X3X",
"3X3X3X3X3X3X3X3X3X3X3X3X3X3X3X3X3Xn.n..X.XM.-X<X-X{.B.Q.-X<X<X;XG.~.-X<X>X#X{.G.G.).H.b.J.4.4.3X3X3X3X3X3X3X3X3X3X3X3X3X3X3X3X3X",
"3X3X3X3X3X3X3X3X3X3X3X3X3X3X3X3Xn. X.X#XOX%X%XXXJ.B.B.$X-X>X>X$Xc.OX>X<X<X-X}._.l._._.G.].K.b.4.3X3X3X3X3X3X3X3X3X3X3X3X3X3X3X3X",
"3X3X3X3X3X3X3X3X3X3X3X3X3X3X3Xn..X=X=X=X%X:X$X}.Q.~.#X=X%XXX{.G.~.OX-X>X>X%X_._.Q.'._._._.).J.b.4.3X3X3X3X3X3X3X3X3X3X3X3X3X3X3X",
"3X3X3X3X3X3X3X3X3X3X3X3X3X3Xn..X=X;X;X;X;X;X;X-X$X$X$X$XOX{.{.Q.$XOX#X$X%X+X{.}.}.{._._.).)._.J.b.4.3X3X3X3X3X3X3X3X3X3X3X3X3X3X",
"3X3X3X3X3X3X3X3X3X3X3X3X3X4.).$X;X;X;X-X;X;X;X;X=X%X#X#X#X$X$X$X$X$X$XOX$X#X{._.{._.}.{._.).).).J.b.>.3X3X3X3X3X3X3X3X3X3X3X3X3X",
"3X3X3X3X3X3X3X3X3X3X3X3X3XB. X:X;X,X,X,X,X;X;X;X;X;X:XOXOXOXOXOX$X$X$X$XOXOX}.{.}._.{.{.{._.)._.`.c.1.3X3X3X3X3X3X3X3X3X3X3X3X3X",
"3X3X3X3X3X3X3X3X3X3X3X3X4.^.#X;X,X2X2X2X2X,X;X;X;X;X;X=XOXOXOXOX$X$X#X#X#XOXXXXX}.}.{.}.}.}.).).).J.k.>.3X3X3X3X3X3X3X3X3X3X3X3X",
"3X3X3X3X3X3X3X3X3X3X3X3XB.'.#X;X2X2X2X,X2X2X,X;X;X;X;X;X=X=XOXOX$X#X+X#XOXOXOXOXXXXXXXXXXX}.'.).).).v.1.3X3X3X3X3X3X3X3X3X3X3X3X",
"3X3X3X3X3X3X3X3X3X3X3Xa.)..X#X;X2X2X2X2X2X2X2X,X,X-X;X;X;X;X=X=XOXOXOX#X#X$XOXOX#X#XXXXXXXXX}._._.).b.4.>.3X3X3X3X3X3X3X3X3X3X3X",
"3X3X3X3X3X3X3X3X3X3X3X5.^.XX=X;X2X2X2X2X2X2X2X2X2X,X,X;X-X;X;X;X%X=X#X$X%X$X$XOX#X#X#XoXXX}.XX).).).b.k.>.3X3X3X3X3X3X3X3X3X3X3X",
"3X3X3X3X3X3X3X3X3X3X3Xk.^.$X;X;X2X2X2X2X2X2X2X2X2X2X2X,X,X;X;X;X;X;X-X-X-X=X-X$X#X#X#X#XoXoXXX).).).C.v.1.3X3X3X3X3X3X3X3X3X3X3X",
"3X3X3X3X3X3X3X3X3X3X5.b.).$X;X;X2X2X2X2X2X2X2X2X2X2X2X2X2X,X;X;X-X;X;X;X-X-X-X=X$X$X#XOXXXoXXX).).^.b.v.5.>.3X3X3X3X3X3X3X3X3X3X",
"3X3X3X3X3X3X3X3X3X3X5.v.).OX;X;X,X2X2X2X2X2X2X2X2X2X2X2X2X2X,X;X;X;X;X;X;X;X-X-X=X#X#XOXOXoXXX).`.).b.v.5.>.3X3X3X3X3X3X3X3X3X3X",
"3X3X3X3X3X3X3X3X3X3X9.v.).OX=X-X-X2X2X2X2X2X2X2X2X2X2X2X2X2X2X;X;X;X;X;X;X;X=X;X=X%XOXOXOX+XXX_.].).b.v.4.>.3X3X3X3X3X3X3X3X3X3X",
"3X3X3X3X3X3X3X3X3X3X9.v.).OX#X;X;X,X2X2X2X2X2X2X2X2X2X2X2X2X2X;X;X;X;X;X;X;X;X;X-X%XOX#X#X#X}.).).).b.v.4.>.3X3X3X3X3X3X3X3X3X3X",
"3X3X3X3X3X3X3X3X3X3X9.v.).$XOX=X;X;X,X,X,X2X2X2X2X2X2X2X2X2X,X;X;X;X;X;X;X;X;X;X;X$X#X}.`.].P.)._.^.b.v.5.>.3X3X3X3X3X3X3X3X3X3X",
"3X3X3X3X3X3X3X3X3X3X9.v.`.{.OXOX:X;X;X-X;X,X,X,X,X,X,X,X,X,X;X;X;X;X;X;X;X;X;X;X=X#X.XL.W A D L.`.^.b.v.9.>.3X3X3X3X3X3X3X3X3X3X",
"3X3X3X3X3X3X3X3X3X3X3Xk.H.).OX$X+X:X;X;X;X;X-X;X;X;X;X-X;X-X;X;X;X;X;X;X;X;X;X:X+XOXZ.Q 5 q u.Q ^.).b.k.1.3X3X3X3X3X3X3X3X3X3X3X",
"3X3X3X3X3X3X3X3X3X3X3X4.v.).{.$XOX#X%X=X;X;X;X;X;X;X;X;X;X;X;X;X;X;X;X;X;X:X=XoX#X$X8.> p.w &X> H.K.v.4.>.3X3X3X3X3X3X3X3X3X3X3X",
"3X3X3X3X3X3X3X3X3X3X3X9.B.`.).{.#X#X+X#X:X=X:X%X;X;X;X;X;X;X;X;X=X=X=X%X=XOXoXOX#X{.8., *Xr.e.> K.v.v.5.>.3X3X3X3X3X3X3X3X3X3X3X",
"3X3X3X3X3X3X3X3X3X3X3X3X2.G.`.). X#X#X$X#X#X$X+X=X%X=X:X=X:X=X=X+XOXOX$X$X$XOX{.{.].Z.Q e.e.8 | B.v.k.,.3X3X3X3X3X3X3X3X3X3X3X3X",
"3X3X3X3X3X3X3X3X3X3X3X3X/ v.J.`.`.'.{. X X X.X$X$XOXOXOX$X$X$X$X#X$X$X X{.{.{.).S.S.D.h.W ~ ' R.v.b.5./ 3X3X3X3X3X3X3X3X3X3X3X3X",
"3X3X3X3X3X3X3X3X3X3X3X3X3X2.b.J.`.).^.).^.).^.'.{. X{. X{.'. X'.'.{.'.R.R.R.R.h.q.d.d.d.j.D.).c.b.k.,.3X3X3X3X3X3X3X3X3X3X3X3X3X",
"3X3X3X3X3X3X3X3X3X3X3X3X3X3X2.b.H.`.`.).).).`.).).).^.^.^.R.).R.).).R.).).).).h.:.-.-.-.;.8.c.b.k.,.3X3X3X3X3X3X3X3X3X3X3X3X3X3X",
"3X3X3X3X3X3X3X3X3X3X3X3X3X3X3X2.B.K.J.`.`.).`.`.^.).).).`.`.).`.).).).).).).).`.S.g.g.7.7.B.c.k.,.3X3X3X3X3X3X3X3X3X3X3X3X3X3X3X",
"3X3X3X3X3X3X3X3X3X3X3X3X3X3X3X3X1.1.k.K.J.`.'.].`.`.`.`.`.`.`.].`.`.).).).).`.`.T.~.K.B.B.l.<.<.3X3X3X3X3X3X3X3X3X3X3X3X3X3X3X3X",
"3X3X3X3X3X3X3X3X3X3X3X3X3X3X3X3X3X3X,.1.k.B.F.B.J.J.J.J.J.J.J.J.J.J.J.J.J.J.J.H.k.k.k.k.1.} / 3X3X3X3X3X3X3X3X3X3X3X3X3X3X3X3X3X",
"3X3X3X3X3X3X3X3X3X3X3X3X3X3X3X3X3X3X3X3X,.>.| ,.s.c.k.k.k.k.k.k.k.k.l.l.k.k.s.s.,.,.,.,./ 3X3X3X3X3X3X3X3X3X3X3X3X3X3X3X3X3X3X3X",
"3X3X3X3X3X3X3X3X3X3X3X3X3X3X3X3X3X3X3X3X3X3X3X3X<.| >.>.>.>.>.>.>.>.>.>.>.1.3.3.3X3X3X3X3X3X3X3X3X3X3X3X3X3X3X3X3X3X3X3X3X3X3X3X",
"3X3X3X3X3X3X3X3X3X3X3X3X3X3X3X3X3X3X3X3X3X3X3X3XS <._ _ _ _ #.#.#.#._ #.` < < k 3X3X3X3X3X3X3X3X3X3X3X3X3X3X3X3X3X3X3X3X3X3X3X3X",
"3X3X3X3X3X3X3X3X3X3X3X3X3X3X3X3X3X3X3X3X3X3X3X3Xy F U.E.U.U.D.D.U.U.U.D.Y. .c & 3X3X3X3X3X3X3X3X3X3X3X3X3X3X3X3X3X3X3X3X3X3X3X3X",
"3X3X3X3X3X3X3X3X3X3X3X3X3X3X3X3X3X3X3X3X3X3X3X3Xf z &.&.*.%.q.q.=.*.*.%.%.7.U.E 3X3X3X3X3X3X3X3X3X3X3X3X3X3X3X3X3X3X3X3X3X3X3X3X",
"3X3X3X3X3X3X3X3X3X3X3X3X3X3X3X3X3X3X3X3X3X3X3Xp G U B J s v M M v s v b m h *.j.l 3X3X3X3X3X3X3X3X3X3X3X3X3X3X3X3X3X3X3X3X3X3X3X",
"3X3X3X3X3X3X3X3X3X3X3X3X3X3X3X3X3X3X3X3X3X3X3Xh K L X.f.z L P R Z j Y U U V g W...3X3X3X3X3X3X3X3X3X3X3X3X3X3X3X3X3X3X3X3X3X3X3X",
"3X3X3X3X3X3X3X3X3X3X3X3X3X3X3X3X3X3X3X3X3X3Xp V P K Y q.z o.X.C C h K Y K V l &.g.B 3X3X3X3X3X3X3X3X3X3X3X3X3X3X3X3X3X3X3X3X3X3X",
"3X3X3X3X3X3X3X3X3X3X3X3X3X3X3X3X3X3X3X3X3X3Xa n I I T f.z Y X.R C g L I I V M f W.V 3X3X3X3X3X3X3X3X3X3X3X3X3X3X3X3X3X3X3X3X3X3X",
"3X3X3X3X3X3X3X3X3X3X3X3X3X3X3X3X3X3X3X3X3X3X1 A E E W | x o.X.R C j ! ! E S k E { - 3X3X3X3X3X3X3X3X3X3X3X3X3X3X3X3X3X3X3X3X3X3X",
"3X3X3X3X3X3X3X3X3X3X3X3X3X3X3X3X3X3X3X3X3X3XO # 6 6 6 0 g K Y N M f 0 e 6 6 6 6 #   3X3X3X3X3X3X3X3X3X3X3X3X3X3X3X3X3X3X3X3X3X3X",
"3X3X3X3X3X3X3X3X3X3X3X3X3X3X3X3X3X3X3X3X3X3X  o X X + O ) A.A.0.0.) O O X X X o o   3X3X3X3X3X3X3X3X3X3X3X3X3X3X3X3X3X3X3X3X3X3X",
"3X3X3X3X3X3X3X3X3X3X3X3X3X3X3X3X3X3X3X3X3X3X. $ * ; ; 3 t.2X2X|.|.t.: ; : * * $ $ . 3X3X3X3X3X3X3X3X3X3X3X3X3X3X3X3X3X3X3X3X3X3X",
"3X3X3X3X3X3X3X3X3X3X3X3X3X3X3X3X3X3X3X3X3X3X3Xd b T $.D.i.$X%X[.(.t.O.T I R C d d 3X3X3X3X3X3X3X3X3X3X3X3X3X3X3X3X3X3X3X3X3X3X3X",
"3X3X3X3X3X3X3X3X3X3X3X3X3X3X3X3X3X3X3X3X3X3X3Xi i x z +.@.i.i.i.x.@.G G b h d p i 3X3X3X3X3X3X3X3X3X3X3X3X3X3X3X3X3X3X3X3X3X3X3X",
"3X3X3X3X3X3X3X3X3X3X3X3X3X3X3X3X3X3X3X3X3X3X3X3Xp 3Xy f h S S S S f u u u k i p 3X3X3X3X3X3X3X3X3X3X3X3X3X3X3X3X3X3X3X3X3X3X3X3X",
"3X3X3X3X3X3X3X3X3X3X3X3X3X3X3X3X3X3X3X3X3X3X3X3X3X3X3X= = t t t = =  . .] 9 3X3X3X3X3X3X3X3X3X3X3X3X3X3X3X3X3X3X3X3X3X3X3X3X3X3X",
"3X3X3X3X3X3X3X3X3X3X3X3X3X3X3X3X3X3X3X3X3X3X3X3X3X3X3X< D & % % & ] 5.~.!.9 3X3X3X3X3X3X3X3X3X3X3X3X3X3X3X3X3X3X3X3X3X3X3X3X3X3X",
"3X3X3X3X3X3X3X3X3X3X3X3X3X3X3X3X3X3X3X3X3X3X3X3X3X3X3X9 4. .' ' ,.(.2 ( ~ 2 3X3X3X3X3X3X3X3X3X3X3X3X3X3X3X3X3X3X3X3X3X3X3X3X3X3X",
"3X3X3X3X3X3X3X3X3X3X3X3X3X3X3X3X3X3X3X3X3X3X3X3X3X3X3X9 5././././.C.9 3X3X3X3X3X3X3X3X3X3X3X3X3X3X3X3X3X3X3X3X3X3X3X3X3X3X3X3X3X",
"3X3X3X3X3X3X3X3X3X3X3X3X3X3X3X3X3X3X3X3X3X3X3X3X3X3X3X4 ~ ~ ~ ~ ~ ~ 4 3X3X3X3X3X3X3X3X3X3X3X3X3X3X3X3X3X3X3X3X3X3X3X3X3X3X3X3X3X",
"3X3X3X3X3X3X3X3X3X3X3X3X3X3X3X3X3X3X3X3X3X3X3X3X3X3X3X3X3X3X3X3X3X3X3X3X3X3X3X3X3X3X3X3X3X3X3X3X3X3X3X3X3X3X3X3X3X3X3X3X3X3X3X3X",
"3X3X3X3X3X3X3X3X3X3X3X3X3X3X3X3X3X3X3X3X3X3X3X3X3X3X3X3X3X3X3X3X3X3X3X3X3X3X3X3X3X3X3X3X3X3X3X3X3X3X3X3X3X3X3X3X3X3X3X3X3X3X3X3X",
"3X3X3X3X3X3X3X3X3X3X3X3X3X3X3X3X3X3X3X3X3X3X3X3X3X3X3X3X3X3X3X3X3X3X3X3X3X3X3X3X3X3X3X3X3X3X3X3X3X3X3X3X3X3X3X3X3X3X3X3X3X3X3X3X",
"3X3X3X3X3X3X3X3X3X3X3X3X3X3X3X3X3X3X3X3X3X3X3X3X3X3X3X3X3X3X3X3X3X3X3X3X3X3X3X3X3X3X3X3X3X3X3X3X3X3X3X3X3X3X3X3X3X3X3X3X3X3X3X3X",
"3X3X3X3X3X3X3X3X3X3X3X3X3X3X3X3X3X3X3X3X3X3X3X3X3X3X3X3X3X3X3X3X3X3X3X3X3X3X3X3X3X3X3X3X3X3X3X3X3X3X3X3X3X3X3X3X3X3X3X3X3X3X3X3X"
};
