/* XPM */
static char *result[] = {
/* columns rows colors chars-per-pixel */
"64 64 210 2 ",
"   c #000300",
".  c #030E0E",
"X  c #111B1B",
"o  c #002124",
"O  c #490703",
"+  c #5F1108",
"@  c #6C0000",
"#  c #730300",
"$  c #780C01",
"%  c #7B190D",
"&  c #732313",
"*  c #592321",
"=  c #5F2927",
"-  c #7F3526",
";  c #784036",
":  c #7A4B37",
">  c #7C4B37",
",  c #7D4D39",
"<  c #7E4E3A",
"1  c #5A3F50",
"2  c #364241",
"3  c #5F4F64",
"4  c #6C5565",
"5  c #576161",
"6  c #8A0A00",
"7  c #9F0300",
"8  c #8C1504",
"9  c #B70100",
"0  c #A81502",
"q  c #8C3F2F",
"w  c #9F3F2F",
"e  c #AD3022",
"r  c #C50200",
"t  c #DA0B00",
"y  c #C51300",
"u  c #C81803",
"i  c #D71801",
"p  c #DD1A00",
"a  c #F70500",
"s  c #E81100",
"d  c #D12C18",
"f  c #FB2106",
"g  c #F32E17",
"h  c #FF331B",
"j  c #FD3A22",
"k  c #FE3E26",
"l  c #804F3C",
"z  c #974134",
"x  c #81503C",
"c  c #A2402F",
"v  c #A84B3E",
"b  c #BC4738",
"n  c #BC473C",
"m  c #DB4536",
"M  c #DC4839",
"N  c #FD432B",
"B  c #FF482F",
"V  c #FC4F3A",
"C  c #855A44",
"Z  c #A65542",
"A  c #B7584C",
"S  c #996650",
"D  c #9D6B55",
"F  c #9D6B56",
"G  c #9C6C59",
"H  c #A4614C",
"J  c #A16F5C",
"K  c #B06D58",
"L  c #A3725A",
"P  c #A5725C",
"I  c #A6755D",
"U  c #B67257",
"Y  c #BB795D",
"T  c #A47662",
"R  c #A67A63",
"E  c #AA7E66",
"W  c #B07E67",
"Q  c #B27D6A",
"!  c #CA5E48",
"~  c #F75746",
"^  c #CD6855",
"/  c #D56C5D",
"(  c #C8765E",
")  c #DD7367",
"_  c #F96768",
"`  c #FA736E",
"'  c #FE7C70",
"]  c #AB8068",
"[  c #AA816A",
"{  c #AE8269",
"}  c #AA846D",
"|  c #B48169",
" . c #B5856C",
".. c #B78A70",
"X. c #BB8A70",
"o. c #BE9175",
"O. c #BF9C7E",
"+. c #C08B71",
"@. c #C08B7A",
"#. c #C39377",
"$. c #C79276",
"%. c #C69477",
"&. c #C2967A",
"*. c #C49578",
"=. c #C79578",
"-. c #C69679",
";. c #C89678",
":. c #C9997D",
">. c #CA997C",
",. c #D49C7F",
"<. c #E38A70",
"1. c #F88576",
"2. c #6F648B",
"3. c #8D7BA2",
"4. c #838ABE",
"5. c #C69A80",
"6. c #D79F81",
"7. c #FB8885",
"8. c #FC9082",
"9. c #FD9488",
"0. c #FD9A89",
"q. c #CCA084",
"w. c #D7A180",
"e. c #D7A282",
"r. c #D2A384",
"t. c #D6A485",
"y. c #D5A487",
"u. c #D9A181",
"i. c #DFA887",
"p. c #D3AC8B",
"a. c #D3B797",
"s. c #D8B291",
"d. c #D4BF9C",
"f. c #E2AA88",
"g. c #E4AB89",
"h. c #E3AE8D",
"j. c #E8AF8F",
"k. c #F2A88A",
"l. c #FEA193",
"z. c #FBAE90",
"x. c #FFAA9D",
"c. c #EBB392",
"v. c #EAB591",
"b. c #EEB694",
"n. c #ECB995",
"m. c #E2BC99",
"M. c #EDBE99",
"N. c #F0B795",
"B. c #F1B896",
"V. c #F5BC99",
"C. c #FBBC9D",
"Z. c #EDC39C",
"A. c #F8C19F",
"S. c #FCC09F",
"D. c #E4C4A2",
"F. c #E9C5A1",
"G. c #EAC9A5",
"H. c #EACEA9",
"J. c #FBC2A0",
"K. c #FCC3A1",
"L. c #FEC3A2",
"P. c #FAC6A1",
"I. c #FCC4A2",
"U. c #FEC6A4",
"Y. c #F6CEA6",
"T. c #FEC9A3",
"R. c #FECBA6",
"E. c #FDCEA9",
"W. c #EED2AB",
"Q. c #FFD0A3",
"!. c #F3D7AF",
"~. c #FED3A8",
"^. c #FDD2AA",
"/. c #FFD6AA",
"(. c #FFD5AE",
"). c #FFD9AD",
"_. c #FFDCAF",
"`. c #FEDDB1",
"'. c #FFDEB2",
"]. c #FFDFB3",
"[. c #FDDAB6",
"{. c #FFE1B4",
"}. c #FFE1B6",
"|. c #FFE3B6",
" X c #FFE4BA",
".X c #FEE3BE",
"XX c #FFE6BC",
"oX c #FFE7BD",
"OX c #B6B4C4",
"+X c #AEB8EE",
"@X c #FFECC2",
"#X c #FFEAC4",
"$X c #FFECC5",
"%X c #FDEDC6",
"&X c #FEECC6",
"*X c #FFEDC7",
"=X c #FEEEC7",
"-X c #FEF0C3",
";X c #FFF3C7",
":X c #FFF8CC",
">X c #FEF1D3",
",X c #FEF1D4",
"<X c #FFFED0",
"1X c #FFFCD7",
"2X c #FCF2DE",
"3X c #FDF3E0",
"4X c #FBF5E3",
"5X c #FCF4E0",
"6X c #FDF4E2",
"7X c None",
/* pixels */
"7X7X7X7X7X7X7X7X7X7X7X7X7X7X7X7X7X7X7X7X7X7X7X7X7X7X7X7X7X7X7X7X7X7X7X7X7X7X7X7X7X7X7X7X7X7X7X7X7X7X7X7X7X7X7X7X7X7X7X7X7X7X7X7X",
"7X7X7X7X7X7X7X7X7X7X7X7X7X7X7X7X7X7X7X7X7X7X7X7X7X7X7X7X7X7X7X7X7X7X7X7X7X7X7X7X7X7X7X7X7X7X7X7X7X7X7X7X7X7X7X7X7X7X7X7X7X7X7X7X",
"7X7X7X7X7X7X7X7X7X7X7X7X7X7X7X7X7X7X7X7X7X7X7X7X7X7X7X7X7X7X7X7X7X7X7X7X7X7X7X7X7X7X7X7X7X7X7X7X7X7X7X7X7X7X7X7X7X7X7X7X7X7X7X7X",
"7X7X7X7X7X7X7X7X7X7X7X7X7X7X7X7X7X7X7X7X7X7X7X7X7X7X7X7X7X7X7X7X7X7X7X7X7X7X7X7X7X7X7X7X7X7X7X7X7X7X7X7X7X7X7X7X7X7X7X7X7X7X7X7X",
"7X7X7X7X7X7X7X7X7X7X7X7X7X7X7X7X7X7X7X7X7X7X7X7X7X7X7X7X7X7X7X7X7X7X7X7X7X7X7X7X7X7X7X7X7X7X7X7X7X7X7X7X7X7X7X7X7X7X7X7X7X7X7X7X",
"7X7X7X7X7X7X7X7X7X7X7X7X7X7X7X7X7X7X7X7X7X7X7X7X7X7X7X7X7XR p.a.d.7X7X7X7X7X7X7X7X7X7X7X7X7X7X7X7X7X7X7X7X7X7X7X7X7X7X7X7X7X7X7X",
"7X7X7X7X7X7X7X7X7X7X7X7X7X7X7X7X7X7X7X7X7X7X7X7X7X7Xp.p.s.a.=X;X!.t.+.,.a.a.T 7X7X7X7X7X7X7X7X7X7X7X7X7X7X7X7X7X7X7X7X7X7X7X7X7X",
"7X7X7X7X7X7X7X7X7X7X7X7X7X7X7X7X7X7X7X7X7X7X7X7X7Xd. X`.Y..X[.R.j.B.V..X.X1Xd.q.7X7X7X7X7X7X7X7X7X7X7X7X7X7X7X7X7X7X7X7X7X7X7X7X",
"7X7X7X7X7X7X7X7X7X7X7X7X7X7X7X7X7X7X7X7X7X7X7X7XE -X_.j.,.g.L.K.T.w.c.G.E.F.:XU.E 7X7X7X7X7X7X7X7X7X7X7X7X7X7X7X7X7X7X7X7X7X7X7X",
"7X7X7X7X7X7X7X7X7X7X7X7X7X7X7X7X7X7X7X7X7X7X7X7Xa.~.b.v.n.v.v.I.c.c.j.j.M.c.n.K.y.7X7X7X7X7X7X7X7X7X7X7X7X7X7X7X7X7X7X7X7X7X7X7X",
"7X7X7X7X7X7X7X7X7X7X7X7X7X7X7X7X7X7X7X7X5.h...s.@XM.n.}.|.).c.c.j.T.R.R.j.N.j.c.I.#.o.R 7X7X7X7X7X7X7X7X7X7X7X7X7X7X7X7X7X7X7X7X",
"7X7X7X7X7X7X7X7X7X7X7X7X7X7X7X7X7X7X&.i.i.,.a.%X^.t.{.:X:XoXU.w.(.{._.~.T.t.I.b.A.N.i.#.o.R 7X7X7X7X7X7X7X7X7X7X7X7X7X7X7X7X7X7X",
"7X7X7X7X7X7X7X7X7X7X7X7X7X7X7X7X7Xi.f.(.[.a.-X~.j.n.@X<X<X=Xn.Z.@X:X:X].Q.b.b.I.I.I.c.f.b.#.#.7X7X7X7X7X7X7X7X7X7X7X7X7X7X7X7X7X",
"7X7X7X7X7X7X7X7X7X7X7X7X7X7X7X7Xf.^.(.'.oX XM.j.n.].-X:X;X].t.{.:X<X<X@XQ.K.t.P.I.K.I.b.K.V.g.*.7X7X7X7X7X7X7X7X7X7X7X7X7X7X7X7X",
"7X7X7X7X7X7X7X7X7X7X7X7X7X7X7Xi.(.XXXX X X~.M.Z.'.oX X).E.v.Z.`.@X;X-X|.Q.P.M.Q.T.K.K.U.I.I.b.f.*.7X7X7X7X7X7X7X7X7X7X7X7X7X7X7X",
"7X7X7X7X7X7X7X7X7X7X7X7X7X7Xh.(.oX%X*X=X=XoX|.|.}.{.`.^.E.Z.{.].].}.XX`.Q.Q.~.Q.Q.T.K.K.K.K.I.N.f.*.7X7X7X7X7X7X7X7X7X7X7X7X7X7X",
"7X7X7X7X7X7X7X7X7X7X7X7X7X%.I.'.@X@X@X&X&X*X X X`.'.].{.{.|.{.{.].].|.'.Q.Q.Q.Q.Q.Q.T.K.K.K.K.I.N.g.{ 7X7X7X7X7X7X7X7X7X7X7X7X7X",
"7X7X7X7X7X7X7X7X7X7X7X7X7Xh.E.#X>X>X>X@X&X&X=X*X X'.].'.'.'.|.{.{.].'.'./.~.Q.Q.Q.Q.Q.T.I.K.K.I.I.i.X.7X7X7X7X7X7X7X7X7X7X7X7X7X",
"7X7X7X7X7X7X7X7X7X7X7X7X%.I.#X4X6X6X6X>X@X*X&X%X*XXX'.`.].].{.].{.].].'._.)./.~.~.~.~.~.K.K.I.I.K.N.w.E 7X7X7X7X7X7X7X7X7X7X7X7X",
"7X7X7X7X7X7X7X7X7X7X7X7Xh.R.3X5X3X3X3X6X>X@X@X%X%X*XXX X'.`.'.].'.'.'.'.`.`._.).).)././.R.I.K.K.I.I.f.X.7X7X7X7X7X7X7X7X7X7X7X7X",
"7X7X7X7X7X7X7X7X7X7X7X>.I. X2X6X3X6X3X3X6X,X>X@X@X&X=X*XXX X'.`.].].{.{.].'.'.'._._.).)./.I.K.K.I.J.f.-.{ 7X7X7X7X7X7X7X7X7X7X7X",
"7X7X7X7X7X7X7X7X7X7X7X=.A.*X5X3X3X6X6X3X3X6X6X,X>X@X@X&X=X*XXX X{.}. X|.}.{.'.].'.`._.)./.I.K.K.I.J.g.,.] 7X7X7X7X7X7X7X7X7X7X7X",
"7X7X7X7X7X7X7X7X7X7X7X6.K.#X3X3X3X6X6X6X3X3X3X6X6X,X>X@X&X&X=X*XoXoXoXXXXX|.{.'.].'._.).).I.K.K.I.J.g.f.X.7X7X7X7X7X7X7X7X7X7X7X",
"7X7X7X7X7X7X7X7X7X7X%.f.I.&X6X5X3X6X6X6X6X6X3X3X3X6X6X>X@X$X&X&X*X*X@X#X#XXX|.].].'._._.).I.K.K.I.J.g.i.-.{ 7X7X7X7X7X7X7X7X7X7X",
"7X7X7X7X7X7X7X7X7X7X=.f.I.&X,X3X6X3X6X6X6X6X6X6X3X3X3X6X>X*X$X%X&X&X%X@X@X#X X{.].'.`._.).I.K.K.I.J.g.i.-.] 7X7X7X7X7X7X7X7X7X7X",
"7X7X7X7X7X7X7X7X7X7X;.f.I. X&X5X5X3X3X3X6X6X6X6X6X6X3X6X6X*X$X*X$X*X$X$X@X#XoX|.].'.`._.).I.K.K.I.J.g.i.-.] 7X7X7X7X7X7X7X7X7X7X",
"7X7X7X7X7X7X7X7X7X7X;.f.I.`.&X>X6X6X6X3X3X3X3X3X3X3X3X6X6X*X$X*X*X$X*X*X&X$X#X X].].{.].^.K.K.I.I.J.g.i.-.] 7X7X7X7X7X7X7X7X7X7X",
"7X7X7X7X7X7X7X7X7X7X=.f.K.{.*X$X>X>X,X6X6X6X6X6X6X6X6X6X>X*X$X*X*X*X$X$X&X%X*X}.{.^.L.S.C.I.I.J.I.J.g.i.-.] 7X7X7X7X7X7X7X7X7X7X",
"7X7X7X7X7X7X7X7X7X7X%.g.I.^. X*X$X@X@X>X>X>X>X>X>X>X>X>X@X$X*X$X*X*X$X&X&X*X X'./.z.Z z z z.L.S.I.J.g.f.-.E 7X7X7X7X7X7X7X7X7X7X",
"7X7X7X7X7X7X7X7X7X7X7X6.b.K.'.XX*X=X&X@X@X@X@X@X@X@X@X@X*X%X&X&X&X&X&X*X*X X'._.k.Z 1 3 } H B.S.K.I.g.,...7X7X7X7X7X7X7X7X7X7X7X",
"7X7X7X7X7X7X7X7X7X7X7X=.i.K.^.]. XXX*X=X=X=X&X&X&X&X&X&X&X&X*X=X=X=X*XoX X`.].].<.= 4.4 OX= b.L.J.N.i.#.] 7X7X7X7X7X7X7X7X7X7X7X",
"7X7X7X7X7X7X7X7X7X7X7X%.j.J.J.^.].'. X X XXX*X=X=X=X=X=X=X*XXX X X X X'.`.{.].E.<.= +X3.2.* N.L.K.i.f.:.{ 7X7X7X7X7X7X7X7X7X7X7X",
"7X7X7X7X7X7X7X7X7X7X7X7X$.A.U.J.^.{.].].].`. X X X X X X X X`.`.'.{.{.{.{.E.^.K.k.H 2.2.1 P C.I.b.i.,. .7X7X7X7X7X7X7X7X7X7X7X7X",
"7X7X7X7X7X7X7X7X7X7X7X7XJ b.B.I.J.^.^.^.^.{.].].].].].].].].{.{.{.^.^.E.E.I.l.l.x.8.v H K U.U.b.i.f.-.J 7X7X7X7X7X7X7X7X7X7X7X7X",
"7X7X7X7X7X7X7X7X7X7X7X7X7X+.g.N.I.J.J.J.J.^.^.^.^.E.E.E.E.E.E.E.E.C.C.C.C.8.' 7.7.7.9.l.R.S.b.i.g.e.| 7X7X7X7X7X7X7X7X7X7X7X7X7X",
"7X7X7X7X7X7X7X7X7X7X7X7X7X7X+.g.b.I.U.I.K.J.J.J.J.S.S.S.S.S.S.S.S.J.J.K.K.9._ ` ` ` ` 8.C.b.f.g.e.| 7X7X7X7X7X7X7X7X7X7X7X7X7X7X",
"7X7X7X7X7X7X7X7X7X7X7X7X7X7X7X+.g.V.B.I.I.K.K.K.I.I.I.I.I.J.J.J.J.J.J.J.J.P.0.9.0.0.0.n.c.f.e.e.| 7X7X7X7X7X7X7X7X7X7X7X7X7X7X7X",
"7X7X7X7X7X7X7X7X7X7X7X7X7X7X7X7X+.+.u.V.B.U.U.U.I.I.I.I.I.L.L.L.L.L.L.L.L.J.R.R.M.M.M.f.h.u.| W 7X7X7X7X7X7X7X7X7X7X7X7X7X7X7X7X",
"7X7X7X7X7X7X7X7X7X7X7X7X7X7X7X7X7XG W +.u.h.h.j.N.B.B.N.N.B.B.B.B.B.B.B.B.B.N.b.u.6.6.u.+.W G 7X7X7X7X7X7X7X7X7X7X7X7X7X7X7X7X7X",
"7X7X7X7X7X7X7X7X7X7X7X7X7X7X7X7X7X7X7XG W Q Q Q ,.w.w.w.w.w.w.w.w.w.w.w.w.,.,.,.| Q | W G 7X7X7X7X7X7X7X7X7X7X7X7X7X7X7X7X7X7X7X",
"7X7X7X7X7X7X7X7X7X7X7X7X7X7X7X7X7X7X7X7X7X7X7X7X{ Q [ } } } } } } } } } } ....X.7X7X7X7X7X7X7X7X7X7X7X7X7X7X7X7X7X7X7X7X7X7X7X7X",
"7X7X7X7X7X7X7X7X7X7X7X7X7X7X7X7X7X7X7X7X7X7X7X7Xc @./ ^ ^ ^ ^ ^ ^ ^ ^ ^ ^ - - q 7X7X7X7X7X7X7X7X7X7X7X7X7X7X7X7X7X7X7X7X7X7X7X7X",
"7X7X7X7X7X7X7X7X7X7X7X7X7X7X7X7X7X7X7X7X7X7X7X7X7 n x.x.x.x.x.x.x.x.x.x.x.( e $ 7X7X7X7X7X7X7X7X7X7X7X7X7X7X7X7X7X7X7X7X7X7X7X7X",
"7X7X7X7X7X7X7X7X7X7X7X7X7X7X7X7X7X7X7X7X7X7X7X7Xu d ) ) / ) ) ) ) ' ' ' ) 1.x.b 7X7X7X7X7X7X7X7X7X7X7X7X7X7X7X7X7X7X7X7X7X7X7X7X",
"7X7X7X7X7X7X7X7X7X7X7X7X7X7X7X7X7X7X7X7X7X7X7X0 g k p m M d p t r a f f t 9 ) l.i 7X7X7X7X7X7X7X7X7X7X7X7X7X7X7X7X7X7X7X7X7X7X7X",
"7X7X7X7X7X7X7X7X7X7X7X7X7X7X7X7X7X7X7X7X7X7X7Xu k k B 0.l.' B N u f ~ V k s t ,.! 7X7X7X7X7X7X7X7X7X7X7X7X7X7X7X7X7X7X7X7X7X7X7X",
"7X7X7X7X7X7X7X7X7X7X7X7X7X7X7X7X7X7X7X7X7X7X0 s k k N 7.8.` N j y f j V V h h m.H.D.7X7X7X7X7X7X7X7X7X7X7X7X7X7X7X7X7X7X7X7X7X7X",
"7X7X7X7X7X7X7X7X7X7X7X7X7X7X7X7X7X7X7X7X7Xt.0 a j j k 8.9.` k h f s a j V V B ;X1X:Xs.7X7X7X7X7X7X7X7X7X7X7X7X7X7X7X7X7X7X7X7X7X",
"7X7X7X7X7X7X7X7X7X7X7X7X7X7X7X7X7X7X7X7X>.G.- z v v v Q Q K A A A z b s h h B #X:X>X!.>.7X7X7X7X7X7X7X7X7X7X7X7X7X7X7X7X7X7X7X7X",
"7X7X7X7X7X7X7X7X7X7X7X7X7X7X7X7X7X7X7X7X7Xo.X 2 2 2 2 5 5 5 5 5 5 5 5 z e a f [.#X.Xq.7X7X7X7X7X7X7X7X7X7X7X7X7X7X7X7X7X7X7X7X7X",
"7X7X7X7X7X7X7X7X7X7X7X7X7X7X7X7X7X7X7X7X7X7X  . . . . X X X X X X X X o . O + O.q.*.7X7X7X7X7X7X7X7X7X7X7X7X7X7X7X7X7X7X7X7X7X7X",
"7X7X7X7X7X7X7X7X7X7X7X7X7X7X7X7X7X7X7X7X7X7X7XO $ % % ; ; - % % % % % % % + + z w 7X7X7X7X7X7X7X7X7X7X7X7X7X7X7X7X7X7X7X7X7X7X7X",
"7X7X7X7X7X7X7X7X7X7X7X7X7X7X7X7X7X7X7X7X7X7X7X0 p N V l.x.1.B B B B B B h f f 9 7 7X7X7X7X7X7X7X7X7X7X7X7X7X7X7X7X7X7X7X7X7X7X7X",
"7X7X7X7X7X7X7X7X7X7X7X7X7X7X7X7X7X7X7X7X7X< S 6 0 d d ~ ~ V g g g g g g p y y 0 0 7X7X7X7X7X7X7X7X7X7X7X7X7X7X7X7X7X7X7X7X7X7X7X",
"7X7X7X7X7X7X7X7X7X7X7X7X7X7X7X7X7X7X7X7X7Xx -.( 6 6 6 r r r y y y y 9 9 9 6 6 6 8 m.-.< 7X7X7X7X7X7X7X7X7X7X7X7X7X7X7X7X7X7X7X7X",
"7X7X7X7X7X7X7X7X7X7X7X7X7X7X7X7X7X7X7X7X7Xx #.m.K # $ 8 8 8 8 8 6 6 ( ( Z $ $ # % F.-., 7X7X7X7X7X7X7X7X7X7X7X7X7X7X7X7X7X7X7X7X",
"7X7X7X7X7X7X7X7X7X7X7X7X7X7X7X7X7X7X7X7X7Xl #.-.!.U $ # # @ @ @ # K O.D.:.% $ $ % t.#.l 7X7X7X7X7X7X7X7X7X7X7X7X7X7X7X7X7X7X7X7X",
"7X7X7X7X7X7X7X7X7X7X7X7X7X7X7X7X7X7X7X7X7X7XL #.s.W.- & Z Y U U Y H.> S +.# @ @ # q.#.l 7X7X7X7X7X7X7X7X7X7X7X7X7X7X7X7X7X7X7X7X",
"7X7X7X7X7X7X7X7X7X7X7X7X7X7X7X7X7X7X7X7X7X7X, -.q.p.C ..q.O.D.G.G.s.l : %.Y U U Y H.#.l 7X7X7X7X7X7X7X7X7X7X7X7X7X7X7X7X7X7X7X7X",
"7X7X7X7X7X7X7X7X7X7X7X7X7X7X7X7X7X7X7X7X7X7Xl S D S > H.#.; S S S S < 7Xr.F.G.G.G.m.:.x 7X7X7X7X7X7X7X7X7X7X7X7X7X7X7X7X7X7X7X7X",
"7X7X7X7X7X7X7X7X7X7X7X7X7X7X7X7X7X7X7X7X7X7X, D L L W s.:.l 7X7X7X7X7X7XF S S S S D D < 7X7X7X7X7X7X7X7X7X7X7X7X7X7X7X7X7X7X7X7X",
"7X7X7X7X7X7X7X7X7X7X7X7X7X7X7X7X7X7X7X7X7X7X< P I I P D D < 7X7X7X7X7X7X7X7X7X7X7X7X7X7X7X7X7X7X7X7X7X7X7X7X7X7X7X7X7X7X7X7X7X7X",
"7X7X7X7X7X7X7X7X7X7X7X7X7X7X7X7X7X7X7X7X7X7X7X7X7X7X7X7X7X7X7X7X7X7X7X7X7X7X7X7X7X7X7X7X7X7X7X7X7X7X7X7X7X7X7X7X7X7X7X7X7X7X7X7X",
"7X7X7X7X7X7X7X7X7X7X7X7X7X7X7X7X7X7X7X7X7X7X7X7X7X7X7X7X7X7X7X7X7X7X7X7X7X7X7X7X7X7X7X7X7X7X7X7X7X7X7X7X7X7X7X7X7X7X7X7X7X7X7X7X"
};
