/* XPM */
static char *result[] = {
/* columns rows colors chars-per-pixel */
"64 64 210 2 ",
"   c #010101",
".  c #0A0908",
"X  c #0B1212",
"o  c #131A1A",
"O  c #121717",
"+  c #060F10",
"@  c #3D0E07",
"#  c #0D2224",
"$  c #3B3A37",
"%  c #420C05",
"&  c #540F07",
"*  c #630B01",
"=  c #6D1B0D",
"-  c #691407",
";  c #7C1C0D",
":  c #741A0C",
">  c #621E14",
",  c #6F2116",
"<  c #6A261B",
"1  c #7D2112",
"2  c #542926",
"3  c #5A312C",
"4  c #783929",
"5  c #6D3329",
"6  c #754D3B",
"7  c #70423B",
"8  c #78513E",
"9  c #76503D",
"0  c #6F4534",
"q  c #513D4A",
"w  c #3A4342",
"e  c #374140",
"r  c #585E5E",
"t  c #58484A",
"y  c #7A5341",
"u  c #5C5063",
"i  c #685664",
"p  c #696371",
"a  c #871D0D",
"s  c #A91C0A",
"d  c #BC1E0A",
"f  c #892212",
"g  c #932413",
"h  c #9B2715",
"j  c #A52714",
"k  c #B22512",
"l  c #B32D19",
"z  c #B22A17",
"x  c #B72A16",
"c  c #BA3723",
"v  c #BE3B27",
"b  c #A23B2B",
"n  c #C82B15",
"m  c #CB331C",
"M  c #C4331E",
"N  c #DA331D",
"B  c #D5301A",
"V  c #E22E15",
"C  c #D13924",
"Z  c #CF3621",
"A  c #E33D26",
"S  c #E83C24",
"D  c #894638",
"F  c #934634",
"G  c #AA4B3B",
"H  c #B24E3D",
"J  c #DC432C",
"K  c #C8513F",
"L  c #CF4530",
"P  c #E2432C",
"I  c #E54F37",
"U  c #E94D36",
"Y  c #E74730",
"T  c #F44F35",
"R  c #EA523B",
"E  c #FE593E",
"W  c #F5533A",
"Q  c #9B4F42",
"!  c #985646",
"~  c #8F4A41",
"^  c #B75945",
"/  c #A05944",
"(  c #926A55",
")  c #946D5A",
"_  c #976352",
"`  c #97705C",
"'  c #98715F",
"]  c #926650",
"[  c #BE6D5A",
"{  c #BA6A57",
"}  c #AB755C",
"|  c #A7745C",
" . c #A36D56",
".. c #9E7D68",
"X. c #A37F69",
"o. c #A67869",
"O. c #B17D64",
"+. c #BA7965",
"@. c #AA7C75",
"#. c #DA5845",
"$. c #E95B44",
"%. c #FE5E44",
"&. c #CD6854",
"*. c #E5634E",
"=. c #CB796D",
"-. c #CB7568",
";. c #D37D70",
":. c #D17366",
">. c #E67B79",
",. c #E5706D",
"<. c #9D8079",
"1. c #A3836C",
"2. c #AA826C",
"3. c #AD8A73",
"4. c #AE8574",
"5. c #B38C74",
"6. c #B88F76",
"7. c #B58B7C",
"8. c #BC957B",
"9. c #BE987D",
"0. c #B4957C",
"q. c #D88D78",
"w. c #C19A7F",
"e. c #EB8377",
"r. c #FA937C",
"t. c #6B668D",
"y. c #8A7C9F",
"u. c #BC9C82",
"i. c #A18985",
"p. c #B8A187",
"a. c #858ABA",
"s. c #C49D83",
"d. c #CB9D82",
"f. c #DF9280",
"g. c #E98D8A",
"h. c #E68D80",
"j. c #EB9788",
"k. c #EC9D8C",
"l. c #EA9385",
"z. c #F49A8B",
"x. c #F69D95",
"c. c #C5A086",
"v. c #CDA285",
"b. c #CEA488",
"n. c #CAAC8D",
"m. c #C5A389",
"M. c #D0A689",
"N. c #D5AA8C",
"B. c #D9AD8E",
"V. c #D7AD91",
"C. c #DAAF97",
"Z. c #CDB294",
"A. c #CDBA9C",
"S. c #DCB194",
"D. c #D6B799",
"F. c #E7A78F",
"G. c #EDAA96",
"H. c #FAA99A",
"J. c #E1B595",
"K. c #E1B896",
"L. c #E2B699",
"P. c #E5BA9A",
"I. c #EABD9E",
"U. c #EEB195",
"Y. c #F6BA9E",
"T. c #D4BDA0",
"R. c #FBAEA2",
"E. c #F7ADA1",
"W. c #F0BFA3",
"Q. c #FEB1A5",
"!. c #F0BCB5",
"~. c #DEC09F",
"^. c #E7C19F",
"/. c #D6C2A3",
"(. c #DBCFB2",
"). c #E3C5A3",
"_. c #EDC2A3",
"`. c #E4C9A9",
"'. c #F1C5A6",
"]. c #F3CAA6",
"[. c #F3C7A8",
"{. c #F4CBA9",
"}. c #F9CAAA",
"|. c #E9D1AE",
" X c #F5D2AC",
".X c #F8D5AD",
"XX c #FAC8B5",
"oX c #EED5B2",
"OX c #F5D5B2",
"+X c #F8D5B1",
"@X c #F7DAB3",
"#X c #F8DEB6",
"$X c #F9DFB8",
"%X c #F7DAB8",
"&X c #F9E1B7",
"*X c #F9E2BA",
"=X c #B6B4C3",
"-X c #B0B8EA",
";X c #F9E6C0",
":X c #FBEBC5",
">X c #FBEDCA",
",X c #F7E7C3",
"<X c #FDF4CB",
"1X c #FBF0D6",
"2X c #FEFBD5",
"3X c #FDFCD8",
"4X c #FCF4D8",
"5X c #FAEFD5",
"6X c #FBF4E3",
"7X c None",
/* pixels */
"7X7X7X7X7X7X7X7X7X7X7X7X7X7X7X7X7X7X7X7X7X7X7X7X7X7X7X7X7X7X7X7X7X7X7X7X7X7X7X7X7X7X7X7X7X7X7X7X7X7X7X7X7X7X7X7X7X7X7X7X7X7X7X7X",
"7X7X7X7X7X7X7X7X7X7X7X7X7X7X7X7X7X7X7X7X7X7X7X7X7X7X7X7X7X7X7X7X7X7X7X7X7X7X7X7X7X7X7X7X7X7X7X7X7X7X7X7X7X7X7X7X7X7X7X7X7X7X7X7X",
"7X7X7X7X7X7X7X7X7X7X7X7X7X7X7X7X7X7X7X7X7X7X7X7X7X7X7X7X7X7X7X7X7X7X7X7X7X7X7X7X7X7X7X7X7X7X7X7X7X7X7X7X7X7X7X7X7X7X7X7X7X7X7X7X",
"7X7X7X7X7X7X7X7X7X7X7X7X7X7X7X7X7X7X7X7X7X7X7X7X7X7X7X7X7X7X7X7X7X7X7X7X7X7X7X7X7X7X7X7X7X7X7X7X7X7X7X7X7X7X7X7X7X7X7X7X7X7X7X7X",
"7X7X7X7X7X7X7X7X7X7X7X7X7X7X7X7X7X7X7X7X7X7X7X7X7X7X7X7X7X7X7X7X7X7X7X7X7X7X7X7X7X7X7X7X7X7X7X7X7X7X7X7X7X7X7X7X7X7X7X7X7X7X7X7X",
"7X7X7X7X7X7X7X7X7X7X7X7X7X7X7X7X7X7X7X7X7X7X7X7X7X7X7X7X7X7Xn.Z.A.7X7X7X7X7X7X7X7X7X7X7X7X7X7X7X7X7X7X7X7X7X7X7X7X7X7X7X7X7X7X7X",
"7X7X7X7X7X7X7X7X7X7X7X7X7X7X7X7X7X7X7X7X7X7X7X7X7X7Xn.n.n.9.*X2X3XZ.8.s.Z.A...7X7X7X7X7X7X7X7X7X7X7X7X7X7X7X7X7X7X7X7X7X7X7X7X7X",
"7X7X7X7X7X7X7X7X7X7X7X7X7X7X7X7X7X7X7X7X7X7X7X7X7XZ.<X:X#XS. X%X%X+XB.+X3X3X/.c.7X7X7X7X7X7X7X7X7X7X7X7X7X7X7X7X7X7X7X7X7X7X7X7X",
"7X7X7X7X7X7X7X7X7X7X7X7X7X7X7X7X7X7X7X7X7X7X7X7X1.,X<X@XC.M.C.'.'.'.M.S.).;X:X[.X.7X7X7X7X7X7X7X7X7X7X7X7X7X7X7X7X7X7X7X7X7X7X7X",
"7X7X7X7X7X7X7X7X7X7X7X7X7X7X7X7X7X7X7X7X7X7X7X7XZ.,X@XK.J.K.J.L.[.S.L.S.S.P.'.'.M.7X7X7X7X7X7X7X7X7X7X7X7X7X7X7X7X7X7X7X7X7X7X7X",
"7X7X7X7X7X7X7X7X7X7X7X7X7X7X7X7X7X7X7X7Xu.S.3.A.:X*XP.P.*X*X@XL.L.S.{.}.].J.J.].L.8.0.X.7X7X7X7X7X7X7X7X7X7X7X7X7X7X7X7X7X7X7X7X",
"7X7X7X7X7X7X7X7X7X7X7X7X7X7X7X7X7X7X9.V.N.s./.3X:X.XM.*X2X2X,X{.b.OX&X#X.X].M.].S.N.N.8.8...7X7X7X7X7X7X7X7X7X7X7X7X7X7X7X7X7X7X",
"7X7X7X7X7X7X7X7X7X7X7X7X7X7X7X7X7XN.V.+X+XA.2X,X.XJ.P.:X2X2X<XP.).:X2X<X&X XK.P.[.L.b.B.P.8.8.7X7X7X7X7X7X7X7X7X7X7X7X7X7X7X7X7X",
"7X7X7X7X7X7X7X7X7X7X7X7X7X7X7X7XV.+X+X$X&X:X@X^.C.K.#X<X<X<X*XM.*X<X2X2X*X X].w.].[.K.J.'.I.B.8.7X7X7X7X7X7X7X7X7X7X7X7X7X7X7X7X",
"7X7X7X7X7X7X7X7X7X7X7X7X7X7X7XV.OX;X,X,X;X*X.X^.^.&X,X*X@X XK.).&X:X<X<X*X.X].^.{.].].[.'.].P.B.8.7X7X7X7X7X7X7X7X7X7X7X7X7X7X7X",
"7X7X7X7X7X7X7X7X7X7X7X7X7X7XV.+X:X>X>X>X>X<X:X*X*X*X*X&X.X}.).*X*X&X*X,X&X.X X.X X X].'.'.'.[.P.B.8.7X7X7X7X7X7X7X7X7X7X7X7X7X7X",
"7X7X7X7X7X7X7X7X7X7X7X7X7X8.'.*X>X:X>X:X>X>X>X,X;X#X$X$X*X*X*X*X&X*X&X*X&X X.X{. X]..X].'.'._.[.P.B.1.7X7X7X7X7X7X7X7X7X7X7X7X7X",
"7X7X7X7X7X7X7X7X7X7X7X7X7XS.OX*X5X1X5X1X>X>X>X>X>X;X$X$X$X#X*X*X*X&X&X&X&X.X X X X X.X X{.[.[.[.'.N.5.7X7X7X7X7X7X7X7X7X7X7X7X7X",
"7X7X7X7X7X7X7X7X7X7X7X7X8._.*X4X6X6X6X6X5X>X>X>X>X>X;X$X#X*X*X*X*X*X&X&X&X@X@X.X.X X X.X X'.'.'.'.P.v.1.7X7X7X7X7X7X7X7X7X7X7X7X",
"7X7X7X7X7X7X7X7X7X7X7X7XS.{.*X6X6X6X6X6X6X5X:X:X>X>X>X;X;X#X#X#X&X$X&X@X&X&X#X#X@X.X@X@X.X{.[.'.'.'.N.5.7X7X7X7X7X7X7X7X7X7X7X7X",
"7X7X7X7X7X7X7X7X7X7X7Xw.'..X#X6X6X6X6X6X6X6X5X1X>X>X>X>X>X;X;X$X$X$X&X*X*X*X*X*X&X#X#X.X@X.X'.'.].'.B.8.1.7X7X7X7X7X7X7X7X7X7X7X",
"7X7X7X7X7X7X7X7X7X7X7X9._.@X,X6X6X6X6X6X6X6X6X6X1X1X>X:X>X>X>X;X,X&X,X*X*X*X*X&X&X&X#X#X@X.X].'.[._.B.c.1.7X7X7X7X7X7X7X7X7X7X7X",
"7X7X7X7X7X7X7X7X7X7X7Xb.'.*X>X6X6X6X6X6X6X6X6X6X6X6X1X5X>X>X>X>X>X;X,X,X,X*X*X*X&X&X&X#X@X@X[.'.[.'.B.N.5.7X7X7X7X7X7X7X7X7X7X7X",
"7X7X7X7X7X7X7X7X7X7X9.B.'.#X>X6X6X6X6X6X6X6X6X6X6X6X6X6X5X>X>X>X>X>X>X>X:X:X:X*X&X&X#X#X#X@X[.'.'.'.B.N.w.1.7X7X7X7X7X7X7X7X7X7X",
"7X7X7X7X7X7X7X7X7X7X9.N.'.&X>X1X6X6X6X6X6X6X6X6X6X6X6X6X6X4X>X>X>X>X>X>X>X:X,X;X*X$X$X#X#X@X'.'.'.'.B.N.8.1.7X7X7X7X7X7X7X7X7X7X",
"7X7X7X7X7X7X7X7X7X7X9.B.'.$X;X>X6X6X6X6X6X6X6X6X6X6X6X6X6X6X>X>X>X>X>X>X>X:X:X:X;X*X#X#X#X@X].'.'.'.B.N.8.1.7X7X7X7X7X7X7X7X7X7X",
"7X7X7X7X7X7X7X7X7X7X9.N.'.#X#X>X1X6X6X6X6X6X6X6X6X6X6X6X6X6X>X>X>X>X>X>X>X>X>X:X;X$X&X&X&X X'.'.'.'.B.B.9.1.7X7X7X7X7X7X7X7X7X7X",
"7X7X7X7X7X7X7X7X7X7Xw.N.'.*X*X>X>X1X1X1X6X6X6X6X6X6X6X6X6X1X>X>X>X>X>X>X>X>X>X>X*X&XoX'.'.Y.'.'.'.'.B.N.8.1.7X7X7X7X7X7X7X7X7X7X",
"7X7X7X7X7X7X7X7X7X7X9.B.[. X#X;X>X:X>X:X1X1X5X5X1X1X5X5X5X>X>X>X>X>X>X>X>X>X>X;X&X+XU.! F F G.W.'.'.B.B.9.1.7X7X7X7X7X7X7X7X7X7X",
"7X7X7X7X7X7X7X7X7X7X7Xv.P.'.$X$X,X>X>X>X>X:X>X>X>X>X>X>X:X>X>X>X>X>X>X>X>X>X;X%X#XF.! t u i._ I.{.'.B.c.5.7X7X7X7X7X7X7X7X7X7X7X",
"7X7X7X7X7X7X7X7X7X7X7X8.N.'.OX*X#X,X;X>X>X<X>X>X>X>X>X>X>X>X>X>X>X>X>X>X;X;X#X$X#Xq.2 a.i =X3 L.[.K.B.8.1.7X7X7X7X7X7X7X7X7X7X7X",
"7X7X7X7X7X7X7X7X7X7X7Xw.B.[.'. X&X$X#X;X,X*X,X>X>X>X>X>X>X>X>X;X*X;X;X;X#X#X*X*XoXq.3 -Xy.t.2 I.].M.N.w.1.7X7X7X7X7X7X7X7X7X7X7X",
"7X7X7X7X7X7X7X7X7X7X7X7X8.L.'.'.OX$X*X#X&X#X#X;X,X;X;X;X*X,X,X#X*X*X*X&X*X&XOXOX'.F._ t.t.t o.^.P.N.w.5.7X7X7X7X7X7X7X7X7X7X7X7X",
"7X7X7X7X7X7X7X7X7X7X7X7X' N.P.[.'. XOX X X+X*X*X#X*X$X*X*X&X&X&X*X*X{.OXOX X'.G.G.E.j.! ! } }.P.N.B.w.` 7X7X7X7X7X7X7X7X7X7X7X7X",
"7X7X7X7X7X7X7X7X7X7X7X7X7X6.B.P.'.'.'.'.'.'. X X XOXOX{. X{.}. X X{.W.W.W.W.g.e.g.g.g.x.H.XXL.N.B.M.2.7X7X7X7X7X7X7X7X7X7X7X7X7X",
"7X7X7X7X7X7X7X7X7X7X7X7X7X7X6.B.L.'.{.'.'.[.'.'.'.'.W.'._.'.'.'._.'.[.'.'.'.j.,.>.>.>.e.j.L.B.B.v.2.7X7X7X7X7X7X7X7X7X7X7X7X7X7X",
"7X7X7X7X7X7X7X7X7X7X7X7X7X7X7X6.B.I.P.'.'.'.'.'.'.'.'.'.].'.'.'.[.W.W.[.'.'.{.k.k.k.k.q.L.B.M.v.2.7X7X7X7X7X7X7X7X7X7X7X7X7X7X7X",
"7X7X7X7X7X7X7X7X7X7X7X7X7X7X7X7X6.5.v.I.I.'.{.].'.[.[.[.[.[.'.'.[.[.[.[.'.'.'.oX_.^.^.B.B.b.2.X.7X7X7X7X7X7X7X7X7X7X7X7X7X7X7X7X",
"7X7X7X7X7X7X7X7X7X7X7X7X7X7X7X7X7X7X2.6.v.S.C.J.P.P.P.P.P.P.P.P.L.P.P.P.P.P.P.P.v.d.d.v.6.2...7X7X7X7X7X7X7X7X7X7X7X7X7X7X7X7X7X",
"7X7X7X7X7X7X7X7X7X7X7X7X7X7X7X7X7X7X7X) 2.2.o.2.d.v.v.v.v.v.b.b.v.v.M.d.b.d.d.d.4.2.2.2.) 7X7X7X7X7X7X7X7X7X7X7X7X7X7X7X7X7X7X7X",
"7X7X7X7X7X7X7X7X7X7X7X7X7X7X7X7X7X7X7X7X7X7X7X7X3.X.1.1.1.1.1.1.2.1.1.1.@.3.5.5.7X7X7X7X7X7X7X7X7X7X7X7X7X7X7X7X7X7X7X7X7X7X7X7X",
"7X7X7X7X7X7X7X7X7X7X7X7X7X7X7X7X7X7X7X7X7X7X7X7XF 7.-.{ [ [ [ [ &.[ { +.{ 4 4 7 7X7X7X7X7X7X7X7X7X7X7X7X7X7X7X7X7X7X7X7X7X7X7X7X",
"7X7X7X7X7X7X7X7X7X7X7X7X7X7X7X7X7X7X7X7X7X7X7X7Xa H Q.Q.Q.Q.R.H.R.R.R.R.R.+.b * 7X7X7X7X7X7X7X7X7X7X7X7X7X7X7X7X7X7X7X7X7X7X7X7X",
"7X7X7X7X7X7X7X7X7X7X7X7X7X7X7X7X7X7X7X7X7X7X7X7Xz c -.-.-.=.e.e.e.;.=.=.=.q.E.^ 7X7X7X7X7X7X7X7X7X7X7X7X7X7X7X7X7X7X7X7X7X7X7X7X",
"7X7X7X7X7X7X7X7X7X7X7X7X7X7X7X7X7X7X7X7X7X7X7Xg J R m K K k V P V s m m n d :.k.M 7X7X7X7X7X7X7X7X7X7X7X7X7X7X7X7X7X7X7X7X7X7X7X",
"7X7X7X7X7X7X7X7X7X7X7X7X7X7X7X7X7X7X7X7X7X7X7Xl I I $.z.z.v A $.I Z L L &.&.^ !.#.7X7X7X7X7X7X7X7X7X7X7X7X7X7X7X7X7X7X7X7X7X7X7X",
"7X7X7X7X7X7X7X7X7X7X7X7X7X7X7X7X7X7X7X7X7X7Xg Z I I I l.e.l A U $.U n n ~.(.A.C.k.v 7X7X7X7X7X7X7X7X7X7X7X7X7X7X7X7X7X7X7X7X7X7X",
"7X7X7X7X7X7X7X7X7X7X7X7X7X7X7X7X7X7X7X7X7X7Xj N T T W z.z.#.B S R $.R z.2X2X`.s.XXC 7X7X7X7X7X7X7X7X7X7X7X7X7X7X7X7X7X7X7X7X7X7X",
"7X7X7X7X7X7X7X7X7X7X7X7X7X7X7X7X7X7X7X7X7X7X5 F F Q Q @.y.+.F m B Y $.4X4X2X`.9.<., 7X7X7X7X7X7X7X7X7X7X7X7X7X7X7X7X7X7X7X7X7X7X",
"7X7X7X7X7X7X7X7X7X7X7X7X7X7X7X7X7X7X7X7X7X7Xo e w w w r r r i D D N C %X:X*XoXc.$   7X7X7X7X7X7X7X7X7X7X7X7X7X7X7X7X7X7X7X7X7X7X",
"7X7X7X7X7X7X7X7X7X7X7X7X7X7X7X7X7X7X7X7X7X7X  X X + X O X O o # # % & p.p.p.u.t X   7X7X7X7X7X7X7X7X7X7X7X7X7X7X7X7X7X7X7X7X7X7X",
"7X7X7X7X7X7X7X7X7X7X7X7X7X7X7X7X7X7X7X7X7X7X. % = , < 7 y 5 , , , < < ^ ^ G G % % . 7X7X7X7X7X7X7X7X7X7X7X7X7X7X7X7X7X7X7X7X7X7X",
"7X7X7X7X7X7X7X7X7X7X7X7X7X7X7X7X7X7X7X7X7X7X7Xh M W %.H.R.r.%.%.E E E T P N N j h 7X7X7X7X7X7X7X7X7X7X7X7X7X7X7X7X7X7X7X7X7X7X7X",
"7X7X7X7X7X7X7X7X7X7X7X7X7X7X7X7X7X7X7X7X7X7X7Xg f c c *.*.#.L A J J J J Z l l g h D.p.7X7X7X7X7X7X7X7X7X7X7X7X7X7X7X7X7X7X7X7X7X",
"7X7X7X7X7X7X7X7X7X7X7X7X7X7X7X7X7X7X7X7X7X7X7X7Xg ; ; k k k z l z l s s j f 1 ; a D.u.8 7X7X7X7X7X7X7X7X7X7X7X7X7X7X7X7X7X7X7X7X",
"7X7X7X7X7X7X7X7X7X7X7X7X7X7X7X7X7X7X7X7X7X7X7X7X7X= = 1 1 1 a 1 ; : +.+./ * * * | `.9.8 7X7X7X7X7X7X7X7X7X7X7X7X7X7X7X7X7X7X7X7X",
"7X7X7X7X7X7X7X7X7X7X7X7X7X7X7X7X7X7X7X7X7X7X7X7X= = = = * * * * -  .9./.m.} } O.oXD.s.8 7X7X7X7X7X7X7X7X7X7X7X7X7X7X7X7X7X7X7X7X",
"7X7X7X7X7X7X7X7X7X7X7X7X7X7X7X7X7X7X7X7X7X7X7X= = = = < ! O.O.} O.|.6 ( s.`.`.`.D.` ) 7X7X7X7X7X7X7X7X7X7X7X7X7X7X7X7X7X7X7X7X7X",
"7X7X7X7X7X7X7X7X7X7X7X7X7X7X7X7X7X7X7X7X7X7X6 - * * - 3.s.u./.`.`.Z.8 7X` ( ( ( ) 7X7X7X7X7X7X7X7X7X7X7X7X7X7X7X7X7X7X7X7X7X7X7X",
"7X7X7X7X7X7X7X7X7X7X7X7X7X7X7X7X7X7X7X7X7X7X6 ! } } O.|.0.0 ] ( ( ( 9 7X7X7X7X7X7X7X7X7X7X7X7X7X7X7X7X7X7X7X7X7X7X7X7X7X7X7X7X7X",
"7X7X7X7X7X7X7X7X7X7X7X7X7X7X7X7X7X7X7X7X7X7Xy m.`.`.`.D.s.8 7X7X7X7X7X7X7X7X7X7X7X7X7X7X7X7X7X7X7X7X7X7X7X7X7X7X7X7X7X7X7X7X7X7X",
"7X7X7X7X7X7X7X7X7X7X7X7X7X7X7X7X7X7X7X7X7X7X6 ( ( ( ( ( ) 9 7X7X7X7X7X7X7X7X7X7X7X7X7X7X7X7X7X7X7X7X7X7X7X7X7X7X7X7X7X7X7X7X7X7X",
"7X7X7X7X7X7X7X7X7X7X7X7X7X7X7X7X7X7X7X7X7X7X7X7X7X7X7X7X7X7X7X7X7X7X7X7X7X7X7X7X7X7X7X7X7X7X7X7X7X7X7X7X7X7X7X7X7X7X7X7X7X7X7X7X",
"7X7X7X7X7X7X7X7X7X7X7X7X7X7X7X7X7X7X7X7X7X7X7X7X7X7X7X7X7X7X7X7X7X7X7X7X7X7X7X7X7X7X7X7X7X7X7X7X7X7X7X7X7X7X7X7X7X7X7X7X7X7X7X7X"
};
