/* XPM */
static char *result[] = {
/* columns rows colors chars-per-pixel */
"64 64 206 2 ",
"   c #0A0605",
".  c #060F10",
"X  c #051011",
"o  c #0B1516",
"O  c #131C1C",
"+  c #111716",
"@  c #35312D",
"#  c #460F06",
"$  c #640B01",
"%  c #6D0A00",
"&  c #720D00",
"*  c #6D1B0D",
"=  c #66160B",
"-  c #7C1E0E",
";  c #731A0C",
":  c #7C1F10",
">  c #6D2116",
",  c #6D271B",
"<  c #712519",
"1  c #542927",
"2  c #58302B",
"3  c #763626",
"4  c #6F372E",
"5  c #74483C",
"6  c #78513F",
"7  c #77513E",
"8  c #513D4A",
"9  c #3C4444",
"0  c #5B4555",
"q  c #795341",
"w  c #7A5946",
"e  c #5A5862",
"r  c #685664",
"t  c #596363",
"y  c #576161",
"u  c #6A6472",
"i  c #8D1B0B",
"p  c #AE1F0B",
"a  c #8B2515",
"s  c #932413",
"d  c #9E2715",
"f  c #AE200D",
"g  c #AD2917",
"h  c #AB2815",
"j  c #B32C19",
"k  c #B72915",
"l  c #BF321E",
"z  c #8E3F34",
"x  c #823B29",
"c  c #A73D2C",
"v  c #BC3824",
"b  c #C52B15",
"n  c #C62E19",
"m  c #D62E18",
"M  c #C6301A",
"N  c #CC331E",
"B  c #DE351E",
"V  c #C63B26",
"C  c #D33520",
"Z  c #EB3D26",
"A  c #E33A23",
"S  c #F33C23",
"D  c #8E4A3C",
"F  c #834438",
"G  c #944435",
"H  c #885A3F",
"J  c #AB4535",
"K  c #B34F3E",
"L  c #CF402B",
"P  c #DD422C",
"I  c #D4412A",
"U  c #D44C37",
"Y  c #E54B34",
"T  c #EC4D35",
"R  c #E44F38",
"E  c #F14D33",
"W  c #E55139",
"Q  c #ED553D",
"!  c #FD593F",
"~  c #F55136",
"^  c #995648",
"/  c #9B4F42",
"(  c #A75B4F",
")  c #A85D51",
"_  c #926A55",
"`  c #946E5B",
"'  c #966655",
"]  c #98715E",
"[  c #96705A",
"{  c #936751",
"}  c #BE6D5A",
"|  c #BA6A57",
" . c #AB765D",
".. c #A7735B",
"X. c #BB7259",
"o. c #9F7F6A",
"O. c #997A75",
"+. c #A47F69",
"@. c #AB7A66",
"#. c #BB7866",
"$. c #CF5543",
"%. c #D75947",
"&. c #E85C45",
"*. c #FE5E44",
"=. c #DE6251",
"-. c #E9614A",
";. c #E76049",
":. c #E26554",
">. c #C57D6B",
",. c #CC7A6D",
"<. c #C37664",
"1. c #D2796C",
"2. c #E87D7B",
"3. c #E77D7A",
"4. c #E4706D",
"5. c #9E816C",
"6. c #A3826C",
"7. c #AA826C",
"8. c #AE8A73",
"9. c #AF8674",
"0. c #B38C74",
"q. c #B88F76",
"w. c #BC957B",
"e. c #BE987D",
"r. c #B5937A",
"t. c #DE8D7D",
"y. c #D68C77",
"u. c #C19A7F",
"i. c #F2907C",
"p. c #6C678E",
"a. c #897C9E",
"s. c #BB9C82",
"d. c #A28985",
"f. c #858ABA",
"g. c #C39D82",
"h. c #CC9E82",
"j. c #E98C8A",
"k. c #EB988A",
"l. c #F59A8B",
"z. c #F69A97",
"x. c #C4A186",
"c. c #CDA285",
"v. c #CDA489",
"b. c #CAAB8C",
"n. c #C0A58A",
"m. c #D1A689",
"M. c #D6AA8C",
"N. c #D9AC8D",
"B. c #D1A485",
"V. c #CDAF91",
"C. c #D7AD91",
"Z. c #DAAF92",
"A. c #CEB193",
"S. c #CDBA9C",
"D. c #DDB294",
"F. c #D4B698",
"G. c #E8A88F",
"H. c #EDA898",
"J. c #FAAA9B",
"K. c #E1B696",
"L. c #E1B996",
"P. c #E2B698",
"I. c #E5BA9A",
"U. c #E9BE9E",
"Y. c #EDB195",
"T. c #F6BB9E",
"R. c #DBBFA1",
"E. c #FCAEA2",
"W. c #F7ADA0",
"Q. c #F0BFA3",
"!. c #FEB0A4",
"~. c #F7BCB3",
"^. c #DBC0A1",
"/. c #E4C5A2",
"(. c #E5CAAA",
"). c #E6C6A5",
"_. c #F1C5A6",
"`. c #F3CBA7",
"'. c #F3C7A8",
"]. c #F4CBA9",
"[. c #F8C3A3",
"{. c #F5D2AD",
"}. c #F8D4AB",
"|. c #EED9B6",
" X c #F5D4B0",
".X c #F8D6B1",
"XX c #F7DAB3",
"oX c #F8DEB6",
"OX c #F9DFB8",
"+X c #F7DAB8",
"@X c #EEC9B4",
"#X c #F8E0B7",
"$X c #F9E2BA",
"%X c #F3E1BF",
"&X c #B6B4C3",
"*X c #B0B8EA",
"=X c #F6E5C2",
"-X c #F9E6C1",
";X c #FAEBC6",
":X c #FBEDCA",
">X c #FCF4CB",
",X c #FBF1D5",
"<X c #FEFDD5",
"1X c #FDFADA",
"2X c #FBF4E3",
"3X c None",
/* pixels */
"3X3X3X3X3X3X3X3X3X3X3X3X3X3X3X3X3X3X3X3X3X3X3X3X3X3X3X3X3X3X3X3X3X3X3X3X3X3X3X3X3X3X3X3X3X3X3X3X3X3X3X3X3X3X3X3X3X3X3X3X3X3X3X3X",
"3X3X3X3X3X3X3X3X3X3X3X3X3X3X3X3X3X3X3X3X3X3X3X3X3X3X3X3X3X3X3X3X3X3X3X3X3X3X3X3X3X3X3X3X3X3X3X3X3X3X3X3X3X3X3X3X3X3X3X3X3X3X3X3X",
"3X3X3X3X3X3X3X3X3X3X3X3X3X3X3X3X3X3X3X3X3X3X3X3X3X3X3X3X3X3X3X3X3X3X3X3X3X3X3X3X3X3X3X3X3X3X3X3X3X3X3X3X3X3X3X3X3X3X3X3X3X3X3X3X",
"3X3X3X3X3X3X3X3X3X3X3X3X3X3X3X3X3X3X3X3X3X3X3X3X3X3X3X3X3X3X3X3X3X3X3X3X3X3X3X3X3X3X3X3X3X3X3X3X3X3X3X3X3X3X3X3X3X3X3X3X3X3X3X3X",
"3X3X3X3X3X3X3X3X3X3X3X3X3X3X3X3X3X3X3X3X3X3X3X3X3X3X3X3X3X3X3X3X3X3X3X3X3X3X3X3X3X3X3X3X3X3X3X3X3X3X3X3X3X3X3X3X3X3X3X3X3X3X3X3X",
"3X3X3X3X3X3X3X3X3X3X3X3X3X3X3X3X3X3X3X3X3X3X3X3X3X3X3X3X3X6.V.A.S.o.3X3X3X3X3X3X3X3X3X3X3X3X3X3X3X3X3X3X3X3X3X3X3X3X3X3X3X3X3X3X",
"3X3X3X3X3X3X3X3X3X3X3X3X3X3X3X3X3X3X3X3X3X3X3X3X3X3Xb.b.b.w.$X<X1XS.r.g.w.S.5.3X3X3X3X3X3X3X3X3X3X3X3X3X3X3X3X3X3X3X3X3X3X3X3X3X",
"3X3X3X3X3X3X3X3X3X3X3X3X3X3X3X3X3X3X3X3X3X3X3X3X3XA.>X<X>XU.OX+X(.-XU.].U.|.b.v.3X3X3X3X3X3X3X3X3X3X3X3X3X3X3X3X3X3X3X3X3X3X3X3X",
"3X3X3X3X3X3X3X3X3X3X3X3X3X3X3X3X3X3X3X3X3X3X3X3X5.=X<X<X<XXXXXD.h.Z.'.'.'.h.I.P.6.3X3X3X3X3X3X3X3X3X3X3X3X3X3X3X3X3X3X3X3X3X3X3X",
"3X3X3X3X3X3X3X3X3X3X3X3X3X3X3X3X3X3X3X3X3X3X3X3XA.>X<X<X>XXXL.L.P.P.K.'.K.K.D.Z.w.3X3X3X3X3X3X3X3X3X3X3X3X3X3X3X3X3X3X3X3X3X3X3X",
"3X3X3X3X3X3X3X3X3X3X3X3X3X3X3X3X3X3X3X3Xg.D.8.b.>X<X<X,X-XI.I.$X$XXXP.P.K.`.`.}.P.w.0.3X3X3X3X3X3X3X3X3X3X3X3X3X3X3X3X3X3X3X3X3X",
"3X3X3X3X3X3X3X3X3X3X3X3X3X3X3X3X3X3X3XC.M.g.A.;X<X<X<X-X}.m.$X<X<X-X'.v.XX$XXX}.].M.I.w.w.o.3X3X3X3X3X3X3X3X3X3X3X3X3X3X3X3X3X3X",
"3X3X3X3X3X3X3X3X3X3X3X3X3X3X3X3X3XM.C..X.XA.$X:X<X<X-X.XK.I.;X<X<X:XP./.;X<X>X#X{.D.P.U.I.w.w.3X3X3X3X3X3X3X3X3X3X3X3X3X3X3X3X3X",
"3X3X3X3X3X3X3X3X3X3X3X3X3X3X3X3XC..X.X$X$X$XOX-X%X$X}.Z.I.$X;X>X>X%Xm.$X>X<X<X;X}._.c.`.'.U.N.e.3X3X3X3X3X3X3X3X3X3X3X3X3X3X3X3X",
"3X3X3X3X3X3X3X3X3X3X3X3X3X3X3XC..X#XOX-X-X$X-X-X$XoX X/.$X-X$X$X{.K./.oX;X>X>X$X}.`.I.`.`._.I.N.e.3X3X3X3X3X3X3X3X3X3X3X3X3X3X3X",
"3X3X3X3X3X3X3X3X3X3X3X3X3X3XC..X$X%X-X:X:X>X:X:X>X-X$X$X$X$X$XoX]./.$X#X#X$X$X$X}.`.}.}.}.`._.I.M.e.3X3X3X3X3X3X3X3X3X3X3X3X3X3X",
"3X3X3X3X3X3X3X3X3X3X3X3X3Xe._.#XOXOX:X;X;X:X:X:X:X:X%X%X+X+XOX$X$X$X$X$XOX$X$XoX}.`.}.`.}.].`.'.I.N.6.3X3X3X3X3X3X3X3X3X3X3X3X3X",
"3X3X3X3X3X3X3X3X3X3X3X3X3XD.{.OX#X%X:X,X,X,X,X;X:X:X:X:X-XOXOXOX#X$X$X$X$X$X$XoX}.{.}.}.}.}.}.`.'.m.0.3X3X3X3X3X3X3X3X3X3X3X3X3X",
"3X3X3X3X3X3X3X3X3X3X3X3Xe.'.$XOX#X:X,X2X2X2X2X,X:X:X:X:X:X-XOXOX$X#X$XOX$X#X$XoX#XXX.X}.}.}.}.}._.I.c.6.3X3X3X3X3X3X3X3X3X3X3X3X",
"3X3X3X3X3X3X3X3X3X3X3X3XC.`.OXOX$X:X2X2X2X2X2X2X,X:X:X:X:X:X-X-XoXoXOX$XoXOX#X$XXX#XXXXX XXXXX}.`._.M.0.3X3X3X3X3X3X3X3X3X3X3X3X",
"3X3X3X3X3X3X3X3X3X3X3Xg.'.}.OXOXOX:X,X2X2X2X2X2X2X,X,X:X;X:X:X:X-X-XoXoXOX$X$X%X#X#X#X#XoXXXXXXXXX_.N.e.6.3X3X3X3X3X3X3X3X3X3X3X",
"3X3X3X3X3X3X3X3X3X3X3Xe.).XXOXOX=X:X2X2X2X2X2X2X2X2X2X,X,X:X:X:X>X:X-X-X$X%X$X$X$X#X#X#XoXoXXXXX.X_.N.g.6.3X3X3X3X3X3X3X3X3X3X3X",
"3X3X3X3X3X3X3X3X3X3X3Xc._.oX#X$X:X:X2X2X2X2X2X2X2X2X2X2X2X,X,X;X:X:X:X:X-X;X;X-X-X$X#X#X#XoXoXXXXX_.I.N.0.3X3X3X3X3X3X3X3X3X3X3X",
"3X3X3X3X3X3X3X3X3X3Xe.N.'.oX#XoX:X:X2X2X2X2X2X2X2X2X2X2X2X2X2X,X:X:X:X:X:X:X;X;X:X-X=X#X#X#XoXXXXX_.`.M.e.6.3X3X3X3X3X3X3X3X3X3X",
"3X3X3X3X3X3X3X3X3X3Xe.N._.#X#X$X:X:X,X2X2X2X2X2X2X2X2X2X2X2X2X2X,X:X:X:X:X:X:X-X;X-X-X%X#XoXoXoXXX_._.N.e.6.3X3X3X3X3X3X3X3X3X3X",
"3X3X3X3X3X3X3X3X3X3Xu.M._.OX#X$X=X:X:X2X2X2X2X2X2X2X2X2X2X2X2X2X2X:X:X:X:X:X:X:X;X:X-X-X$X$XoXoXXX_._.N.e.6.3X3X3X3X3X3X3X3X3X3X",
"3X3X3X3X3X3X3X3X3X3Xe.M._.oX$XOXoX:X:X,X2X2X2X2X2X2X2X2X2X2X2X2X2X:X:X:X:X:X:X:X:X:X:X$XOX#X$X$X{._._.N.w.6.3X3X3X3X3X3X3X3X3X3X",
"3X3X3X3X3X3X3X3X3X3Xu.M._.$XoXoXoX=X:X:X,X,X,X2X2X2X2X2X2X2X2X2X,X:X:X:X:X:X:X:X:X:X:X#X$X X[.[.T.`.P.M.e.6.3X3X3X3X3X3X3X3X3X3X",
"3X3X3X3X3X3X3X3X3X3Xe.N.'. XoXOXOXoX$X>X:X:X:X,X,X,X,X,X,X,X,X,X:X:X:X:X:X:X:X:X:X:X-XOX.XP.^ D D Y.M.M.e.6.3X3X3X3X3X3X3X3X3X3X",
"3X3X3X3X3X3X3X3X3X3X3Xc.I._.$XOXoX$X#X%X:X:X:X:X:X:X:X:X:X;X:X:X:X:X:X:X:X:X:X:X>X$XOXOXG.^ 8 0 d.' B.c.0.3X3X3X3X3X3X3X3X3X3X3X",
"3X3X3X3X3X3X3X3X3X3X3Xw.m._.{.$XoX#X$XOX-X-X:X:X:X:X:X:X:X:X:X:X:X:X:X:X:X:X:X-X=XoX#X$Xy.1 f.r &X2 c.u.+.3X3X3X3X3X3X3X3X3X3X3X",
"3X3X3X3X3X3X3X3X3X3X3Xe.D.'._.{.$X$XOXOXoXoX-X-X-X-X:X:X:X:X:X:X:X:X-X-X-X-X$XOX#X$X$X}.y.1 *Xa.p.1 B.u.6.3X3X3X3X3X3X3X3X3X3X3X",
"3X3X3X3X3X3X3X3X3X3X3X3Xw.P.'.'.]. X$X$X$X$X$XOXoXoX-X=X-X-X-X=X-X-X#XoX#X$X$X$X#X X X_.G.' u p.0 { g.8.3X3X3X3X3X3X3X3X3X3X3X3X",
"3X3X3X3X3X3X3X3X3X3X3X3X] M.I.'.'._.{.{.{. X{.{. X$XoXOX#X#X$X#X$X$X%X$X$X X{.{.]._.H.H.H.k.^ ^ ' K.u.] 3X3X3X3X3X3X3X3X3X3X3X3X",
"3X3X3X3X3X3X3X3X3X3X3X3X3Xq.N.I.'.'._._._._._._._.{. X{.{.{.]. X].]. X].].Q.Q.Q.Q.k.2.j.j.j.z.k.I.c.7.3X3X3X3X3X3X3X3X3X3X3X3X3X",
"3X3X3X3X3X3X3X3X3X3X3X3X3X3Xq.C.P.'.'._._._._.'.'._._.Q._._.Q._._._.Q._._._._._._.k.4.3.2.2.2.t.h.7.3X3X3X3X3X3X3X3X3X3X3X3X3X3X",
"3X3X3X3X3X3X3X3X3X3X3X3X3X3X3Xq.N.U.U.'.'._._.'._._._._._.'._.'.'._._._._._._._.].].H.t.t.t.y.v.7.3X3X3X3X3X3X3X3X3X3X3X3X3X3X3X",
"3X3X3X3X3X3X3X3X3X3X3X3X3X3X3X3X0.0.c.U.U.'.'.'.'.'.'.].'.'.'.'.'._._.'.'.'.'._.I.I.I.D.D.b.7.7.3X3X3X3X3X3X3X3X3X3X3X3X3X3X3X3X",
"3X3X3X3X3X3X3X3X3X3X3X3X3X3X3X3X3X3X7.0.c.D.D.D.I.I.I.I.I.I.I.I.I.I.I.I.I.I.I.I.B.h.c.c.q.7.] 3X3X3X3X3X3X3X3X3X3X3X3X3X3X3X3X3X",
"3X3X3X3X3X3X3X3X3X3X3X3X3X3X3X3X3X3X3X` 7.+.7.@.h.c.c.c.c.c.c.c.h.B.c.c.c.h.h.h.7.7.7.7.` 3X3X3X3X3X3X3X3X3X3X3X3X3X3X3X3X3X3X3X",
"3X3X3X3X3X3X3X3X3X3X3X3X3X3X3X3X3X3X3X3X3X3X3X3X9.+.6.+.6.6.6.6.6.6.6.6.o.r.9.0.3X3X3X3X3X3X3X3X3X3X3X3X3X3X3X3X3X3X3X3X3X3X3X3X",
"3X3X3X3X3X3X3X3X3X3X3X3X3X3X3X3X3X3X3X3X3X3X3X3XG 9.<.>.>.>.>.} <.| | <.| 3 4 F 3X3X3X3X3X3X3X3X3X3X3X3X3X3X3X3X3X3X3X3X3X3X3X3X",
"3X3X3X3X3X3X3X3X3X3X3X3X3X3X3X3X3X3X3X3X3X3X3X3Xi J l.%.$.U %.J.E.E.E.E.J.#.c % 3X3X3X3X3X3X3X3X3X3X3X3X3X3X3X3X3X3X3X3X3X3X3X3X",
"3X3X3X3X3X3X3X3X3X3X3X3X3X3X3X3X3X3X3X3X3X3X3X3Xj d c n b b v 1.,.,.,.,.,.t.J.( v 3X3X3X3X3X3X3X3X3X3X3X3X3X3X3X3X3X3X3X3X3X3X3X",
"3X3X3X3X3X3X3X3X3X3X3X3X3X3X3X3X3X3X3X3X3X3X3Xi M N n Z T T E f n n M M n k 1.l.M 3X3X3X3X3X3X3X3X3X3X3X3X3X3X3X3X3X3X3X3X3X3X3X",
"3X3X3X3X3X3X3X3X3X3X3X3X3X3X3X3X3X3X3X3X3X3X3XX.b Y E Y &.&.M L Q Q Q Q Q C j @X%.3X3X3X3X3X3X3X3X3X3X3X3X3X3X3X3X3X3X3X3X3X3X3X",
"3X3X3X3X3X3X3X3X3X3X3X3X3X3X3X3X3X3X3X3X3X3XA.-Xl.;.-.-.&.V V W W R R W Y C l 1.k.v 3X3X3X3X3X3X3X3X3X3X3X3X3X3X3X3X3X3X3X3X3X3X",
"3X3X3X3X3X3X3X3X3X3X3X3X3X3X3X3X3X3X3X3X3XA.OX1X,X&.Y R A %.~ T E E E E E B m k ~.U v.3X3X3X3X3X3X3X3X3X3X3X3X3X3X3X3X3X3X3X3X3X",
"3X3X3X3X3X3X3X3X3X3X3X3X3X3X3X3X3X3X3X3Xg.|.1X,X|.i.E m / @.) ) ) ) ) ) / G z F O., (.g.3X3X3X3X3X3X3X3X3X3X3X3X3X3X3X3X3X3X3X3X",
"3X3X3X3X3X3X3X3X3X3X3X3X3X3X3X3X3X3X3X3X3Xx.=X=X|.b.G x t e t t t t t y 9 9 9 9 @   r.3X3X3X3X3X3X3X3X3X3X3X3X3X3X3X3X3X3X3X3X3X",
"3X3X3X3X3X3X3X3X3X3X3X3X3X3X3X3X3X3X3X3X3X3Xw.n.s.@ X o + + O O O O O O X X X X o   3X3X3X3X3X3X3X3X3X3X3X3X3X3X3X3X3X3X3X3X3X3X",
"3X3X3X3X3X3X3X3X3X3X3X3X3X3X3X3X3X3X3X3X3X3X3XG J > > 5 5 4 > > > > > > < = = # #   3X3X3X3X3X3X3X3X3X3X3X3X3X3X3X3X3X3X3X3X3X3X",
"3X3X3X3X3X3X3X3X3X3X3X3X3X3X3X3X3X3X3X3X3X3X3Xs j *.*.J.J.i.*.! *.*.*.*.E Z A h d 3X3X3X3X3X3X3X3X3X3X3X3X3X3X3X3X3X3X3X3X3X3X3X",
"3X3X3X3X3X3X3X3X3X3X3X3X3X3X3X3X3X3X3X3X3X6 ' i s v v =.:.&.P P A P P C N j g s a 3X3X3X3X3X3X3X3X3X3X3X3X3X3X3X3X3X3X3X3X3X3X3X",
"3X3X3X3X3X3X3X3X3X3X3X3X3X3X3X3X3X3X3X3X3Xq s.#.; % & f k h h g g g g j g : : s 3X3X3X3X3X3X3X3X3X3X3X3X3X3X3X3X3X3X3X3X3X3X3X3X",
"3X3X3X3X3X3X3X3X3X3X3X3X3X3X3X3X3X3X3X3X3X6 g.F. . ...x a 3X3X3X3Xa : : - * * 3X3X3X3X3X3X3X3X3X3X3X3X3X3X3X3X3X3X3X3X3X3X3X3X3X",
"3X3X3X3X3X3X3X3X3X3X3X3X3X3X3X3X3X3X3X3X3X3X] w.(.(.R.w 3X3X3X3X3X3X= * * ; * 3X3X3X3X3X3X3X3X3X3X3X3X3X3X3X3X3X3X3X3X3X3X3X3X3X",
"3X3X3X3X3X3X3X3X3X3X3X3X3X3X3X3X3X3X3X3X3X3X3X[ _ _ { 7 3X3X3X3X3X3X3 $ $ $ $ 3X3X3X3X3X3X3X3X3X3X3X3X3X3X3X3X3X3X3X3X3X3X3X3X3X",
"3X3X3X3X3X3X3X3X3X3X3X3X3X3X3X3X3X3X3X3X3X3X3X3X3X3X3X3X3X3X3X3X3X3Xq .. . .@.(.w.7 3X3X3X3X3X3X3X3X3X3X3X3X3X3X3X3X3X3X3X3X3X3X",
"3X3X3X3X3X3X3X3X3X3X3X3X3X3X3X3X3X3X3X3X3X3X3X3X3X3X3X3X3X3X3X3X3X3Xq ^.(.(.(.F.g.6 3X3X3X3X3X3X3X3X3X3X3X3X3X3X3X3X3X3X3X3X3X3X",
"3X3X3X3X3X3X3X3X3X3X3X3X3X3X3X3X3X3X3X3X3X3X3X3X3X3X3X3X3X3X3X3X3X3X7 { ' _ _ ` ` 7 3X3X3X3X3X3X3X3X3X3X3X3X3X3X3X3X3X3X3X3X3X3X",
"3X3X3X3X3X3X3X3X3X3X3X3X3X3X3X3X3X3X3X3X3X3X3X3X3X3X3X3X3X3X3X3X3X3X3X3X3X3X3X3X3X3X3X3X3X3X3X3X3X3X3X3X3X3X3X3X3X3X3X3X3X3X3X3X",
"3X3X3X3X3X3X3X3X3X3X3X3X3X3X3X3X3X3X3X3X3X3X3X3X3X3X3X3X3X3X3X3X3X3X3X3X3X3X3X3X3X3X3X3X3X3X3X3X3X3X3X3X3X3X3X3X3X3X3X3X3X3X3X3X",
"3X3X3X3X3X3X3X3X3X3X3X3X3X3X3X3X3X3X3X3X3X3X3X3X3X3X3X3X3X3X3X3X3X3X3X3X3X3X3X3X3X3X3X3X3X3X3X3X3X3X3X3X3X3X3X3X3X3X3X3X3X3X3X3X"
};
