/* XPM */
static char *result[] = {
/* columns rows colors chars-per-pixel */
"64 64 206 2 ",
"   c #060302",
".  c #060F10",
"X  c #071011",
"o  c #0C1515",
"O  c #131C1D",
"+  c #343533",
"@  c #460F06",
"#  c #47160D",
"$  c #630D01",
"%  c #610702",
"&  c #661104",
"*  c #6C1A0C",
"=  c #64170C",
"-  c #7D1C0D",
";  c #711D0F",
":  c #7C1F10",
">  c #631F15",
",  c #6D2216",
"<  c #60261D",
"1  c #73291B",
"2  c #542927",
"3  c #59312C",
"4  c #783929",
"5  c #6E352C",
"6  c #764E3C",
"7  c #78513E",
"8  c #513D4A",
"9  c #3B4444",
"0  c #5B4555",
"q  c #795441",
"w  c #685048",
"e  c #5C5063",
"r  c #685664",
"t  c #5A6363",
"y  c #576161",
"u  c #72627D",
"i  c #851B0B",
"p  c #811F10",
"a  c #AA1E0A",
"s  c #8C2515",
"d  c #822213",
"f  c #932312",
"g  c #9E2715",
"h  c #B1210E",
"j  c #AD2917",
"k  c #A82715",
"l  c #B22C19",
"z  c #BA2713",
"x  c #BC311E",
"c  c #873B2D",
"v  c #BB3622",
"b  c #A23B2B",
"n  c #C82F18",
"m  c #D72F18",
"M  c #CA331E",
"N  c #C6301A",
"B  c #D7341E",
"V  c #C5230D",
"C  c #E32F16",
"Z  c #E73017",
"A  c #CF3621",
"S  c #C63A26",
"D  c #D53923",
"F  c #E63D26",
"G  c #E83C25",
"H  c #8E4B3B",
"J  c #844438",
"K  c #924436",
"L  c #AF4D3E",
"P  c #CF422D",
"I  c #DD432C",
"U  c #D2402B",
"Y  c #EA4B33",
"T  c #E34F37",
"R  c #F24D33",
"E  c #ED553C",
"W  c #E55139",
"Q  c #FD593F",
"!  c #E8432D",
"~  c #985747",
"^  c #9B4F42",
"/  c #A85A47",
"(  c #A95D51",
")  c #A75C50",
"_  c #96684E",
"`  c #926A55",
"'  c #956E5B",
"]  c #9B6253",
"[  c #98715E",
"{  c #BE6D5A",
"}  c #BA6A57",
"|  c #AB755C",
" . c #B16751",
".. c #9E7D68",
"X. c #9A7C76",
"o. c #A87D66",
"O. c #B47967",
"+. c #DB5A47",
"@. c #E85D46",
"#. c #FD5C42",
"$. c #C0715E",
"%. c #CF6C55",
"&. c #E36655",
"*. c #CC7A6D",
"=. c #CA7568",
"-. c #D2796C",
";. c #D27D71",
":. c #E77C7A",
">. c #E46F6D",
",. c #9F806D",
"<. c #A3836C",
"1. c #AA826C",
"2. c #AD8C74",
"3. c #AA8672",
"4. c #B38C74",
"5. c #B88F76",
"6. c #B58C7C",
"7. c #BC967B",
"8. c #BF987D",
"9. c #B79177",
"0. c #DD8C7C",
"q. c #D58E75",
"w. c #C19A7F",
"e. c #DE917E",
"r. c #D4866D",
"t. c #EB8475",
"y. c #E7817E",
"u. c #FF8E7B",
"i. c #EC8D72",
"p. c #6B668D",
"a. c #8A7C9F",
"s. c #BE9A80",
"d. c #A18885",
"f. c #858ABA",
"g. c #C59F84",
"h. c #CC9E82",
"j. c #D69D8A",
"k. c #E98D8A",
"l. c #EB9889",
"z. c #F59C93",
"x. c #CCA285",
"c. c #CEA689",
"v. c #CAAA8D",
"b. c #C7A288",
"n. c #D0A689",
"m. c #D6AA8C",
"M. c #D9AD8E",
"N. c #CCAF90",
"B. c #D7AE91",
"V. c #DAAE91",
"C. c #CDB193",
"Z. c #CCB99C",
"A. c #DDB294",
"S. c #D4BB9D",
"D. c #D7B89A",
"F. c #E5AB8F",
"G. c #EDA695",
"H. c #F7A999",
"J. c #E1B696",
"K. c #E2B699",
"L. c #E5BA9A",
"P. c #EABE9D",
"I. c #E8B596",
"U. c #F6BA9E",
"Y. c #FBAEA2",
"T. c #F7ADA1",
"R. c #EDBFA1",
"E. c #F0BFA3",
"W. c #F6BBB2",
"Q. c #E7C09E",
"!. c #DEC7A9",
"~. c #E4C4A2",
"^. c #EEC3A4",
"/. c #E5CAA9",
"(. c #EBCAA7",
"). c #F1C5A6",
"_. c #F3CBA7",
"`. c #F3C7A8",
"'. c #F4CBA9",
"]. c #F8C3A3",
"[. c #E2D1AF",
"{. c #F5D2AD",
"}. c #F8D4AB",
"|. c #EED7B4",
" X c #F5D5B1",
".X c #F8D5B2",
"XX c #F7DAB3",
"oX c #F8DEB6",
"OX c #F9DFB8",
"+X c #F1C1BA",
"@X c #F9E0B7",
"#X c #F9E2BA",
"$X c #F3E0BF",
"%X c #B6B4C3",
"&X c #B0B8EA",
"*X c #F9E6C0",
"=X c #FAEBC5",
"-X c #FBEDCA",
";X c #F5E4C0",
":X c #FCF4CC",
">X c #FFF9CF",
",X c #FBF1D5",
"<X c #FEFCD4",
"1X c #FDFBDA",
"2X c #FBF4E3",
"3X c None",
/* pixels */
"3X3X3X3X3X3X3X3X3X3X3X3X3X3X3X3X3X3X3X3X3X3X3X3X3X3X3X3X3X3X3X3X3X3X3X3X3X3X3X3X3X3X3X3X3X3X3X3X3X3X3X3X3X3X3X3X3X3X3X3X3X3X3X3X",
"3X3X3X3X3X3X3X3X3X3X3X3X3X3X3X3X3X3X3X3X3X3X3X3X3X3X3X3X3X3X3X3X3X3X3X3X3X3X3X3X3X3X3X3X3X3X3X3X3X3X3X3X3X3X3X3X3X3X3X3X3X3X3X3X",
"3X3X3X3X3X3X3X3X3X3X3X3X3X3X3X3X3X3X3X3X3X3X3X3X3X3X3X3X3X3X3X3X3X3X3X3X3X3X3X3X3X3X3X3X3X3X3X3X3X3X3X3X3X3X3X3X3X3X3X3X3X3X3X3X",
"3X3X3X3X3X3X3X3X3X3X3X3X3X3X3X3X3X3X3X3X3X3X3X3X3X3X3X3X3X3X3X3X3X3X3X3X3X3X3X3X3X3X3X3X3X3X3X3X3X3X3X3X3X3X3X3X3X3X3X3X3X3X3X3X",
"3X3X3X3X3X3X3X3X3X3X3X3X3X3X3X3X3X3X3X3X3X3X3X3X3X3X3X3X3X3X3X3X3X3X3X3X3X3X3X3X3X3X3X3X3X3X3X3X3X3X3X3X3X3X3X3X3X3X3X3X3X3X3X3X",
"3X3X3X3X3X3X3X3X3X3X3X3X3X3X3X3X3X3X3X3X3X3X3X3X3X3X3X3X3X3.C.C.Z.,.3X3X3X3X3X3X3X3X3X3X3X3X3X3X3X3X3X3X3X3X3X3X3X3X3X3X3X3X3X3X",
"3X3X3X3X3X3X3X3X3X3X3X3X3X3X3X3X3X3X3X3X3X3X3X3X3X3Xv.v.v.7.#X1X1XC.9.9.Z.Z...3X3X3X3X3X3X3X3X3X3X3X3X3X3X3X3X3X3X3X3X3X3X3X3X3X",
"3X3X3X3X3X3X3X3X3X3X3X3X3X3X3X3X3X3X3X3X3X3X3X3X3XC.:X>X#X(. X/..XoXP.L. X-XS.g.3X3X3X3X3X3X3X3X3X3X3X3X3X3X3X3X3X3X3X3X3X3X3X3X",
"3X3X3X3X3X3X3X3X3X3X3X3X3X3X3X3X3X3X3X3X3X3X3X3X,.;X1X<X@X@XA.h.A.`.`.`.x.M.|. X<.3X3X3X3X3X3X3X3X3X3X3X3X3X3X3X3X3X3X3X3X3X3X3X",
"3X3X3X3X3X3X3X3X3X3X3X3X3X3X3X3X3X3X3X3X3X3X3X3XC.:X<X>XXXJ.J.L.K.K.`.J.K.A.B.L.v.3X3X3X3X3X3X3X3X3X3X3X3X3X3X3X3X3X3X3X3X3X3X3X",
"3X3X3X3X3X3X3X3X3X3X3X3X3X3X3X3X3X3X3X3Xs.A.3.v.#X<X<X#XL.L.#X#XoXA.K.A._.}.}.A.L.b.7.3X3X3X3X3X3X3X3X3X3X3X3X3X3X3X3X3X3X3X3X3X",
"3X3X3X3X3X3X3X3X3X3X3X3X3X3X3X3X3X3X3XB.m.b.C.#X=X<X*X}.n.#X<X<X*X'.x..X@XXX}._.n.`.m.7.9.o.3X3X3X3X3X3X3X3X3X3X3X3X3X3X3X3X3X3X",
"3X3X3X3X3X3X3X3X3X3X3X3X3X3X3X3X3Xm.B..X.XC.#X=X<X=X XA.L.=X<X<X-XL.~.=X>X>X#X_.L.K.A.M.L.7.7.3X3X3X3X3X3X3X3X3X3X3X3X3X3X3X3X3X",
"3X3X3X3X3X3X3X3X3X3X3X3X3X3X3X3XB..X.XOX@X#XoX*XXXL.A.L.#X:X>X:XOXn.#X>X<X<X=X_.).n._.J.`.P.m.w.3X3X3X3X3X3X3X3X3X3X3X3X3X3X3X3X",
"3X3X3X3X3X3X3X3X3X3X3X3X3X3X3XB..X#X=X;X*X#X*X*X}.Q.~.oX*X#XXX{.K.~.OX*X:X:X#X}.`.L._._.`.`.K.m.8.3X3X3X3X3X3X3X3X3X3X3X3X3X3X3X",
"3X3X3X3X3X3X3X3X3X3X3X3X3X3XB.`.OX*X-X-X:X-X-X:X*X#X#X#X#XoX X'.~.#X#XOX#X*X@X}.{.}.}.}._.).`.L.M.8.3X3X3X3X3X3X3X3X3X3X3X3X3X3X",
"3X3X3X3X3X3X3X3X3X3X3X3X3X8.`.{.oX-X=X=X-X=X-X-X-X;X;XOXOXOX#X#X#X#X#XOX#X#X@X{._.}.}.{.}._.).`.L.M.<.3X3X3X3X3X3X3X3X3X3X3X3X3X",
"3X3X3X3X3X3X3X3X3X3X3X3X3XB.^.OX*X-X,X,X,X,X-X-X-X-X-X*XOXOXOXOX#X#X#X#X@XOXOX}.}._.}.}._.{._.`.`.n.4.3X3X3X3X3X3X3X3X3X3X3X3X3X",
"3X3X3X3X3X3X3X3X3X3X3X3X8.`.{.OX-X,X2X2X2X2X,X-X-X-X-X-X*XoXoXOX@X#X#X#X@X@XOXXX}.XX}.}.}.}.}.`.^.L.x.<.3X3X3X3X3X3X3X3X3X3X3X3X",
"3X3X3X3X3X3X3X3X3X3X3X3XB.^.#X#X-X2X2X2X2X2X2X,X-X=X-X-X-X*X*XOXOX@X@XOXOXOXOXOX@XXXXXXXXX X}.}.`.`.m.4.3X3X3X3X3X3X3X3X3X3X3X3X",
"3X3X3X3X3X3X3X3X3X3X3Xg.`. XoXOX-X2X2X2X2X2X2X2X2X,X=X=X=X,X-X;X*XOXOX#XOX#X#X#X@X@XoXXXoXXXXX}.`.^.M.w.<.3X3X3X3X3X3X3X3X3X3X3X",
"3X3X3X3X3X3X3X3X3X3X3X8.^.#X@X*X-X,X2X2X2X2X2X2X2X2X,X,X=X=X-X-X-X;X*X@X;X#X#X#X@X@X@X@X@XXXXX}.`.`.M.w.<.3X3X3X3X3X3X3X3X3X3X3X",
"3X3X3X3X3X3X3X3X3X3X3Xx.^.OX#X-X-X2X2X2X2X2X2X2X2X2X2X2X,X,X=X=X-X-X-X*X=X=X*X*X*X#X@X@X@XXXXXXX`.^.M.m.4.3X3X3X3X3X3X3X3X3X3X3X",
"3X3X3X3X3X3X3X3X3X3X8.m.`.oX@X=X-X2X2X2X2X2X2X2X2X2X2X2X2X2X,X-X-X-X-X-X-X=X=X-X;X#X@X@X@XXXXXXX`.^.M.m.w.<.3X3X3X3X3X3X3X3X3X3X",
"3X3X3X3X3X3X3X3X3X3Xw.m.`.oX@X-X-X,X2X2X2X2X2X2X2X2X2X2X2X2X2X,X-X-X-X-X-X-X=X=X-X*X#XOXOXOXoXXX`.).M.m.7.<.3X3X3X3X3X3X3X3X3X3X",
"3X3X3X3X3X3X3X3X3X3Xw.m.`.oXOX*X-X-X2X2X2X2X2X2X2X2X2X2X2X2X2X2X-X-X-X-X-X-X-X-X=X*X#X#XOXoXXXXX`.).M.M.7.<.3X3X3X3X3X3X3X3X3X3X",
"3X3X3X3X3X3X3X3X3X3X8.m.^.#X#XoX-X-X,X2X2X2X2X2X2X2X2X2X2X2X2X2X-X-X-X-X-X-X-X-X-X-X#XOX#X#X#X{.).).M.m.8.<.3X3X3X3X3X3X3X3X3X3X",
"3X3X3X3X3X3X3X3X3X3Xw.m.`.{.oXOX;X-X-X,X,X,X2X2X2X2X2X2X2X2X2X,X-X-X-X-X-X=X-X-X-X-X#X#X{.].`.U.`.^.M.m.7.<.3X3X3X3X3X3X3X3X3X3X",
"3X3X3X3X3X3X3X3X3X3X8.M.`.`.oX#XOX;X-X-X=X-X,X,X,X,X,X,X,X,X,X-X-X-X-X-X-X-X-X=X-X*X@X.XI.~ H H I.].M.M.8.<.3X3X3X3X3X3X3X3X3X3X",
"3X3X3X3X3X3X3X3X3X3X3Xx.K.`.OXOXOXOX*X-X-X-X=X-X-X-X-X-X-X-X-X-X-X-X-X-X-X-X-X-X*XoXoXF.~ 8 e d.] R.M.x.4.3X3X3X3X3X3X3X3X3X3X3X",
"3X3X3X3X3X3X3X3X3X3X3X7.m.).{.OXOXOXoX*X*X-X-X-X-X-X-X-X-X-X-X-X-X-X-X-X-X-X*X*XoX@X#Xq.2 f.r %X3 M.M.9.<.3X3X3X3X3X3X3X3X3X3X3X",
"3X3X3X3X3X3X3X3X3X3X3Xw.M.`.`.{.OXOXOXoXOX*X*X*X*X-X-X-X-X-X-X-X-X*X*X*X*X;XOXOX#X#X}.q.2 &Xa.p.2 w.V.w.<.3X3X3X3X3X3X3X3X3X3X3X",
"3X3X3X3X3X3X3X3X3X3X3X3X7.J.`.)..X#X#X#X@XOXOXOXOX*X*X*X*X*X*X*X*XOXOXOX#XOX#XOX{.{.`.F.] p.p.0 ' n.w.4.3X3X3X3X3X3X3X3X3X3X3X3X",
"3X3X3X3X3X3X3X3X3X3X3X3X[ m.L.`.^.{. X'. X{. X.X@X@X@X@X@X#X#X#XOXOX#X$X.X{.{.{.`.G.G.G.l.^ _ _ J.M.w.[ 3X3X3X3X3X3X3X3X3X3X3X3X",
"3X3X3X3X3X3X3X3X3X3X3X3X3X5.M.L.`.).^.).^.).^.). X X.X'.{.{.'.'.{.{.{.{.E.E.E.E.l.:.k.k.k.z.H.J.M.n.1.3X3X3X3X3X3X3X3X3X3X3X3X3X",
"3X3X3X3X3X3X3X3X3X3X3X3X3X3X5.M.K.`.`.`.).`.`.`.^.^.).).^.E.).E.E.).E.E.).).).).l.>.:.:.:.:.y.m.x.1.3X3X3X3X3X3X3X3X3X3X3X3X3X3X",
"3X3X3X3X3X3X3X3X3X3X3X3X3X3X3X5.M.P.L.`.`.).).`.).`.).`.`.`.`.`.).).).).).).).).`.G.l.e.0.e.v.x.1.3X3X3X3X3X3X3X3X3X3X3X3X3X3X3X",
"3X3X3X3X3X3X3X3X3X3X3X3X3X3X3X3X4.5.x.L.R.`.`.`.`.`.`.`.`.`.`.`.).`.].].).).`.).L.P.Q.A.A.c.1.o.3X3X3X3X3X3X3X3X3X3X3X3X3X3X3X3X",
"3X3X3X3X3X3X3X3X3X3X3X3X3X3X3X3X3X3X1.5.c.A.J.J.L.L.L.K.K.L.L.L.L.L.K.L.L.L.R.K.x.x.x.x.5.1...3X3X3X3X3X3X3X3X3X3X3X3X3X3X3X3X3X",
"3X3X3X3X3X3X3X3X3X3X3X3X3X3X3X3X3X3X3X' o.o.o.o.h.x.x.x.x.n.x.b.x.x.n.x.x.g.h.h.1.1.1.1.' 3X3X3X3X3X3X3X3X3X3X3X3X3X3X3X3X3X3X3X",
"3X3X3X3X3X3X3X3X3X3X3X3X3X3X3X3X3X3X3X3X3X3X3X3X3.o.<.<.<.<.<.<.<.<.<.3.<.6.4.3.3X3X3X3X3X3X3X3X3X3X3X3X3X3X3X3X3X3X3X3X3X3X3X3X",
"3X3X3X3X3X3X3X3X3X3X3X3X3X3X3X3X3X3X3X3X3X3X3X3XK 6.=.} { { { { { { { { } 4 4 J 3X3X3X3X3X3X3X3X3X3X3X3X3X3X3X3X3X3X3X3X3X3X3X3X",
"3X3X3X3X3X3X3X3X3X3X3X3X3X3X3X3X3X3X3X3X3X3X3X3Xi L Y.T.Y.T.T.T.Y.Y.Y.Y.T.O.b & 3X3X3X3X3X3X3X3X3X3X3X3X3X3X3X3X3X3X3X3X3X3X3X3X",
"3X3X3X3X3X3X3X3X3X3X3X3X3X3X3X3X3X3X3X3X3X3X3X3Xj v -.;.r.t.t.t.;.*.*.*.*.0.H.L v 3X3X3X3X3X3X3X3X3X3X3X3X3X3X3X3X3X3X3X3X3X3X3X",
"3X3X3X3X3X3X3X3X3X3X3X3X3X3X3X3X3X3X3X3X3X3X3Xf I E M h V Z Z m h N n n n z *.z.N 3X3X3X3X3X3X3X3X3X3X3X3X3X3X3X3X3X3X3X3X3X3X3X",
"3X3X3X3X3X3X3X3X3X3X3X3X3X3X3X3X3X3X3X3X3X3X3Xl Y E P A Y F G F l E @.E E B j W.+.v 3X3X3X3X3X3X3X3X3X3X3X3X3X3X3X3X3X3X3X3X3X3X",
"3X3X3X3X3X3X3X3X3X3X3X3X3X3X3X3X3X3X3X3X3X3Xf D Y n S Y @.F F A S T T W T B S -.l.v 3X3X3X3X3X3X3X3X3X3X3X3X3X3X3X3X3X3X3X3X3X3X",
"3X3X3X3X3X3X3X3X3X3X3X3X3X3X3X3X3X3X3X3X3X3Xg m %.r.G @.@.F B D Q R Y R R B m z W.P 3X3X3X3X3X3X3X3X3X3X3X3X3X3X3X3X3X3X3X3X3X3X",
"3X3X3X3X3X3X3X3X3X3X3X3X3X3X3X3X3X3X3X3X3X3X<  ./.1Xi.Y ! M ^ ( ( ( ( ) ^ K K J X.> 3X3X3X3X3X3X3X3X3X3X3X3X3X3X3X3X3X3X3X3X3X3X",
"3X3X3X3X3X3X3X3X3X3X3X3X3X3X3X3X3X3X3X3X3X3Xw Z.1X,X,Xt.F J y y y y y y 9 9 9 9 +   3X3X3X3X3X3X3X3X3X3X3X3X3X3X3X3X3X3X3X3X3X3X",
"3X3X3X3X3X3X3X3X3X3X3X3X3X3X3X3X3X3X3X3X3X3Xo./.<X<X$X[.# o O O O O O O . . X o o   3X3X3X3X3X3X3X3X3X3X3X3X3X3X3X3X3X3X3X3X3X3X",
"3X3X3X3X3X3X3X3X3X3X3X3X3X3X3X3X3X3X3X3X3X3X3XS.OX$X/.v.w 5 , , , , , , , = = @ @   3X3X3X3X3X3X3X3X3X3X3X3X3X3X3X3X3X3X3X3X3X3X",
"3X3X3X3X3X3X3X3X3X3X3X3X3X3X3X3X3X3X3X3X3X3X3X/ N.S.S.n.H.u.#.Q #.#.#.Q Y G F k g 3X3X3X3X3X3X3X3X3X3X3X3X3X3X3X3X3X3X3X3X3X3X3X",
"3X3X3X3X3X3X3X3X3X3X3X3X3X3X3X3X3X3X3X3X3X3X3Xf / / / &.&.@.I I I I ! D B z j f s 3X3X3X3X3X3X3X3X3X3X3X3X3X3X3X3X3X3X3X3X3X3X3X",
"3X3X3X3X3X3X3X3X3X3X3X3X3X3X3X3X3X3X3X3X3X3X3Xd - - i h h h j j j j j j j , - d f 3X3X3X3X3X3X3X3X3X3X3X3X3X3X3X3X3X3X3X3X3X3X3X",
"3X3X3X3X3X3X3X3X3X3X3X3X3X3X3X3X3X3X3X3X3X3X3X& % % % 1 4 s 3X3X3X3X3Xs - * * * 3X3X3X3X3X3X3X3X3X3X3X3X3X3X3X3X3X3X3X3X3X3X3X3X",
"3X3X3X3X3X3X3X3X3X3X3X3X3X3X3X3X3X3X3X3X3X3X6 ~ | | o.2.q 3X3X3X3X3X3X3X= ; ; ; % !.7.6 3X3X3X3X3X3X3X3X3X3X3X3X3X3X3X3X3X3X3X3X",
"3X3X3X3X3X3X3X3X3X3X3X3X3X3X3X3X3X3X3X3X3X3Xq b./././.D.q 3X3X3X3X3X3X3XH & % $ | /.7.6 3X3X3X3X3X3X3X3X3X3X3X3X3X3X3X3X3X3X3X3X",
"3X3X3X3X3X3X3X3X3X3X3X3X3X3X3X3X3X3X3X3X3X3X6 ` ` ` ` ` 7 3X3X3X3X3X3X3Xb.| | O.XXS.g.7 3X3X3X3X3X3X3X3X3X3X3X3X3X3X3X3X3X3X3X3X",
"3X3X3X3X3X3X3X3X3X3X3X3X3X3X3X3X3X3X3X3X3X3X3X3X3X3X3X3X3X3X3X3X3X3X3X3Xg.!././.C.' ' 3X3X3X3X3X3X3X3X3X3X3X3X3X3X3X3X3X3X3X3X3X",
"3X3X3X3X3X3X3X3X3X3X3X3X3X3X3X3X3X3X3X3X3X3X3X3X3X3X3X3X3X3X3X3X3X3X3X3X' ` ` ` ' 3X3X3X3X3X3X3X3X3X3X3X3X3X3X3X3X3X3X3X3X3X3X3X",
"3X3X3X3X3X3X3X3X3X3X3X3X3X3X3X3X3X3X3X3X3X3X3X3X3X3X3X3X3X3X3X3X3X3X3X3X3X3X3X3X3X3X3X3X3X3X3X3X3X3X3X3X3X3X3X3X3X3X3X3X3X3X3X3X",
"3X3X3X3X3X3X3X3X3X3X3X3X3X3X3X3X3X3X3X3X3X3X3X3X3X3X3X3X3X3X3X3X3X3X3X3X3X3X3X3X3X3X3X3X3X3X3X3X3X3X3X3X3X3X3X3X3X3X3X3X3X3X3X3X",
"3X3X3X3X3X3X3X3X3X3X3X3X3X3X3X3X3X3X3X3X3X3X3X3X3X3X3X3X3X3X3X3X3X3X3X3X3X3X3X3X3X3X3X3X3X3X3X3X3X3X3X3X3X3X3X3X3X3X3X3X3X3X3X3X"
};
