/* XPM */
static char *_2bf16d6eb8c436aba5e54b46d198cfdyNicevPlFDghyyYi[] = {
/* columns rows colors chars-per-pixel */
"64 64 208 2 ",
"   c None",
".  c #0B0F11",
"X  c #091313",
"o  c #121C1D",
"O  c gray5",
"+  c #313231",
"@  c #47140C",
"#  c #470D05",
"$  c #640B01",
"%  c #6E1A0C",
"&  c #67160A",
"*  c #7B1C0D",
"=  c #6E1C10",
"-  c #6F2216",
";  c #732518",
":  c #542A27",
">  c #5A322C",
",  c #753729",
"<  c #692E25",
"1  c #754C3A",
"2  c #513E4A",
"3  c #3C4544",
"4  c #5C4655",
"5  c #775448",
"6  c #6C6157",
"7  c #5C5063",
"8  c #685664",
"9  c #5A6363",
"0  c #576161",
"q  c #766C7A",
"w  c #861C0C",
"e  c #AA1A05",
"r  c #AB1A06",
"t  c #94200F",
"y  c #842718",
"u  c #962818",
"i  c #B4210D",
"p  c #B32D19",
"a  c #BA2A16",
"s  c #BC311E",
"d  c #A22512",
"f  c #893E31",
"g  c #A53524",
"h  c #B83522",
"j  c #C82F19",
"k  c #D72E18",
"l  c #CA321C",
"z  c #D3331E",
"x  c #C7230D",
"c  c #E62F16",
"v  c #E6331B",
"b  c #C83A26",
"n  c #D33521",
"m  c #DC3C25",
"M  c #EB3D26",
"N  c #EA3A24",
"B  c #89493C",
"V  c #91473A",
"C  c #D44733",
"Z  c #E4442E",
"A  c #E14630",
"S  c #ED4B34",
"D  c #E64F37",
"F  c #F54D33",
"G  c #EB533B",
"H  c #E75038",
"J  c #F1553D",
"K  c #FF593F",
"L  c #8B5E49",
"P  c #875D49",
"I  c #9A5A4A",
"U  c #995544",
"Y  c #9C4F42",
"T  c #A95A47",
"R  c #AA5D51",
"E  c #B55140",
"W  c #8A624F",
"Q  c #95674E",
"!  c #976654",
"~  c #98705D",
"^  c #BE6C58",
"/  c #AD765E",
"(  c #A3765F",
")  c #AF634D",
"_  c #9A7A74",
"`  c #A67A64",
"'  c #A67965",
"]  c #B67968",
"[  c #E85D47",
"{  c #FE5C42",
"}  c #C16D5A",
"|  c #D66751",
" . c #E66655",
".. c #CD7A6D",
"X. c #C67365",
"o. c #D47A6D",
"O. c #D37D71",
"+. c #E97C7A",
"@. c #E66F6D",
"#. c #A3836C",
"$. c #A98168",
"%. c #B3846A",
"&. c #B4896E",
"*. c #A78873",
"=. c #AA8A74",
"-. c #B38D74",
";. c #B98F71",
":. c #BA857C",
">. c #BC967B",
",. c #B99277",
"<. c #DB8C79",
"1. c #C98E79",
"2. c #EA8679",
"3. c #EF8E77",
"4. c #6B678D",
"5. c #8A7C9F",
"6. c #BC8880",
"7. c #AA968D",
"8. c #AB988F",
"9. c #AF9C94",
"0. c #AA948D",
"q. c #BCA79D",
"w. c #B9A49B",
"e. c #858ABA",
"r. c #D58E84",
"t. c #C29D83",
"y. c #CD9E82",
"u. c #C99B8E",
"i. c #CD9385",
"p. c #EB8D8A",
"a. c #EC9889",
"s. c #F79B92",
"d. c #CDA385",
"f. c #CAA48A",
"g. c #CBAB8C",
"h. c #C6A587",
"j. c #D1A589",
"k. c #D6AA8C",
"l. c #DAAD8D",
"z. c #D2A486",
"x. c #DCAE90",
"c. c #CDB393",
"v. c #CAB599",
"b. c #DDB295",
"n. c #D5B89A",
"m. c #CFAA90",
"M. c #E7AB8F",
"N. c #EFA695",
"B. c #F9A999",
"V. c #E1B596",
"C. c #E2B996",
"Z. c #E2B699",
"A. c #E6BA9A",
"S. c #EABD9E",
"D. c #EFB296",
"F. c #F4B69A",
"G. c #C1ADA3",
"H. c #C5B3A9",
"J. c #C1B0A4",
"K. c #D8BFAA",
"L. c #FCAEA1",
"P. c #F2BFA3",
"I. c #FFB0A3",
"U. c #F3BDA9",
"Y. c #E8C09E",
"T. c #DDCBAF",
"R. c #E4C4A2",
"E. c #E5CAAB",
"W. c #E9CBAA",
"Q. c #EEC2A3",
"!. c #F2C4A6",
"~. c #F4CAA7",
"^. c #F4C7A8",
"/. c #F5CBA9",
"(. c #F8C9A7",
"). c #F6D2AC",
"_. c #F8D6AD",
"`. c #F5D1A7",
"'. c #EBD5B4",
"]. c #F6D5B1",
"[. c #F9D5B2",
"{. c #F8DDB5",
"}. c #F8DFB8",
"|. c #F7DEB7",
" X c #F2C1BA",
".X c #F8E0B7",
"XX c #FAE4BD",
"oX c #F9E2B9",
"OX c #F3E1BF",
"+X c #B6B4C3",
"@X c #B0B8EA",
"#X c #FAE6C0",
"$X c #FAE6C0",
"%X c #FBEBC5",
"&X c #FBECC9",
"*X c #FCEDCA",
"=X c #FCEDCA",
"-X c #F6E4C1",
";X c #FDF4CC",
":X c #FBF0D6",
">X c #FBF1D5",
",X c #FEFED5",
"<X c #FEFAD2",
"1X c #FDFBDB",
"2X c #EBEBEB",
"3X c #E5EBEB",
"4X c #FBF4E3",
"5X c #F1F3F3",
/* pixels */
"                                                                                                                                ",
"                                                                                                                                ",
"                                                                                                                                ",
"                                                                                                                                ",
"                                                                                                                                ",
"                                                              g.                                                                ",
"                                                      h.h.;.XX1X1Xg.&.&.c.                                                      ",
"                                                    ;X<XXXW.).W.{.{.S.A.].&Xc.                                                  ",
"                                                ` -X1X,XoX{.b.y.b.!.^.^.y.x.'.].#.                                              ",
"                                                n.;X,X;X{.C.C.C.C.Z.!.Z.Z.b.x.A.m.G.                                            ",
"                                            $.h.oX,X<XXXA.A.XXXX{.Z.Z.V.~././.V.A.1.;.J.                                        ",
"                                        z.f.c.XX%X;X#X).j.oX<X<X#X^.j.].oX|.)./.j./.k.;.;.                                      ",
"                                    k.[.[.c.oX#X<X%X[.V.A.%X,X,X=XA.R.%X<X;XoX).A.Z.Z.x.A.;.;.                                  ",
"                                  [.{.|..XXX|.#X{.A.b.A.oX*X;X;XoXj.oX;X,X,X%X).!.j.~.Z.!.S.l.,.                                ",
"                                [.oX#X#X#XXX#XXX_.A.R.|.#XXX{.).Z.R.|.%X;X;XoX).~.A.`./.!.!.A.l.,.                              ",
"                              ^.oX#X*X*X*X*X*X*X#XoXoXoXoX|.)./.R.oX.X.XoX#X|.).)._.).).~.!.!.A.l.,.                            ",
"                            !.].|.*X*X%X%X%X&X&X*X#XXX|.|.oXoXoXXXoXoXoXoXXX|.).).).).).).~.!.^.A.l.#.                          ",
"                          b.!.oX#X&X:X:X:X:X*X&X&X*X*X#X|.oX}.|.|.XXoXoXoX|.|._.).).).).).).~.!.!.k.-.                          ",
"                          !.].}.*X:X4X4X4X4X:X*X&X&X&X*X#X|.|.oXoXoXoXoX.XoX|.{.{._._._._._.).!.!.A.d.#.                        ",
"                        b.!.oXoX&X4X4X4X4X4X4X:X*X%X&X&X*X#X#X|.|.}.oX|.}.}.|.|.|.{.{.{.{.{._./.!.^.l.,.                        ",
"                        !.].|.|.&X4X4X4X4X4X4X4X:X:X*X%X&X*X*X#X#X|.|.oXoXoXoXoX|.|.|.|.|.{.{._.!.!.l.>.#.                      ",
"                      t.Q.oXoX#X&X4X4X4X4X4X4X4X4X4X:X:X*X%X&X*X*X#X#XoXXXXXXXXXoX|.oX|.|.|.{._.!.!.l.t.=.                      ",
"                      d.!.|.oX*X*X4X4X4X4X4X4X4X4X4X4X4X:X:X*X&X&X*X*X#X%X#X#X#XXXoX|..X|.|.{.{.^.!.l.k.-.                      ",
"                      l.!.|.oX%X&X4X4X4X4X4X4X4X4X4X4X4X4X4X:X*X*X&X&X*X*X%X%X%X#XXXoX|.|.|.|.{.^.!.l.k.>.#.                    ",
"                      k.!.|.oX*X*X:X4X4X4X4X4X4X4X4X4X4X4X4X4X:X&X*X&X&X&X*X%X%X%X#XoX.X|.|.|.{.^.!.l.k.>.=.                    ",
"                      k.!.|.oX#X&X*X4X4X4X4X4X4X4X4X4X4X4X4X4X4X&X*X&X*X*X&X&X%X%X#XXXoX|.|.|.{.^.!.l.k.>.*.                    ",
"                      k.!.oX.X|.*X&X:X4X4X4X4X4X4X4X4X4X4X4X4X4X&X*X&X*X*X*X*X&X&X%XXXoX.XoX.X).!.!.l.k.>.*.                    ",
"                      k.!.).|.oX#X*X*X:X:X:X4X4X4X4X4X4X4X4X4X:X&X*X*X*X*X*X&X&X*X*XoXoX].(.(.F.^.!.l.k.>.=.                    ",
"                      l.^.!.|.oX|.#X*X*X%X*X:X:X:X:X:X:X:X:X:X*X*X&X*X*X*X&X&X&X*X#X|.[.D.U V B D.!.l.l.>.#.                    ",
"                      d.Z.^.oXoX|.|.#X*X*X&X%X%X%X%X%X%X%X%X*X&X&X&X&X&X&X&X*X*X#X|.|.M.I 2 7 0.! P.x.d.-.H.                    ",
"                      t.j.!.).oX|.|.|.#X#X*X*X*X*X&X&X&X&X&X&X&X&X*X*X*X*X*X#X#X|.oXoX<.: e.8 +X> l.l.,.*.                      ",
"                        l.^.!.).oX|.|.|.|.#X#X#X#X*X*X*X*X*X*X*X*X#X#X#X#XXX|.|.oXoX).<.: @X5.4.: y.x.>.#.                      ",
"                        >.Z.^.!.).oXoXoXoXoX.X.X|.#X#X#X#X#X#X#X#X|.|.|.oXoXoXoX).).!.M.! q 4.4 ! j.d.=.H.                      ",
"                        ~ k.A.^.!.).).).).).).].oXoX.X.XoXoXoXoXoXoXoXoX].).).).^.N.N.B.a.U Q Q b.x.>.~                         ",
"                          &.l.A.^.!.!.!.!.!.!.!.).).).).).).).).).).)./.P.P.P.P.a.2.p.p.p.s.B.Z.l.d.$.G.                        ",
"                            &.l.A.!.^.!.!.!.!.!.!.!.!.!.!.!.!.!.!.!.!.!.!.!.!.!.a.@.+.+.+.+.<.k.d.` G.                          ",
"                              &.l.S.A.!.^.!.!.!.!.!.!.!.!.!.!.!.!.!.!.!.!.!.!.!.^.N.a.2.2.<.j.d.` G.                            ",
"                                %.%.d.S.A.^.^.^.^.^.^.^.^.^.^.^.!.!.!.!.!.!.^.!.A.Y.Y.b.b.j.` ` G.                              ",
"                                  q.` %.d.b.b.b.A.A.A.A.A.A.A.A.A.A.A.A.A.A.A.A.j.d.d.j.%.` q.H.                                ",
"                                      q.` ( ( ` y.z.d.d.d.d.d.d.d.d.d.d.d.d.y.y.` ` ` ` q.H.                                    ",
"                                        H.G.G.G.-.` #.#.#.#.#.#.#.#.#.#.#.-.-.-.G.G.G.H.5X                                      ",
"                                              2XI u.X.^ } } } } } } } } ^ , , B 2X                                              ",
"                                              2Xu X.L.I.L.L.L.L.L.L.L.L.L.] g % 3X                                              ",
"                                              i.p p X.O...2.2.2.O.........<.L.E r.                                              ",
"                                              t m J l r x c c c i j l l j a o.s.s 2X                                            ",
"                                            1.h H G C n S M M M s G J J J n p  X| r.                                            ",
"                                            t z S l l S [ M N l b D H H D n b o.a.s                                             ",
"                                            g k | <.N [ [ M k m F F F F F v k a U.C                                             ",
"                                            < ) T.1X3.Z S z V R R R R R Y V f B _ <                                             ",
"                                            6 v.>X>X1X2.m B 9 9 9 9 9 0 3 3 3 3 + .                                             ",
"                                            ' W.>X<XOXE.@ o o o o o o o . . . X . O                                             ",
"                                              n.OX-XW.g.5 , - - - - - - ; & & # @ q                                             ",
"                                              ) c.n.n.z.B.3.{ K K K K K F M N d g                                               ",
"                                              u T T T  . .[ A A A A A A z p p t w                                               ",
"                                              y * w w i i e e e e e e e p * * y :.                                              ",
"                                              & $ $ $ ; f :.6.:.:.:.6.:.y % & ;     K.                                          ",
"                                            1 U / / ` =.5               = % = - ' R.;.1                                         ",
"                                            W f.E.E.E.n.P               I $ $ $ I E.>.P                                         ",
"                                            1 L L L L P 1               h./ / ] '.K.t.1                                         ",
"                                              7.8.7.8.7.w.              f.R.E.E.n.Q Q 9.                                        ",
"                                                                        ! L L L W 7.9.                                          ",
"                                                                        9.7.8.7.9.                                              ",
"                                                                                                                                ",
"                                                                                                                                "
};
