/* XPM */
static char *result[] = {
/* columns rows colors chars-per-pixel */
"64 64 199 2 ",
"   c #020201",
".  c #080A0A",
"X  c #070F10",
"o  c #071011",
"O  c #0C1212",
"+  c #141B1A",
"@  c #1B201F",
"#  c #343533",
"$  c #450E06",
"%  c #5F0A00",
"&  c #421713",
"*  c #640F03",
"=  c #65150A",
"-  c #771709",
";  c #631F15",
":  c #6E2217",
">  c #71271B",
",  c #763828",
"<  c #6A2E24",
"1  c #754E3C",
"2  c #73453D",
"3  c #78503E",
"4  c #3B4443",
"5  c #374140",
"6  c #5B5958",
"7  c #7A5542",
"8  c #5D605F",
"9  c #566262",
"0  c #831D0D",
"q  c #8D1D0C",
"w  c #A81C0B",
"e  c #8C2312",
"r  c #932313",
"t  c #9E2513",
"y  c #AE210D",
"u  c #A72916",
"i  c #B32916",
"p  c #B22C19",
"a  c #B82A16",
"s  c #BA321F",
"d  c #8E3F34",
"f  c #823423",
"g  c #BA3623",
"h  c #B93825",
"j  c #B43622",
"k  c #A23B2B",
"l  c #C52C15",
"z  c #C7331D",
"x  c #DB341D",
"c  c #D02812",
"v  c #E42E16",
"b  c #E7321B",
"n  c #C83521",
"m  c #D13521",
"M  c #E53B25",
"N  c #E93E27",
"B  c #874639",
"V  c #934434",
"C  c #8E513F",
"Z  c #AC493A",
"A  c #DD442E",
"S  c #D2402B",
"D  c #C64D3B",
"F  c #E44E36",
"G  c #EC4C34",
"H  c #E74E38",
"J  c #F34E34",
"K  c #ED543C",
"L  c #E5523B",
"P  c #FA573D",
"I  c #E74029",
"U  c #894E40",
"Y  c #9B4F42",
"T  c #9C5346",
"R  c #A55D54",
"E  c #A8594D",
"W  c #916955",
"Q  c #986A58",
"!  c #98725F",
"~  c #97705E",
"^  c #8E6551",
"/  c #B2614C",
"(  c #BE6D5A",
")  c #BA6A57",
"_  c #AC755D",
"`  c #AB725A",
"'  c #8E776F",
"]  c #9D7B67",
"[  c #9A7C76",
"{  c #A37F69",
"}  c #A87D69",
"|  c #AD7968",
" . c #B97B65",
".. c #D75B48",
"X. c #EA5C45",
"o. c #E55942",
"O. c #F95C42",
"+. c #DC604E",
"@. c #CC6A53",
"#. c #C0715E",
"$. c #FF6147",
"%. c #CD7A6E",
"&. c #CB7569",
"*. c #D17A6D",
"=. c #CE7C70",
"-. c #E67B79",
";. c #E87D7B",
":. c #E4706D",
">. c #A3836C",
",. c #AA826C",
"<. c #AE8772",
"1. c #AF8B75",
"2. c #B38C74",
"3. c #B88E76",
"4. c #B28979",
"5. c #B79279",
"6. c #BC967B",
"7. c #BF987D",
"8. c #DD8D7D",
"9. c #C19A7F",
"0. c #E78568",
"q. c #E98579",
"w. c #F38E7E",
"e. c #BE9D83",
"r. c #B79C81",
"t. c #BEA58B",
"y. c #C59E84",
"u. c #CB9D82",
"i. c #E98D8A",
"p. c #ED9788",
"a. c #EC9C8C",
"s. c #EA9587",
"d. c #F29789",
"f. c #F59893",
"g. c #CDA285",
"h. c #CDA589",
"j. c #C9AB8D",
"k. c #C2A288",
"l. c #D1A689",
"z. c #D6AB8C",
"x. c #D9AD8E",
"c. c #D7AD91",
"v. c #DAAD90",
"b. c #CDB192",
"n. c #CCB99A",
"m. c #DCB294",
"M. c #D1B194",
"N. c #E5A98D",
"B. c #E2A68C",
"V. c #F2A68A",
"C. c #EDA695",
"Z. c #F5A998",
"A. c #E1B596",
"S. c #E1B996",
"D. c #E1B698",
"F. c #E5BA9A",
"G. c #EABE9E",
"H. c #D0BFA0",
"J. c #FBAEA2",
"K. c #F7ADA0",
"L. c #EABFA0",
"P. c #F0BFA3",
"I. c #FEB1A5",
"U. c #F6BBB2",
"Y. c #E7C09F",
"T. c #DAC0A1",
"R. c #E4C4A2",
"E. c #EEC2A3",
"W. c #E3C9A9",
"Q. c #E8CEAB",
"!. c #F1C5A6",
"~. c #F3CAA6",
"^. c #F3C7A8",
"/. c #F4CBAA",
"(. c #EAD1AE",
"). c #F5D2AC",
"_. c #F8D6AD",
"`. c #E4D7B5",
"'. c #F6D5B1",
"]. c #FBD4B1",
"[. c #F7DAB3",
"{. c #F8DEB6",
"}. c #F9DFB8",
"|. c #F5DCBB",
" X c #F1C1BA",
".X c #F9E0B7",
"XX c #F9E2BA",
"oX c #FCE8BF",
"OX c #F7E5C1",
"+X c #FAE6C1",
"@X c #FAEBC5",
"#X c #FBEDCA",
"$X c #F6E4CB",
"%X c #FCF4CB",
"&X c #FBF0D6",
"*X c #FEFBD3",
"=X c #FDFCDB",
"-X c #FBF4E3",
";X c None",
/* pixels */
";X;X;X;X;X;X;X;X;X;X;X;X;X;X;X;X;X;X;X;X;X;X;X;X;X;X;X;X;X;X;X;X;X;X;X;X;X;X;X;X;X;X;X;X;X;X;X;X;X;X;X;X;X;X;X;X;X;X;X;X;X;X;X;X",
";X;X;X;X;X;X;X;X;X;X;X;X;X;X;X;X;X;X;X;X;X;X;X;X;X;X;X;X;X;X;X;X;X;X;X;X;X;X;X;X;X;X;X;X;X;X;X;X;X;X;X;X;X;X;X;X;X;X;X;X;X;X;X;X",
";X;X;X;X;X;X;X;X;X;X;X;X;X;X;X;X;X;X;X;X;X;X;X;X;X;X;X;X;X;X;X;X;X;X;X;X;X;X;X;X;X;X;X;X;X;X;X;X;X;X;X;X;X;X;X;X;X;X;X;X;X;X;X;X",
";X;X;X;X;X;X;X;X;X;X;X;X;X;X;X;X;X;X;X;X;X;X;X;X;X;X;X;X;X;X;X;X;X;X;X;X;X;X;X;X;X;X;X;X;X;X;X;X;X;X;X;X;X;X;X;X;X;X;X;X;X;X;X;X",
";X;X;X;X;X;X;X;X;X;X;X;X;X;X;X;X;X;X;X;X;X;X;X;X;X;X;X;X;X;X;X;X;X;X;X;X;X;X;X;X;X;X;X;X;X;X;X;X;X;X;X;X;X;X;X;X;X;X;X;X;X;X;X;X",
";X;X;X;X;X;X;X;X;X;X;X;X;X;X;X;X;X;X;X;X;X;X;X;X;X;X;X;X;X>.j.b.n.] ;X;X;X;X;X;X;X;X;X;X;X;X;X;X;X;X;X;X;X;X;X;X;X;X;X;X;X;X;X;X",
";X;X;X;X;X;X;X;X;X;X;X;X;X;X;X;X;X;X;X;X;X;X;X;X;X;Xj.j.j.6.oX=X=Xb.3.h.n.n.] ;X;X;X;X;X;X;X;X;X;X;X;X;X;X;X;X;X;X;X;X;X;X;X;X;X",
";X;X;X;X;X;X;X;X;X;X;X;X;X;X;X;X;X;X;X;X;X;X;X;X;Xb.%X*X+XE.Y.{.[.{.G.L.@X=Xn.k.;X;X;X;X;X;X;X;X;X;X;X;X;X;X;X;X;X;X;X;X;X;X;X;X",
";X;X;X;X;X;X;X;X;X;X;X;X;X;X;X;X;X;X;X;X;X;X;X;X>.OX=X@X[.D.g.m.!.P.^.g.x.R.*X/.>.;X;X;X;X;X;X;X;X;X;X;X;X;X;X;X;X;X;X;X;X;X;X;X",
";X;X;X;X;X;X;X;X;X;X;X;X;X;X;X;X;X;X;X;X;X;X;X;Xb.%X%X[.A.A.F.m.D.!.D.D.A.m.F.E.h.;X;X;X;X;X;X;X;X;X;X;X;X;X;X;X;X;X;X;X;X;X;X;X",
";X;X;X;X;X;X;X;X;X;X;X;X;X;X;X;X;X;X;X;Xe.m.<.j.%X*XoXF.F.XXXX[.D.D.m.^.~.).A.F.!.6.5.] ;X;X;X;X;X;X;X;X;X;X;X;X;X;X;X;X;X;X;X;X",
";X;X;X;X;X;X;X;X;X;X;X;X;X;X;X;X;X;X6.c.c.y.b.%X*XOX'.l.XX*X*X@X/.h.].XX{.).~.l.E.G.l.7.5.>.;X;X;X;X;X;X;X;X;X;X;X;X;X;X;X;X;X;X",
";X;X;X;X;X;X;X;X;X;X;X;X;X;X;X;X;Xz.c.'.'.b.@X*X+X'.m.F.@X*X*X%XF.R.@X*X%XXX~.S.F.!.A.x.F.7.6.;X;X;X;X;X;X;X;X;X;X;X;X;X;X;X;X;X",
";X;X;X;X;X;X;X;X;X;X;X;X;X;X;X;Xc.].].}..XoXXX[.F.m.F..X#X%X%X.Xh.XX%X*X*X@X).E.h.!.~.S.!.G.z.7.;X;X;X;X;X;X;X;X;X;X;X;X;X;X;X;X",
";X;X;X;X;X;X;X;X;X;X;X;X;X;X;Xc.'.OXOX@X+XXXoX).T.Y..XoXoX[.).S.R.}.@X%X%XXX).~.Y.~.~.~.!.!.F.x.7.;X;X;X;X;X;X;X;X;X;X;X;X;X;X;X",
";X;X;X;X;X;X;X;X;X;X;X;X;X;Xc.'.@X#X#X%X#X#X#XoXoXXXoX.X{._./.Y..X.X.XoXoX.X).)._.).).~.!.!.~.D.z.7.;X;X;X;X;X;X;X;X;X;X;X;X;X;X",
";X;X;X;X;X;X;X;X;X;X;X;X;X7.!..X#X#X#X#X@X#X#X#XOXXX}.}.}.XX.XoX.XXXXXXX.X.X).).~.~.~.)./.!.!.^.F.x.,.;X;X;X;X;X;X;X;X;X;X;X;X;X",
";X;X;X;X;X;X;X;X;X;X;X;X;Xc.).+X#X&X&X&X&X#X#X@X#X#X+X}.}.}.{.}.oXXXXX.X.X{._.)._._._.).)./.!.!.~.l.2.;X;X;X;X;X;X;X;X;X;X;X;X;X",
";X;X;X;X;X;X;X;X;X;X;X;X7.!.XX#X&X-X-X-X-X&X#X#X#X#X#X+X}.}.}.}.XX|..X.X.X.X{.[._._._._.).).!.!.!.F.g.{ ;X;X;X;X;X;X;X;X;X;X;X;X",
";X;X;X;X;X;X;X;X;X;X;X;Xc./..X#X-X-X-X-X-X-X&X#X#X#X#X#X+X+X}.}..X.X{..X{..X{.|..X_.[.[._._./.!.!.!.x.1.;X;X;X;X;X;X;X;X;X;X;X;X",
";X;X;X;X;X;X;X;X;X;X;Xy.!.[..X#X-X-X-X-X-X-X-X&X&X#X#X@X#X#XOXOX|..X.X.X.X.X}..X.X.X{._.[.[._.!.^.E.z.7.>.;X;X;X;X;X;X;X;X;X;X;X",
";X;X;X;X;X;X;X;X;X;X;X7.E.[.OX#X-X-X-X-X-X-X-X-X-X&X&X#X#X#X#X#XOX+XXXXXoXoXXX.X.X.X.X.X[.[._.~.^.!.z.g.>.;X;X;X;X;X;X;X;X;X;X;X",
";X;X;X;X;X;X;X;X;X;X;Xg.!..X#X#X-X-X-X-X-X-X-X-X-X-X-X&X&X#X#X#X#X#X@X@X+X@XOXXX.X.X.X.X{.[.{.!.!.!.v.z.2.;X;X;X;X;X;X;X;X;X;X;X",
";X;X;X;X;X;X;X;X;X;X7.x.!.}.#X#X-X-X-X-X-X-X-X-X-X-X-X-X-X&X#X#X#X#X#X#X@X@X@XoXoXXX.X.X{.{.[.!.^.E.v.z.7.>.;X;X;X;X;X;X;X;X;X;X",
";X;X;X;X;X;X;X;X;X;X9.z.!..X#X#X#X-X-X-X-X-X-X-X-X-X-X-X-X-X&X#X#X#X#X#X#X@X@X@X+X.X.X}.}.}.[.!.!.!.x.z.7.>.;X;X;X;X;X;X;X;X;X;X",
";X;X;X;X;X;X;X;X;X;X9.z.!..X+X#X#X-X-X-X-X-X-X-X-X-X-X-X-X-X-X#X#X#X#X#X#X#X@X$X+XoXXX.X{.}.{.!.!.!.x.z.7.>.;X;X;X;X;X;X;X;X;X;X",
";X;X;X;X;X;X;X;X;X;X7.z.!.{..X#X#X&X-X-X-X-X-X-X-X-X-X-X-X-X-X#X#X#X#X#X#X#X#X#X#XXX.X.X}.}.).!.!.!.x.z.7.>.;X;X;X;X;X;X;X;X;X;X",
";X;X;X;X;X;X;X;X;X;X9.z.!..X.X+X#X#X&X&X&X-X-X-X-X-X-X-X-X-X&X#X#X#X#X#X#X#X#X#X#X.X.X}.}..X!.!.!.!.z.z.6.>.;X;X;X;X;X;X;X;X;X;X",
";X;X;X;X;X;X;X;X;X;X7.x.^.'.}.{.OX#X#X#X#X&X&X&X&X&X&X&X&X&X#X#X#X#X#X#X@X#X#X#XoX}.}.}..X).~.!.!.!.x.x.7.>.;X;X;X;X;X;X;X;X;X;X",
";X;X;X;X;X;X;X;X;X;X;Xg.D.!.}.}.{.OX#X%X#X@X#X#X#X#X@X#X#X#X#X#X#X#X#X#X#X#X#XOX}.}.}.{./.!.!.!.!.^.v.9.2.;X;X;X;X;X;X;X;X;X;X;X",
";X;X;X;X;X;X;X;X;X;X;X6.z.!._.}.}.}.OXOX#X#X#X#X#X#X#X#X#X#X#X#X#X#X#X#X#X+X+X}.}.}.'.XX].E.].].!.F.x.6.>.;X;X;X;X;X;X;X;X;X;X;X",
";X;X;X;X;X;X;X;X;X;X;X7.v.^.!.'..X}.{.{.OXoXOX+X#X#X#X#X#X#X#X#X+X+X+XXXoX}.}..X}.).N.Q } $X| ! Y.z.x.9.>.;X;X;X;X;X;X;X;X;X;X;X",
";X;X;X;X;X;X;X;X;X;X;X;X6.A.^.!.'..XoX.X.X.X.X}.+X+XOXOX+X+X+X+X}.{.}..XXX}..X'.'.!.N.U & ' & C m.z.9.<.;X;X;X;X;X;X;X;X;X;X;X;X",
";X;X;X;X;X;X;X;X;X;X;X;X~ x.F.!.!.).)./.'.'.'..XXX}.}.|..X.X}.}..XXX|.'.'.'./.!.C.C.Z.a.Q U R N.z.z.9.! ;X;X;X;X;X;X;X;X;X;X;X;X",
";X;X;X;X;X;X;X;X;X;X;X;X;X3.x.F.!.!.!.!.!.!.!./.).'.).'.).).).).'.).).P.P.P.P.p.;.i.i.i.f.i.B.z.x.g.,.;X;X;X;X;X;X;X;X;X;X;X;X;X",
";X;X;X;X;X;X;X;X;X;X;X;X;X;X3.x.F.!.^.!.!.!.^.!.!.!.!.!.P.P.P.P.E.E.P.!.!.!.!.p.:.-.;.q.-.i.z.z.h.<.;X;X;X;X;X;X;X;X;X;X;X;X;X;X",
";X;X;X;X;X;X;X;X;X;X;X;X;X;X;X3.v.G.G.!.^.!.!.^.!.!.!.!.!.!.!.!.!.!.!.!.!.!.!.!.V.a.a.8.8.x.l.g.,.;X;X;X;X;X;X;X;X;X;X;X;X;X;X;X",
";X;X;X;X;X;X;X;X;X;X;X;X;X;X;X;X2.2.u.G.F.^./.^.~.!.^.^.~.~.^.!.!.!.!.^.!.!.^.!.Y.G.L.c.m.g.,.,.;X;X;X;X;X;X;X;X;X;X;X;X;X;X;X;X",
";X;X;X;X;X;X;X;X;X;X;X;X;X;X;X;X;X;X,.2.g.m.m.m.D.G.G.D.G.D.F.G.F.F.F.F.F.F.L.D.g.g.g.g.3.,.! ;X;X;X;X;X;X;X;X;X;X;X;X;X;X;X;X;X",
";X;X;X;X;X;X;X;X;X;X;X;X;X;X;X;X;X;X;X;X,.,.,. .9.g.g.g.g.g.g.g.g.g.g.h.g.u.u.u.,.,.,.>.~ ;X;X;X;X;X;X;X;X;X;X;X;X;X;X;X;X;X;X;X",
";X;X;X;X;X;X;X;X;X;X;X;X;X;X;X;X;X;X;X;X;X;X;X;X<.>.>.>.>.>.>.>.,.>.>.>.>.4.4.2.;X;X;X;X;X;X;X;X;X;X;X;X;X;X;X;X;X;X;X;X;X;X;X;X",
";X;X;X;X;X;X;X;X;X;X;X;X;X;X;X;X;X;X;X;X;X;X;X;XV <.#.( ( ( #.#.( ( ( ( ( , , B ;X;X;X;X;X;X;X;X;X;X;X;X;X;X;X;X;X;X;X;X;X;X;X;X",
";X;X;X;X;X;X;X;X;X;X;X;X;X;X;X;X;X;X;X;X;X;X;X;Xq Z Z.I.J.J.J.Z.J.J.J.I.Z. .Z * ;X;X;X;X;X;X;X;X;X;X;X;X;X;X;X;X;X;X;X;X;X;X;X;X",
";X;X;X;X;X;X;X;X;X;X;X;X;X;X;X;X;X;X;X;X;X;X;X;Xp h *.&.=.=.q.q.=.=.%.%.&.8.Z.Z ;X;X;X;X;X;X;X;X;X;X;X;X;X;X;X;X;X;X;X;X;X;X;X;X",
";X;X;X;X;X;X;X;X;X;X;X;X;X;X;X;X;X;X;X;X;X;X;Xr A K z D w l v v l y l z l a *.f.s ;X;X;X;X;X;X;X;X;X;X;X;X;X;X;X;X;X;X;X;X;X;X;X",
";X;X;X;X;X;X;X;X;X;X;X;X;X;X;X;X;X;X;X;X;X;X;Xa F F X.d.g G H I N s K K K x p U...;X;X;X;X;X;X;X;X;X;X;X;X;X;X;X;X;X;X;X;X;X;X;X",
";X;X;X;X;X;X;X;X;X;X;X;X;X;X;X;X;X;X;X;X;X;Xr m L F L q.g o.X.M M a F L F m g &.a.g ;X;X;X;X;X;X;X;X;X;X;X;X;X;X;X;X;X;X;X;X;X;X",
";X;X;X;X;X;X;X;X;X;X;X;X;X;X;X;X;X;X;X;X;X;Xt x J J P w.h L X.M M a G J G x x a U.S ;X;X;X;X;X;X;X;X;X;X;X;X;X;X;X;X;X;X;X;X;X;X",
";X;X;X;X;X;X;X;X;X;X;X;X;X;X;X;X;X;X;X;X;X;X< V Y Y T | j X.X.I M s E R Y V V B >.: ;X;X;X;X;X;X;X;X;X;X;X;X;X;X;X;X;X;X;X;X;X;X",
";X;X;X;X;X;X;X;X;X;X;X;X;X;X;X;X;X;X;X;X;X;X+ 5 5 5 4 6 p F L b v u 8 9 4 4 4 4 #   ;X;X;X;X;X;X;X;X;X;X;X;X;X;X;X;X;X;X;X;X;X;X",
";X;X;X;X;X;X;X;X;X;X;X;X;X;X;X;X;X;X;X;X;X;X  O o X X + / V.V.0.0./ @ + X X X O o   ;X;X;X;X;X;X;X;X;X;X;X;X;X;X;X;X;X;X;X;X;X;X",
";X;X;X;X;X;X;X;X;X;X;X;X;X;X;X;X;X;X;X;X;X;X. $ = : : 2 k.=X-X`.`.r.> : > = = $ $ . ;X;X;X;X;X;X;X;X;X;X;X;X;X;X;X;X;X;X;X;X;X;X",
";X;X;X;X;X;X;X;X;X;X;X;X;X;X;X;X;X;X;X;X;X;X;Xu n O.$.Z.k.|.OX(.Q.e.O.O.G N M u t ;X;X;X;X;X;X;X;X;X;X;X;X;X;X;X;X;X;X;X;X;X;X;X",
";X;X;X;X;X;X;X;X;X;X;X;X;X;X;X;X;X;X;X;X;X;X;Xe e j h +.@.y.t.t.y.@.F m m i u r e ;X;X;X;X;X;X;X;X;X;X;X;X;X;X;X;X;X;X;X;X;X;X;X",
";X;X;X;X;X;X;X;X;X;X;X;X;X;X;X;X;X;X;X;X;X;X;X;Xr ;Xe i i V V V V i w w w f e r ;X;X;X;X;X;X;X;X;X;X;X;X;X;X;X;X;X;X;X;X;X;X;X;X",
";X;X;X;X;X;X;X;X;X;X;X;X;X;X;X;X;X;X;X;X;X;X;X;X;X;X;X- - 0 0 0 0 -  .&.| 7 ;X;X;X;X;X;X;X;X;X;X;X;X;X;X;X;X;X;X;X;X;X;X;X;X;X;X",
";X;X;X;X;X;X;X;X;X;X;X;X;X;X;X;X;X;X;X;X;X;X;X;X;X;X;X, C * % % * Q 7.T.T.7 ;X;X;X;X;X;X;X;X;X;X;X;X;X;X;X;X;X;X;X;X;X;X;X;X;X;X",
";X;X;X;X;X;X;X;X;X;X;X;X;X;X;X;X;X;X;X;X;X;X;X;X;X;X;X7 7.| _ _ ,.Q.1 W W 3 ;X;X;X;X;X;X;X;X;X;X;X;X;X;X;X;X;X;X;X;X;X;X;X;X;X;X",
";X;X;X;X;X;X;X;X;X;X;X;X;X;X;X;X;X;X;X;X;X;X;X;X;X;X;X3 7.W.W.W.~.b.3 ;X;X;X;X;X;X;X;X;X;X;X;X;X;X;X;X;X;X;X;X;X;X;X;X;X;X;X;X;X",
";X;X;X;X;X;X;X;X;X;X;X;X;X;X;X;X;X;X;X;X;X;X;X;X;X;X;X3 ~ W W W W W 3 ;X;X;X;X;X;X;X;X;X;X;X;X;X;X;X;X;X;X;X;X;X;X;X;X;X;X;X;X;X",
";X;X;X;X;X;X;X;X;X;X;X;X;X;X;X;X;X;X;X;X;X;X;X;X;X;X;X;X;X;X;X;X;X;X;X;X;X;X;X;X;X;X;X;X;X;X;X;X;X;X;X;X;X;X;X;X;X;X;X;X;X;X;X;X",
";X;X;X;X;X;X;X;X;X;X;X;X;X;X;X;X;X;X;X;X;X;X;X;X;X;X;X;X;X;X;X;X;X;X;X;X;X;X;X;X;X;X;X;X;X;X;X;X;X;X;X;X;X;X;X;X;X;X;X;X;X;X;X;X",
";X;X;X;X;X;X;X;X;X;X;X;X;X;X;X;X;X;X;X;X;X;X;X;X;X;X;X;X;X;X;X;X;X;X;X;X;X;X;X;X;X;X;X;X;X;X;X;X;X;X;X;X;X;X;X;X;X;X;X;X;X;X;X;X",
";X;X;X;X;X;X;X;X;X;X;X;X;X;X;X;X;X;X;X;X;X;X;X;X;X;X;X;X;X;X;X;X;X;X;X;X;X;X;X;X;X;X;X;X;X;X;X;X;X;X;X;X;X;X;X;X;X;X;X;X;X;X;X;X"
};
