/* XPM */
static char *_46cde1089804214c9757413eba07ab7HP1f5kATS18jamK3[] = {
/* columns rows colors chars-per-pixel */
"64 64 249 2 ",
"   c #5A371B",
".  c #63361D",
"X  c #6C361E",
"o  c #623B1D",
"O  c #6C3B1E",
"+  c #77371D",
"@  c #743C1E",
"#  c #7B3D1D",
"$  c #5C3923",
"%  c #643B23",
"&  c #643926",
"*  c #6B3B22",
"=  c #733723",
"-  c #733C22",
";  c #7C3E22",
":  c #5B401B",
">  c #6D491B",
",  c #73441E",
"<  c #7C421E",
"1  c #7A4A1D",
"2  c #5F442C",
"3  c #6D4324",
"4  c #694527",
"5  c #6C452B",
"6  c #6C4B2B",
"7  c #744323",
"8  c #7D4223",
"9  c #794627",
"0  c #7D4B24",
"q  c #73442B",
"w  c #744A2D",
"e  c #7C4A2C",
"r  c #6E5229",
"t  c #7B5529",
"y  c #6A4933",
"u  c #774C33",
"i  c #6A5539",
"p  c #775736",
"a  c #7B653D",
"s  c #6F5041",
"d  c #765542",
"f  c #7D6844",
"g  c #746A4F",
"h  c #7A7446",
"j  c #7D754A",
"k  c #7D7B4C",
"l  c #803F1C",
"z  c #813E25",
"x  c #82431E",
"c  c #85491E",
"v  c #81521F",
"b  c #834523",
"n  c #884724",
"m  c #854A24",
"M  c #8B4B25",
"N  c #83452A",
"B  c #88472B",
"V  c #844B2A",
"C  c #8C4D2A",
"Z  c #914E27",
"A  c #835224",
"S  c #8C5325",
"D  c #8B5926",
"F  c #84512A",
"G  c #8C532B",
"H  c #855A2A",
"J  c #8C5B2C",
"K  c #925326",
"L  c #935827",
"P  c #93542A",
"I  c #9A5728",
"U  c #945A2B",
"Y  c #9C5C2B",
"T  c #874D31",
"R  c #875935",
"E  c #8C5B33",
"W  c #945C32",
"Q  c #975B34",
"!  c #A15C2B",
"~  c #886B2E",
"^  c #94632E",
"/  c #8A6638",
"(  c #8C6C3D",
")  c #936434",
"_  c #9A6533",
"`  c #996836",
"'  c #9C6A34",
"]  c #94653B",
"[  c #926C3D",
"{  c #9C6C3B",
"}  c #8A7136",
"|  c #957236",
" . c #9D743B",
".. c #9C793B",
"X. c #A26936",
"o. c #A26D3B",
"O. c #A3753D",
"+. c #A4793E",
"@. c #A9783E",
"#. c #8D6D42",
"$. c #836C49",
"%. c #926D44",
"&. c #9A6D42",
"*. c #8D7143",
"=. c #81744B",
"-. c #87784B",
";. c #937344",
":. c #9C7344",
">. c #957A46",
",. c #9D7943",
"<. c #947449",
"1. c #9A764B",
"2. c #94794A",
"3. c #9B7B4C",
"4. c #847B54",
"5. c #867B58",
"6. c #9A7B53",
"7. c #A47342",
"8. c #AA7044",
"9. c #A47B43",
"0. c #AC7C44",
"q. c #A27C4C",
"w. c #AB7A49",
"e. c #A37E53",
"r. c #7F834C",
"t. c #9C824A",
"y. c #8A8756",
"u. c #8C8951",
"i. c #9E8353",
"p. c #958B5C",
"a. c #95935C",
"s. c #AB8344",
"d. c #AC824C",
"f. c #A68849",
"g. c #B58647",
"h. c #B3844C",
"j. c #B48C4C",
"k. c #A6914A",
"l. c #B9944F",
"z. c #A38354",
"x. c #AC8657",
"c. c #A38B55",
"v. c #AC8C56",
"b. c #A58559",
"n. c #A68B5B",
"m. c #AB8C5B",
"M. c #B48352",
"N. c #B48B52",
"B. c #BA8C53",
"V. c #B68D5A",
"C. c #AA9457",
"Z. c #A5925A",
"A. c #AB9C5C",
"S. c #BB9353",
"D. c #BE9B54",
"F. c #B4955A",
"G. c #BB9B5A",
"H. c #ACA25D",
"J. c #B4A25E",
"K. c #969862",
"L. c #AB9763",
"P. c #B39464",
"I. c #B39B64",
"U. c #B59569",
"Y. c #B79968",
"T. c #BB9D6B",
"R. c #9DA166",
"E. c #AAA868",
"W. c #B7A665",
"Q. c #B4A46B",
"!. c #BCA36C",
"~. c #B3AB6C",
"^. c #BBAA6C",
"/. c #A8B066",
"(. c #ACB36B",
"). c #B2B56D",
"_. c #BAB56E",
"`. c #B2B96E",
"'. c #BBAA72",
"]. c #ABB372",
"[. c #B5B373",
"{. c #BBB473",
"}. c #B5BC73",
"|. c #BABC74",
" X c #BBB77A",
".X c #BCBC79",
"XX c #C08F53",
"oX c #C39857",
"OX c #C3955B",
"+X c #C49C5B",
"@X c #C99D5D",
"#X c #C6A25C",
"$X c #CBA35D",
"%X c #CBA95F",
"&X c #D1A75D",
"*X c #C59B65",
"=X c #C49C64",
"-X c #D09F66",
";X c #C5A362",
":X c #CBA363",
">X c #CDAC64",
",X c #C9A66B",
"<X c #C4AC6C",
"1X c #CBAC6B",
"2X c #D2AC64",
"3X c #D4A56C",
"4X c #D3AD6A",
"5X c #CEB165",
"6X c #CCB26B",
"7X c #D2B368",
"8X c #D4B36C",
"9X c #D9B36C",
"0X c #C2A573",
"qX c #C4AC75",
"wX c #C8AB77",
"eX c #CAAD7B",
"rX c #D3AE74",
"tX c #C6B577",
"yX c #C2BC75",
"uX c #CCB47C",
"iX c #CDBC7D",
"pX c #D4B472",
"aX c #D9B472",
"sX c #D7B979",
"dX c #D3BB7C",
"fX c #B6C076",
"gX c #BAC076",
"hX c #BBC178",
"jX c #C7C27B",
"kX c #D7C27C",
"lX c #CDB481",
"zX c #CEBB82",
"xX c #D2B583",
"cX c #D4BC84",
"vX c #DABC85",
"bX c #D4BE89",
"nX c #CEC384",
"mX c #CFC388",
"MX c #D3C384",
"NX c #D9C385",
"BX c #D4C986",
"VX c #D9CC85",
"CX c #D4C48A",
"ZX c #DBC48C",
"AX c #D6CB8A",
"SX c #DBCB8C",
"DX c #DBD086",
"FX c #DDCA91",
"GX c #E1CD91",
/* pixels */
"hXgX|.`.(./.(.(.(.(./.(.(.(.).}.gXgX_.H.J.W.dX6X^.k.k.k.k.k.f.k.k.k.k.k.k.t.C.<XW.J.H.E./._.}.(.(.).(.(.(./.(.(.(.(.(.}.gXgXgXhX",
"gXgX}.`.`.(.(.(././././.(.).).(.(.jXyXJ.W.5XkXsXkX%X5X5X5X5X%X5X5X5X5X5X1X<X5XkX4XJ.J.W._.jX}.H././.(.).).(.(.(.(.).`.}.gXgXfXgX",
"gXgXhX}.(.(.(././.(.[.[.~.E..XyX_.jXkXdXaXaXpXrX:X=XD.+XOXOX+XOXXXoXOXOXOX=X#X>XrXaXpXdXBXkXyX_.{._.E.E.).(./.`.).`.`.|.gX|.gXgX",
"|..X|.}.`.(./.(.`.(.Q.T.W.^.kXkXkXpXpXsX4X:XB.M.w.` Q J W W P W U K P W P _ o.w.B.OX#X:X6XtXdXVXMXiX~.Q./.(.(.`.)._.gX|.|.gXgXgX",
"}..XhXfX}.}.}.).~.Q.I.A.qXvXsXpX6X4X;XS.9.) F 0 0 m V F m F G G H G F V V 0 1 m A D ` 9.N.=X,XpXpXdXNXqXQ.~.[.}.`.gXjX`.|.gX`.|.",
"fXfX.XfX}..X|.~.H.yXjX<X1XaXaX,X=XS.w.{ G 0 1 t R %.q.v.z.v.v.v.N.v.x.e.&.E F m V 0 < 8 F ` w.@X,X8XpXdXiX^.^.{.gXfX(.gXgX_.|.`.",
"}.}.`..X X[.E.Q.jXdXpXpXpX4XOXM.7.) J F t V V ] q.U.0XwXdXNXNXvXuXT.=XV.%.%.%.] ] E E G m 1 A _ g.oX:X4XaXvXqXQ._.fXfX`._.`.gX}.",
"}.}..X.X].Q.tXsXsX8X8X8X=Xw.) H F ~ ,.m.C.m.z.1.<.q.x.U.xXvXvX0Xm.3.3.3.1.b.U.*X*XT.!.V.z.{ H < F _ g.:XpXsXsXiX^.~._.gXfX`.gXgX",
"|..X X~.{.iXdXaX7X9X2XS.{ A 0 ) f.T.rXzXcXcXbXY.z.;.<.3.z.c.z.;.( ( 3.P.lXlXlXbXbXFXmXCXvXwXV.7.D 1 v  .B.,XpXvXdXqXW.|.gXfX|.gX",
" X[.E.tXiXvXpX8XaXOX9.^ t H q.T.sXcXcXNXCXSXFXbXwXb.q.>.( [ ;.( >.v.0XxXbXbXbXbXCXCXCXCXFXSXNXuXV...0 A ^ d.=XpXkXdXtX~.).|.|.|.",
" XQ.A.<XpX8X9X3X@Xo.S m &.F.sXcXBXcXMXzXMXCXCXbXqXn.2.[ ( ( ( ] <.z.0XcXbXbXmXzXmXnXnXnXBXSXFXSXuXm.H m A J w.:X8XsXkXJ.E.yX|.|.",
"Q.^.<X<X6X9XaX@X8.) G E q.P.wXxXcXnXMXnXCXCXlXT.c.1.;.[ 3.3.2.$.( #.i.U.lXbXbXCXmXmXBXAXBXZXBXdXF.,.R ~ J 1 o.@X4X9X7X6X!.W. XyX",
"A.^.pX6X8X9X:XN.) H R ] &.2.t.L.^.iXnXMXiXQ.b.<.#.( 6.P.0XlXwXU.c.2.;.<.b.L.'.bXAXAXAXCXiX'.I.v.( } ;.3.1.) X.0.#X5X9XkX,Xt.~..X",
"A.F.;X6X7X8XB.7.) / / :.3.2.*.;.t.L.!.'.Z.2./ #.<.b.T.xXZXZXZXbXlXY.p.<.#.*.t.L. XzXlX'.m.>.( } ;.t.F.!.=XV.{ D g.%X9XsXT.} A.|.",
"k.A.W.6X8XrX9.] :.F.!.L.b.6.6.6.2.;.#.*.#.*.6.b.T.xXbXbXMXdXnXBXBXMXqXY.i.2.#.=.i.L.b.6.( / ;.q.F.<XkXBXdX1X9.H +.#X9X8XA.} H.|.",
"k.F.1X6X8X1X9.` 9.0XcXNXwXU.m.e.1.%.%.#.#.1.e.lXbXbXbXcXzXnXjXAXAXAXAXCXlXY.6.( #.%.#.#.*.2.c.T.dXVXVXBXBXdXf.t +.l.9X9XJ.~ H.{.",
"a.J.6X6X6X;X,.{ M.wXNXZXcXeXU.e.&.%.%.#.#.<.e.0XxXbXbXCXMXBXAXAXAXSXZXFXbX0Xx.<.%.%.%.%.<.b.!.BXAXVXDXVXkXvXd.t ..D.aX9XJ.} H._.",
"C.G.<X6X6X;X:.7.P.uXMXdX0Xm.q.<.&.%.#.#.%.%.%.6.b.!.lXbXCXAXAXCXBXnXuX0XU.e.<.%.%.%.%.%.%.1.P.tXBXBXVXVXGXZXv.t ..D.aX7XJ.~ J.gX",
"Z.Q.qXpX7X;X..7.,XeXwXP.3.#.<.6.e.e.m.T.n.6.$.%.#.<.L.qXCXCXCXCXnX'.n.1.%.#.<.e.m.L.b.1.%.%.;.c.^.iXVXVXSXNXj.t ..D.9XsXD.} H.jX",
"Z.Y.tXpX8X>X9...V.N.q.;.%.<.i.U.lXeXxXbXlXQ.i.<.( $.<.b.T.lXbXlXY.6.( $.#.e.U.eXxXbXxXeX0X1.( / z.I.iXBXSXNXf.0 ..D.7XaXJ.~ J.gX",
">.m.1X8X8X8Xl.9.| ] ( %.1.n.0XlXcXZXAXSXAXCXtXL.>.( ( #.<.6.6.1.*.( ( 3.P.wXbXZXbXCXSXGXZXF.1.[ [ <.b.wXvXvXN.~ f.#X9XpX+X} H.|.",
"} f.;X1X7X8XoXs.^ ] &.q.U.eXCXCXCXBXAXVXAXAXSXiX!.x.>.#.#./ R p / $.z.T.cXZXAXdXbXMXSXSXAXtXI.3.:.[ %.z.T.0XC...l.%XsXpXD.~ H._.",
"} 9.S.>X2X>X;Xj.) ..m.*XeXbXCXCXCXAXnXnXnXMXAXGXFXuXV.<./ #.#.#.#.*.Y.lXFXCXMXnXkXMXAXSXDXSXcX*Xx.1.] ( [ ..f.N.;X7X8XaXoX} k.`.",
"~ ) 9.;X>X5X7XoX..s.C.iXxXbXCXCXnXCXBXnXnXCXFXSXbXwXm.%.E R ] ] #.<.P.'.CXMXnXAXnXMXAXVXSXSXGXGXwXP.z.| ) | d.;X7X8X9X5Xl.} A._.",
"t t ^ j.;X8X2X%Xl.s...C.<XzXMXbXmXbXCXAXAXZXMXqXL.3.;.( 1.1.<.#.#.#.*.t.L.tXbXCXAXFXFXAXAXSXGXvXvX1XN.+.| f.+X7X8X8X8XD.d.| H.jX",
"t 7 0  .B.:X2X&X%X#Xk...j.W.uXbXCXCXZXFXCXtXY.z.*./ ;.z.P.T.T.T.n.%.( ( ;.Z.'.zXFXFXFXFXSXFXZXsX*XN.+.s.j.#X5X7X8X7X&Xs._ H A.|.",
"t 7 0 H O.B.$X&X2X7X%Xl.9...F.1XvXZXbXxX!.z.( } ( >.Z.!.xXMXCXSXcX'.z.*.( *.3.Y.lXbXFXGXGXZXsXY.s...9.l.%X7X7X5X6X#Xf._ D 1 C..X",
"t 9 V F U o.XX&X2X&X5X7XD.s. .f.=X*X*XP.:./ / ( t.L.'.nXAXAXAXSXSXCXwXP.*.#.#.1.m.0XxXvXZXqXN...s.S.&X2X7X5X5X>X#Xg.' S 1 1 c.{.",
"r 7 0 8 m D ' g.&X&X&X9X&X&Xj.s.+.+.@.O.` ) | z.^.zXBXAXBXMXMXMXNXZXZXcX!.z.( / [ :.q.q.z.,.9.j.@X2X9X9X2X2X;XoX0._ D c c > C.|.",
"r 3 , O 7 < A ^ @.XX$X&X2X2X$Xl.j.s.@.@.O.' ' O.d.Y.,XtXdXdXdXdXvXxXsXrX3Xx.' ) _ ' ' O.s.N.#X,X1X8X4X4X2X@Xj.o.^ G m b < 1 c. X",
"c.p o . @ @ < m L ' s.oX&X2X2X2X&X&X&X&X@XXXg. .| ....q.w.d.d.d.h.j.w.q.w.0.0.0.0.0.XX+X>X>X7X7X8X2X2XoXj.8.W M 8 b b b < , c.{.",
"lX=.  o * @ 8 m c L ^ X.0.XX&X2X2X2X7X9X9X&X$XoXj.s.+.....|  . .O.O.O.+.9.S.$X=X@X-X2X4X4X7X4X2X:XOXh.@._ G m b 8 8 z b < 1 c.|.",
"yX-.:   & - N T C C C Z U _ @.j.oX:X:X4X5X9X8XpX4X$X+XoXoX+X+X#X+XoX+X+X#X>X4X8X8X8X1X>X>X>X2X@Xh.@.Y P M m b b b z ; 8 m R A.|.",
"tX-.:   % - e B B C C C S S S J ' 9.j.OX@X:X,X4X4X8X7X4X2X8X9X9X9X4X4X8X2X4X2X4X2X:X$X+XS.B.g.@.X.Y A c b < z # 8 z 8 0 ) V.<XgX",
"tX-.: o . . * - B T T P G m m 0 m V J ` o.9.d.N.F.=X=X;X:X#X+X$X$X$X$X#X#X+X+XS.S.j.s.O.X._ Y U K S M c b # ; ; ; b < F 9.<X|.gX",
"tX*.  3 q . . . - e T R E T 9 @ . O , 7 0 A J J ) '  .O.+.O.O.O.O.O.+.+.O.| _ ^ ^ ^ U U L L L K Z M b b b b ; 8 b 8 m { d.G.^.|.",
"'.*.  4 w w 4 $ $ % * q w 7 & % $ & & 3 O , m G U P P J K L S S v D D L D S S L P U U P U I I I Z M m B b 8 7 8 N E o.V.N.} J.gX",
"Q.#.: > u u p y $     % % % % y i s 5 % X O - b M P I P K I U L L L L L Y L L Y Y Q Y Y Y I P Z Z M n B B 8 8 V Q w.*XB.+.1 k.jX",
"p.a > q N T R p w o     $ 4 u d s & $ & % @ @ b B P I Y I ! Y Y I I Y Y Y Y Y ^ ! ! Y Y P I K Z Z Z b m V m R &.P.*X*X` m > k.jX",
"5.a   7 e T e t R p u 3 w y y y 2     % X = @ z Z P P I I ! ! Y ! Y Y Y Y ! ! ! ! I I Y Y Y P P Z c M C E :.v.*X*Xw.J v < 1 k.|.",
"-.p   4 - - - 7 V R ] R T - = & $ . * 7 - - # 8 M G K K I Y Y Y Y ! Y Y Y X.Y Y ! Y I Y Y U P S S S I 8.M.OX*X*X7.C < < z 1 m.yX",
"4.i 4 & & X X # b T Q Q Q T T z - X * ; ; ; b m M M K P Y Y Y Y I ^ I I Y Y Y Y Y Y P I D D D ^ ' 8.M.OX-X*Xw.) 9 ; ; z ; < n.yX",
"y.g i $ & & = - N B B Q Q 8.Q Q W G m ; @ # # n G G G I Q Y Y Y I Y ^ ^ ^ Y I U L L U U ) { 0.B.OX-X3X-Xw.o.D # 8 ; ; ; 8 9 m.yX",
"5.g s 2 $   * 7 e V C M P Q X.8.w.7.{ ` _ U S G P G P P I P P G S S L I S S L Y _ { 7.w.N.=X-X3X-XOXw.o.U n < < b b b ; 8 7 m. X",
"r.g s 2 $ % * - e B C C C M M G J ] 7.M.w.w.w.w.w.8.7.8.o.o.X.' ! ' ' X.' X.@.0.B.@X3X3X-XOXN.h.@._ S c c m b 8 ; 8 9 ; 8 0 Z..X",
"r.g g s i y 5 & = 8 B C G M M B N N V G { &.w.w.d.B.=X*X:X:X+X#X#X#X@X#X@X@X@X+XOXOXXXh.w.Q G P c c M c M V b b ; ; ; ; 7 7 Z.|.",
"r.k 5.i p u & . . - 8 V G T T B 9 = X O 7 9 V F H ) { ..7.+.+.+.@.+.O.O.@.@.@.o._ Y D S M M M Y P M M n b B b ; 8 N 8 ; @ > c.|.",
"r.5.=.6 5 w u 5 % . % * q e u y & & $ % % 5 - - 7 < b m c m c c c c v c c v c S M c M K I P Y P U Z C m b B b b ; ; ; ; 8 0 Z.|.",
"k k 5.s X * w u y %   . % % & $ & s d d & & 3 7 8 b B G Z Z K K P S K K S G L U I Y Y Y Y Y I P C C C B b b z b ; ; z z N 9 n..X",
"5.5.5.& = * 5 q u 5 4 $   $ $ & s d d & & & * 7 8 m M I I I I Y Y Y I Y Y U Y Y Y Y ! Y Y Y I I Z C B B B B N z ; z z z z 7 b. X",
"5.5.$.s = - * 7 w w 5 5 y y y y y y &   & & * @ < c K K I I Y ! Y ^ Y ^ Y Y Y Y Y Y ! Y Y I I K K Z C B N z z ; z z z z ; 7 m. X",
"5.5.$.- = = @ - 9 e T u e q y 5 * * & * - - 7 @ # c Z K I I I Y ! ! Y ^ Y Y Y Y ^ Y Y Y ! Y I K C n b l + ; ; z z z ; + ; * b.lX",
"5.5.$.= = = = # @ N F B N 8 ; = = ; - - @ @ # x c c M K I I ! I ! Y Y Y Y ! Y ! ! Y ! Y ! Y I K M b # ; 8 b 9 b ; ; ; @ + O c.tX",
"j 5.5.R s = = = ; < < b B C B b ; # # = + @ ; z x Z Z U P Y ! Y Y Y Y Y Q Y _ Y Y I I I Z Z M c c b n B B B b z ; - = - ; u m. X",
"5.5.5.5.R & = ; 7 # @ < b m G P M M b # @ + # l l b C P P P U P P I I P I P K K K Z M M n x x n Z P Z C b ; 7 7 - * . * u 1.Q. X",
"p.5.5.5.g - q - 7 # < < < m m M M C C M n n b z z x x x b b x b b c c b c x x x # # # x n C P P M M M n b 8 ; @ * * 3 6 a 5.I.'.",
"R.y.k 4.-.h r 4 @ , < @ # b b b m M M M G P P Z C M n n x l # l # x x l l x x l l l x M P G M M n b n n b N 8 7 q 4 r a 4.p.m.W.",
"E.K.y.k k -.a p 3 3 @ @ # 8 b b b M m b n M Z Z Z Z Z Z C Z M M M M M M M M M M M M c M S m n c b n n N b 8 - * 6 p $.-.a.E.L.F.",
"'.E.y.r.h h h j a r 7 7 7 ; 8 x b n n b x c M M n M n n M M M P P Z P P Z Z M M M n M M M c M M n b ; b 9 7 3 5 f j =.y.R.[.E.F.",
"'.].R.a.y.h h r.=.a p 4 7 9 8 b b M n n n x x x c c c x c M Z P P Z C Z M M Z M M M n n c M b n n b b N e 5 d <.-.y.y.R.].|.A.F.",
"[.[.].E.K.u.r.h j j f f u * e b b b m b c b b M M M n n m S K P C Z K M M M M M M M m M m n b m b 9 9 7 w $.-.y.r.a.R.].]..XZ.C.",
"'.}.].].R.R.u.r.k j j =.f i 5 9 9 b b b n b b b n n M b n m M C G C C C M C B M B b b M n b m A e 7 4 p $.5.y.y.K.R.].].}..XA.C.",
"{.|.].(.(./.R.a.a.r.k j j $.a p u 9 7 @ l b b b B M M b b n M C C C C C M M M B m M m m 0 8 , 3 t p r =.y.y.a.R.R.].`.`.}.jXA.c.",
"{..X}.[.(./.(./.R.a.y.k j j 4.=.$.p t V b ; # 1 8 b b b 8 8 m b m b 9 m b 9 m 8 b b 9 7 7 t p r a -.u.u.a.R.E.].].}.fXfXfX|.C.C."
};
